<?xml version="1.0" standalone="no"?>
<!DOCTYPE svg PUBLIC "-//W3C//DTD SVG 1.1//EN" "http://www.w3.org/Graphics/SVG/1.1/DTD/svg11.dtd" >
<svg xmlns="http://www.w3.org/2000/svg" xmlns:xlink="http://www.w3.org/1999/xlink" version="1.1">
<metadata></metadata>
<defs>
<font id="rayonlight" horiz-adv-x="1173" >
<font-face units-per-em="2048" ascent="1536" descent="-512" />
<missing-glyph horiz-adv-x="499" />
<glyph unicode=" "  horiz-adv-x="499" />
<glyph unicode="&#x09;" horiz-adv-x="499" />
<glyph unicode="&#xa0;" horiz-adv-x="499" />
<glyph unicode="!" horiz-adv-x="501" d="M205 373v1110h94v-1110h-94zM317 0h-131v147h131v-147z" />
<glyph unicode="&#x22;" horiz-adv-x="612" d="M164 983v500h76v-500h-76zM395 983v500h76v-500h-76z" />
<glyph unicode="#" horiz-adv-x="1038" d="M510 0l92 465h-278l-93 -465h-73l92 465h-193v70h207l82 413h-203v70h217l93 465h73l-92 -465h279l92 465h74l-93 -465h195v-70h-209l-82 -413h203v-70h-215l-92 -465h-76zM420 948l-82 -413h278l82 413h-278z" />
<glyph unicode="$" horiz-adv-x="1226" d="M573 -221v203q-77 2 -143.5 16.5t-125.5 45t-102 75t-70.5 110.5t-33.5 148l86 8q6 -84 38.5 -146t86.5 -99t119 -56t145 -23v658l-98 26q-60 16 -108.5 35t-96 48.5t-79.5 66t-52 89t-20 114.5q0 92 38.5 168.5t103 126t145 78t167.5 32.5v180h66v-182 q183 -10 304.5 -104.5t135.5 -272.5l-86 -8q-7 74 -37.5 131.5t-80 93t-108.5 54.5t-128 24v-626l100 -27q75 -19 137.5 -49t114.5 -74t81.5 -106.5t29.5 -137.5q0 -98 -37.5 -177.5t-102.5 -130t-147.5 -79t-175.5 -32.5v-201h-66zM713 684l-74 18v-641q72 4 137 26 t118.5 61.5t85.5 103t32 141.5q0 112 -83 184.5t-216 106.5zM209 1104q0 -61 23.5 -108.5t68 -79t91.5 -51.5t110 -36l71 -20v610q-68 -3 -131.5 -24.5t-116 -59.5t-84.5 -98t-32 -133z" />
<glyph unicode="%" horiz-adv-x="1536" d="M233 0l981 1483h89l-981 -1483h-89zM1126 -25q-133 0 -226 102.5t-93 254.5q0 153 92.5 253.5t226.5 100.5t227 -100.5t93 -253.5q0 -152 -93.5 -254.5t-226.5 -102.5zM1126 47q101 0 168.5 80t67.5 205q0 127 -67 204.5t-169 77.5t-169.5 -78.5t-67.5 -203.5t68 -205 t169 -80zM410 797q-134 0 -228 101.5t-94 254.5q0 152 94 253t228 101t226.5 -101t92.5 -253q0 -153 -92.5 -254.5t-226.5 -101.5zM410 868q101 0 168 79.5t67 205.5q0 125 -67.5 204t-167.5 79q-102 0 -169 -79t-67 -204q0 -127 67.5 -206t168.5 -79z" />
<glyph unicode="&#x26;" horiz-adv-x="1439" d="M1305 0l-238 236q-93 -123 -219.5 -191t-272.5 -68q-200 0 -324 106t-124 271q0 75 36.5 146t83 118t108.5 89.5t93 58.5t56 27q-11 10 -52 46.5t-55.5 50.5t-47.5 46.5t-46.5 53.5t-32 51.5t-25.5 60t-7 61.5q0 139 112 240.5t289 101.5q174 0 281.5 -95.5t107.5 -229.5 q0 -62 -35 -126t-81.5 -110t-104.5 -88t-90 -61t-53 -29l399 -399q104 194 104 444v53l84 -4v-49q0 -280 -133 -500l312 -311h-125zM580 57q131 0 242.5 61t191.5 171l-455 452l-37 -18.5t-54.5 -30.5t-67 -43.5t-65 -55t-59.5 -67.5t-40.5 -78.5t-16.5 -89.5 q0 -134 99.5 -217.5t261.5 -83.5zM328 1165q0 -32 13.5 -65t30.5 -58.5t51.5 -61t56 -54.5t67.5 -57.5t63 -53.5q26 14 54.5 31t81 55.5t91.5 77t69 92.5t30 105q0 108 -82 179.5t-215 71.5q-137 0 -224 -76.5t-87 -185.5z" />
<glyph unicode="'" horiz-adv-x="333" d="M139 983v500h80v-500h-80z" />
<glyph unicode="(" horiz-adv-x="524" d="M362 -240q-8 17 -21.5 47t-48 128t-61 200t-48 252.5t-21.5 294.5t20.5 292.5t50 256.5t59 195.5t50.5 132.5l20 45h87q-8 -17 -22 -49t-49 -132t-61.5 -203t-48.5 -251t-22 -287t21 -285t50.5 -255t59.5 -198.5t51 -136.5l21 -47h-87z" />
<glyph unicode=")" horiz-adv-x="524" d="M162 -240h-86q8 17 22 49t49 132t61.5 203t48.5 251t22 287t-21 285t-50.5 255t-59.5 198.5t-51 136.5l-21 47h86q8 -17 21.5 -47t48 -128t61 -200t48 -252.5t21.5 -294.5t-20.5 -292.5t-50 -256.5t-59 -195.5t-50.5 -132.5z" />
<glyph unicode="*" horiz-adv-x="679" d="M49 1255v58h240l-131 221l61 8l121 -203l121 203l63 -8l-133 -221h240v-58h-242l135 -221l-63 -8l-121 201l-121 -201l-61 8l131 221h-240z" />
<glyph unicode="+" d="M547 104v437h-449v75h449v437h82v-437h448v-75h-448v-437h-82z" />
<glyph unicode="," horiz-adv-x="483" d="M168 -311l-8 61q84 30 126 102t27 148h-137v147h49q87 0 129 -80q43 -80 14 -180q-34 -117 -147 -176q-25 -13 -53 -22z" />
<glyph unicode="-" horiz-adv-x="679" d="M59 551v78h562v-78h-562z" />
<glyph unicode="." horiz-adv-x="483" d="M307 0h-131v147h131v-147z" />
<glyph unicode="/" horiz-adv-x="843" d="M-16 -49l792 1581h84l-790 -1581h-86z" />
<glyph unicode="0" horiz-adv-x="1175" d="M588 -20q-218 0 -348.5 206t-130.5 555t130.5 555.5t348.5 206.5q216 0 347.5 -207t131.5 -555t-131 -554.5t-348 -206.5zM588 68q177 0 279 180.5t102 492.5t-102 493t-279 181q-178 0 -279.5 -180.5t-101.5 -493.5t101.5 -493t279.5 -180z" />
<glyph unicode="1" d="M618 0v1221q-3 -7 -10 -19t-33 -44.5t-56.5 -60t-82 -57t-108.5 -43.5l-33 -8v92l33 9q122 30 208.5 148.5t86.5 244.5h94v-1483h-99z" />
<glyph unicode="2" d="M164 0v115q327 305 389 365q226 222 307 364q68 121 68 235q0 148 -92 243t-230 95q-152 0 -252 -100t-110 -268l-92 8q11 195 137 320.5t317 125.5q179 0 297.5 -120t118.5 -304q0 -57 -17 -116.5t-46 -115.5t-77.5 -121.5t-100 -124t-126.5 -134t-144 -141.5t-164 -156 q-56 -53 -85 -80v-8h789v-82h-887z" />
<glyph unicode="3" d="M586 -20q-92 0 -171 24t-141.5 72t-100.5 125t-44 176l90 8q5 -84 36.5 -147.5t82 -101.5t112.5 -56.5t134 -18.5q152 0 252 91t100 241q0 159 -101.5 246.5t-256.5 87.5h-107v80h107q144 0 238.5 89.5t94.5 217.5q0 136 -91 221.5t-236 85.5t-238 -82.5t-108 -234.5 l-88 8q15 183 134.5 287t301.5 104t300 -110.5t118 -272.5q0 -129 -80 -223.5t-181 -122.5v-10q40 -10 77.5 -27.5t77 -49t68.5 -71.5t47.5 -99t18.5 -128q0 -182 -126.5 -295.5t-319.5 -113.5z" />
<glyph unicode="4" d="M795 0v373h-732v90l736 1030h90v-1038h194v-82h-194v-373h-94zM150 455h645v901z" />
<glyph unicode="5" d="M578 -20q-169 0 -290 101t-138 261l86 6q17 -126 112.5 -206.5t226.5 -80.5q159 0 266 115.5t107 302.5q0 182 -98.5 290t-253.5 108q-67 0 -129.5 -26t-102.5 -63t-61.5 -63t-28.5 -39l-84 12l109 785h668v-82h-598l-86 -602h8l13 14q12 14 24.5 26t33.5 30t46 32.5 t56 28t69 21t79 7.5q187 0 308.5 -132t121.5 -345q0 -220 -132.5 -360.5t-331.5 -140.5z" />
<glyph unicode="6" d="M612 -20q-71 0 -136.5 20t-126 65.5t-105 112.5t-71 168.5t-26.5 226.5v62q0 169 26 311.5t72 244t108.5 173t135.5 105.5t152 34q145 0 237 -72t126 -196l-86 -10q-66 198 -277 198q-169 0 -282.5 -188t-122.5 -528h8q22 40 56 79t82 76.5t114 60.5t137 23q87 0 166 -34 t139 -95t95.5 -151.5t35.5 -196.5q0 -210 -132.5 -349.5t-324.5 -139.5zM612 59q152 0 257.5 114t105.5 294q0 181 -102 290t-252 109t-263.5 -110.5t-113.5 -249.5q0 -204 107 -325.5t261 -121.5z" />
<glyph unicode="7" d="M461 0q0 402 123.5 759t349.5 627v13h-807v84h913v-82q-483 -587 -483 -1401h-96z" />
<glyph unicode="8" d="M588 -20q-198 0 -329.5 120.5t-131.5 307.5q0 80 30.5 149.5t78.5 116t98.5 76.5t99.5 43v10q-102 28 -177 115t-75 215q0 155 117 262.5t289 107.5q170 0 286.5 -108t116.5 -262q0 -128 -75.5 -215t-174.5 -115v-10q49 -13 99 -43t99 -76.5t79.5 -116t30.5 -149.5 q0 -187 -132 -307.5t-329 -120.5zM588 57q155 0 260.5 98.5t105.5 254.5q0 144 -105 246t-261 102q-157 0 -262 -101t-105 -247q0 -156 105.5 -254.5t261.5 -98.5zM588 827q134 0 224.5 87.5t90.5 213.5q0 129 -88.5 214t-226.5 85q-137 0 -227.5 -85t-90.5 -214 q0 -125 92 -213t226 -88z" />
<glyph unicode="9" d="M561 1503q71 0 136.5 -20t126 -65.5t105 -113t71 -169t26.5 -226.5v-61q0 -169 -26 -311.5t-72 -244t-108.5 -173t-135.5 -105.5t-152 -34q-145 0 -236.5 72t-125.5 196l86 10q66 -199 276 -199q170 0 283.5 188.5t122.5 528.5h-8q-22 -40 -56 -79t-82 -76.5t-114 -60.5 t-137 -23q-87 0 -166 34t-139 95t-96 151.5t-36 196.5q0 210 132.5 349.5t324.5 139.5zM561 1423q-152 0 -257 -113.5t-105 -293.5q0 -181 102 -290.5t252 -109.5q99 0 186.5 52t139 135.5t51.5 173.5q0 203 -107.5 324.5t-261.5 121.5z" />
<glyph unicode=":" horiz-adv-x="485" d="M307 0h-131v147h131v-147zM307 918h-131v147h131v-147z" />
<glyph unicode=";" horiz-adv-x="485" d="M168 -311l-8 61q84 30 126 102t27 148h-137v147h49q87 0 129 -80q43 -80 14 -180q-34 -117 -147 -176q-25 -13 -53 -22zM307 918h-131v147h131v-147z" />
<glyph unicode="&#x3c;" d="M111 539v98l903 385v-84l-817 -344v-12l817 -344v-86z" />
<glyph unicode="=" d="M113 756v75h948v-75h-948zM113 373v78h948v-78h-948z" />
<glyph unicode="&#x3e;" d="M1063 637v-98l-903 -387v86l817 344v12l-817 344v84z" />
<glyph unicode="?" horiz-adv-x="1095" d="M465 330q-13 77 2.5 144t50.5 118t80 98t93 93.5t88 94t65.5 110.5t25.5 134q0 132 -94 214.5t-235 82.5t-239 -82t-112 -241l-88 8q13 189 136.5 295t304.5 106q182 0 303 -107t121 -272q0 -81 -26 -151t-66.5 -121t-88.5 -98.5t-94 -92.5t-82 -92t-52.5 -108.5 t-4.5 -132.5h-88zM578 0h-132v141h132v-141z" />
<glyph unicode="@" horiz-adv-x="1984" d="M969 -399q-246 0 -434.5 97.5t-295 284t-106.5 437.5q0 153 43.5 298t128.5 266.5t200 212.5t267.5 142.5t323.5 51.5q225 0 399 -101t266 -270.5t92 -376.5q0 -144 -43 -269t-112 -208t-155.5 -130.5t-174.5 -47.5q-84 0 -124 41t-40 114v29l2 10q-116 -194 -305 -194 q-151 0 -239.5 113.5t-88.5 291.5q0 159 66.5 303.5t178 232t235.5 87.5q43 0 81.5 -11t64.5 -29t47.5 -39t34 -42.5t21 -39.5t12.5 -29l3 -11l33 184h80l-142 -811q-10 -56 10.5 -91.5t81.5 -35.5q47 0 100 23.5t106 72.5t95 115.5t68.5 163t26.5 205.5q0 144 -47 268.5 t-133.5 216t-216.5 143.5t-287 52q-192 0 -358.5 -74t-280 -197.5t-178 -287t-64.5 -340.5q0 -346 207.5 -549t554.5 -203q223 0 446 94l11 -71q-223 -92 -461 -92zM918 61q115 0 203 94.5t128 282.5l33 180q22 127 -43 225.5t-186 98.5q-103 0 -196 -79.5t-147.5 -205.5 t-54.5 -260q0 -146 69.5 -241t193.5 -95z" />
<glyph unicode="A" horiz-adv-x="1345" d="M18 0l596 1483h117l596 -1483h-102l-215 541h-678l-215 -541h-99zM668 1378l-301 -751h608l-297 751h-10z" />
<glyph unicode="B" horiz-adv-x="1343" d="M180 0v1483h584q178 0 294 -101t116 -268q0 -71 -22 -130t-59.5 -99t-79.5 -66t-89 -39v-8q54 -13 103.5 -40t95 -70t73 -110t27.5 -149q0 -186 -128.5 -294.5t-324.5 -108.5h-590zM276 82h480q164 0 266 86.5t102 239.5q0 152 -102 236.5t-266 84.5h-480v-647zM276 811 h476q148 0 236.5 79.5t88.5 215.5q0 137 -88 216t-237 79h-476v-590z" />
<glyph unicode="C" horiz-adv-x="1517" d="M809 -23q-143 0 -268 57t-214.5 157t-141.5 243t-52 307t52 307t141.5 243t214.5 157t268 57q230 0 391.5 -136.5t200.5 -352.5l-96 -8q-39 184 -173.5 296.5t-322.5 112.5q-161 0 -293 -86.5t-207.5 -241.5t-75.5 -348q0 -145 44.5 -271t121 -214.5t183 -139 t227.5 -50.5q188 0 322 111.5t174 297.5l96 -8q-39 -218 -200 -354t-392 -136z" />
<glyph unicode="D" horiz-adv-x="1513" d="M180 0v1483h479q324 0 522.5 -200t198.5 -538q0 -168 -52.5 -307.5t-147 -235.5t-228.5 -149t-293 -53h-479zM276 86h375q287 0 459 179t172 480q0 300 -171.5 476t-459.5 176h-375v-1311z" />
<glyph unicode="E" horiz-adv-x="1271" d="M180 0v1483h987v-86h-891v-574h816v-86h-816v-651h893v-86h-989z" />
<glyph unicode="F" horiz-adv-x="1220" d="M180 0v1483h961v-86h-865v-598h811v-86h-811v-713h-96z" />
<glyph unicode="G" horiz-adv-x="1560" d="M827 -23q-201 0 -359 97t-246.5 271t-88.5 396q0 165 53 307.5t145 242.5t221 157t277 57q115 0 215.5 -33t172 -90t120.5 -129.5t72 -156.5l-92 -13q-46 145 -173.5 239.5t-316.5 94.5q-170 0 -306 -87.5t-212 -242t-76 -346.5q0 -194 74.5 -347.5t210.5 -240.5t309 -87 q86 0 164 21.5t133 54.5t99.5 76t70.5 82.5t39 76.5v293h-483v86h575v-394q-14 -44 -45.5 -93.5t-85 -102t-119.5 -94t-157 -68.5t-191 -27z" />
<glyph unicode="H" horiz-adv-x="1464" d="M180 0v1483h96v-652h912v652h96v-1483h-96v745h-912v-745h-96z" />
<glyph unicode="I" horiz-adv-x="454" d="M180 0v1483h96v-1483h-96z" />
<glyph unicode="J" horiz-adv-x="1101" d="M496 -23q-190 0 -300 111t-110 305v41l94 4v-28q0 -169 82.5 -258t233.5 -89q161 0 252.5 98t91.5 283v1039h98v-1049q0 -213 -120 -335t-322 -122z" />
<glyph unicode="K" horiz-adv-x="1347" d="M1204 0l-637 766l-291 -281v-485h-96v1483h96v-889l242 231l-2 2h4l664 656h119l-668 -656l692 -827h-123z" />
<glyph unicode="L" horiz-adv-x="1204" d="M180 0v1483h96v-1397h879v-86h-975z" />
<glyph unicode="M" horiz-adv-x="1798" d="M180 0v1483h139l576 -1352h8l576 1352h139v-1483h-96v1352h-9l-575 -1352h-82l-575 1352h-9v-1352h-92z" />
<glyph unicode="N" horiz-adv-x="1484" d="M180 0v1483h129l893 -1358h8v1358h97v-1483h-131l-893 1358h-9v-1358h-94z" />
<glyph unicode="O" horiz-adv-x="1619" d="M811 -23q-147 0 -274 58.5t-215.5 160t-138.5 242.5t-50 303t50 303t138.5 242.5t215.5 160t274 58.5q195 0 350 -99.5t240.5 -274t85.5 -390.5t-85.5 -390.5t-240.5 -274t-350 -99.5zM811 66q125 0 233 51.5t182.5 141.5t117 214.5t42.5 267.5q0 191 -72 345t-204 242.5 t-299 88.5q-168 0 -300.5 -88.5t-205 -242.5t-72.5 -345t72.5 -345t205 -242t300.5 -88z" />
<glyph unicode="P" horiz-adv-x="1318" d="M180 0v1483h561q213 0 352.5 -117t139.5 -305q0 -189 -139.5 -307.5t-352.5 -118.5h-465v-635h-96zM276 721h461q178 0 288 92t110 246t-110 246t-288 92h-461v-676z" />
<glyph unicode="Q" horiz-adv-x="1619" d="M811 -23q-147 0 -274 58.5t-215.5 160t-138.5 242.5t-50 303t50 303t138.5 242.5t215.5 160t274 58.5q195 0 350 -99.5t240.5 -274t85.5 -390.5q0 -187 -65.5 -344.5t-182.5 -261.5q51 -59 109.5 -94t146.5 -45l-12 -74q-106 11 -173 53.5t-128 116.5 q-162 -115 -371 -115zM844 336l12 74q50 -5 94 -19.5t74 -31.5t61 -45t49.5 -49.5t45.5 -55.5q98 93 152 230.5t54 301.5q0 191 -72 345t-204 242.5t-299 88.5q-168 0 -300.5 -88.5t-205 -242.5t-72.5 -345t72.5 -345t205 -242t300.5 -88q176 0 313 98q-30 37 -52.5 60.5 t-56.5 49.5t-76.5 41t-94.5 21z" />
<glyph unicode="R" horiz-adv-x="1417" d="M180 0v1483h586q208 0 337.5 -122t129.5 -296q0 -172 -131 -286t-346 -124q87 -41 166 -133l434 -522h-115l-416 498q-68 83 -138.5 114t-184.5 31h-226v-643h-96zM276 725h439q194 0 308 92t114 244q0 151 -106 243.5t-279 92.5h-476v-672z" />
<glyph unicode="S" horiz-adv-x="1343" d="M666 -23q-114 0 -210.5 25.5t-173.5 76t-124.5 133t-57.5 189.5l93 9q13 -119 80.5 -199t167 -115t227.5 -35q124 0 226 38.5t164 115.5t62 178q0 115 -88 182.5t-258 108.5l-231 57q-75 19 -130.5 38t-111 49t-90.5 66.5t-56.5 89t-21.5 116.5q0 119 74.5 213t194.5 143 t260 49t255.5 -44t192 -135.5t88.5 -217.5l-92 -8q-19 158 -143 239.5t-304 81.5q-113 0 -209.5 -38t-157.5 -111.5t-61 -167.5q0 -61 25 -107.5t75 -78.5t105 -52.5t135 -40.5l232 -57q98 -24 168.5 -52.5t129 -71.5t88.5 -105t30 -142q0 -129 -75 -226t-199.5 -145.5 t-278.5 -48.5z" />
<glyph unicode="T" horiz-adv-x="1286" d="M594 0v1397h-528v86h1157v-86h-531v-1397h-98z" />
<glyph unicode="U" horiz-adv-x="1456" d="M729 -20q-259 0 -412 143t-153 387v973h98v-965q0 -211 124.5 -330.5t342.5 -119.5q216 0 341.5 119.5t125.5 330.5v965h96v-973q0 -244 -152.5 -387t-410.5 -143z" />
<glyph unicode="V" horiz-adv-x="1304" d="M596 0l-576 1483h105l524 -1364h8l527 1364h100l-577 -1483h-111z" />
<glyph unicode="W" horiz-adv-x="1988" d="M1399 0l-404 1352l-405 -1352h-119l-418 1483h99l378 -1362h9l403 1362h107l403 -1362h8l379 1362h96l-417 -1483h-119z" />
<glyph unicode="X" horiz-adv-x="1263" d="M49 0l518 750l-497 733h110l453 -674l452 674h109l-498 -733l518 -750h-110l-475 690l-473 -690h-107z" />
<glyph unicode="Y" horiz-adv-x="1249" d="M575 0v600l-583 883h110l519 -785h12l518 785h104l-581 -883v-600h-99z" />
<glyph unicode="Z" horiz-adv-x="1318" d="M113 0v78l972 1317h-972v88h1093v-78l-973 -1317h973v-88h-1093z" />
<glyph unicode="[" horiz-adv-x="550" d="M201 -233v1841h282v-70h-204v-1702h198v-69h-276z" />
<glyph unicode="\" horiz-adv-x="843" d="M68 1532l792 -1581h-86l-790 1581h84z" />
<glyph unicode="]" horiz-adv-x="559" d="M377 1608v-1841h-277v69h199v1702h-205v70h283z" />
<glyph unicode="^" horiz-adv-x="935" d="M57 756l367 727h88l367 -727h-88l-320 628h-8l-318 -628h-88z" />
<glyph unicode="_" horiz-adv-x="1075" d="M29 -219v35h1015v-35h-1015z" />
<glyph unicode="`" horiz-adv-x="532" d="M266 1235l-252 287h92l254 -287h-94z" />
<glyph unicode="a" horiz-adv-x="1075" d="M436 -20q-138 0 -224.5 77t-86.5 207q0 124 76 200.5t202 108.5l420 107v37q0 280 -272 280q-276 0 -307 -209l-86 9q17 140 123.5 208t273.5 68q170 0 264 -88t94 -260v-397q0 -212 21 -312v-16h-86q-21 79 -21 188v17h-8q-21 -39 -51 -74t-76 -71.5t-112.5 -58 t-143.5 -21.5zM451 55q154 0 263 105.5t109 253.5v188l-397 -100q-94 -23 -151.5 -82t-57.5 -152q0 -95 65 -154t169 -59z" />
<glyph unicode="b" horiz-adv-x="1175" d="M174 0v1518h92v-670q11 30 35 64t64.5 72.5t106 63.5t142.5 25q194 0 321.5 -152t127.5 -397q0 -161 -60 -286t-162 -191.5t-227 -66.5q-78 0 -144 24.5t-107.5 62t-66.5 71.5t-36 63v-201h-86zM596 59q166 0 270.5 129t104.5 336q0 206 -105 336.5t-268 130.5 q-144 0 -238 -105.5t-94 -256.5v-213q0 -149 95 -253t235 -104z" />
<glyph unicode="c" horiz-adv-x="1085" d="M580 -20q-200 0 -337 153t-137 393t137 393.5t337 153.5q159 0 273 -97t142 -247l-90 -8q-27 122 -114.5 196t-210.5 74q-163 0 -272 -130t-109 -335q0 -206 108.5 -335.5t272.5 -129.5q124 0 212 75.5t113 203.5l90 -8q-25 -155 -140 -253.5t-275 -98.5z" />
<glyph unicode="d" d="M555 -20q-193 0 -318.5 151t-125.5 395t129 395.5t321 151.5q63 0 118 -16.5t92 -40t66.5 -54.5t45 -56t24.5 -48v660h92v-1518h-86v213q-9 -23 -25.5 -50t-48 -60.5t-70 -60t-95 -44.5t-119.5 -18zM573 59q144 0 239 107t95 258v215q0 150 -92.5 252t-236.5 102 q-165 0 -270 -129.5t-105 -337.5q0 -207 103 -337t267 -130z" />
<glyph unicode="e" horiz-adv-x="1122" d="M584 -20q-208 0 -343 151t-135 393q0 241 136 395t338 154q194 0 314 -136t120 -343v-72h-813v-22q3 -195 111.5 -319t271.5 -124q124 0 207 67.5t116 174.5l86 -10q-35 -135 -143 -222t-266 -87zM203 600h719v21q0 159 -95.5 266.5t-246.5 107.5q-156 0 -261 -115 t-116 -280z" />
<glyph unicode="f" horiz-adv-x="669" d="M256 0v975h-184v78h184v194q0 142 78 211.5t207 69.5q57 0 159 -21l-8 -75q-104 18 -143 18q-102 0 -151.5 -52.5t-49.5 -160.5v-184h250v-78h-250v-975h-92z" />
<glyph unicode="g" horiz-adv-x="1161" d="M557 -426q-163 0 -265.5 69.5t-119.5 202.5l86 11q14 -104 93.5 -155.5t203.5 -51.5q70 0 129 19t108 59t77 110t28 164v219q-11 -30 -35 -63.5t-64 -71t-105 -62t-142 -24.5q-194 0 -317 150.5t-123 386.5q0 235 124 385.5t318 150.5q74 0 138.5 -24t105.5 -60.5t66 -70 t36 -62.5v197h90v-1059q0 -137 -59 -233.5t-155 -141.5t-218 -45zM569 80q141 0 233.5 101.5t92.5 248.5v213q0 146 -94 249t-232 103q-163 0 -264.5 -130t-101.5 -328t100.5 -327.5t265.5 -129.5z" />
<glyph unicode="h" horiz-adv-x="1128" d="M174 0v1518h92v-684q9 23 24.5 49t46.5 61.5t68 62.5t93.5 46.5t119.5 19.5q355 0 355 -426v-647h-92v635q0 182 -70 269t-213 87q-142 0 -237 -112t-95 -269v-610h-92z" />
<glyph unicode="i" horiz-adv-x="448" d="M178 0v1053h92v-1053h-92zM270 1335h-92v148h92v-148z" />
<glyph unicode="j" horiz-adv-x="448" d="M31 -408q-46 0 -117 13l8 82q74 -11 96 -11q79 0 119.5 35.5t40.5 120.5v1221h92v-1235q0 -113 -64 -169.5t-175 -56.5zM270 1335h-92v148h92v-148z" />
<glyph unicode="k" horiz-adv-x="1032" d="M856 0l-422 512l-168 -176v-336h-92v1518h92v-1072l123 129l455 478h110l-456 -478l473 -575h-115z" />
<glyph unicode="l" horiz-adv-x="438" d="M174 0v1518h92v-1518h-92z" />
<glyph unicode="m" horiz-adv-x="1744" d="M168 0v1053h84v-211q9 22 24.5 48t45.5 59.5t66 60t89 45t111 18.5q117 0 197.5 -69t107.5 -185q12 32 36.5 70t67 82t110 73t146.5 29q154 0 244 -109.5t90 -299.5v-664h-90v647q0 161 -70 251.5t-198 90.5t-216.5 -106t-88.5 -260v-623h-93v647q0 160 -70 251t-198 91 q-130 0 -217.5 -106t-87.5 -260v-623h-90z" />
<glyph unicode="n" horiz-adv-x="1124" d="M168 0v1053h86v-222q9 23 24.5 49t47 62t69.5 64t95.5 47.5t121.5 19.5q355 0 355 -426v-647h-93v635q0 182 -68.5 269t-213.5 87q-142 0 -237 -112t-95 -269v-610h-92z" />
<glyph unicode="o" horiz-adv-x="1167" d="M584 -20q-133 0 -241.5 67t-172.5 192.5t-64 286.5q0 242 137.5 394.5t340.5 152.5q204 0 340.5 -152.5t136.5 -394.5q0 -243 -136 -394.5t-341 -151.5zM584 61q163 0 274 128t111 337q0 207 -111.5 336t-273.5 129t-273.5 -129t-111.5 -336q0 -209 111 -337t274 -128z " />
<glyph unicode="p" d="M174 -406v1459h86v-213q9 23 25.5 50t48 60.5t70 60t95 44.5t119.5 18q191 0 317 -152t126 -397q0 -161 -60 -286t-162 -191.5t-227 -66.5q-63 0 -118 16.5t-92 40t-66.5 54.5t-45 56t-24.5 48v-601h-92zM596 59q165 0 269 129.5t104 335.5q0 207 -103 337t-266 130 q-145 0 -239.5 -105.5t-94.5 -256.5v-215q0 -151 91.5 -253t238.5 -102z" />
<glyph unicode="q" d="M907 -406v611q-9 -23 -24.5 -49t-46 -58.5t-68 -57.5t-93 -42.5t-118.5 -17.5q-193 0 -319.5 151t-126.5 395t128.5 395.5t319.5 151.5q63 0 119 -17t94 -42t69 -57t47 -58t25 -49v203h86v-1459h-92zM578 59q143 0 236 106t93 257v213q0 149 -95.5 253.5t-236.5 104.5 q-165 0 -268.5 -129t-103.5 -338q0 -206 105 -336.5t270 -130.5z" />
<glyph unicode="r" horiz-adv-x="694" d="M168 0v1053h86v-230q50 118 125.5 180t171.5 62q44 0 74 -10l-7 -84q-40 8 -71 8q-122 0 -204.5 -117t-82.5 -274v-588h-92z" />
<glyph unicode="s" horiz-adv-x="1052" d="M522 -20q-171 0 -280.5 76t-122.5 231l86 8q27 -240 317 -240q130 0 218.5 63.5t88.5 160.5q0 45 -17.5 77.5t-54 54.5t-71.5 34.5t-92 27.5l-154 41q-51 14 -89.5 28t-80 36.5t-67.5 49.5t-43 67t-17 89q0 130 110 209.5t269 79.5q162 0 265.5 -71t117.5 -214l-86 -8 q-26 217 -297 217q-120 0 -203 -58t-83 -151q0 -36 13.5 -64t32 -46t52.5 -34.5t60 -25t71 -20.5l153 -41q69 -18 118 -38t94.5 -51.5t68.5 -77.5t23 -107q0 -95 -55.5 -165t-145 -104t-199.5 -34z" />
<glyph unicode="t" horiz-adv-x="692" d="M461 -12q-102 0 -154.5 57.5t-52.5 171.5v758h-195v78h195v301h92v-301h256v-78h-256v-742q0 -81 29 -122t96 -41t127 24l8 -82q-66 -24 -145 -24z" />
<glyph unicode="u" horiz-adv-x="1124" d="M512 -20q-174 0 -264 103.5t-90 322.5v647h92v-635q0 -182 69 -269.5t213 -87.5q142 0 237 112t95 269v611h92v-1053h-86v221q-9 -23 -24.5 -49t-47 -62t-69.5 -63.5t-95.5 -47t-121.5 -19.5z" />
<glyph unicode="v" horiz-adv-x="1007" d="M453 0l-412 1053h98l361 -936h10l360 936h97l-414 -1053h-100z" />
<glyph unicode="w" horiz-adv-x="1591" d="M1110 0l-315 950l-314 -950h-106l-322 1053h94l283 -934h8l307 934h103l307 -934h10l279 934h94l-321 -1053h-107z" />
<glyph unicode="x" horiz-adv-x="997" d="M57 0l381 541l-370 512h104l330 -459l327 459h101l-371 -512l381 -541h-102l-342 485l-338 -485h-101z" />
<glyph unicode="y" horiz-adv-x="991" d="M219 -410q-43 0 -100 17l10 80q50 -15 84 -15q68 0 108.5 40.5t69.5 117.5l58 158l-410 1065h98l359 -936h8l352 936h96l-481 -1252q-41 -107 -98.5 -159t-153.5 -52z" />
<glyph unicode="z" horiz-adv-x="1024" d="M106 0v70l697 905h-697v78h812v-70l-695 -905h695v-78h-812z" />
<glyph unicode="{" horiz-adv-x="550" d="M494 -240q-120 0 -170 65t-50 226v268q0 58 -4 100.5t-16.5 86t-34.5 71t-59.5 46t-89.5 20.5v76q64 4 106.5 29.5t62.5 72.5t27.5 98t7.5 123v271q0 119 23 182.5t68.5 86t128.5 22.5v-68q-41 0 -66 -7.5t-41 -20.5t-23.5 -44.5t-9.5 -65t-2 -95.5v-261 q0 -331 -188 -356v-8q188 -25 188 -359v-260q0 -45 1.5 -72.5t6 -57t13.5 -45.5t25 -30.5t39.5 -20t56.5 -5.5v-68z" />
<glyph unicode="|" horiz-adv-x="456" d="M195 -410v2003h67v-2003h-67z" />
<glyph unicode="}" horiz-adv-x="559" d="M74 -240v68q40 0 66 10t41 25t22.5 47.5t9.5 63t2 85.5v260q0 334 188 359v8q-188 25 -188 356v261q0 45 -1 71.5t-3.5 55t-9 43t-16 29t-25.5 21t-36.5 10t-49.5 3.5v68q83 0 128 -22.5t68 -86t23 -182.5v-271q0 -72 7.5 -123t28 -98t63 -72.5t106.5 -29.5v-76 q-64 -3 -106.5 -28.5t-63 -73t-28 -98.5t-7.5 -124v-268q0 -161 -49.5 -226t-169.5 -65z" />
<glyph unicode="~" d="M817 606q-57 0 -123.5 25.5t-117.5 56.5t-113 56.5t-111 25.5q-67 0 -107 -49t-48 -117l-74 6q8 104 67 173t166 69q57 0 123.5 -25.5t117 -55.5t112 -55.5t110.5 -25.5q70 0 110 46t48 118l74 -6q-10 -110 -67.5 -176t-166.5 -66z" />
<glyph unicode="&#xa1;" horiz-adv-x="501" />
<glyph unicode="&#xa2;" horiz-adv-x="1089" d="M543 -303v303q-188 15 -312.5 161t-124.5 365q0 218 124.5 364t312.5 161v305h80v-305q149 -12 250 -104t128 -228l-88 -8q-30 121 -117 194.5t-214 73.5q-164 0 -272.5 -127t-108.5 -326t108.5 -325.5t272.5 -126.5q127 0 214.5 75t116.5 197l88 -8 q-28 -141 -130 -234.5t-248 -103.5v-303h-80z" />
<glyph unicode="&#xa3;" horiz-adv-x="1232" d="M117 655v74h176v318q0 211 114 333.5t300 122.5q173 0 281.5 -97t129.5 -288l-88 -10q-20 159 -103 237t-218 78q-150 0 -235 -101t-85 -278v-315h457v-74h-457v-196q0 -240 -145 -369v-8h907v-82h-1010v86q152 134 152 383v186h-176z" />
<glyph unicode="&#xa4;" horiz-adv-x="1185" d="M1032 1133l49 -50l-182 -184q84 -108 84 -252q0 -149 -84 -254l182 -182l-49 -49l-184 180q-106 -86 -256 -86q-145 0 -254 88l-182 -178l-52 49l183 180q-84 108 -84 252q0 147 82 252l-181 184l52 50l178 -183q110 92 258 92q152 0 256 -90zM592 328q142 0 228.5 88.5 t86.5 230.5q0 144 -88.5 234t-226.5 90q-139 0 -225 -89.5t-86 -234.5q0 -140 90.5 -229.5t220.5 -89.5z" />
<glyph unicode="&#xa5;" horiz-adv-x="1243" d="M135 641v66h393l-536 776h112l517 -748h8l516 748h106l-534 -776h391v-66h-436v-188h436v-66h-436v-387h-99v387h-438v66h438v188h-438z" />
<glyph unicode="&#xa6;" horiz-adv-x="372" d="M147 -119v723h78v-723h-78zM147 858v721h78v-721h-78z" />
<glyph unicode="&#xa7;" horiz-adv-x="1157" d="M582 1436q-117 0 -195 -60t-78 -157q0 -39 13 -71t30.5 -52.5t50 -40.5t56.5 -30.5t65 -25.5l217 -79q281 -99 281 -318q0 -52 -17.5 -100t-46.5 -84t-54.5 -59.5t-51.5 -41.5q86 -73 86 -190q0 -131 -102.5 -215t-260.5 -84q-157 0 -256 73.5t-114 217.5l86 6 q13 -116 89 -169.5t195 -53.5q117 0 195 60.5t78 156.5q0 40 -13 72t-30.5 53t-50 40.5t-56.5 29.5t-65 26l-217 78q-131 48 -206 123.5t-75 195.5q0 50 17.5 97.5t46.5 84.5t53.5 60.5t50.5 42.5q-84 74 -84 190q0 130 103 214.5t260 84.5t256 -74t114 -216l-86 -9 q-13 117 -89 170.5t-195 53.5zM659 414q88 -31 132 -56q143 103 143 236q0 96 -57 154.5t-162 97.5l-217 80q-82 26 -131 53q-144 -100 -144 -236q0 -95 57.5 -153t161.5 -96z" />
<glyph unicode="&#xa8;" horiz-adv-x="800" d="M631 1335h-92v148h92v-148zM264 1335h-92v148h92v-148z" />
<glyph unicode="&#xa9;" horiz-adv-x="1798" d="M899 -20q-167 0 -310.5 58t-243 159.5t-156 242t-56.5 301.5t56.5 302t156 242t243 159.5t310.5 58.5q166 0 309.5 -58.5t244 -159.5t157.5 -242t57 -302q0 -215 -97 -388.5t-273 -273t-398 -99.5zM899 33q206 0 368 92.5t250.5 254t88.5 361.5t-88.5 361.5t-250.5 254.5 t-368 93t-368 -93t-250 -254.5t-88 -361.5q0 -150 51.5 -280.5t143.5 -225t224 -148.5t287 -54zM918 270q-184 0 -309.5 133t-125.5 338q0 204 125.5 336.5t309.5 132.5q151 0 253 -83t129 -214l-75 -8q-27 108 -107.5 173t-197.5 65q-153 0 -255 -113t-102 -289 q0 -177 101.5 -289t255.5 -112q117 0 197.5 66t107.5 174l75 -7q-28 -135 -131 -219t-251 -84z" />
<glyph unicode="&#xaa;" horiz-adv-x="843" d="M358 721q-102 0 -166.5 58t-64.5 153q0 86 58 138t147 75l286 76v61q0 162 -182 162q-189 0 -209 -141l-71 8q13 98 91 145t191 47q121 0 187.5 -56t66.5 -161v-344q0 -132 8 -194v-17h-65q-8 58 -8 123v8h-9q-14 -24 -34 -46t-51 -45t-76.5 -36.5t-98.5 -13.5zM371 780 q107 0 177 69t70 173v141l-264 -65q-69 -16 -111 -57t-42 -107q0 -68 47 -111t123 -43z" />
<glyph unicode="&#xab;" horiz-adv-x="911" d="M80 553v78l381 401v-106l-318 -330v-8l318 -332v-106zM426 553v78l383 401v-106l-317 -330v-8l317 -332v-106z" />
<glyph unicode="&#xac;" d="M1065 819v-481h-51v434h-948v47h999z" />
<glyph unicode="&#xad;" horiz-adv-x="679" d="M59 551v78h562v-78h-562z" />
<glyph unicode="&#xae;" horiz-adv-x="1384" d="M692 524q-161 0 -293 71.5t-210 204t-78 300.5q0 126 45.5 234.5t124 182.5t185 116t226.5 42q161 0 293 -71t210.5 -203.5t78.5 -300.5t-78.5 -300.5t-210.5 -204t-293 -71.5zM692 578q145 0 264.5 64t190 184t70.5 274t-70.5 274t-190 184t-264.5 64t-264 -64 t-189.5 -184t-70.5 -274t70.5 -274t189.5 -184t264 -64zM997 756h-73l-160 213q-32 44 -70.5 62t-97.5 18h-76v-293h-67v704h245q100 0 166 -56.5t66 -148.5q0 -78 -54 -129t-141 -63q53 -23 94 -76zM520 1106h168q75 0 124.5 41.5t49.5 107.5t-50 108t-124 42h-168v-299z " />
<glyph unicode="&#xaf;" horiz-adv-x="679" d="M98 1417v66h484v-66h-484z" />
<glyph unicode="&#xb0;" horiz-adv-x="704" d="M354 1010q-117 0 -192.5 69t-75.5 176q0 106 75.5 176t192.5 70q114 0 189 -70t75 -176q0 -107 -75 -176t-189 -69zM354 1073q82 0 136.5 51.5t54.5 130.5q0 80 -55.5 130.5t-135.5 50.5q-84 0 -139 -51t-55 -130q0 -80 56.5 -131t137.5 -51z" />
<glyph unicode="&#xb1;" horiz-adv-x="1210" d="M551 434v301h-354v68h354v301h72v-301h354v-68h-354v-301h-72zM977 233h-780v72h780v-72z" />
<glyph unicode="&#xb2;" horiz-adv-x="778" d="M145 741v60q206 181 248 222q130 126 151 211q5 20 5 40q0 74 -46.5 121t-113.5 47q-76 0 -126 -51t-54 -142l-70 4q6 115 75 182.5t175 67.5q100 0 167 -63.5t67 -163.5q0 -40 -17.5 -83t-41.5 -78.5t-74 -87t-89.5 -88t-112.5 -102.5q-25 -22 -38 -34v-6l389 4v-60 h-494z" />
<glyph unicode="&#xb3;" horiz-adv-x="778" d="M383 721q-107 0 -177.5 52t-76.5 159l68 4q4 -84 55 -122t129 -38q76 0 126 43.5t50 116.5q0 78 -49.5 119t-124.5 41h-78v51h78q70 0 115 41.5t45 103.5q0 71 -44.5 112.5t-117.5 41.5q-74 0 -120.5 -39t-55.5 -119l-66 6q10 102 77 154.5t167 52.5t166.5 -56t66.5 -151 q0 -62 -40.5 -107.5t-94.5 -60.5v-6q61 -12 105.5 -58.5t44.5 -127.5q0 -96 -71 -154.5t-177 -58.5z" />
<glyph unicode="&#xb4;" horiz-adv-x="532" d="M170 1235l252 287h94l-252 -287h-94z" />
<glyph unicode="&#xb5;" horiz-adv-x="1144" d="M537 -20q-183 0 -275 151v-537h-88v1459h92v-686q0 -140 75 -223t216 -83q136 0 230 112.5t94 268.5v611h92v-1053h-86v221q-9 -23 -24.5 -49t-46.5 -61.5t-68 -63.5t-93 -47.5t-118 -19.5z" />
<glyph unicode="&#xb6;" horiz-adv-x="1048" d="M432 -221v1005q-94 0 -169.5 30t-122 79t-72 112t-25.5 128.5t25.5 128.5t72 112t122 79t169.5 30h412v-1704h-70v1640h-272v-1640h-70z" />
<glyph unicode="&#xb7;" horiz-adv-x="485" d="M307 604h-131v148h131v-148z" />
<glyph unicode="&#xb8;" horiz-adv-x="571" d="M322 8h69l-90 -125q211 -10 211 -149q0 -74 -65.5 -119t-182.5 -45q-46 0 -94 8t-73 16l-25 9l10 57q88 -31 178 -31q86 0 132 27t46 78q0 54 -50 78t-161 24v37z" />
<glyph unicode="&#xb9;" horiz-adv-x="778" d="M387 741v600q-2 -4 -6.5 -10.5t-19 -19.5t-33 -23.5t-49 -19t-66.5 -8.5h-31v63h23q89 0 136.5 46.5t47.5 96.5v17h76v-742h-78z" />
<glyph unicode="&#xba;" horiz-adv-x="841" d="M422 725q-147 0 -241.5 108t-94.5 281q0 172 94.5 280.5t241.5 108.5q146 0 240 -108.5t94 -280.5q0 -173 -94 -281t-240 -108zM422 788q107 0 182.5 90t75.5 236q0 147 -75.5 236.5t-182.5 89.5t-183.5 -89.5t-76.5 -236.5q0 -146 76.5 -236t183.5 -90z" />
<glyph unicode="&#xbb;" horiz-adv-x="911" d="M831 629v-78l-380 -401v106l317 330v8l-317 332v106zM485 629v-78l-383 -401v106l318 330v8l-318 332v106z" />
<glyph unicode="&#xbc;" horiz-adv-x="1409" d="M1128 0v180h-374v66l372 504h78v-512h107v-58h-107v-180h-76zM156 -51l931 1577h84l-929 -1577h-86zM311 741v600q-2 -4 -6.5 -10.5t-19 -19.5t-33 -23.5t-49 -19t-66.5 -8.5h-31v63h23q89 0 136.5 46.5t47.5 96.5v17h76v-742h-78zM819 238h309v419z" />
<glyph unicode="&#xbd;" horiz-adv-x="1499" d="M156 -51l931 1577h84l-929 -1577h-86zM866 0v59q207 181 258 231q127 125 143 212q3 15 3 30q0 74 -46.5 121t-113.5 47q-76 0 -125 -50.5t-55 -141.5l-70 4q6 115 75.5 182.5t176.5 67.5q99 0 165 -63.5t66 -163.5q0 -52 -24.5 -104t-74 -108.5t-109 -113t-144.5 -131.5 q-13 -11 -20 -17v-6l389 4v-59h-494zM311 741v600q-2 -4 -6.5 -10.5t-19 -19.5t-33 -23.5t-49 -19t-66.5 -8.5h-31v63h23q89 0 136.5 46.5t47.5 96.5v17h76v-742h-78z" />
<glyph unicode="&#xbe;" horiz-adv-x="1574" d="M362 721q-107 0 -177 51.5t-76 159.5l65 4q6 -84 57 -122t129 -38q76 0 126.5 43.5t50.5 116.5q0 78 -50 119t-125 41h-77v51h77q70 0 115 41.5t45 103.5q0 71 -44.5 112.5t-117.5 41.5q-74 0 -120.5 -39t-55.5 -119l-65 6q10 102 76.5 154.5t166.5 52.5t167 -56t67 -151 q0 -62 -40.5 -107.5t-94.5 -60.5v-6q60 -12 104.5 -58.5t44.5 -127.5q0 -96 -71 -154.5t-177 -58.5zM315 -51l932 1577h84l-932 -1577h-84zM1284 0v180h-375v66l373 504h78v-512h108v-58h-108v-180h-76zM977 238h307v419z" />
<glyph unicode="&#xbf;" horiz-adv-x="1095" />
<glyph unicode="&#xc0;" horiz-adv-x="1345" d="M18 0l596 1483h117l596 -1483h-102l-215 541h-678l-215 -541h-99zM668 1378l-301 -751h608l-297 751h-10zM635 1579l-252 287h92l254 -287h-94z" />
<glyph unicode="&#xc1;" horiz-adv-x="1345" d="M18 0l596 1483h117l596 -1483h-102l-215 541h-678l-215 -541h-99zM668 1378l-301 -751h608l-297 751h-10zM608 1579l252 287h94l-252 -287h-94z" />
<glyph unicode="&#xc2;" horiz-adv-x="1345" d="M18 0l596 1483h117l596 -1483h-102l-215 541h-678l-215 -541h-99zM668 1378l-301 -751h608l-297 751h-10zM639 1831h61l269 -266h-99l-194 198h-8l-195 -198h-94z" />
<glyph unicode="&#xc3;" horiz-adv-x="1345" d="M18 0l596 1483h117l596 -1483h-102l-215 541h-678l-215 -541h-99zM668 1378l-301 -751h608l-297 751h-10zM821 1565q-41 0 -84 21t-73.5 45.5t-69 45.5t-70.5 21q-89 0 -104 -135l-58 4q8 89 48.5 144.5t117.5 55.5q41 0 84 -21t73.5 -46.5t69 -46.5t70.5 -21 q91 0 105 137l57 -4q-20 -200 -166 -200z" />
<glyph unicode="&#xc4;" horiz-adv-x="1345" d="M18 0l596 1483h117l596 -1483h-102l-215 541h-678l-215 -541h-99zM668 1378l-301 -751h608l-297 751h-10zM901 1622h-92v147h92v-147zM535 1622h-93v147h93v-147z" />
<glyph unicode="&#xc5;" horiz-adv-x="1345" d="M18 0l596 1483h117l596 -1483h-102l-215 541h-678l-215 -541h-99zM668 1378l-301 -751h608l-297 751h-10zM672 1528q-95 0 -158 57.5t-63 145.5q0 89 62.5 146.5t158.5 57.5q97 0 159 -57.5t62 -146.5q0 -88 -62.5 -145.5t-158.5 -57.5zM672 1575q70 0 119 44.5t49 111.5 q0 69 -48.5 113t-119.5 44t-119.5 -44t-48.5 -113q0 -67 49 -111.5t119 -44.5z" />
<glyph unicode="&#xc6;" horiz-adv-x="2154" d="M1157 0v520h-698l-336 -520h-103l953 1483h1075v-82h-793v-582h715v-78h-715v-659h795v-82h-893zM1030 1403l-520 -803h647v803h-127z" />
<glyph unicode="&#xc7;" horiz-adv-x="1517" d="M809 -23q-143 0 -268 57t-214.5 157t-141.5 243t-52 307t52 307t141.5 243t214.5 157t268 57q230 0 391.5 -136.5t200.5 -352.5l-96 -8q-39 184 -173.5 296.5t-322.5 112.5q-161 0 -293 -86.5t-207.5 -241.5t-75.5 -348q0 -145 44.5 -271t121 -214.5t183 -139 t227.5 -50.5q188 0 322 111.5t174 297.5l96 -8q-36 -195 -170 -326t-330 -157l-72 -101q211 -10 211 -149q0 -74 -65 -119t-182 -45q-46 0 -94.5 8t-73.5 16l-25 9l10 57q88 -31 178 -31q86 0 132.5 27t46.5 78q0 54 -50 78t-161 24v37l71 104h-18z" />
<glyph unicode="&#xc8;" horiz-adv-x="1271" d="M180 0v1483h987v-86h-891v-574h816v-86h-816v-651h893v-86h-989zM682 1579l-252 287h92l254 -287h-94z" />
<glyph unicode="&#xc9;" horiz-adv-x="1271" d="M180 0v1483h987v-86h-891v-574h816v-86h-816v-651h893v-86h-989zM588 1579l252 287h94l-252 -287h-94z" />
<glyph unicode="&#xca;" horiz-adv-x="1271" d="M180 0v1483h987v-86h-891v-574h816v-86h-816v-651h893v-86h-989zM643 1872h62l268 -266h-99l-194 198h-8l-195 -198h-94z" />
<glyph unicode="&#xcb;" horiz-adv-x="1271" d="M180 0v1483h987v-86h-891v-574h816v-86h-816v-651h893v-86h-989zM909 1622h-92v147h92v-147zM543 1622h-92v147h92v-147z" />
<glyph unicode="&#xcc;" horiz-adv-x="456" d="M180 0v1483h96v-1483h-96zM205 1587l-252 287h92l254 -287h-94z" />
<glyph unicode="&#xcd;" horiz-adv-x="456" d="M180 0v1483h96v-1483h-96zM160 1587l252 287h94l-252 -287h-94z" />
<glyph unicode="&#xce;" horiz-adv-x="456" d="M180 0v1483h96v-1483h-96zM195 1864h61l268 -267h-98l-195 199h-8l-194 -199h-95z" />
<glyph unicode="&#xcf;" horiz-adv-x="456" d="M180 0v1483h96v-1483h-96zM457 1622h-92v147h92v-147zM90 1622h-92v147h92v-147z" />
<glyph unicode="&#xd0;" horiz-adv-x="1515" d="M29 727v78h151v678h455q162 0 300.5 -52.5t237 -147t154 -233.5t55.5 -305q0 -223 -95.5 -393t-265 -261t-386.5 -91h-455v727h-151zM276 82h353q292 0 473.5 181.5t181.5 481.5q0 298 -181 477t-474 179h-353v-596h342v-78h-342v-645z" />
<glyph unicode="&#xd1;" horiz-adv-x="1484" d="M180 0v1483h129l893 -1358h8v1358h97v-1483h-131l-893 1358h-9v-1358h-94zM889 1640q-41 0 -84 21t-73.5 46t-69 46t-70.5 21q-90 0 -105 -136l-57 4q8 90 48.5 145.5t117.5 55.5q41 0 84 -21t73.5 -46.5t69 -46.5t70.5 -21q90 0 104 137l58 -4q-20 -201 -166 -201z" />
<glyph unicode="&#xd2;" horiz-adv-x="1619" d="M811 -23q-147 0 -274 58.5t-215.5 160t-138.5 242.5t-50 303t50 303t138.5 242.5t215.5 160t274 58.5q195 0 350 -99.5t240.5 -274t85.5 -390.5t-85.5 -390.5t-240.5 -274t-350 -99.5zM811 66q125 0 233 51.5t182.5 141.5t117 214.5t42.5 267.5q0 191 -72 345t-204 242.5 t-299 88.5q-168 0 -300.5 -88.5t-205 -242.5t-72.5 -345t72.5 -345t205 -242t300.5 -88zM817 1602l-252 286h92l254 -286h-94z" />
<glyph unicode="&#xd3;" horiz-adv-x="1619" d="M811 -23q-147 0 -274 58.5t-215.5 160t-138.5 242.5t-50 303t50 303t138.5 242.5t215.5 160t274 58.5q195 0 350 -99.5t240.5 -274t85.5 -390.5t-85.5 -390.5t-240.5 -274t-350 -99.5zM811 66q125 0 233 51.5t182.5 141.5t117 214.5t42.5 267.5q0 191 -72 345t-204 242.5 t-299 88.5q-168 0 -300.5 -88.5t-205 -242.5t-72.5 -345t72.5 -345t205 -242t300.5 -88zM709 1602l252 286h94l-252 -286h-94z" />
<glyph unicode="&#xd4;" horiz-adv-x="1619" d="M811 -23q-147 0 -274 58.5t-215.5 160t-138.5 242.5t-50 303t50 303t138.5 242.5t215.5 160t274 58.5q195 0 350 -99.5t240.5 -274t85.5 -390.5t-85.5 -390.5t-240.5 -274t-350 -99.5zM811 66q125 0 233 51.5t182.5 141.5t117 214.5t42.5 267.5q0 191 -72 345t-204 242.5 t-299 88.5q-168 0 -300.5 -88.5t-205 -242.5t-72.5 -345t72.5 -345t205 -242t300.5 -88zM774 1872h62l268 -266h-98l-195 198h-8l-195 -198h-94z" />
<glyph unicode="&#xd5;" horiz-adv-x="1619" d="M811 -23q-147 0 -274 58.5t-215.5 160t-138.5 242.5t-50 303t50 303t138.5 242.5t215.5 160t274 58.5q195 0 350 -99.5t240.5 -274t85.5 -390.5t-85.5 -390.5t-240.5 -274t-350 -99.5zM811 66q125 0 233 51.5t182.5 141.5t117 214.5t42.5 267.5q0 191 -72 345t-204 242.5 t-299 88.5q-168 0 -300.5 -88.5t-205 -242.5t-72.5 -345t72.5 -345t205 -242t300.5 -88zM952 1630q-41 0 -84 21t-73.5 45.5t-69 45.5t-70.5 21q-89 0 -104 -135l-57 4q8 90 48 145.5t117 55.5q41 0 84 -21t73.5 -46.5t69 -46.5t70.5 -21q91 0 105 137l57 -4 q-20 -201 -166 -201z" />
<glyph unicode="&#xd6;" horiz-adv-x="1619" d="M811 -23q-147 0 -274 58.5t-215.5 160t-138.5 242.5t-50 303t50 303t138.5 242.5t215.5 160t274 58.5q195 0 350 -99.5t240.5 -274t85.5 -390.5t-85.5 -390.5t-240.5 -274t-350 -99.5zM811 66q125 0 233 51.5t182.5 141.5t117 214.5t42.5 267.5q0 191 -72 345t-204 242.5 t-299 88.5q-168 0 -300.5 -88.5t-205 -242.5t-72.5 -345t72.5 -345t205 -242t300.5 -88zM1044 1622h-92v147h92v-147zM678 1622h-92v147h92v-147z" />
<glyph unicode="&#xd7;" d="M199 252l333 336l-335 334l51 53l338 -336l336 340l57 -57l-338 -338l336 -334l-51 -51l-336 331l-336 -333z" />
<glyph unicode="&#xd8;" horiz-adv-x="1619" d="M379 -117l86 191q-155 96 -243.5 272t-88.5 395q0 162 50 303t138.5 242.5t215.5 160t274 58.5q143 0 274 -59l72 156h84l-88 -193q156 -98 245 -273.5t89 -394.5q0 -216 -85.5 -390.5t-240.5 -274t-350 -99.5q-146 0 -279 60l-69 -154h-84zM811 66q125 0 233 51.5 t182.5 141.5t117 214.5t42.5 267.5q0 189 -71.5 342.5t-198.5 241.5l-547 -1206q109 -53 242 -53zM233 741q0 -189 72 -341.5t199 -241.5l545 1206q-106 53 -238 53q-168 0 -300.5 -88.5t-205 -242.5t-72.5 -345z" />
<glyph unicode="&#xd9;" horiz-adv-x="1456" d="M729 -20q-259 0 -412 143t-153 387v973h98v-965q0 -211 124.5 -330.5t342.5 -119.5q216 0 341.5 119.5t125.5 330.5v965h96v-973q0 -244 -152.5 -387t-410.5 -143zM725 1569l-252 286h92l254 -286h-94z" />
<glyph unicode="&#xda;" horiz-adv-x="1456" d="M729 -20q-259 0 -412 143t-153 387v973h98v-965q0 -211 124.5 -330.5t342.5 -119.5q216 0 341.5 119.5t125.5 330.5v965h96v-973q0 -244 -152.5 -387t-410.5 -143zM635 1569l252 286h94l-252 -286h-94z" />
<glyph unicode="&#xdb;" horiz-adv-x="1456" d="M729 -20q-259 0 -412 143t-153 387v973h98v-965q0 -211 124.5 -330.5t342.5 -119.5q216 0 341.5 119.5t125.5 330.5v965h96v-973q0 -244 -152.5 -387t-410.5 -143zM692 1872h62l268 -266h-98l-195 198h-8l-195 -198h-94z" />
<glyph unicode="&#xdc;" horiz-adv-x="1456" d="M729 -20q-259 0 -412 143t-153 387v973h98v-965q0 -211 124.5 -330.5t342.5 -119.5q216 0 341.5 119.5t125.5 330.5v965h96v-973q0 -244 -152.5 -387t-410.5 -143zM961 1622h-93v147h93v-147zM594 1622h-92v147h92v-147z" />
<glyph unicode="&#xdd;" horiz-adv-x="1249" d="M575 0v600l-583 883h110l519 -785h12l518 785h104l-581 -883v-600h-99zM551 1571l252 287h94l-252 -287h-94z" />
<glyph unicode="&#xde;" horiz-adv-x="1327" d="M180 0v1483h96v-215h457q216 0 353 -117t137 -311q0 -195 -136 -313.5t-350 -118.5h-461v-408h-96zM276 489h449q180 0 289.5 94.5t109.5 254.5t-110 254t-289 94h-449v-697z" />
<glyph unicode="&#xdf;" horiz-adv-x="1208" d="M164 0v1139q0 182 113.5 290.5t289.5 108.5q163 0 271 -93.5t108 -242.5q0 -112 -59.5 -188t-138.5 -103v-8q66 -11 125.5 -41.5t112 -82.5t83.5 -135t31 -187q0 -214 -130 -345.5t-345 -131.5q-38 0 -78.5 6.5t-62.5 13.5l-21 6l8 74q71 -23 147 -23q179 0 284.5 110.5 t105.5 293.5q0 191 -108.5 295t-301.5 104h-94v76h74q129 0 203.5 74t74.5 188q0 119 -79.5 191.5t-209.5 72.5q-138 0 -224.5 -89t-86.5 -240v-1133h-92z" />
<glyph unicode="&#xe0;" horiz-adv-x="1079" d="M436 -20q-138 0 -224.5 77t-86.5 207q0 124 76 200.5t202 108.5l420 107v37q0 280 -272 280q-276 0 -307 -209l-86 9q17 140 123.5 208t273.5 68q170 0 264 -88t94 -260v-397q0 -212 21 -312v-16h-86q-21 79 -21 188v17h-8q-21 -39 -51 -74t-76 -71.5t-112.5 -58 t-143.5 -21.5zM451 55q154 0 263 105.5t109 253.5v188l-397 -100q-94 -23 -151.5 -82t-57.5 -152q0 -95 65 -154t169 -59zM541 1235l-252 287h92l254 -287h-94z" />
<glyph unicode="&#xe1;" horiz-adv-x="1079" d="M436 -20q-138 0 -224.5 77t-86.5 207q0 124 76 200.5t202 108.5l420 107v37q0 280 -272 280q-276 0 -307 -209l-86 9q17 140 123.5 208t273.5 68q170 0 264 -88t94 -260v-397q0 -212 21 -312v-16h-86q-21 79 -21 188v17h-8q-21 -39 -51 -74t-76 -71.5t-112.5 -58 t-143.5 -21.5zM451 55q154 0 263 105.5t109 253.5v188l-397 -100q-94 -23 -151.5 -82t-57.5 -152q0 -95 65 -154t169 -59zM403 1235l252 287h95l-252 -287h-95z" />
<glyph unicode="&#xe2;" horiz-adv-x="1079" d="M436 -20q-138 0 -224.5 77t-86.5 207q0 124 76 200.5t202 108.5l420 107v37q0 280 -272 280q-276 0 -307 -209l-86 9q17 140 123.5 208t273.5 68q170 0 264 -88t94 -260v-397q0 -212 21 -312v-16h-86q-21 79 -21 188v17h-8q-21 -39 -51 -74t-76 -71.5t-112.5 -58 t-143.5 -21.5zM451 55q154 0 263 105.5t109 253.5v188l-397 -100q-94 -23 -151.5 -82t-57.5 -152q0 -95 65 -154t169 -59zM508 1520h61l269 -267h-99l-194 199h-8l-195 -199h-94z" />
<glyph unicode="&#xe3;" horiz-adv-x="1079" d="M436 -20q-138 0 -224.5 77t-86.5 207q0 124 76 200.5t202 108.5l420 107v37q0 280 -272 280q-276 0 -307 -209l-86 9q17 140 123.5 208t273.5 68q170 0 264 -88t94 -260v-397q0 -212 21 -312v-16h-86q-21 79 -21 188v17h-8q-21 -39 -51 -74t-76 -71.5t-112.5 -58 t-143.5 -21.5zM451 55q154 0 263 105.5t109 253.5v188l-397 -100q-94 -23 -151.5 -82t-57.5 -152q0 -95 65 -154t169 -59zM676 1294q-41 0 -84 21t-73.5 45.5t-69 45.5t-70.5 21q-90 0 -105 -135l-57 4q8 90 48.5 145.5t117.5 55.5q41 0 84 -21t73.5 -46.5t69 -46.5 t70.5 -21q90 0 104 137l58 -4q-20 -201 -166 -201z" />
<glyph unicode="&#xe4;" horiz-adv-x="1079" d="M436 -20q-138 0 -224.5 77t-86.5 207q0 124 76 200.5t202 108.5l420 107v37q0 280 -272 280q-276 0 -307 -209l-86 9q17 140 123.5 208t273.5 68q170 0 264 -88t94 -260v-397q0 -212 21 -312v-16h-86q-21 79 -21 188v17h-8q-21 -39 -51 -74t-76 -71.5t-112.5 -58 t-143.5 -21.5zM451 55q154 0 263 105.5t109 253.5v188l-397 -100q-94 -23 -151.5 -82t-57.5 -152q0 -95 65 -154t169 -59zM764 1294h-92v148h92v-148zM397 1294h-92v148h92v-148z" />
<glyph unicode="&#xe5;" horiz-adv-x="1079" d="M436 -20q-138 0 -224.5 77t-86.5 207q0 124 76 200.5t202 108.5l420 107v37q0 280 -272 280q-276 0 -307 -209l-86 9q17 140 123.5 208t273.5 68q170 0 264 -88t94 -260v-397q0 -212 21 -312v-16h-86q-21 79 -21 188v17h-8q-21 -39 -51 -74t-76 -71.5t-112.5 -58 t-143.5 -21.5zM451 55q154 0 263 105.5t109 253.5v188l-397 -100q-94 -23 -151.5 -82t-57.5 -152q0 -95 65 -154t169 -59zM541 1169q-95 0 -158.5 57.5t-63.5 145.5q0 89 63 147t159 58q97 0 159 -58t62 -147q0 -88 -62.5 -145.5t-158.5 -57.5zM541 1217q70 0 119 44t49 111 q0 69 -49 113.5t-119 44.5t-119 -44.5t-49 -113.5q0 -67 49 -111t119 -44z" />
<glyph unicode="&#xe6;" horiz-adv-x="1794" d="M1284 -20q-141 0 -245.5 73.5t-157.5 204.5q-44 -129 -158 -203.5t-264 -74.5q-158 0 -246 82.5t-88 216.5q0 64 22 116t60.5 88t85 60t102.5 39q26 6 54.5 10.5t65.5 6.5t61 3t70 -0.5t61 -2t67 -3t57 -2.5v139q0 133 -76.5 200.5t-213.5 67.5q-256 0 -283 -208l-86 6 q18 141 117.5 207.5t257.5 66.5q145 0 235.5 -62.5t116.5 -179.5q58 114 157 178t222 64q186 0 297 -136t111 -345v-64h-766v-28q2 -196 102.5 -322.5t261.5 -126.5q118 0 194.5 69t108.5 179l86 -8q-34 -136 -135.5 -223.5t-253.5 -87.5zM469 51q156 0 259 97.5t103 246.5 v105v24v6q-216 13 -303 7q-59 -5 -104 -17q-93 -24 -150 -82.5t-57 -154.5q0 -101 65 -166.5t187 -65.5zM922 594h673v24q-2 167 -87 274t-230 107q-150 0 -247.5 -117.5t-108.5 -287.5z" />
<glyph unicode="&#xe7;" horiz-adv-x="1083" d="M580 -20q-200 0 -337 153t-137 393t137 393.5t337 153.5q159 0 273 -97t142 -247l-90 -8q-27 122 -114.5 196t-210.5 74q-163 0 -272 -130t-109 -335q0 -206 108.5 -335.5t272.5 -129.5q124 0 212 75.5t113 203.5l90 -8q-22 -131 -109 -223.5t-214 -118.5l-76 -107 q211 -10 211 -149q0 -74 -65.5 -119t-182.5 -45q-46 0 -94 8t-73 16l-25 9l10 57q88 -31 178 -31q86 0 132 27t46 78q0 54 -50 78t-161 24v37l74 107h-16z" />
<glyph unicode="&#xe8;" horiz-adv-x="1122" d="M584 -20q-208 0 -343 151t-135 393q0 241 136 395t338 154q194 0 314 -136t120 -343v-72h-813v-22q3 -195 111.5 -319t271.5 -124q124 0 207 67.5t116 174.5l86 -10q-35 -135 -143 -222t-266 -87zM203 600h719v21q0 159 -95.5 266.5t-246.5 107.5q-156 0 -261 -115 t-116 -280zM575 1235l-251 287h92l254 -287h-95z" />
<glyph unicode="&#xe9;" horiz-adv-x="1122" d="M584 -20q-208 0 -343 151t-135 393q0 241 136 395t338 154q194 0 314 -136t120 -343v-72h-813v-22q3 -195 111.5 -319t271.5 -124q124 0 207 67.5t116 174.5l86 -10q-35 -135 -143 -222t-266 -87zM203 600h719v21q0 159 -95.5 266.5t-246.5 107.5q-156 0 -261 -115 t-116 -280zM473 1235l252 287h94l-252 -287h-94z" />
<glyph unicode="&#xea;" horiz-adv-x="1122" d="M584 -20q-208 0 -343 151t-135 393q0 241 136 395t338 154q194 0 314 -136t120 -343v-72h-813v-22q3 -195 111.5 -319t271.5 -124q124 0 207 67.5t116 174.5l86 -10q-35 -135 -143 -222t-266 -87zM203 600h719v21q0 159 -95.5 266.5t-246.5 107.5q-156 0 -261 -115 t-116 -280zM543 1520h61l268 -267h-98l-194 199h-9l-194 -199h-94z" />
<glyph unicode="&#xeb;" horiz-adv-x="1122" d="M584 -20q-208 0 -343 151t-135 393q0 241 136 395t338 154q194 0 314 -136t120 -343v-72h-813v-22q3 -195 111.5 -319t271.5 -124q124 0 207 67.5t116 174.5l86 -10q-35 -135 -143 -222t-266 -87zM203 600h719v21q0 159 -95.5 266.5t-246.5 107.5q-156 0 -261 -115 t-116 -280zM815 1294h-92v148h92v-148zM449 1294h-93v148h93v-148z" />
<glyph unicode="&#xec;" horiz-adv-x="448" d="M178 0v1053h92v-1053h-92zM203 1235l-252 287h92l254 -287h-94z" />
<glyph unicode="&#xed;" horiz-adv-x="448" d="M176 0v1053h92v-1053h-92zM152 1235l251 287h95l-252 -287h-94z" />
<glyph unicode="&#xee;" horiz-adv-x="448" d="M178 0v1053h92v-1053h-92zM190 1520h62l268 -267h-98l-195 199h-8l-194 -199h-95z" />
<glyph unicode="&#xef;" horiz-adv-x="448" d="M178 0v1053h92v-1053h-92zM455 1335h-93v148h93v-148zM88 1335h-92v148h92v-148z" />
<glyph unicode="&#xf0;" horiz-adv-x="1167" d="M426 1257v60l225 35q-99 88 -241 168l98 6q117 -63 225 -160l254 41v-59l-203 -33q277 -288 277 -752q0 -151 -41.5 -267t-111 -183t-151.5 -100t-173 -33q-203 0 -340.5 152t-137.5 386q0 120 38 221.5t101.5 169.5t147.5 106t176 38q134 0 234.5 -71.5t138.5 -164.5h8 q-48 285 -245 486zM584 55q78 0 147 32t122.5 91.5t84.5 152.5t31 206q0 100 -32.5 184t-87.5 139.5t-126 86t-148 30.5q-157 0 -265.5 -125.5t-108.5 -333.5q0 -205 111 -334t272 -129z" />
<glyph unicode="&#xf1;" horiz-adv-x="1124" d="M168 0v1053h86v-222q9 23 24.5 49t47 62t69.5 64t95.5 47.5t121.5 19.5q355 0 355 -426v-647h-93v635q0 182 -68.5 269t-213.5 87q-142 0 -237 -112t-95 -269v-610h-92zM702 1305q-41 0 -83.5 21t-73 45.5t-69 45.5t-70.5 21q-90 0 -105 -135l-57 4q8 89 48.5 144.5 t117.5 55.5q41 0 84 -21t73.5 -46.5t69 -46.5t70.5 -21q90 0 104 137l57 -4q-20 -200 -166 -200z" />
<glyph unicode="&#xf2;" horiz-adv-x="1167" d="M584 -20q-133 0 -241.5 67t-172.5 192.5t-64 286.5q0 242 137.5 394.5t340.5 152.5q204 0 340.5 -152.5t136.5 -394.5q0 -243 -136 -394.5t-341 -151.5zM584 61q163 0 274 128t111 337q0 207 -111.5 336t-273.5 129t-273.5 -129t-111.5 -336q0 -209 111 -337t274 -128z M571 1235l-252 287h93l254 -287h-95z" />
<glyph unicode="&#xf3;" horiz-adv-x="1167" d="M584 -20q-133 0 -241.5 67t-172.5 192.5t-64 286.5q0 242 137.5 394.5t340.5 152.5q204 0 340.5 -152.5t136.5 -394.5q0 -243 -136 -394.5t-341 -151.5zM584 61q163 0 274 128t111 337q0 207 -111.5 336t-273.5 129t-273.5 -129t-111.5 -336q0 -209 111 -337t274 -128z M489 1235l252 287h95l-252 -287h-95z" />
<glyph unicode="&#xf4;" horiz-adv-x="1167" d="M584 -20q-133 0 -241.5 67t-172.5 192.5t-64 286.5q0 242 137.5 394.5t340.5 152.5q204 0 340.5 -152.5t136.5 -394.5q0 -243 -136 -394.5t-341 -151.5zM584 61q163 0 274 128t111 337q0 207 -111.5 336t-273.5 129t-273.5 -129t-111.5 -336q0 -209 111 -337t274 -128z M549 1520h61l269 -267h-99l-194 199h-8l-195 -199h-94z" />
<glyph unicode="&#xf5;" horiz-adv-x="1167" d="M584 -20q-133 0 -241.5 67t-172.5 192.5t-64 286.5q0 242 137.5 394.5t340.5 152.5q204 0 340.5 -152.5t136.5 -394.5q0 -243 -136 -394.5t-341 -151.5zM584 61q163 0 274 128t111 337q0 207 -111.5 336t-273.5 129t-273.5 -129t-111.5 -336q0 -209 111 -337t274 -128z M723 1307q-41 0 -84 21t-73.5 45.5t-69 45.5t-70.5 21q-89 0 -104 -135l-58 4q8 89 48.5 144.5t117.5 55.5q41 0 84 -21t73.5 -46.5t69 -46.5t70.5 -21q90 0 104 137l58 -4q-20 -200 -166 -200z" />
<glyph unicode="&#xf6;" horiz-adv-x="1167" d="M584 -20q-133 0 -241.5 67t-172.5 192.5t-64 286.5q0 242 137.5 394.5t340.5 152.5q204 0 340.5 -152.5t136.5 -394.5q0 -243 -136 -394.5t-341 -151.5zM584 61q163 0 274 128t111 337q0 207 -111.5 336t-273.5 129t-273.5 -129t-111.5 -336q0 -209 111 -337t274 -128z M811 1294h-92v148h92v-148zM444 1294h-92v148h92v-148z" />
<glyph unicode="&#xf7;" d="M590 164q-39 0 -61.5 22.5t-22.5 57.5t22.5 57.5t61.5 22.5t61.5 -22.5t22.5 -57.5t-22.5 -57.5t-61.5 -22.5zM1071 551h-969v72h969v-72zM590 846q-39 0 -61.5 21.5t-22.5 56.5q0 36 22.5 58t61.5 22t61.5 -22t22.5 -58q0 -35 -22.5 -56.5t-61.5 -21.5z" />
<glyph unicode="&#xf8;" horiz-adv-x="1167" d="M215 -211l119 262q-106 69 -167 192.5t-61 282.5q0 242 137.5 394.5t340.5 152.5q109 0 196 -43l105 230h71l-118 -263q104 -71 163.5 -193t59.5 -278q0 -243 -136 -394.5t-341 -151.5q-107 0 -191 40l-104 -231h-74zM199 526q0 -130 46 -232.5t126 -162.5l372 821 q-76 39 -159 39q-162 0 -273.5 -129t-111.5 -336zM584 61q163 0 274 128t111 337q0 127 -45 228t-123 161l-373 -819q72 -35 156 -35z" />
<glyph unicode="&#xf9;" horiz-adv-x="1124" d="M512 -20q-174 0 -264 103.5t-90 322.5v647h92v-635q0 -182 69 -269.5t213 -87.5q142 0 237 112t95 269v611h92v-1053h-86v221q-9 -23 -24.5 -49t-47 -62t-69.5 -63.5t-95.5 -47t-121.5 -19.5zM551 1235l-252 287h92l254 -287h-94z" />
<glyph unicode="&#xfa;" horiz-adv-x="1124" d="M512 -20q-174 0 -264 103.5t-90 322.5v647h92v-635q0 -182 69 -269.5t213 -87.5q142 0 237 112t95 269v611h92v-1053h-86v221q-9 -23 -24.5 -49t-47 -62t-69.5 -63.5t-95.5 -47t-121.5 -19.5zM475 1235l252 287h94l-252 -287h-94z" />
<glyph unicode="&#xfb;" horiz-adv-x="1124" d="M512 -20q-174 0 -264 103.5t-90 322.5v647h92v-635q0 -182 69 -269.5t213 -87.5q142 0 237 112t95 269v611h92v-1053h-86v221q-9 -23 -24.5 -49t-47 -62t-69.5 -63.5t-95.5 -47t-121.5 -19.5zM526 1520h62l268 -267h-98l-195 199h-8l-195 -199h-94z" />
<glyph unicode="&#xfc;" horiz-adv-x="1124" d="M512 -20q-174 0 -264 103.5t-90 322.5v647h92v-635q0 -182 69 -269.5t213 -87.5q142 0 237 112t95 269v611h92v-1053h-86v221q-9 -23 -24.5 -49t-47 -62t-69.5 -63.5t-95.5 -47t-121.5 -19.5zM778 1294h-92v148h92v-148zM412 1294h-93v148h93v-148z" />
<glyph unicode="&#xfd;" horiz-adv-x="991" d="M219 -410q-43 0 -100 17l10 80q50 -15 84 -15q68 0 108.5 40.5t69.5 117.5l58 158l-410 1065h98l359 -936h8l352 936h96l-481 -1252q-41 -107 -98.5 -159t-153.5 -52zM424 1235l252 287h94l-252 -287h-94z" />
<glyph unicode="&#xfe;" d="M174 -406v1924h92v-613q6 7 16 18t45 40t72.5 51.5t96 40.5t118.5 18q196 0 323.5 -152t127.5 -397q0 -242 -131.5 -393t-325.5 -151q-61 0 -119 16t-96.5 39.5t-68.5 46.5t-44 39l-14 16v-543h-92zM592 53q167 0 274 131t107 340t-106.5 340t-272.5 131 q-55 0 -109 -17.5t-92 -42t-68 -49t-45 -42.5l-14 -17v-612q5 -7 14.5 -17.5t42 -38.5t68 -49.5t90.5 -39t111 -17.5z" />
<glyph unicode="&#xff;" horiz-adv-x="991" d="M219 -410q-43 0 -100 17l10 80q50 -15 84 -15q68 0 108.5 40.5t69.5 117.5l58 158l-410 1065h98l359 -936h8l352 936h96l-481 -1252q-41 -107 -98.5 -159t-153.5 -52zM713 1294h-92v148h92v-148zM346 1294h-92v148h92v-148z" />
<glyph unicode="&#x131;" horiz-adv-x="448" d="M178 0v1053h92v-1053h-92z" />
<glyph unicode="&#x141;" horiz-adv-x="1204" d="M2 541v80l178 114v748h96v-686l269 174v-80l-269 -174v-631h879v-86h-975v655z" />
<glyph unicode="&#x142;" horiz-adv-x="473" d="M8 539v77l185 134v768h92v-703l180 131v-78l-180 -131v-737h-92v672z" />
<glyph unicode="&#x152;" horiz-adv-x="2357" d="M1280 0v227q-73 -108 -193 -177.5t-276 -69.5q-191 0 -346 97.5t-243.5 271.5t-88.5 392t88.5 392.5t243.5 272t346 97.5q156 0 276.5 -71t192.5 -179v230h971v-82h-873v-582h797v-78h-797v-659h875v-82h-973zM813 63q89 0 169.5 27.5t138 72.5t98 96t61.5 103v758 q-21 52 -61.5 102.5t-98 95.5t-138 73t-169.5 28q-163 0 -296 -86.5t-209.5 -242t-76.5 -349.5t76.5 -349.5t209.5 -242t296 -86.5z" />
<glyph unicode="&#x153;" horiz-adv-x="1966" d="M1436 -20q-157 0 -270.5 86.5t-161.5 236.5q-51 -151 -164 -237t-262 -86q-201 0 -336.5 152t-135.5 394t135.5 394.5t336.5 152.5q150 0 263 -87t163 -238q50 151 161.5 238t261.5 87q196 0 315.5 -136.5t119.5 -344.5v-64h-811v-26q2 -194 110 -322.5t275 -128.5 q122 0 206 69.5t117 176.5l86 -10q-36 -132 -143.5 -219.5t-265.5 -87.5zM578 53q163 0 271.5 130t108.5 343q0 210 -108.5 340.5t-271.5 130.5q-162 0 -270.5 -130.5t-108.5 -340.5q0 -212 108.5 -342.5t270.5 -130.5zM1053 594h716v24q-2 166 -95.5 273.5t-246.5 107.5 q-103 0 -187 -56.5t-131.5 -148t-55.5 -200.5z" />
<glyph unicode="&#x160;" horiz-adv-x="1343" d="M666 -23q-114 0 -210.5 25.5t-173.5 76t-124.5 133t-57.5 189.5l93 9q13 -119 80.5 -199t167 -115t227.5 -35q124 0 226 38.5t164 115.5t62 178q0 115 -88 182.5t-258 108.5l-231 57q-75 19 -130.5 38t-111 49t-90.5 66.5t-56.5 89t-21.5 116.5q0 119 74.5 213t194.5 143 t260 49t255.5 -44t192 -135.5t88.5 -217.5l-92 -8q-19 158 -143 239.5t-304 81.5q-113 0 -209.5 -38t-157.5 -111.5t-61 -167.5q0 -61 25 -107.5t75 -78.5t105 -52.5t135 -40.5l232 -57q98 -24 168.5 -52.5t129 -71.5t88.5 -105t30 -142q0 -129 -75 -226t-199.5 -145.5 t-278.5 -48.5zM707 1626h-68l-254 268h96l189 -204h8l188 204h95z" />
<glyph unicode="&#x161;" horiz-adv-x="1052" d="M522 -20q-171 0 -280.5 76t-122.5 231l86 8q27 -240 317 -240q130 0 218.5 63.5t88.5 160.5q0 45 -17.5 77.5t-54 54.5t-71.5 34.5t-92 27.5l-154 41q-51 14 -89.5 28t-80 36.5t-67.5 49.5t-43 67t-17 89q0 130 110 209.5t269 79.5q162 0 265.5 -71t117.5 -214l-86 -8 q-26 217 -297 217q-120 0 -203 -58t-83 -151q0 -36 13.5 -64t32 -46t52.5 -34.5t60 -25t71 -20.5l153 -41q69 -18 118 -38t94.5 -51.5t68.5 -77.5t23 -107q0 -95 -55.5 -165t-145 -104t-199.5 -34zM559 1241h-67l-254 268h96l188 -204h8l189 204h94z" />
<glyph unicode="&#x178;" horiz-adv-x="1249" d="M575 0v600l-583 883h110l519 -785h12l518 785h104l-581 -883v-600h-99z" />
<glyph unicode="&#x17d;" horiz-adv-x="1318" d="M113 0v78l972 1317h-972v88h1093v-78l-973 -1317h973v-88h-1093zM702 1626h-69l-260 268h98l193 -204h8l194 204h97z" />
<glyph unicode="&#x17e;" horiz-adv-x="1024" d="M102 0v70l697 905h-697v78h811v-70l-694 -905h694v-78h-811zM543 1241h-68l-254 268h96l189 -204h8l188 204h95z" />
<glyph unicode="&#x192;" horiz-adv-x="667" d="M109 -408q-59 0 -121 15l8 80q74 -11 100 -11q79 0 119.5 35.5t40.5 120.5v1137h-184v75h184v203q0 142 78 211.5t207 69.5q57 0 159 -21l-8 -75q-104 18 -143 18q-102 0 -151.5 -52.5t-49.5 -160.5v-193h250v-75h-250v-1151q0 -113 -64 -169.5t-175 -56.5z" />
<glyph unicode="&#x2c6;" horiz-adv-x="829" d="M381 1528h61l269 -266h-99l-194 198h-8l-195 -198h-94z" />
<glyph unicode="&#x2c7;" horiz-adv-x="829" d="M446 1241h-67l-254 268h96l189 -204h8l188 204h94z" />
<glyph unicode="&#x2d8;" horiz-adv-x="808" d="M403 1255q-116 0 -187 55t-71 167v41h70v-37q0 -83 52.5 -121.5t135.5 -38.5q84 0 136.5 38t52.5 122v37h70v-41q0 -111 -71.5 -166.5t-187.5 -55.5z" />
<glyph unicode="&#x2d9;" horiz-adv-x="475" d="M299 1335h-131v148h131v-148z" />
<glyph unicode="&#x2da;" horiz-adv-x="643" d="M322 1157q-95 0 -158.5 57.5t-63.5 145.5q0 89 63 147t159 58q97 0 159 -58t62 -147q0 -88 -62.5 -145.5t-158.5 -57.5zM322 1204q70 0 118.5 44.5t48.5 111.5q0 69 -48.5 113.5t-118.5 44.5t-119 -44.5t-49 -113.5q0 -67 49 -111.5t119 -44.5z" />
<glyph unicode="&#x2db;" horiz-adv-x="577" d="M137 -260q0 -50 47 -82.5t133 -32.5q40 0 85.5 7.5t70.5 15.5l25 8l2 -43q-95 -33 -187 -33q-111 0 -172 42t-61 110q0 50 35.5 96t86 76t101 52.5t85.5 33.5l36 10h61q-19 -5 -63.5 -22t-114.5 -50t-120 -83.5t-50 -104.5z" />
<glyph unicode="&#x2dc;" horiz-adv-x="782" d="M541 1323q-41 0 -84 21t-73.5 45.5t-69 45.5t-70.5 21q-90 0 -105 -135l-57 4q8 90 48.5 145.5t117.5 55.5q41 0 84 -21t73.5 -46.5t69 -46.5t70.5 -21q90 0 104 137l58 -4q-20 -201 -166 -201z" />
<glyph unicode="&#x2dd;" horiz-adv-x="884" d="M131 1268l246 303h86l-248 -303h-84zM444 1268l248 303h84l-246 -303h-86z" />
<glyph unicode="&#x3c0;" horiz-adv-x="1191" d="M66 0q6 10 15.5 30t34 93t43.5 158t34.5 227.5t15.5 300.5v162q-78 0 -133 -22.5t-117 -67.5l-12 86q53 42 112 64t142 22h860v-82h-197v-561q0 -285 105 -410h-101q-54 68 -75 168.5t-21 237.5v565h-471v-166q0 -158 -14.5 -298.5t-34.5 -229t-40.5 -154.5t-35.5 -95 l-14 -28h-96z" />
<glyph unicode="&#x401;" horiz-adv-x="1271" d="M180 0v1483h987v-86h-891v-574h816v-86h-816v-651h893v-86h-989zM897 1622h-92v147h92v-147zM530 1622h-92v147h92v-147z" />
<glyph unicode="&#x410;" horiz-adv-x="1345" d="M18 0l596 1483h117l596 -1483h-102l-215 541h-678l-215 -541h-99zM668 1378l-301 -751h608l-297 751h-10z" />
<glyph unicode="&#x411;" horiz-adv-x="1308" d="M276 1395v-555h431q229 0 366 -118t137 -306q0 -189 -136 -302.5t-367 -113.5h-527v1483h96h836v-88h-836zM276 86h431q184 0 294.5 88.5t110.5 241.5q0 154 -111 246t-294 92h-431v-668z" />
<glyph unicode="&#x412;" horiz-adv-x="1343" d="M180 0v1483h584q178 0 294 -101t116 -268q0 -71 -22 -130t-59.5 -99t-79.5 -66t-89 -39v-8q54 -13 103.5 -40t95 -70t73 -110t27.5 -149q0 -186 -128.5 -294.5t-324.5 -108.5h-590zM276 82h480q164 0 266 86.5t102 239.5q0 152 -102 236.5t-266 84.5h-480v-647zM276 811 h476q148 0 236.5 79.5t88.5 215.5q0 137 -88 216t-237 79h-476v-590z" />
<glyph unicode="&#x413;" horiz-adv-x="1204" d="M180 0v1483h975v-86h-879v-1397h-96z" />
<glyph unicode="&#x414;" horiz-adv-x="1650" d="M111 -385v471h94q83 100 132.5 225.5t75 322.5t25.5 486v363h905v-1397h177v-471h-90v385h-1229v-385h-90zM303 86h944v1309h-717v-279q0 -286 -29 -490t-76 -322.5t-122 -217.5z" />
<glyph unicode="&#x415;" horiz-adv-x="1271" d="M180 0v1483h987v-86h-891v-574h816v-86h-816v-651h893v-86h-989z" />
<glyph unicode="&#x416;" horiz-adv-x="2054" d="M1894 0l-426 586q-67 91 -132.5 121t-190.5 30h-70v-737h-96v737h-70q-126 0 -191.5 -29.5t-131.5 -121.5l-426 -586h-119l451 614q89 123 206 164q-116 35 -190 162l-213 377q-41 69 -78.5 83.5t-126.5 -11.5l-8 86q72 25 126 16.5t90.5 -40.5t74.5 -97l211 -377 q49 -84 112.5 -119t163.5 -35h119v660h96v-660h119q100 0 163.5 35t112.5 119l211 377q38 65 74.5 97t90.5 40.5t126 -16.5l-8 -86q-89 26 -126.5 11.5t-78.5 -83.5l-213 -377q-73 -126 -190 -162q114 -40 207 -164l450 -614h-119z" />
<glyph unicode="&#x417;" horiz-adv-x="1351" d="M672 -23q-235 0 -385.5 107t-173.5 299l94 8q21 -160 148 -245t317 -85q199 0 330 94t131 244q0 158 -126.5 248t-334.5 90h-166v82h166q197 0 318.5 84t121.5 217q0 125 -122.5 213t-317.5 88q-180 0 -300 -87.5t-136 -213.5l-95 8q18 156 164 266.5t367 110.5 q124 0 227.5 -32t170.5 -85.5t103.5 -121.5t36.5 -142q0 -72 -29.5 -133.5t-76.5 -101.5t-96.5 -65.5t-98.5 -37.5v-8q51 -12 102.5 -39.5t103 -72t84 -115.5t32.5 -156q0 -179 -157 -298.5t-402 -119.5z" />
<glyph unicode="&#x418;" horiz-adv-x="1470" d="M1290 1483v-1483h-96v1335h-8l-907 -1335h-99v1483h96v-1336h9l907 1336h98z" />
<glyph unicode="&#x419;" horiz-adv-x="1470" d="M1290 1483v-1483h-96v1335h-8l-907 -1335h-99v1483h96v-1336h9l907 1336h98zM737 1530q-123 0 -198.5 56t-75.5 169v43h74v-39q0 -85 56 -123.5t144 -38.5q90 0 144.5 38.5t54.5 123.5v39h74v-43q0 -113 -75 -169t-198 -56z" />
<glyph unicode="&#x41a;" horiz-adv-x="1280" d="M1135 0l-447 590q-72 89 -137 118t-189 29h-86v-737h-96v1483h96v-660h136q99 0 162.5 36t113.5 118l223 373q29 50 55 79t59.5 46.5t75 17t97.5 -17.5l-8 -86q-44 14 -73 17t-52 -8t-38.5 -29.5t-37.5 -55.5l-225 -373q-73 -122 -191 -162q115 -38 211 -160l471 -618 h-120z" />
<glyph unicode="&#x41b;" horiz-adv-x="1458" d="M98 4l11 90q50 -20 86 -20q130 0 190.5 289.5t60.5 850.5v269h832v-1483h-96v1395h-643v-189q0 -192 -6 -345.5t-20.5 -295.5t-40 -245t-62.5 -180.5t-90 -116.5t-121 -39q-59 0 -101 20z" />
<glyph unicode="&#x41c;" horiz-adv-x="1798" d="M180 0v1483h139l576 -1352h8l576 1352h139v-1483h-96v1352h-9l-575 -1352h-82l-575 1352h-9v-1352h-92z" />
<glyph unicode="&#x41d;" horiz-adv-x="1464" d="M180 0v1483h96v-652h912v652h96v-1483h-96v745h-912v-745h-96z" />
<glyph unicode="&#x41e;" horiz-adv-x="1619" d="M811 -23q-147 0 -274 58.5t-215.5 160t-138.5 242.5t-50 303t50 303t138.5 242.5t215.5 160t274 58.5q195 0 350 -99.5t240.5 -274t85.5 -390.5t-85.5 -390.5t-240.5 -274t-350 -99.5zM811 66q125 0 233 51.5t182.5 141.5t117 214.5t42.5 267.5q0 191 -72 345t-204 242.5 t-299 88.5q-168 0 -300.5 -88.5t-205 -242.5t-72.5 -345t72.5 -345t205 -242t300.5 -88z" />
<glyph unicode="&#x41f;" horiz-adv-x="1456" d="M180 0v1483h1096v-1483h-96v1395h-904v-1395h-96z" />
<glyph unicode="&#x420;" horiz-adv-x="1318" d="M180 0v1483h561q213 0 352.5 -117t139.5 -305q0 -189 -139.5 -307.5t-352.5 -118.5h-465v-635h-96zM276 721h461q178 0 288 92t110 246t-110 246t-288 92h-461v-676z" />
<glyph unicode="&#x421;" horiz-adv-x="1517" d="M809 -23q-143 0 -268 57t-214.5 157t-141.5 243t-52 307t52 307t141.5 243t214.5 157t268 57q230 0 391.5 -136.5t200.5 -352.5l-96 -8q-39 184 -173.5 296.5t-322.5 112.5q-161 0 -293 -86.5t-207.5 -241.5t-75.5 -348q0 -145 44.5 -271t121 -214.5t183 -139 t227.5 -50.5q188 0 322 111.5t174 297.5l96 -8q-39 -218 -200 -354t-392 -136z" />
<glyph unicode="&#x422;" horiz-adv-x="1286" d="M594 0v1397h-528v86h1157v-86h-531v-1397h-98z" />
<glyph unicode="&#x423;" horiz-adv-x="1269" d="M248 8l12 86q54 -18 96 -18q62 0 100 30t91 134l35 69l-566 1174h105l510 -1065h8l510 1065h104l-628 -1284q-62 -125 -121 -168t-139 -43q-64 0 -117 20z" />
<glyph unicode="&#x424;" horiz-adv-x="1802" d="M854 -125v197h-29q-135 0 -249 36t-195 99t-138 148t-84.5 182.5t-27.5 203.5t27.5 203.5t84.5 183t138 149t195 100t249 36.5h29v197h96v-197h29q135 0 249 -36.5t195 -100t137.5 -149t83.5 -183t27 -203.5t-27 -203.5t-83.5 -182.5t-137.5 -148t-195 -99t-249 -36h-29 v-197h-96zM829 158h25v1169h-25q-123 0 -225 -33t-171 -89t-117 -132t-69.5 -159.5t-21.5 -172.5t21.5 -172.5t69.5 -158.5t117 -130.5t171 -88.5t225 -33zM950 158h25q123 0 224.5 33t170.5 88.5t116.5 130.5t69 158.5t21.5 172.5t-21.5 172.5t-69 159.5t-116.5 132 t-170.5 89t-224.5 33h-25v-1169z" />
<glyph unicode="&#x425;" horiz-adv-x="1263" d="M49 0l518 750l-497 733h110l453 -674l452 674h109l-498 -733l518 -750h-110l-475 690l-473 -690h-107z" />
<glyph unicode="&#x426;" horiz-adv-x="1554" d="M1276 1483v-1395h139v-473h-90v385h-1145v1483h96v-1395h904v1395h96z" />
<glyph unicode="&#x427;" horiz-adv-x="1390" d="M1114 0v745q-4 -5 -12.5 -14.5t-44.5 -32.5t-83 -41t-132.5 -32.5t-188.5 -14.5q-260 0 -378.5 105t-118.5 336v432h96v-416q0 -203 97.5 -286t320.5 -83q214 0 329 60.5t115 169.5v555h96v-1483h-96z" />
<glyph unicode="&#x428;" horiz-adv-x="1976" d="M940 86v1397h96v-1397h664v1397h96v-1483h-1616v1483h96v-1397h664z" />
<glyph unicode="&#x429;" horiz-adv-x="2070" d="M180 0v1483h96v-1397h664v1397h96v-1397h664v1397h96v-1379h135v-505h-90v401h-1661z" />
<glyph unicode="&#x42a;" horiz-adv-x="1499" d="M385 0v1393h-319v90h319h96v-627h441q213 0 352 -119.5t139 -310.5t-138.5 -308.5t-352.5 -117.5h-537zM481 86h437q179 0 288 92.5t109 249.5t-109 249.5t-288 92.5h-437v-684z" />
<glyph unicode="&#x42b;" horiz-adv-x="1765" d="M180 0v1483h96v-627h416q213 0 352.5 -119.5t139.5 -310.5t-139 -308.5t-353 -117.5h-512zM276 86h412q179 0 288 92.5t109 249.5t-109 249.5t-288 92.5h-412v-684zM1489 0v1483h96v-1483h-96z" />
<glyph unicode="&#x42c;" horiz-adv-x="1294" d="M180 0v1483h96v-627h441q213 0 352 -119.5t139 -310.5t-138.5 -308.5t-352.5 -117.5h-537zM276 86h437q179 0 288 92.5t109 249.5t-109 249.5t-288 92.5h-437v-684z" />
<glyph unicode="&#x42d;" horiz-adv-x="1517" d="M487 727v86h797q-22 265 -184 434.5t-391 169.5q-186 0 -318.5 -100.5t-177.5 -267.5l-94 10q45 198 203.5 322t386.5 124q143 0 268 -57.5t214.5 -157.5t141 -242.5t51.5 -306.5t-51.5 -306.5t-141 -242.5t-214.5 -157.5t-268 -57.5q-229 0 -388 124t-204 325l94 10 q46 -168 179 -269t319 -101q160 0 291 84t208 235.5t80 341.5h-801z" />
<glyph unicode="&#x42e;" horiz-adv-x="2017" d="M180 0v1483h96v-674h324q12 202 96.5 360.5t226.5 247t318 88.5q183 0 330 -97.5t230 -272.5t83 -394q0 -220 -83 -394.5t-230 -272t-330 -97.5t-329 95t-228.5 265.5t-85.5 385.5h-322v-723h-96zM1241 66q155 0 280.5 87.5t196 242t70.5 345.5t-70.5 345.5t-196 242.5 t-280.5 88q-157 0 -282.5 -88t-195 -242.5t-69.5 -345.5t69.5 -345.5t195 -242t282.5 -87.5z" />
<glyph unicode="&#x42f;" horiz-adv-x="1398" d="M41 0l432 541q76 98 182 145q-219 13 -342 121t-123 270q0 168 138 287t344 119h547v-1483h-97v672h-221q-112 0 -190 -36t-144 -118l-413 -518h-113zM717 758h405v639h-438q-179 0 -288 -87.5t-109 -232.5t116.5 -232t313.5 -87z" />
<glyph unicode="&#x430;" horiz-adv-x="1075" d="M436 -20q-138 0 -224.5 77t-86.5 207q0 124 76 200.5t202 108.5l420 107v37q0 280 -272 280q-276 0 -307 -209l-86 9q17 140 123.5 208t273.5 68q170 0 264 -88t94 -260v-397q0 -212 21 -312v-16h-86q-21 79 -21 188v17h-8q-21 -39 -51 -74t-76 -71.5t-112.5 -58 t-143.5 -21.5zM451 55q154 0 263 105.5t109 253.5v188l-397 -100q-94 -23 -151.5 -82t-57.5 -152q0 -95 65 -154t169 -59z" />
<glyph unicode="&#x431;" horiz-adv-x="1136" d="M588 -20q-207 0 -337 155t-130 440q0 436 131.5 640.5t413.5 226.5q170 14 199.5 26t35.5 70l78 -4q-2 -30 -5 -51.5t-12.5 -39t-18.5 -28.5t-30 -20t-38.5 -13.5t-53.5 -8.5t-64.5 -5.5t-82.5 -3.5q-210 -7 -317 -129t-144 -385h8q54 85 152 146t231 61 q192 0 319.5 -151.5t127.5 -393.5q0 -234 -131.5 -383t-331.5 -149zM588 61q157 0 263.5 127t106.5 324q0 209 -103.5 336t-266.5 127t-269 -104t-106 -240v-107q0 -208 108 -335.5t267 -127.5z" />
<glyph unicode="&#x432;" horiz-adv-x="1122" d="M168 0v1053h481q137 0 228.5 -74t91.5 -195q0 -90 -51.5 -147.5t-124.5 -83.5v-6q34 -10 67 -28.5t66 -48.5t53 -76.5t20 -102.5q0 -135 -96.5 -213t-247.5 -78h-487zM260 84h383q120 0 192 55t72 156q0 99 -72 154t-192 55h-383v-420zM260 584h381q104 0 170 52.5 t66 139.5q0 89 -66 142t-170 53h-381v-387z" />
<glyph unicode="&#x433;" horiz-adv-x="909" d="M154 0v1053h714v-84h-622v-969h-92z" />
<glyph unicode="&#x434;" horiz-adv-x="1183" d="M37 -352v434h74q104 114 142 281t38 514v176h667v-971h152v-434h-78v352h-917v-352h-78zM205 82h661v889h-487v-103q0 -330 -41.5 -504.5t-132.5 -281.5z" />
<glyph unicode="&#x435;" horiz-adv-x="1122" d="M584 -20q-208 0 -343 151t-135 393q0 241 136 395t338 154q194 0 314 -136t120 -343v-72h-813v-22q3 -195 111.5 -319t271.5 -124q124 0 207 67.5t116 174.5l86 -10q-35 -135 -143 -222t-266 -87zM203 600h719v21q0 159 -95.5 266.5t-246.5 107.5q-156 0 -261 -115 t-116 -280z" />
<glyph unicode="&#x436;" horiz-adv-x="1427" d="M1280 0l-281 414q-40 60 -82.5 81t-117.5 21h-39v-516h-92v516h-39q-74 0 -117 -21.5t-84 -80.5l-281 -414h-106l303 446q58 83 131 109q-79 35 -121 113l-127 237q-15 27 -25.5 41.5t-28 23.5t-40.5 7.5t-59 -10.5l-8 82q41 11 74 10.5t55.5 -8.5t42.5 -26.5t32.5 -37 t28.5 -47.5l125 -238q32 -58 74 -81t110 -23h60v455h92v-455h59q69 0 111 23t74 81l124 238q16 30 28 48t31.5 37t41.5 26.5t55 8t74 -10.5l-8 -82q-36 9 -58.5 10.5t-39.5 -8t-27 -23t-25 -41.5l-127 -237q-45 -82 -123 -113q77 -29 133 -109l303 -446h-106z" />
<glyph unicode="&#x437;" horiz-adv-x="1024" d="M502 -20q-81 0 -148 16t-121.5 50t-89.5 90t-45 132l86 8q17 -111 101.5 -165t216.5 -54q129 0 219 65.5t90 166.5q0 90 -80.5 156.5t-228.5 66.5h-144v78h144q141 0 215 60.5t74 140.5q0 97 -81.5 150.5t-207.5 53.5q-124 0 -205 -54t-96 -157l-86 9q15 132 123.5 206 t263.5 74q168 0 273.5 -77t105.5 -197q0 -84 -59.5 -149.5t-145.5 -88.5v-8q92 -21 158.5 -92t66.5 -176q0 -137 -117.5 -221t-281.5 -84z" />
<glyph unicode="&#x438;" horiz-adv-x="1150" d="M983 1053v-1053h-90v905h-8l-627 -905h-90v1053h90v-906h8l627 906h90z" />
<glyph unicode="&#x439;" horiz-adv-x="1150" d="M983 1053v-1053h-90v905h-8l-627 -905h-90v1053h90v-906h8l627 906h90zM567 1194q-116 0 -187 55t-71 166v41h70v-37q0 -83 52.5 -121t135.5 -38q84 0 136.5 37.5t52.5 121.5v37h69v-41q0 -111 -71 -166t-187 -55z" />
<glyph unicode="&#x43a;" horiz-adv-x="954" d="M815 0l-293 414q-41 59 -84.5 80.5t-118.5 21.5h-59v-516h-92v1053h92v-455h80q68 0 110 23.5t76 80.5l129 238q16 29 29.5 49t34 38t44 25.5t56 7.5t72.5 -11l-8 -82q-37 11 -60.5 12.5t-40.5 -9t-26.5 -23.5t-26.5 -42l-131 -237q-47 -84 -125 -113q77 -29 135 -109 l316 -446h-109z" />
<glyph unicode="&#x43b;" horiz-adv-x="1136" d="M53 4l13 86q40 -20 73 -20q197 0 197 757v226h635v-1053h-92v967h-455v-148q0 -202 -14 -350.5t-46 -260t-87.5 -168t-133.5 -56.5q-50 0 -90 20z" />
<glyph unicode="&#x43c;" horiz-adv-x="1396" d="M168 0v1053h123l403 -922h13l403 922h123v-1053h-88v922h-8l-402 -922h-69l-402 922h-8v-922h-88z" />
<glyph unicode="&#x43d;" horiz-adv-x="1142" d="M168 0v1053h92v-447h623v447h92v-1053h-92v524h-623v-524h-92z" />
<glyph unicode="&#x43e;" horiz-adv-x="1167" d="M584 -20q-133 0 -241.5 67t-172.5 192.5t-64 286.5q0 242 137.5 394.5t340.5 152.5q204 0 340.5 -152.5t136.5 -394.5q0 -243 -136 -394.5t-341 -151.5zM584 61q163 0 274 128t111 337q0 207 -111.5 336t-273.5 129t-273.5 -129t-111.5 -336q0 -209 111 -337t274 -128z " />
<glyph unicode="&#x43f;" horiz-adv-x="1134" d="M168 0v1053h799v-1053h-93v969h-614v-969h-92z" />
<glyph unicode="&#x440;" d="M174 -406v1459h86v-213q9 23 25.5 50t48 60.5t70 60t95 44.5t119.5 18q191 0 317 -152t126 -397q0 -161 -60 -286t-162 -191.5t-227 -66.5q-63 0 -118 16.5t-92 40t-66.5 54.5t-45 56t-24.5 48v-601h-92zM596 59q165 0 269 129.5t104 335.5q0 207 -103 337t-266 130 q-145 0 -239.5 -105.5t-94.5 -256.5v-215q0 -151 91.5 -253t238.5 -102z" />
<glyph unicode="&#x441;" horiz-adv-x="1083" d="M580 -20q-200 0 -337 153t-137 393t137 393.5t337 153.5q159 0 273 -97t142 -247l-90 -8q-27 122 -114.5 196t-210.5 74q-163 0 -272 -130t-109 -335q0 -206 108.5 -335.5t272.5 -129.5q124 0 212 75.5t113 203.5l90 -8q-25 -155 -140 -253.5t-275 -98.5z" />
<glyph unicode="&#x442;" horiz-adv-x="960" d="M434 0v969h-385v84h862v-84h-385v-969h-92z" />
<glyph unicode="&#x443;" horiz-adv-x="991" d="M219 -410q-43 0 -100 17l10 80q50 -15 84 -15q68 0 108.5 40.5t69.5 117.5l58 158l-410 1065h98l359 -936h8l352 936h96l-481 -1252q-41 -107 -98.5 -159t-153.5 -52z" />
<glyph unicode="&#x444;" horiz-adv-x="1613" d="M494 -4q-160 0 -269.5 142.5t-109.5 387.5q0 246 110.5 388.5t276.5 142.5q53 0 99.5 -16t74.5 -38.5t48.5 -45t29.5 -38.5l8 -16v557h90v-561q3 6 9.5 17t30.5 38t52.5 48t75.5 38t100 17q160 0 269.5 -143t109.5 -388q0 -246 -110.5 -388t-276.5 -142q-53 0 -99.5 15.5 t-74.5 37.5t-48.5 43.5t-29.5 37.5l-8 15v-555h-90v560q-3 -6 -9.5 -16.5t-30.5 -37t-52.5 -47t-75.5 -37t-100 -16.5zM510 78q103 0 177.5 76.5t74.5 177.5v389q0 104 -69 179t-179 75q-138 0 -223.5 -122.5t-85.5 -326.5q0 -203 85 -325.5t220 -122.5zM1100 78 q138 0 223.5 122t85.5 326q0 203 -85 326t-220 123q-103 0 -177.5 -76.5t-74.5 -177.5v-389q0 -103 69.5 -178.5t178.5 -75.5z" />
<glyph unicode="&#x445;" horiz-adv-x="997" d="M57 0l381 541l-370 512h104l330 -459l327 459h101l-371 -512l381 -541h-102l-342 485l-338 -485h-101z" />
<glyph unicode="&#x446;" horiz-adv-x="1142" d="M942 1053v-971h127v-430h-78v348h-848v1053h93v-969h614v969h92z" />
<glyph unicode="&#x447;" horiz-adv-x="1105" d="M846 0v502q-3 -4 -9.5 -10t-32 -21.5t-57.5 -27.5t-87.5 -21.5t-120.5 -9.5q-205 0 -298.5 67.5t-93.5 235.5v338h93v-322q0 -74 16 -120t56 -71.5t94.5 -34.5t144.5 -9q136 0 215.5 35t79.5 98v424h92v-1053h-92z" />
<glyph unicode="&#x448;" horiz-adv-x="1656" d="M782 82v971h92v-971h523v971h92v-1053h-1321v1053h92v-971h522z" />
<glyph unicode="&#x449;" horiz-adv-x="1689" d="M168 0v1053h92v-971h522v971h92v-971h523v971h92v-971h129v-430h-80v348h-1370z" />
<glyph unicode="&#x44a;" horiz-adv-x="1196" d="M336 0v971h-262v82h262h92v-410h281q172 0 280.5 -91t108.5 -230t-108.5 -230.5t-280.5 -91.5h-373zM428 82h281q133 0 215 68t82 172t-82 171.5t-215 67.5h-281v-479z" />
<glyph unicode="&#x44b;" horiz-adv-x="1404" d="M168 0v1053h92v-416h272q170 0 275.5 -91.5t105.5 -226.5q0 -136 -105.5 -227.5t-275.5 -91.5h-364zM260 82h272q128 0 208.5 69.5t80.5 167.5t-80.5 167t-208.5 69h-272v-473zM1145 0v1053h92v-1053h-92z" />
<glyph unicode="&#x44c;" horiz-adv-x="1028" d="M168 0v1053h92v-410h281q172 0 280.5 -91t108.5 -230t-108.5 -230.5t-280.5 -91.5h-373zM260 82h281q133 0 215 68t82 172t-82 171.5t-215 67.5h-281v-479z" />
<glyph unicode="&#x44d;" horiz-adv-x="1085" d="M358 516v78h527q-20 179 -125.5 289t-253.5 110q-124 0 -212.5 -67t-115.5 -172l-88 12q29 133 141 220t275 87q200 0 336.5 -154t136.5 -393t-136.5 -392.5t-336.5 -153.5q-162 0 -275 88.5t-141 228.5l88 12q29 -110 116.5 -180t211.5 -70q161 0 270.5 128t112.5 329 h-531z" />
<glyph unicode="&#x44e;" horiz-adv-x="1527" d="M168 0v1053h92v-461h270q18 218 144 349.5t299 131.5q188 0 316 -150.5t128 -396.5q0 -124 -35 -227.5t-95.5 -172.5t-141.5 -107.5t-172 -38.5q-186 0 -314 146t-131 388h-268v-514h-92zM973 59q148 0 251 127t103 340q0 211 -103 339t-251 128t-251.5 -128t-103.5 -339 q0 -212 103.5 -339.5t251.5 -127.5z" />
<glyph unicode="&#x44f;" horiz-adv-x="1081" d="M49 0l303 383q53 67 131 104q-142 12 -225.5 84.5t-83.5 190.5q0 124 101 207.5t255 83.5h383v-1053h-92v471h-133q-83 0 -141 -29t-111 -96l-274 -346h-113zM563 553h258v418h-282q-127 0 -200 -57.5t-73 -151.5q0 -95 77 -152t220 -57z" />
<glyph unicode="&#x451;" horiz-adv-x="1122" d="M584 -20q-208 0 -343 151t-135 393q0 241 136 395t338 154q194 0 314 -136t120 -343v-72h-813v-22q3 -195 111.5 -319t271.5 -124q124 0 207 67.5t116 174.5l86 -10q-35 -135 -143 -222t-266 -87zM203 600h719v21q0 159 -95.5 266.5t-246.5 107.5q-156 0 -261 -115 t-116 -280zM807 1274h-92v147h92v-147zM440 1274h-92v147h92v-147z" />
<glyph unicode="&#x1e9e;" horiz-adv-x="1511" d="M164 0v1034q0 152 72 259.5t190 158.5t270 51q96 0 181.5 -23.5t139.5 -57.5t86.5 -63.5t43.5 -51.5v-9l-217 -362v-8q67 -10 129 -30t124 -57t107 -86.5t73 -122t28 -159.5q0 -121 -46 -216.5t-125 -155t-180 -90.5t-217 -31q-87 0 -171 15t-124 31l-41 15l15 80 q16 -7 44.5 -17.5t112 -27.5t160.5 -17q97 0 181.5 27t149.5 77.5t102.5 130.5t37.5 179q0 93 -35 164.5t-99 117t-144.5 71.5t-180.5 36v76l209 350q-7 14 -32.5 35t-67 45t-107 40.5t-137.5 16.5q-191 0 -312.5 -103.5t-121.5 -291.5v-1030h-98z" />
<glyph unicode="&#x2000;" horiz-adv-x="967" />
<glyph unicode="&#x2001;" horiz-adv-x="1935" />
<glyph unicode="&#x2002;" horiz-adv-x="967" />
<glyph unicode="&#x2003;" horiz-adv-x="1935" />
<glyph unicode="&#x2004;" horiz-adv-x="645" />
<glyph unicode="&#x2005;" horiz-adv-x="483" />
<glyph unicode="&#x2006;" horiz-adv-x="322" />
<glyph unicode="&#x2007;" horiz-adv-x="322" />
<glyph unicode="&#x2008;" horiz-adv-x="241" />
<glyph unicode="&#x2009;" horiz-adv-x="387" />
<glyph unicode="&#x200a;" horiz-adv-x="107" />
<glyph unicode="&#x2010;" horiz-adv-x="679" d="M59 551v78h562v-78h-562z" />
<glyph unicode="&#x2011;" horiz-adv-x="679" d="M59 551v78h562v-78h-562z" />
<glyph unicode="&#x2012;" horiz-adv-x="679" d="M59 551v78h562v-78h-562z" />
<glyph unicode="&#x2013;" horiz-adv-x="952" d="M23 559v72h907v-72h-907z" />
<glyph unicode="&#x2014;" horiz-adv-x="1787" d="M23 559v72h1744v-72h-1744z" />
<glyph unicode="&#x2018;" horiz-adv-x="483" d="M315 1542l9 -61q-84 -30 -126.5 -102t-27.5 -148h137v-148h-49q-87 0 -129 80q-43 80 -14 180q34 117 147 177q25 13 53 22z" />
<glyph unicode="&#x2019;" horiz-adv-x="454" d="M139 1059l-8 61q84 30 126.5 102t27.5 148h-138v148h50q87 0 129 -80q43 -80 14 -180q-34 -117 -148 -177q-26 -13 -53 -22z" />
<glyph unicode="&#x201a;" horiz-adv-x="485" d="M168 -311l-8 61q84 30 126 102t27 148h-137v147h49q87 0 129 -80q43 -80 14 -180q-34 -117 -147 -176q-25 -13 -53 -22z" />
<glyph unicode="&#x201c;" horiz-adv-x="761" d="M297 1542l8 -61q-84 -30 -126 -102t-27 -148h137v-148h-49q-87 0 -129 80q-43 80 -14 180q34 117 147 177q25 13 53 22zM623 1542l8 -61q-84 -30 -126.5 -102t-27.5 -148h137v-148h-49q-87 0 -129 80q-43 80 -14 180q34 117 148 177q25 13 53 22z" />
<glyph unicode="&#x201d;" horiz-adv-x="761" d="M139 1059l-8 61q84 30 126.5 102t27.5 148h-138v148h50q87 0 129 -80q43 -80 14 -180q-34 -117 -148 -177q-26 -13 -53 -22zM465 1059l-8 61q84 30 126 102t27 148h-137v148h49q87 0 129 -80q43 -80 14 -180q-34 -117 -147 -177q-25 -13 -53 -22z" />
<glyph unicode="&#x201e;" horiz-adv-x="808" d="M168 -311l-8 61q84 30 126 102t27 148h-137v147h49q87 0 129 -80q43 -80 14 -180q-34 -117 -147 -176q-25 -13 -53 -22zM494 -311l-9 61q84 30 126.5 102t27.5 148h-137v147h49q87 0 129 -80q43 -80 14 -180q-34 -117 -147 -176q-25 -13 -53 -22z" />
<glyph unicode="&#x2020;" horiz-adv-x="880" d="M82 897v86q144 75 313 84v453h90v-453q171 -9 314 -84v-86q-141 83 -314 92v-1225h-90v1225q-172 -9 -313 -92z" />
<glyph unicode="&#x2021;" horiz-adv-x="880" d="M86 926v84q144 77 309 86v424h90v-424q162 -9 310 -86v-84q-152 85 -310 94v-852q167 13 310 96v-84q-152 -79 -310 -88v-422h-90v422q-160 9 -309 88v84q144 -84 309 -96v852q-157 -9 -309 -94z" />
<glyph unicode="&#x2022;" horiz-adv-x="714" d="M541 592h-348v393h348v-393z" />
<glyph unicode="&#x2026;" horiz-adv-x="1441" d="M295 0h-131v147h131v-147zM786 0h-131v147h131v-147zM1278 0h-131v147h131v-147z" />
<glyph unicode="&#x202f;" horiz-adv-x="387" />
<glyph unicode="&#x2030;" horiz-adv-x="2105" d="M145 0l1026 1483h80l-1026 -1483h-80zM999 -29q-126 0 -215.5 103t-89.5 256q0 154 89 254t216 100q126 0 216 -100.5t90 -253.5t-90.5 -256t-215.5 -103zM999 39q97 0 163.5 82t66.5 209t-67 206.5t-163 79.5q-97 0 -163 -79.5t-66 -206.5t66.5 -209t162.5 -82zM397 799 q-125 0 -215 101.5t-90 254.5q0 154 89.5 255t215.5 101q127 0 216 -101t89 -255q0 -153 -89.5 -254.5t-215.5 -101.5zM397 866q97 0 163.5 81t66.5 208q0 128 -67 208.5t-163 80.5q-97 0 -163 -81t-66 -208q0 -126 67 -207.5t162 -81.5zM1712 -29q-126 0 -215.5 103 t-89.5 256q0 154 89 254t216 100q126 0 215.5 -100t89.5 -254q0 -153 -90 -256t-215 -103zM1712 39q97 0 163.5 82t66.5 209t-67 206.5t-163 79.5q-97 0 -163 -79.5t-66 -206.5t66.5 -209t162.5 -82z" />
<glyph unicode="&#x2039;" horiz-adv-x="602" d="M80 549v86l389 397v-104l-319 -332v-8l319 -332v-109z" />
<glyph unicode="&#x203a;" horiz-adv-x="602" d="M522 633v-86l-389 -397v104l320 332v8l-320 332v108z" />
<glyph unicode="&#x2044;" horiz-adv-x="1028" d="M-35 -51l1014 1577h84l-1014 -1577h-84z" />
<glyph unicode="&#x205f;" horiz-adv-x="483" />
<glyph unicode="&#x2070;" horiz-adv-x="778" d="M401 725q-127 0 -211 108.5t-84 280.5t84 280.5t211 108.5q130 0 212.5 -108t82.5 -281t-82.5 -281t-212.5 -108zM401 788q92 0 156 90.5t64 235.5q0 148 -64 236t-156 88q-93 0 -156 -88t-63 -236q0 -146 64 -236t155 -90z" />
<glyph unicode="&#x2074;" horiz-adv-x="778" d="M471 741v181h-375v67l373 502h78v-512h106v-57h-106v-181h-76zM162 979h309v422z" />
<glyph unicode="&#x20ac;" horiz-adv-x="1296" d="M92 848v65h133q34 270 167.5 430t324.5 160q160 0 276 -111.5t144 -287.5l-86 -8q-29 148 -120.5 238.5t-213.5 90.5q-153 0 -260 -139t-138 -373h658l-10 -65h-654q-4 -35 -4 -107q0 -71 4 -106h600l-12 -66h-582q31 -234 138 -373t260 -139q122 0 212.5 89.5 t121.5 238.5l86 -8q-29 -178 -144.5 -287.5t-275.5 -109.5q-191 0 -324.5 159t-167.5 430h-133v66h127q-4 35 -4 106q0 72 4 107h-127z" />
<glyph unicode="&#x2122;" horiz-adv-x="1685" d="M354 741v680h-288v62h647v-62h-289v-680h-70zM842 741v742h104l268 -654h7l270 654h102v-742h-65v668h-4l-277 -668h-59l-277 668h-4v-668h-65z" />
<glyph unicode="&#x2126;" horiz-adv-x="1699" d="M111 0v74h428q-72 32 -139 91t-123 141.5t-89.5 197t-33.5 241.5q0 161 52 301.5t143 241t220.5 158t280.5 57.5t280.5 -57.5t220.5 -158t143 -241t52 -301.5q0 -103 -22.5 -197.5t-59.5 -168.5t-87.5 -135t-105 -103t-112.5 -67h430v-74h-616v74h8q85 2 170.5 55 t153 140.5t109.5 212t42 259.5q0 193 -76 349.5t-215 246.5t-315 90t-315 -90t-215 -246.5t-76 -349.5q0 -135 42 -259.5t109.5 -212t153 -140.5t170.5 -55h8v-74h-616z" />
<glyph unicode="&#x2202;" horiz-adv-x="1220" d="M606 -20q-200 0 -330.5 151.5t-130.5 386.5q0 239 130 385t319 146q137 0 230 -69.5t130 -164.5h9q-24 126 -75.5 236.5t-124 196.5t-154.5 152t-179 118l107 6q77 -43 147 -99.5t142 -143t123.5 -187.5t84.5 -239.5t33 -293.5q0 -122 -26.5 -221.5t-70.5 -165 t-104 -110.5t-125 -64.5t-135 -19.5zM606 49q162 0 269.5 130t107.5 358q0 135 -52.5 237.5t-137.5 154.5t-189 52q-157 0 -266 -126.5t-109 -336.5q0 -208 108 -338.5t269 -130.5z" />
<glyph unicode="&#x2206;" horiz-adv-x="1280" d="M0 0l590 1487h100l590 -1487h-1280zM113 74h1054l-522 1321h-8z" />
<glyph unicode="&#x220f;" horiz-adv-x="1298" d="M176 -262v74l436 938l-405 831v74h893v-74h-795l406 -831l-437 -938h875v-74h-973z" />
<glyph unicode="&#x2211;" horiz-adv-x="1349" d="M287 -262v1843h-217v76h1210v-76h-217v-1843h-88v1843h-600v-1843h-88z" />
<glyph unicode="&#x2212;" d="M1071 551h-969v74h969v-74z" />
<glyph unicode="&#x221a;" horiz-adv-x="1390" d="M510 0l-203 692h-178v72h238l194 -682h19l507 1649h416v-72h-354l-518 -1659h-121z" />
<glyph unicode="&#x221e;" horiz-adv-x="1695" d="M1245 373q-67 0 -131.5 27t-115 71t-87 87.5t-63.5 88.5q-27 -45 -63.5 -88.5t-87 -87.5t-115 -71t-131.5 -27q-149 0 -251 101t-102 253t102 253t251 101q67 0 131.5 -27.5t115 -71.5t87 -88t63.5 -89q27 45 63.5 89t87 88t115 71.5t131.5 27.5q150 0 251 -100.5 t101 -253.5t-101 -253.5t-251 -100.5zM453 453q58 0 115.5 25.5t99 62t74.5 76.5t50 70t17 40q0 13 -28 55.5t-72.5 92t-114.5 88t-141 38.5q-110 0 -188.5 -79t-78.5 -195q0 -117 78.5 -195.5t188.5 -78.5zM1243 453q111 0 187.5 78t76.5 196q0 116 -76.5 195t-187.5 79 q-71 0 -141 -38.5t-114.5 -88t-72.5 -92t-28 -55.5q0 -10 17 -40t50 -70t74.5 -76.5t99 -62t115.5 -25.5z" />
<glyph unicode="&#x222b;" horiz-adv-x="440" d="M406 1675q49 0 110 -14l-4 -70q-80 11 -94 11q-78 0 -118 -45t-40 -152v-1425q0 -136 -57 -198.5t-168 -62.5q-55 0 -109 13l2 71q58 -12 95 -12q78 0 117.5 45.5t39.5 153.5v1423q0 137 57.5 199.5t168.5 62.5z" />
<glyph unicode="&#x2243;" d="M119 360v76h936v-76h-936zM125 692l-6 86q95 111 221 111q61 0 131 -19.5t123 -43t119.5 -43t120.5 -19.5q115 0 215 121l6 -86q-95 -111 -221 -111q-61 0 -131 19.5t-123 43t-119.5 43t-120.5 19.5q-115 0 -215 -121z" />
<glyph unicode="&#x2248;" d="M125 303l-6 78q91 117 221 117q61 0 131 -19.5t123 -43t119.5 -43t120.5 -19.5q115 0 215 121l6 -78q-91 -117 -221 -117q-61 0 -131 19.5t-123 43t-119.5 43t-120.5 19.5q-115 0 -215 -121zM125 688l-6 78q94 117 221 117q61 0 131 -19.5t123 -43t119.5 -43t120.5 -19.5 q115 0 215 121l6 -78q-91 -117 -221 -117q-61 0 -131 19.5t-123 43t-119.5 43t-120.5 19.5q-115 0 -215 -121z" />
<glyph unicode="&#x2260;" d="M113 752v73h536l94 209h76l-94 -209h336v-73h-369l-135 -299h504v-76h-539l-92 -207h-76l92 207h-333v76h368l135 299h-503z" />
<glyph unicode="&#x2264;" d="M137 174v72h875v-72h-875zM137 688v94l875 330v-78l-789 -295v-10l789 -291v-80z" />
<glyph unicode="&#x2265;" d="M1036 246v-72h-874v72h874zM1036 782v-94l-874 -330v80l788 291v10l-788 295v78z" />
<glyph unicode="&#x22c5;" horiz-adv-x="485" d="M307 674h-131v147h131v-147z" />
<glyph unicode="&#x25ca;" horiz-adv-x="1171" d="M586 -29l-525 770l525 770l522 -770zM586 90l434 651l-434 652l-436 -652z" />
<glyph unicode="&#x25fc;" horiz-adv-x="1054" d="M0 1055h1055v-1055h-1055v1055z" />
<glyph horiz-adv-x="1144" d="M39 0l475 1143h117l475 -1143h-102l-164 399h-539l-164 -399h-98zM567 1047l-239 -582h485l-238 582h-8z" />
<glyph d="M168 0v1143h518q145 0 240.5 -79.5t95.5 -209.5q0 -98 -55 -161.5t-133 -90.5v-6q40 -12 76.5 -33t70.5 -54t54 -83t20 -111q0 -145 -101.5 -230t-261.5 -85h-524zM262 84h418q128 0 204.5 62t76.5 173q0 109 -76.5 171.5t-204.5 62.5h-418v-469zM262 633h416 q113 0 182.5 58.5t69.5 154.5q0 99 -69 157t-183 58h-416v-428z" />
<glyph horiz-adv-x="1224" d="M653 -20q-153 0 -278.5 76.5t-197 212.5t-71.5 302q0 253 157 422.5t390 169.5q185 0 317 -110t165 -281l-93 -8q-31 142 -136.5 227.5t-252.5 85.5q-191 0 -320.5 -145t-129.5 -361q0 -215 129.5 -360t320.5 -145q146 0 252 86t139 227l93 -8q-34 -174 -166.5 -282.5 t-317.5 -108.5z" />
<glyph horiz-adv-x="1261" d="M168 0v1143h391q261 0 427.5 -156t166.5 -412t-167 -415.5t-427 -159.5h-391zM262 86h291q224 0 365 134.5t141 354.5q0 219 -140.5 351.5t-365.5 132.5h-291v-973z" />
<glyph horiz-adv-x="1071" d="M168 0v1143h811v-84h-717v-416h656v-82h-656v-475h717v-86h-811z" />
<glyph horiz-adv-x="1044" d="M168 0v1143h790v-86h-696v-430h664v-84h-664v-543h-94z" />
<glyph horiz-adv-x="1298" d="M666 -20q-241 0 -400.5 165.5t-159.5 425.5q0 130 43.5 241t118.5 187.5t178.5 120t221.5 43.5q187 0 311.5 -93t163.5 -236l-92 -15q-33 112 -133.5 185t-251.5 73q-200 0 -331.5 -142t-131.5 -364t131 -365t332 -143q67 0 127 16.5t103 42t78.5 59t56.5 63.5t34 59v209 h-393v84h483v-313q-16 -38 -42 -76t-69 -80t-95.5 -74t-126.5 -52.5t-156 -20.5z" />
<glyph horiz-adv-x="1255" d="M168 0v1143h94v-492h731v492h94v-1143h-94v565h-731v-565h-94z" />
<glyph horiz-adv-x="428" d="M168 0v1143h94v-1143h-94z" />
<glyph horiz-adv-x="1071" d="M487 -20q-178 0 -293.5 94.5t-115.5 259.5v47l90 4v-37q0 -141 89 -213t230 -72q146 0 239 81t93 233v766h94v-776q0 -182 -120.5 -284.5t-305.5 -102.5z" />
<glyph horiz-adv-x="1081" d="M956 0l-516 580l-178 -162v-418h-94v1143h94v-621l131 119l551 502h121l-553 -502l569 -641h-125z" />
<glyph horiz-adv-x="1009" d="M168 0v1143h94v-1055h713v-88h-807z" />
<glyph horiz-adv-x="1538" d="M168 0v1143h135l461 -1028h8l465 1028h133v-1143h-92v1030h-6l-463 -1030h-84l-461 1030h-6v-1030h-90z" />
<glyph horiz-adv-x="1271" d="M168 0v1143h108l728 -1010h8v1010h92v-1143h-111l-727 1010h-6v-1010h-92z" />
<glyph horiz-adv-x="1320" d="M659 -20q-160 0 -287 78.5t-196.5 213t-69.5 299.5q0 166 69.5 301t196.5 213t287 78q159 0 286 -78t197 -213t70 -301q0 -165 -70 -299.5t-197 -213t-286 -78.5zM659 63q132 0 237.5 68t163.5 183.5t58 256.5t-58 256.5t-163.5 183.5t-237.5 68t-237.5 -68t-163 -183.5 t-57.5 -256.5t57.5 -256.5t163 -183.5t237.5 -68z" />
<glyph horiz-adv-x="1114" d="M168 0v1143h455q174 0 285.5 -97t111.5 -258q0 -159 -111.5 -255.5t-281.5 -96.5h-365v-436h-94zM262 520h356q140 0 224 71.5t84 196.5t-85 198t-223 73h-356v-539z" />
<glyph horiz-adv-x="1320" d="M659 -20q-160 0 -287 78.5t-196.5 213t-69.5 299.5q0 166 69.5 301t196.5 213t287 78q159 0 286 -78t197 -213t70 -301q0 -126 -45.5 -238.5t-128.5 -195.5q48 -61 103 -97t137 -44l-12 -70q-97 11 -158 53.5t-117 114.5q-146 -114 -332 -114zM692 315l13 70 q70 -8 127 -38t88 -61.5t69 -82.5q129 145 129 368q0 141 -58 256.5t-163.5 183.5t-237.5 68t-237.5 -68t-163 -183.5t-57.5 -256.5t57.5 -256.5t163 -183.5t237.5 -68q162 0 283 97q-54 68 -109 107t-141 48z" />
<glyph horiz-adv-x="1146" d="M168 0v1143h467q163 0 270 -95.5t107 -236.5q0 -132 -101.5 -215.5t-265.5 -101.5q84 -34 146 -111l311 -383h-109l-297 362q-51 62 -108 87.5t-146 25.5h-180v-475h-94zM262 557h320q152 0 245 67.5t93 182.5q0 117 -80.5 185.5t-214.5 68.5h-363v-504z" />
<glyph horiz-adv-x="1177" d="M590 -20q-198 0 -325.5 86.5t-145.5 263.5l90 6q6 -59 28.5 -105.5t57.5 -78t82 -52.5t100.5 -30t114.5 -9q153 0 256.5 68t103.5 180q0 81 -70 131.5t-204 79.5l-193 43q-77 18 -132.5 39t-103.5 53.5t-72.5 79.5t-24.5 109q0 139 128.5 229t309.5 90q180 0 302.5 -85 t139.5 -244l-90 -9q-11 87 -62 145.5t-124.5 84.5t-167.5 26q-138 0 -240 -66t-102 -167q0 -86 66.5 -131t197.5 -74l195 -43q166 -38 254 -104.5t88 -182.5q0 -102 -61.5 -178.5t-164.5 -115.5t-231 -39z" />
<glyph horiz-adv-x="1073" d="M487 0v1057h-432v86h963v-86h-436v-1057h-95z" />
<glyph horiz-adv-x="1253" d="M627 -18q-217 0 -343 114t-126 307v740h92v-731q0 -159 100 -251.5t277 -92.5q178 0 278.5 92.5t100.5 251.5v731h90v-740q0 -193 -125.5 -307t-343.5 -114z" />
<glyph horiz-adv-x="1101" d="M504 0l-465 1143h100l410 -1016h8l410 1016h98l-467 -1143h-94z" />
<glyph horiz-adv-x="1656" d="M1153 0l-319 1008h-9l-317 -1008h-102l-353 1143h97l309 -1014h6l317 1014h97l319 -1014h8l305 1014h93l-351 -1143h-100z" />
<glyph horiz-adv-x="1087" d="M57 0l424 578l-407 565h108l363 -510l362 510h107l-408 -565l424 -578h-108l-379 520l-379 -520h-107z" />
<glyph horiz-adv-x="1085" d="M496 0v465l-471 678h110l406 -584h8l403 584h109l-471 -678v-465h-94z" />
<glyph horiz-adv-x="1114" d="M102 0v72l779 985h-772v86h899v-72l-779 -985h785v-86h-912z" />
<glyph horiz-adv-x="1118" d="M168 0v1155h94v-203h369q175 0 284 -92.5t109 -251.5q0 -160 -108.5 -253t-280.5 -93h-373v-262h-94zM262 344h361q139 0 223 70t84 192q0 124 -84 195t-223 71h-361v-528z" />
<glyph horiz-adv-x="1320" d="M244 -219l131 276q-125 75 -197 211.5t-72 302.5t69.5 301t196.5 213t287 78q116 0 222 -45l114 244h82l-133 -279q125 -75 196.5 -210.5t71.5 -301.5q0 -165 -70 -299.5t-197 -213t-286 -78.5q-112 0 -217 43l-114 -242h-84zM201 571q0 -138 56 -253t155 -181l430 903 q-86 39 -183 39q-132 0 -237.5 -68t-163 -183.5t-57.5 -256.5zM659 63q132 0 237.5 68t163.5 183.5t58 256.5q0 137 -56 252t-155 181l-428 -904q85 -37 180 -37z" />
<glyph horiz-adv-x="1275" d="M23 545v76h159v522h391q261 0 427.5 -156t166.5 -412t-167 -415.5t-427 -159.5h-391v545h-159zM276 86h291q224 0 365 134.5t141 354.5q0 219 -140.5 351.5t-365.5 132.5h-291v-438h351v-76h-351v-459z" />
<glyph horiz-adv-x="1323" d="M145 -2v782q0 119 61.5 207t165 132t232.5 44q84 0 159.5 -18t124.5 -45t79 -50.5t41 -41.5v-11l-168 -258v-8q166 -28 266 -117t100 -241q0 -184 -131.5 -288.5t-345.5 -104.5q-76 0 -150 12t-111 24l-36 13l14 77q14 -5 39.5 -13t99.5 -21t142 -13q173 0 279 83.5 t106 230.5q0 131 -90.5 203t-273.5 92v65l161 250q-20 28 -104.5 65t-200.5 37q-157 0 -260.5 -83t-103.5 -224v-780h-95z" />
<glyph horiz-adv-x="1144" d="M39 0l475 1143h117l475 -1143h-102l-164 399h-539l-164 -399h-98zM567 1047l-239 -582h485l-238 582h-8zM504 1251l252 287h94l-254 -287h-92z" />
<glyph horiz-adv-x="1144" d="M39 0l475 1143h117l475 -1143h-102l-164 399h-539l-164 -399h-98zM567 1047l-239 -582h485l-238 582h-8zM539 1526h59l268 -264h-96l-195 198h-8l-194 -198h-94z" />
<glyph horiz-adv-x="1144" d="M39 0l475 1143h117l475 -1143h-102l-164 399h-539l-164 -399h-98zM567 1047l-239 -582h485l-238 582h-8zM436 1335h-92v148h92v-148zM803 1335h-92v148h92v-148z" />
<glyph horiz-adv-x="1144" d="M39 0l475 1143h117l475 -1143h-102l-164 399h-539l-164 -399h-98zM567 1047l-239 -582h485l-238 582h-8zM539 1251l-252 287h92l254 -287h-94z" />
<glyph horiz-adv-x="1144" d="M39 0l475 1143h117l475 -1143h-102l-164 399h-539l-164 -399h-98zM571 1190q-95 0 -158 57.5t-63 145.5q0 89 62.5 146.5t158.5 57.5q97 0 159.5 -57.5t62.5 -146.5q0 -88 -62.5 -145.5t-159.5 -57.5zM567 1047l-239 -582h485l-238 582h-8zM571 1237q70 0 119 44.5 t49 111.5q0 69 -48.5 113t-119.5 44t-119.5 -44t-48.5 -113q0 -67 49 -111.5t119 -44.5z" />
<glyph horiz-adv-x="1144" d="M39 0l475 1143h117l475 -1143h-102l-164 399h-539l-164 -399h-98zM567 1047l-239 -582h485l-238 582h-8zM721 1284q-41 0 -84 21t-73.5 45.5t-69 45.5t-70.5 21q-48 0 -74 -38t-31 -97l-57 4q8 88 48 143.5t116 55.5q41 0 84.5 -21t73.5 -45.5t68.5 -45.5t70.5 -21 q92 0 106 135l58 -4q-20 -199 -166 -199z" />
<glyph horiz-adv-x="1224" d="M653 -20q-153 0 -278.5 76.5t-197 212.5t-71.5 302q0 253 157 422.5t390 169.5q185 0 317 -110t165 -281l-93 -8q-31 142 -136.5 227.5t-252.5 85.5q-191 0 -320.5 -145t-129.5 -361q0 -215 129.5 -360t320.5 -145q146 0 252 86t139 227l93 -8q-31 -156 -141 -260.5 t-269 -124.5l-74 -103q221 -10 221 -149q0 -74 -64 -119t-181 -45q-46 0 -94.5 8t-73.5 16l-25 9l8 57q91 -31 181 -31q86 0 132 27t46 78q0 54 -53 78t-170 24v37z" />
<glyph horiz-adv-x="1071" d="M446 1251l254 287h93l-252 -287h-95zM168 0v1143h811v-84h-717v-416h656v-82h-656v-475h717v-86h-811z" />
<glyph horiz-adv-x="1071" d="M537 1526h59l268 -264h-98l-195 198h-8l-194 -198h-95zM168 0v1143h811v-84h-717v-416h656v-82h-656v-475h717v-86h-811z" />
<glyph horiz-adv-x="1071" d="M803 1335h-92v148h92v-148zM436 1335h-92v148h92v-148zM168 0v1143h811v-84h-717v-416h656v-82h-656v-475h717v-86h-811z" />
<glyph horiz-adv-x="1071" d="M580 1251l-254 287h94l252 -287h-92zM168 0v1143h811v-84h-717v-416h656v-82h-656v-475h717v-86h-811z" />
<glyph horiz-adv-x="428" d="M158 1257l254 287h92l-252 -287h-94zM168 0v1143h94v-1143h-94z" />
<glyph horiz-adv-x="428" d="M197 1524h61l268 -267h-98l-195 199h-8l-194 -199h-94zM168 0v1143h94v-1143h-94z" />
<glyph horiz-adv-x="428" d="M442 1335h-92v148h92v-148zM76 1335h-92v148h92v-148zM168 0v1143h94v-1143h-94z" />
<glyph horiz-adv-x="428" d="M199 1257l-252 287h92l254 -287h-94zM168 0v1143h94v-1143h-94z" />
<glyph horiz-adv-x="1271" d="M776 1309q-41 0 -84 21t-73.5 45.5t-69 45.5t-70.5 21q-48 0 -73.5 -38t-30.5 -97l-60 4q22 200 166 200q41 0 84.5 -21t73.5 -46.5t68.5 -46.5t70.5 -21q93 0 107 137l55 -4q-17 -200 -164 -200zM168 0v1143h108l728 -1010h8v1010h92v-1143h-111l-727 1010h-6v-1010h-92 z" />
<glyph horiz-adv-x="1320" d="M565 1251l252 287h94l-252 -287h-94zM659 -20q-160 0 -287 78.5t-196.5 213t-69.5 299.5q0 166 69.5 301t196.5 213t287 78q159 0 286 -78t197 -213t70 -301q0 -165 -70 -299.5t-197 -213t-286 -78.5zM659 63q132 0 237.5 68t163.5 183.5t58 256.5t-58 256.5 t-163.5 183.5t-237.5 68t-237.5 -68t-163 -183.5t-57.5 -256.5t57.5 -256.5t163 -183.5t237.5 -68z" />
<glyph horiz-adv-x="1320" d="M627 1526h59l268 -264h-98l-194 198h-9l-194 -198h-94zM659 -20q-160 0 -287 78.5t-196.5 213t-69.5 299.5q0 166 69.5 301t196.5 213t287 78q159 0 286 -78t197 -213t70 -301q0 -165 -70 -299.5t-197 -213t-286 -78.5zM659 63q132 0 237.5 68t163.5 183.5t58 256.5 t-58 256.5t-163.5 183.5t-237.5 68t-237.5 -68t-163 -183.5t-57.5 -256.5t57.5 -256.5t163 -183.5t237.5 -68z" />
<glyph horiz-adv-x="1320" d="M897 1335h-92v148h92v-148zM530 1335h-92v148h92v-148zM659 -20q-160 0 -287 78.5t-196.5 213t-69.5 299.5q0 166 69.5 301t196.5 213t287 78q159 0 286 -78t197 -213t70 -301q0 -165 -70 -299.5t-197 -213t-286 -78.5zM659 63q132 0 237.5 68t163.5 183.5t58 256.5 t-58 256.5t-163.5 183.5t-237.5 68t-237.5 -68t-163 -183.5t-57.5 -256.5t57.5 -256.5t163 -183.5t237.5 -68z" />
<glyph horiz-adv-x="1320" d="M631 1251l-254 287h94l252 -287h-92zM659 -20q-160 0 -287 78.5t-196.5 213t-69.5 299.5q0 166 69.5 301t196.5 213t287 78q159 0 286 -78t197 -213t70 -301q0 -165 -70 -299.5t-197 -213t-286 -78.5zM659 63q132 0 237.5 68t163.5 183.5t58 256.5t-58 256.5 t-163.5 183.5t-237.5 68t-237.5 -68t-163 -183.5t-57.5 -256.5t57.5 -256.5t163 -183.5t237.5 -68z" />
<glyph horiz-adv-x="1320" d="M811 1298q-33 0 -67 14t-62 34t-55 40t-56.5 34t-56.5 14q-89 0 -104 -138l-58 7q8 88 48.5 143t117.5 55q41 0 84 -21t73.5 -45.5t69 -45.5t70.5 -21q91 0 105 135l57 -4q-20 -201 -166 -201zM659 -20q-160 0 -287 78.5t-196.5 213t-69.5 299.5q0 166 69.5 301 t196.5 213t287 78q159 0 286 -78t197 -213t70 -301q0 -165 -70 -299.5t-197 -213t-286 -78.5zM659 63q132 0 237.5 68t163.5 183.5t58 256.5t-58 256.5t-163.5 183.5t-237.5 68t-237.5 -68t-163 -183.5t-57.5 -256.5t57.5 -256.5t163 -183.5t237.5 -68z" />
<glyph horiz-adv-x="1177" d="M635 1257h-70l-252 269h95l188 -205h8l189 205h94zM590 -20q-198 0 -325.5 86.5t-145.5 263.5l90 6q6 -59 28.5 -105.5t57.5 -78t82 -52.5t100.5 -30t114.5 -9q153 0 256.5 68t103.5 180q0 81 -70 131.5t-204 79.5l-193 43q-77 18 -132.5 39t-103.5 53.5t-72.5 79.5 t-24.5 109q0 139 128.5 229t309.5 90q180 0 302.5 -85t139.5 -244l-90 -9q-11 87 -62 145.5t-124.5 84.5t-167.5 26q-138 0 -240 -66t-102 -167q0 -86 66.5 -131t197.5 -74l195 -43q166 -38 254 -104.5t88 -182.5q0 -102 -61.5 -178.5t-164.5 -115.5t-231 -39z" />
<glyph horiz-adv-x="1253" d="M526 1235l254 287h92l-251 -287h-95zM627 -18q-217 0 -343 114t-126 307v740h92v-731q0 -159 100 -251.5t277 -92.5q178 0 278.5 92.5t100.5 251.5v731h90v-740q0 -193 -125.5 -307t-343.5 -114z" />
<glyph horiz-adv-x="1253" d="M588 1526h59l268 -264h-98l-194 198h-9l-194 -198h-94zM627 -18q-217 0 -343 114t-126 307v740h92v-731q0 -159 100 -251.5t277 -92.5q178 0 278.5 92.5t100.5 251.5v731h90v-740q0 -193 -125.5 -307t-343.5 -114z" />
<glyph horiz-adv-x="1253" d="M854 1335h-92v148h92v-148zM487 1335h-92v148h92v-148zM627 -18q-217 0 -343 114t-126 307v740h92v-731q0 -159 100 -251.5t277 -92.5q178 0 278.5 92.5t100.5 251.5v731h90v-740q0 -193 -125.5 -307t-343.5 -114z" />
<glyph horiz-adv-x="1253" d="M618 1245l-251 287h94l252 -287h-95zM627 -18q-217 0 -343 114t-126 307v740h92v-731q0 -159 100 -251.5t277 -92.5q178 0 278.5 92.5t100.5 251.5v731h90v-740q0 -193 -125.5 -307t-343.5 -114z" />
<glyph horiz-adv-x="1085" d="M485 1214l252 287h94l-251 -287h-95zM496 0v465l-471 678h110l406 -584h8l403 584h109l-471 -678v-465h-94z" />
<glyph horiz-adv-x="1085" d="M786 1335h-92v148h92v-148zM420 1335h-92v148h92v-148zM496 0v465l-471 678h110l406 -584h8l403 584h109l-471 -678v-465h-94z" />
<glyph horiz-adv-x="1114" d="M590 1257h-70l-252 267h94l189 -205h8l189 205h94zM102 0v72l779 985h-772v86h899v-72l-779 -985h785v-86h-912z" />
<glyph horiz-adv-x="1011" d="M12 406v77l158 105v555h94v-492l228 152v-80l-228 -152v-483h713v-88h-807v510z" />
<glyph horiz-adv-x="1800" d="M940 0v385h-584l-268 -385h-100l790 1143h928v-78h-672v-426h613v-74h-613v-487h674v-78h-768zM834 1065l-426 -608h532v608h-106z" />
<glyph horiz-adv-x="1863" d="M989 0v133q-132 -151 -346 -151q-230 0 -383.5 167t-153.5 422t153.5 422.5t383.5 167.5q212 0 346 -153v135h783v-80h-691v-422h629v-78h-629v-483h691v-80h-783zM645 61q122 0 211 54.5t133 120.5v669q-45 66 -134 121t-210 55q-190 0 -316 -145t-126 -365t126 -365 t316 -145z" />
<glyph horiz-adv-x="1323" d="M145 -2v782q0 119 61.5 207t165 132t232.5 44q84 0 159.5 -18t124.5 -45t79 -50.5t41 -41.5v-11l-168 -258v-8q166 -28 266 -117t100 -241q0 -184 -131.5 -288.5t-345.5 -104.5q-76 0 -150 12t-111 24l-36 13l14 77q14 -5 39.5 -13t99.5 -21t142 -13q173 0 279 83.5 t106 230.5q0 131 -90.5 203t-273.5 92v65l161 250q-20 28 -104.5 65t-200.5 37q-157 0 -260.5 -83t-103.5 -224v-780h-95z" />
<glyph horiz-adv-x="1175" d="M227 -143l84 233q-103 96 -161 263.5t-58 387.5q0 346 138.5 554t357.5 208q114 0 215 -63l67 186h78l-86 -235q104 -96 162.5 -264t58.5 -386q0 -346 -138.5 -553.5t-356.5 -207.5q-121 0 -215 61l-66 -184h-80zM190 741q0 -185 40.5 -328t115.5 -229l424 1170 q-83 61 -182 61q-180 0 -289 -182t-109 -492zM588 68q179 0 288 182t109 491q0 368 -156 555l-423 -1167q79 -61 182 -61z" />
<glyph horiz-adv-x="2308" d="M455 -129q-25 0 -42.5 18.5t-17.5 40.5q0 19 9.5 36.5t21.5 25.5q45 95 45 289q0 155 -33 290q-41 26 -53.5 33.5t-58 37.5t-66.5 46.5t-60 46.5t-59.5 52.5t-44 51t-33.5 55.5t-10 52q0 53 35 87t92 34q65 0 127.5 -40.5t109 -104t80 -133.5t50.5 -136 q209 -134 256 -166q40 101 122.5 284.5t90.5 201.5q-72 271 -72 411q0 97 45 167.5t133 70.5q79 0 120.5 -53t41.5 -133q0 -35 -3.5 -69.5t-13.5 -74t-16 -64.5t-24 -71t-24 -62t-28 -68.5t-26 -61.5q19 -71 57.5 -205t55.5 -197q2 1 74.5 47.5t145.5 93t91 56.5 q54 141 137.5 265t187.5 205t199 81q73 0 118.5 -37.5t45.5 -97.5q0 -37 -21.5 -77.5t-63 -81t-91 -80t-117.5 -83.5t-129 -81t-138 -83q-16 -9 -24 -14q-67 -194 -67 -379q0 -166 57 -240q88 -27 88 -90q0 -30 -18.5 -49.5t-44.5 -19.5q-53 0 -101 51q-199 51 -528 51 q-187 0 -313.5 -21t-227.5 -71q-21 -37 -67 -37zM1063 127q274 0 446 -31q-26 86 -26 201q0 133 33 278q-175 -108 -230 -151q4 -12 4 -21q0 -38 -23 -69t-61 -31q-37 0 -64.5 25t-27.5 61q0 21 11 45t30 35q-31 123 -86 309q-145 -323 -164 -377q31 -39 31 -67 q0 -37 -26 -60.5t-62 -23.5q-34 0 -61 23t-27 57q0 16 4 28q-75 56 -178 119q12 -89 12 -196q0 -123 -16 -211q180 57 481 57zM186 928q0 -20 60 -69.5t106 -76.5q-14 43 -68 104.5t-79 61.5q-19 0 -19 -20zM2128 1161q0 23 -31 23q-73 0 -179 -106t-142 -193 q122 69 237 157.5t115 118.5zM1071 1384q0 -72 27 -204q59 171 59 256q0 59 -39 59q-47 0 -47 -111z" />
</font>
</defs>
</svg>
