<?xml version="1.0" standalone="no"?>
<!DOCTYPE svg PUBLIC "-//W3C//DTD SVG 1.1//EN" "http://www.w3.org/Graphics/SVG/1.1/DTD/svg11.dtd" >
<svg xmlns="http://www.w3.org/2000/svg">
<metadata></metadata>
<defs>
<font id="rayonbold" horiz-adv-x="1218" >
<font-face units-per-em="2048" ascent="1536" descent="-512" />
<missing-glyph horiz-adv-x="538" />
<glyph horiz-adv-x="0" />
<glyph horiz-adv-x="682" />
<glyph unicode=" "  horiz-adv-x="538" />
<glyph unicode="&#x09;" horiz-adv-x="538" />
<glyph unicode="&#xa0;" horiz-adv-x="538" />
<glyph unicode="!" horiz-adv-x="574" d="M148 448v976h278v-976h-278zM456 0h-338v274h338v-274z" />
<glyph unicode="&#x22;" horiz-adv-x="893" d="M139 865v559h229v-559h-229zM527 865v559h228v-559h-228z" />
<glyph unicode="#" horiz-adv-x="1210" d="M544 0l89 373h-216l-89 -373h-206l88 373h-147v197h194l67 283h-159v197h207l88 374h206l-88 -374h216l89 374h207l-90 -374h148v-197h-195l-66 -283h159v-197h-207l-88 -373h-207zM531 853l-67 -283h217l66 283h-216z" />
<glyph unicode="$" horiz-adv-x="1296" d="M582 -165v155q-224 14 -353.5 117t-142.5 292l256 21q7 -97 67.5 -147.5t172.5 -62.5v411l-61 16q-103 28 -174.5 60t-125 78t-78.5 108.5t-25 146.5q0 106 57 193t162.5 142t244.5 66v158h142v-156q138 -9 238 -56t156 -129.5t62 -195.5l-252 -22q-17 158 -204 182v-379 l51 -11q113 -31 189.5 -65.5t132 -82.5t81 -111.5t25.5 -149.5q0 -170 -129 -286.5t-350 -134.5v-157h-142zM936 397q0 73 -46 111.5t-166 75.5v-372q102 14 157 65t55 120zM385 1046q0 -28 8 -50.5t22.5 -40t39.5 -33t55 -27.5t72 -24v341q-92 -14 -144.5 -60.5 t-52.5 -105.5z" />
<glyph unicode="%" horiz-adv-x="1752" d="M283 0l961 1424h227l-962 -1424h-226zM1296 -47q-104 0 -188.5 49.5t-133 137t-48.5 194.5q0 80 28.5 150.5t77.5 120t117.5 78t146.5 28.5q103 0 187 -48.5t132.5 -135t48.5 -193.5t-48.5 -194.5t-132.5 -137t-187 -49.5zM1296 148q66 0 106.5 51.5t40.5 134.5 q0 84 -41.5 133.5t-105.5 49.5q-68 0 -109 -50t-41 -133q0 -56 20.5 -98.5t54.5 -65t75 -22.5zM458 711q-103 0 -187 49t-132.5 135.5t-48.5 194.5q0 80 28.5 151t77.5 121t117 79.5t145 29.5q104 0 188.5 -49.5t133 -137t48.5 -195t-48.5 -194t-133 -135.5t-188.5 -49z M458 906q68 0 109 50.5t41 133.5t-43 134.5t-107 51.5q-44 0 -77.5 -23.5t-51.5 -66t-18 -96.5q0 -84 42 -134t105 -50z" />
<glyph unicode="&#x26;" horiz-adv-x="1557" d="M1158 0l-112 112q-188 -136 -419 -136q-120 0 -220 30t-168 82t-105.5 124t-37.5 156q0 62 25.5 120.5t61 99.5t82.5 77.5t79.5 55t62.5 32.5q-49 43 -80.5 75t-64 74t-48 86t-15.5 91q0 75 33.5 142t93.5 117t148.5 79.5t191.5 29.5t190 -27t146 -74t92 -110.5 t33 -136.5q0 -40 -14 -81t-35.5 -74t-52 -66.5t-58 -57.5t-58.5 -46.5t-49 -34.5t-34 -21l236 -242q80 149 80 301v69l262 -13v-64q0 -103 -45 -229.5t-126 -239.5l294 -300h-369zM651 191q120 0 238 83l-328 334q-174 -103 -174 -225q0 -62 35 -106t94 -65t135 -21z M478 1085q0 -22 11.5 -46t25.5 -42.5t43.5 -46t48.5 -43l57 -46.5q27 18 53.5 39t58.5 52t52 67t20 69q0 67 -53.5 107.5t-132 40.5t-131.5 -41t-53 -110z" />
<glyph unicode="'" horiz-adv-x="510" d="M130 865v559h251v-559h-251z" />
<glyph unicode="(" horiz-adv-x="589" d="M344 -228q-9 14 -23 41.5t-50.5 116.5t-64 184.5t-50.5 239t-23 286t22 284t53 242t61.5 180.5t52.5 120l22 40h245q-8 -16 -22.5 -45.5t-51 -123t-64.5 -189.5t-51 -236t-23 -272.5t22 -270.5t53 -240.5t62.5 -186t53.5 -127.5l21 -43h-245z" />
<glyph unicode=")" horiz-adv-x="589" d="M246 -228h-246q9 16 23 45.5t50.5 123t64.5 190t51 236.5t23 272.5t-22 270t-53 240t-62 186t-53 127.5l-22 43h246q8 -14 22.5 -41.5t50.5 -116.5t64 -184t50.5 -238.5t22.5 -286t-21.5 -284.5t-52.5 -242.5t-62 -180.5t-53 -120z" />
<glyph unicode="*" horiz-adv-x="773" d="M41 1156v142h211l-138 212l156 23l115 -178l116 178l156 -23l-138 -212h211v-142h-216l143 -220l-156 -24l-116 180l-115 -180l-156 24l141 220h-214z" />
<glyph unicode="+" d="M501 141v368h-360v204h360v368h217v-368h359v-204h-359v-368h-217z" />
<glyph unicode="," horiz-adv-x="574" d="M128 -338l-12 141q103 14 164 69.5t60 127.5h-220v291h114q148 0 220 -105q64 -92 39 -215q-27 -134 -144 -221q-92 -68 -221 -88z" />
<glyph unicode="-" horiz-adv-x="773" d="M94 448v233h587v-233h-587z" />
<glyph unicode="." horiz-adv-x="574" d="M456 0h-338v311h338v-311z" />
<glyph unicode="/" horiz-adv-x="707" d="M-24 -47l535 1518h221l-535 -1518h-221z" />
<glyph unicode="0" d="M610 -19q-251 0 -395 191t-144 539.5t144 540t395 191.5q250 0 395 -192t145 -540t-145 -539t-395 -191zM610 230q60 0 105 26t78 82.5t49.5 149.5t16.5 223.5t-16.5 223.5t-49.5 149.5t-78 82.5t-105 26t-105 -26t-78 -82t-50 -150t-17 -224t17 -223.5t50 -149.5t78 -82 t105 -26z" />
<glyph unicode="1" d="M559 0v1024q-4 -4 -12 -11t-35.5 -24.5t-58 -30.5t-78.5 -24t-98 -11h-61v237h22q53 0 100.5 12t83 32.5t64.5 46.5t47 55t27.5 57t9.5 53v8h283v-1424h-294z" />
<glyph unicode="2" d="M118 0v276q53 42 148 117q330 262 437 371t107 217q0 41 -10 75.5t-28.5 60t-43.5 44t-56 27.5t-66 9q-65 0 -113 -27.5t-78.5 -86.5t-37.5 -147l-270 21q7 150 72.5 260.5t176 168t254.5 57.5q141 0 252.5 -55.5t174 -157.5t62.5 -234q0 -54 -16 -108t-37.5 -98 t-68.5 -99.5t-82.5 -93t-106.5 -98t-114 -95t-131 -103.5q-42 -33 -63 -49v-8h638v-244h-1000z" />
<glyph unicode="3" d="M598 -19q-92 0 -169.5 15t-142 48.5t-110.5 84t-73 124t-32 166.5l273 24q7 -126 67 -177.5t178 -51.5q107 0 172 54t65 156q0 51 -18.5 89.5t-50.5 60.5t-71.5 32.5t-87.5 10.5h-129v220h129q96 0 156 46.5t60 131.5q0 63 -29.5 107.5t-79.5 66t-116 21.5 q-107 0 -165.5 -53t-69.5 -172l-270 24q9 107 51 190t110.5 136t157.5 80.5t195 27.5q103 0 193 -28t157.5 -79t106 -129t38.5 -173q0 -45 -13 -87.5t-34.5 -75.5t-49 -60.5t-57 -45.5t-58.5 -26v-11q33 -7 65 -23.5t62.5 -44.5t53.5 -63.5t37 -84t14 -103.5q0 -79 -26 -148 t-73 -120t-111.5 -87t-141.5 -54.5t-163 -18.5z" />
<glyph unicode="4" d="M692 0v328h-629v248l635 855h277v-872h193v-231h-193v-328h-283zM315 559h377v509z" />
<glyph unicode="5" d="M582 -19q-215 0 -346 106.5t-146 295.5l264 24q12 -92 71.5 -145.5t152.5 -53.5q109 0 181 75t72 203q0 86 -31.5 149t-87.5 94.5t-130 31.5q-69 0 -126 -38t-92 -96l-238 16l98 781h808v-238h-597l-39 -293h7q105 92 257 92q99 0 183.5 -34.5t145.5 -97.5t95 -156 t34 -205q0 -148 -67 -264.5t-189.5 -181.5t-279.5 -65z" />
<glyph unicode="6" d="M627 -19q-84 0 -160.5 22t-146 72t-120 124t-80.5 185t-30 249v59q0 124 22.5 231.5t62 189t93.5 145t118 103.5t133.5 61t142.5 21q176 0 295.5 -96t151.5 -246l-256 -32q-19 68 -71.5 107t-126.5 39q-36 0 -72 -12t-73.5 -41.5t-68 -73.5t-52.5 -113.5t-29 -154.5h8 q19 25 45.5 47.5t65 45.5t91.5 37t113 14q91 0 175 -34.5t148.5 -95.5t103 -152t38.5 -196q0 -89 -26.5 -168t-74.5 -140t-112.5 -105.5t-143.5 -68t-164 -23.5zM627 208q106 0 172 68t66 198q0 66 -20 117.5t-54 83t-77 48t-91 16.5q-101 0 -172.5 -71.5t-71.5 -185.5 q0 -121 72.5 -197.5t175.5 -76.5z" />
<glyph unicode="7" d="M387 0q0 367 105.5 657.5t295.5 506.5v8h-655v252h960v-240q-98 -108 -170.5 -224.5t-118 -228t-73.5 -237t-38 -242t-10 -252.5h-296z" />
<glyph unicode="8" d="M610 -19q-152 0 -271 54.5t-186 153.5t-67 224q0 51 13.5 97.5t36 82.5t52.5 65.5t61.5 49.5t65.5 33v12q-74 31 -130.5 115t-56.5 182q0 109 61.5 199t172.5 142t248 52q138 0 248.5 -52t172 -142t61.5 -199q0 -65 -28 -128t-69.5 -106t-88.5 -63v-12q43 -16 82.5 -44.5 t73 -69t53.5 -96t20 -118.5q0 -125 -66.5 -224t-186.5 -153.5t-272 -54.5zM610 199q103 0 170.5 57t67.5 163q0 97 -67 158.5t-171.5 61.5t-171 -61.5t-66.5 -158.5q0 -106 67.5 -163t170.5 -57zM610 837q97 0 154.5 56t57.5 143q0 91 -56 144t-156 53q-49 0 -88.5 -14 t-67 -39.5t-42.5 -62.5t-15 -81q0 -86 58.5 -142.5t154.5 -56.5z" />
<glyph unicode="9" d="M610 1445q84 0 160 -22t145.5 -72.5t120 -124.5t80.5 -185.5t30 -248.5v-59q0 -147 -31.5 -271.5t-86 -211.5t-128 -148.5t-156 -90t-170.5 -28.5q-176 0 -295 95.5t-151 245.5l255 32q20 -67 72.5 -106.5t126.5 -39.5q35 0 71 12.5t74 42t68 73.5t52.5 113t28.5 155h-7 q-19 -25 -45.5 -48t-65 -46t-91.5 -36.5t-112 -13.5q-52 0 -102.5 11t-96.5 33t-87 53t-74 71.5t-57 88t-37 104t-13 117.5q0 110 41.5 205t112 160.5t166 102.5t202.5 37zM610 1217q-52 0 -95 -16.5t-75 -48.5t-50 -83.5t-18 -117.5q0 -65 19.5 -117t54 -83.5t77 -48 t90.5 -16.5q66 0 121.5 31.5t89 91t33.5 135.5q0 120 -72 196.5t-175 76.5z" />
<glyph unicode=":" horiz-adv-x="574" d="M456 0h-338v311h338v-311zM456 747h-338v311h338v-311z" />
<glyph unicode=";" horiz-adv-x="574" d="M469 747h-337v311h337v-311zM128 -317l-12 142q103 14 164 69.5t60 127.5h-220v291h114q148 0 220 -105q64 -92 39 -215q-27 -134 -144 -222q-92 -68 -221 -88z" />
<glyph unicode="&#x3c;" d="M98 469v268l971 346v-252l-684 -225v-8l684 -215v-259z" />
<glyph unicode="=" d="M114 690v216h991v-216h-991zM114 277v216h991v-216h-991z" />
<glyph unicode="&#x3e;" d="M1120 737v-268l-970 -345v259l683 215v8l-683 225v252z" />
<glyph unicode="?" horiz-adv-x="1092" d="M383 413q-14 82 -4 142t38 112.5t65 90.5t77.5 75.5t74.5 68.5t55.5 68.5t21.5 75.5q0 73 -51 117t-125 44q-180 0 -203 -192l-269 19q15 189 143.5 301t335.5 112q130 0 236 -49.5t167.5 -137.5t61.5 -198q0 -71 -22 -131t-57 -101.5t-77 -79t-82 -72t-71.5 -71t-47 -86 t-7.5 -108.5h-260zM698 0h-338v274h338v-274z" />
<glyph unicode="@" horiz-adv-x="1871" d="M900 -381q-146 0 -274.5 34.5t-231.5 103t-177 167t-114 231t-40 289.5q0 106 22.5 210.5t67 201.5t106 183.5t144 157.5t178 122.5t210 80t237.5 28.5q172 0 320 -59t249 -158.5t158 -234t57 -284.5q0 -149 -46 -281t-121.5 -221.5t-172 -141.5t-196.5 -52 q-177 0 -216 128q-108 -128 -244 -128q-72 0 -135 28.5t-110 80t-74.5 128.5t-27.5 168q0 99 24.5 191.5t74 173.5t119.5 142t168 96.5t213 35.5q44 0 88 -5t78 -12.5t65.5 -16.5t54 -18t39 -16t24.5 -12l9 -5l-118 -683q-6 -44 31 -44q21 0 50.5 19t63 58.5t62 92t47.5 129 t19 159.5q0 71 -14.5 135.5t-43.5 123t-75.5 106t-107.5 82.5t-142.5 54.5t-177.5 19.5q-98 0 -192.5 -29t-173.5 -80t-146.5 -123t-114 -155t-72.5 -179t-26 -193q0 -144 44.5 -259.5t125 -192t193.5 -117t250 -40.5q112 0 209.5 26t217.5 76l16 -234q-118 -44 -219.5 -66 t-231.5 -22zM869 240q73 0 134.5 66.5t86.5 204.5l2 5l47 270q-46 10 -89 10q-65 0 -119.5 -23.5t-91 -62t-62 -89.5t-36.5 -105.5t-11 -110.5q0 -79 37.5 -122t101.5 -43z" />
<glyph unicode="A" horiz-adv-x="1399" d="M8 0l534 1424h321l529 -1424h-307l-121 338h-540l-120 -338h-296zM690 1081l-181 -507h372l-181 507h-10z" />
<glyph unicode="B" horiz-adv-x="1395" d="M148 0v1424h680q89 0 167.5 -25t138.5 -71t95 -116.5t35 -155.5q0 -99 -56 -177t-140 -118v-8q43 -13 84 -41.5t76 -69.5t56.5 -100t21.5 -125q0 -96 -36.5 -175.5t-98.5 -131.5t-145 -81t-176 -29h-702zM443 230h345q100 0 159.5 50t59.5 148q0 101 -59 151t-160 50 h-345v-399zM443 846h324q101 0 154.5 41.5t53.5 125.5q0 88 -54.5 136t-153.5 48h-324v-351z" />
<glyph unicode="C" horiz-adv-x="1480" d="M777 -24q-144 0 -270 52.5t-219 146.5t-146.5 233t-53.5 303.5t53.5 303.5t146.5 233t219 146.5t270 52.5q110 0 206.5 -28t168 -76.5t124.5 -114.5t83 -141.5t39 -158.5l-287 -24q-14 87 -57 152t-115.5 103t-165.5 38q-77 0 -146.5 -33t-123 -93.5t-85 -153.5 t-31.5 -205.5t31.5 -205.5t85 -153.5t123 -93t146.5 -32.5q140 0 230 81.5t110 218.5l287 -24q-9 -86 -39.5 -164t-84 -144.5t-125 -115t-167.5 -76t-207 -27.5z" />
<glyph unicode="D" horiz-adv-x="1521" d="M148 0v1424h570q217 0 378.5 -86.5t249 -247.5t87.5 -378.5t-87.5 -378.5t-249 -247t-378.5 -86h-570zM443 246h251q215 0 328 122.5t113 343t-113 343.5t-328 123h-251v-932z" />
<glyph unicode="E" horiz-adv-x="1295" d="M148 0v1424h1041v-246h-746v-323h662v-238h-662v-367h754v-250h-1049z" />
<glyph unicode="F" horiz-adv-x="1234" d="M148 0v1424h1008v-254h-713v-326h649v-246h-649v-598h-295z" />
<glyph unicode="G" horiz-adv-x="1538" d="M803 -24q-154 0 -285.5 52t-226.5 146.5t-149 233t-54 303.5t56 304t152.5 233t228 146.5t281.5 52.5q90 0 170.5 -17.5t143 -48.5t113.5 -72t87.5 -90t60 -100t33.5 -104l-287 -34q-9 32 -26.5 62t-45.5 58t-63.5 49.5t-84.5 34t-104 12.5q-88 0 -164 -34t-132 -96 t-88 -154t-32 -202q0 -112 30.5 -204t84.5 -153t128.5 -94t163.5 -33q70 0 132 17.5t105 47t72.5 61t46.5 64.5v153h-344v236h620v-460q-21 -50 -56 -99.5t-91 -99t-124 -87t-160 -61t-192 -23.5z" />
<glyph unicode="H" horiz-adv-x="1517" d="M148 0v1424h295v-551h634v551h296v-1424h-296v625h-634v-625h-295z" />
<glyph unicode="I" horiz-adv-x="587" d="M148 0v1424h295v-1424h-295z" />
<glyph unicode="J" horiz-adv-x="1224" d="M576 -28q-228 0 -356 109.5t-128 327.5v65l278 16v-47q0 -66 13 -110.5t41 -69.5t64 -35t88 -10q101 0 155.5 59.5t54.5 184.5v962h295v-996q0 -141 -65.5 -245.5t-179 -157.5t-260.5 -53z" />
<glyph unicode="K" horiz-adv-x="1411" d="M1066 0l-453 602l-170 -193v-409h-295v1424h295v-679l35 39l-2 2h4l574 638h342l-574 -638l589 -786h-345z" />
<glyph unicode="L" horiz-adv-x="1214" d="M148 0v1424h295v-1171h717v-253h-1012z" />
<glyph unicode="M" horiz-adv-x="1923" d="M148 0v1424h440l371 -1037h13l386 1037h419v-1424h-291v1062h-8l-393 -1062h-248l-393 1062h-7v-1062h-289z" />
<glyph unicode="N" horiz-adv-x="1548" d="M148 0v1424h328l633 -998h7v998h286v-1424h-327l-634 996h-8v-996h-285z" />
<glyph unicode="O" horiz-adv-x="1580" d="M790 -24q-156 0 -287.5 54.5t-222 151t-141.5 233t-51 297t51 297t141.5 233t222 151t287.5 54.5t287 -54.5t222 -151t142 -233t51 -297t-51 -297t-142 -233t-222 -151t-287 -54.5zM790 227q185 0 294 133t109 351q0 144 -48.5 254t-140.5 171t-214 61q-123 0 -214.5 -61 t-140 -171t-48.5 -254q0 -218 109 -351t294 -133z" />
<glyph unicode="P" horiz-adv-x="1356" d="M148 0v1424h597q116 0 216 -30t175.5 -86t118.5 -143.5t43 -196.5t-43.5 -198.5t-118 -147t-171 -88.5t-204.5 -31h-318v-503h-295zM443 747h285q56 0 104 12t87 37t61 68t22 100t-23 100t-63 67.5t-87 36.5t-101 12h-285v-433z" />
<glyph unicode="Q" horiz-adv-x="1580" d="M711 -15q-91 0 -181 30.5t-169.5 92.5t-140.5 147.5t-96.5 203.5t-35.5 252q0 161 51 297.5t141.5 233t222 151t287.5 54.5t287 -54.5t222 -151t142 -233t51 -297.5q0 -221 -89 -374.5t-241 -236.5q45 -23 98.5 -59.5t85 -57.5t84 -34t116.5 -4l11 -236q-76 -9 -132 -5 t-106.5 18t-88 34.5t-76.5 45t-71.5 50t-73 49.5t-82 42.5t-97 30t-119.5 11.5zM790 227q185 0 294 133t109 351q0 144 -48.5 254t-140.5 171t-214 61q-123 0 -214.5 -61t-140 -171t-48.5 -254q0 -105 28 -194t79.5 -153.5t127.5 -100.5t168 -36z" />
<glyph unicode="R" horiz-adv-x="1415" d="M1424 0h-341l-301 401q-50 67 -103 92.5t-142 25.5h-94v-519h-295v1424h589q161 0 282 -50t191 -152.5t70 -246.5q0 -142 -94.5 -246.5t-243.5 -148.5q84 -52 143 -128zM443 763h279q79 0 138.5 23t94 71t34.5 115t-33.5 114.5t-91.5 70.5t-134 23h-287v-417z" />
<glyph unicode="S" horiz-adv-x="1356" d="M679 -24q-176 0 -303 48t-201.5 151t-82.5 256l280 23q5 -128 84.5 -185t226.5 -57q138 0 211.5 53t73.5 136q0 74 -54.5 110.5t-198.5 74.5l-165 43q-110 29 -185 61t-131 78.5t-82 110t-26 147.5q0 122 70 217.5t197.5 149.5t290.5 54q255 0 400 -109t151 -318 l-276 -24q-7 112 -77 164t-203 52q-122 0 -193 -48.5t-71 -121.5q0 -67 50.5 -101.5t175.5 -67.5l165 -44q119 -30 199.5 -65t139 -83.5t85.5 -113t27 -150.5q0 -63 -18 -121t-52 -106.5t-84.5 -88t-114 -67.5t-142.5 -43t-167 -15z" />
<glyph unicode="T" horiz-adv-x="1296" d="M501 0v1172h-438v252h1172v-252h-439v-1172h-295z" />
<glyph unicode="U" horiz-adv-x="1511" d="M761 -24q-305 0 -462.5 145t-157.5 406v897h296v-885q0 -162 82.5 -237t245.5 -75q105 0 174 33.5t103.5 103t34.5 175.5v885h296v-901q0 -260 -155.5 -403.5t-456.5 -143.5z" />
<glyph unicode="V" horiz-adv-x="1356" d="M525 0l-525 1424h315l362 -1043h7l364 1043h308l-530 -1424h-301z" />
<glyph unicode="W" horiz-adv-x="2067" d="M1329 0l-295 1022l-293 -1022h-317l-377 1424h297l258 -1041h8l279 1041h299l287 -1041h7l250 1041h289l-377 -1424h-315z" />
<glyph unicode="X" horiz-adv-x="1358" d="M24 0l464 732l-456 692h336l315 -486l315 486h329l-456 -692l464 -732h-339l-322 517l-322 -517h-328z" />
<glyph unicode="Y" horiz-adv-x="1352" d="M531 0v572l-531 852h328l349 -561h7l348 561h321l-527 -852v-572h-295z" />
<glyph unicode="Z" horiz-adv-x="1308" d="M105 0v238l743 932h-736v254h1100v-238l-744 -933h751v-253h-1114z" />
<glyph unicode="[" horiz-adv-x="707" d="M128 -220v1836h501v-220h-246v-1396h246v-220h-501z" />
<glyph unicode="\" horiz-adv-x="707" d="M197 1471l535 -1518h-221l-535 1518h221z" />
<glyph unicode="]" horiz-adv-x="707" d="M580 1616v-1836h-501v220h245v1396h-245v220h501z" />
<glyph unicode="^" horiz-adv-x="1155" d="M98 625l346 799h267l347 -799h-255l-227 527h-8l-214 -527h-256z" />
<glyph unicode="_" horiz-adv-x="1152" d="M39 -224v94h1074v-94h-1074z" />
<glyph unicode="`" horiz-adv-x="604" d="M306 1168l-270 291h255l272 -291h-257z" />
<glyph unicode="a" horiz-adv-x="1148" d="M417 -15q-161 0 -253.5 86t-92.5 231q0 67 24.5 122t67.5 92.5t93.5 62.5t111.5 40l379 94v9q0 80 -40 114.5t-137 34.5q-101 0 -149 -31t-59 -114l-264 19q19 168 146 252t342 84q109 0 192.5 -23.5t137 -67.5t80 -106t26.5 -141v-401q0 -168 28 -318v-24h-260 q-19 77 -19 116v10h-8q-129 -141 -346 -141zM474 197q117 0 195 64.5t78 153.5v101l-281 -70q-120 -27 -120 -127q0 -55 32.5 -88.5t95.5 -33.5z" />
<glyph unicode="b" horiz-adv-x="1246" d="M704 -19q-40 0 -78 7.5t-67 19.5t-55 26.5t-44 29.5t-31 27t-20 20l-6 7v-118h-266v1459h280v-506q4 5 12 14t36 31t59.5 38.5t83 30.5t105.5 14q80 0 150 -23.5t127.5 -70.5t99 -113t64 -155t22.5 -194q0 -103 -26 -192t-71 -153t-105 -109.5t-129 -67.5t-141 -22z M643 203q58 0 104.5 20t80 59t51.5 101t18 142q0 157 -71 240t-183 83q-66 0 -118.5 -30.5t-82 -84.5t-29.5 -121v-173q0 -68 31 -122t83.5 -84t115.5 -30z" />
<glyph unicode="c" horiz-adv-x="1145" d="M593 -19q-107 0 -202 38.5t-166 108t-112.5 174t-41.5 229.5q0 100 27 188t75 153.5t113 113t143.5 71.5t163.5 24q84 0 158.5 -20t131.5 -56t99.5 -84.5t68 -106t32.5 -120.5l-271 -24q-12 59 -39 100t-71.5 63t-103.5 22q-107 0 -176.5 -83t-69.5 -241t69.5 -241.5 t176.5 -83.5q88 0 143.5 51t72.5 139l269 -24q-23 -175 -155.5 -283t-334.5 -108z" />
<glyph unicode="d" horiz-adv-x="1244" d="M531 -19q-79 0 -149 23.5t-127 70.5t-98 113t-63.5 155t-22.5 194q0 103 26 192t70.5 153t104.5 109.5t128.5 67.5t141.5 22q39 0 76 -6.5t65 -16.5t52.5 -22t41.5 -24t29 -22t18 -16l5 -6v491h280v-1459h-265v126q-5 -6 -14 -16t-40 -35t-65 -44t-87 -34.5t-107 -15.5z M604 214q97 0 161 63.5t64 153.5v212q0 90 -64 153t-161 63q-119 0 -186.5 -81.5t-67.5 -240.5q0 -157 71 -240t183 -83z" />
<glyph unicode="e" horiz-adv-x="1163" d="M604 -19q-160 0 -280.5 66t-186.5 190.5t-66 291.5q0 123 39 226.5t108 175t165.5 111t207.5 39.5q149 0 265 -67t178.5 -185t62.5 -266v-105h-743v-12q5 -112 73.5 -179.5t176.5 -67.5q157 0 210 149l261 -27q-16 -69 -54.5 -129t-96 -108t-140.5 -75.5t-180 -27.5z M358 647h462v8q-10 92 -72.5 150t-156.5 58q-93 0 -156 -58t-77 -158z" />
<glyph unicode="f" horiz-adv-x="748" d="M230 0v855h-167v203h167v118q0 50 9.5 92t27.5 71t40 52t51 37.5t55.5 24t59 14t57 6.5t52.5 2q40 0 85 -5t69 -10l25 -5l-22 -202q-51 9 -114 9q-59 0 -87.5 -20.5t-28.5 -81.5v-102h195v-203h-195v-855h-279z" />
<glyph unicode="g" horiz-adv-x="1232" d="M586 -411q-80 0 -146 11t-115.5 32t-87 49.5t-62 64.5t-39 74.5t-20.5 83.5l257 27q19 -130 205 -130q121 0 184.5 61t63.5 185v99l-14 -14t-39 -31.5t-62.5 -39.5t-82 -31.5t-99.5 -14.5q-98 0 -182 38.5t-144 107.5t-94 170.5t-34 223.5q0 96 23.5 180t66.5 147 t100.5 108t126.5 68t145 23q50 0 99 -13t82.5 -31.5t59.5 -37t39 -31.5l12 -13v107h272v-1023q0 -59 -13 -114.5t-39 -106t-68.5 -92t-98.5 -72.5t-131.5 -48t-164.5 -17zM596 242q101 0 163.5 61t62.5 161v177q0 66 -29 116.5t-80.5 78t-116.5 27.5q-112 0 -177 -80.5 t-65 -227.5q0 -148 64.5 -230.5t177.5 -82.5z" />
<glyph unicode="h" horiz-adv-x="1225" d="M137 0v1459h280v-517q4 5 12.5 14.5t38 33.5t62.5 42.5t86.5 33.5t109.5 15q63 0 120 -16t104.5 -48.5t81.5 -79t53.5 -112t19.5 -142.5v-683h-279v636q0 42 -6.5 75t-19.5 59t-34.5 43t-51.5 26t-69 9q-47 0 -89.5 -18t-72.5 -47t-48 -68t-18 -79v-636h-280z" />
<glyph unicode="i" horiz-adv-x="553" d="M137 0v1058h280v-1058h-280zM417 1203h-280v221h280v-221z" />
<glyph unicode="j" horiz-adv-x="555" d="M83 -394q-88 0 -169 17l19 229q48 -9 103 -9q38 0 61 11t33.5 34t10.5 61v1109h279v-1165q0 -53 -12 -97t-35 -75t-53 -53.5t-69 -35.5t-80 -19.5t-88 -6.5zM420 1203h-279v221h279v-221z" />
<glyph unicode="k" horiz-adv-x="1173" d="M848 0l-313 401l-118 -129v-272h-280v1459h280v-866l422 469h335l-444 -484l452 -578h-334z" />
<glyph unicode="l" horiz-adv-x="553" d="M137 0v1459h280v-1459h-280z" />
<glyph unicode="m" horiz-adv-x="1829" d="M133 0v1062h263v-126q130 145 310 145q59 0 107 -11.5t82 -34t57.5 -47t45.5 -58.5q151 151 353 151q154 0 255 -108t101 -279v-694h-276v647q0 197 -169 197q-55 0 -101 -23.5t-74.5 -71t-28.5 -110.5v-639h-276v647q0 99 -41 148t-128 49q-85 0 -144.5 -55.5 t-59.5 -149.5v-639h-276z" />
<glyph unicode="n" horiz-adv-x="1222" d="M133 0v1062h268v-128q5 6 13.5 16t39 35.5t65 44.5t89.5 35t114 16q80 0 148 -25t120 -72.5t81.5 -124t29.5 -173.5v-686h-279v639q0 54 -10 92t-31.5 64.5t-56 39.5t-83.5 13q-94 0 -161 -64t-67 -148v-636h-280z" />
<glyph unicode="o" d="M609.5 -19q-158.5 0 -281 68t-190 193.5t-67.5 288.5q0 82 17.5 155.5t50.5 134t81 109t107.5 82t131 51.5t151.5 18q158 0 280.5 -68.5t190 -193.5t67.5 -288t-67.5 -288.5t-190 -193.5t-281 -68zM610 206q55 0 102.5 21.5t82.5 61.5t54.5 102t19.5 140q0 76 -20 137.5 t-54.5 102t-82 62.5t-102.5 22q-114 0 -187 -86.5t-73 -237.5q0 -155 72.5 -240t187.5 -85z" />
<glyph unicode="p" horiz-adv-x="1244" d="M137 -377v1439h266v-126q5 6 14 15.5t39.5 34.5t64 44.5t86 35t106.5 15.5q99 0 183 -37.5t146 -107t97 -175.5t35 -236q0 -103 -26 -192t-70.5 -153t-104.5 -109.5t-129 -67.5t-142 -22q-54 0 -103 11.5t-80.5 28t-56 33.5t-35.5 28l-10 12v-471h-280zM643 203 q117 0 184.5 81.5t67.5 240.5q0 157 -70.5 240t-181.5 83q-99 0 -164.5 -67t-65.5 -169v-173q0 -103 65.5 -169.5t164.5 -66.5z" />
<glyph unicode="q" horiz-adv-x="1244" d="M829 -377v485q-4 -5 -12 -13.5t-36.5 -30.5t-60.5 -39t-83.5 -30.5t-105.5 -13.5q-79 0 -149 23.5t-127 70.5t-98 113t-63.5 155t-22.5 194q0 103 26 192t70.5 153t104.5 109.5t128.5 67.5t141.5 22q39 0 77 -7.5t67 -19.5t55 -27t44.5 -29.5t32 -26.5t19.5 -20l7 -7v118 h265v-1439h-280zM604 214q99 0 164 67t65 169v173q0 103 -65 169.5t-164 66.5q-117 0 -185.5 -82t-68.5 -240t70 -240.5t184 -82.5z" />
<glyph unicode="r" horiz-adv-x="809" d="M133 0v1062h268v-138q71 85 131 119t130 34q50 0 89 -15l-12 -261q-38 9 -88 9q-40 0 -80.5 -15.5t-76.5 -44t-58.5 -75.5t-22.5 -103v-572h-280z" />
<glyph unicode="s" horiz-adv-x="1098" d="M540 -19q-219 0 -337 85t-126 257l257 25q7 -90 56.5 -125.5t153.5 -35.5q195 0 195 112q0 28 -9.5 47.5t-32.5 34t-54 24.5t-80 21l-99 22q-66 15 -115.5 30t-99 40t-81 55.5t-51 76t-19.5 101.5q0 153 122.5 241.5t334.5 88.5q213 0 327.5 -81t124.5 -244l-258 -23 q-10 78 -58.5 110t-140.5 32q-87 0 -132.5 -27.5t-45.5 -72.5q0 -44 34.5 -66t122.5 -43l98 -23q77 -18 132 -36t106.5 -44.5t82.5 -58.5t50 -78t19 -103q0 -157 -129 -249.5t-348 -92.5z" />
<glyph unicode="t" horiz-adv-x="809" d="M546 -13q-173 0 -247.5 77.5t-74.5 226.5v564h-181v203h181v285h279v-285h234v-203h-234v-517q0 -30 3.5 -50t14 -39t33 -28t56.5 -9q44 0 118 16l19 -215q-89 -26 -201 -26z" />
<glyph unicode="u" horiz-adv-x="1222" d="M499 -19q-80 0 -148 24.5t-119.5 72.5t-80.5 124.5t-29 172.5v687h279v-640q0 -107 41.5 -157.5t139.5 -50.5q93 0 160.5 64t67.5 148v636h280v-1062h-268v128q-5 -6 -13.5 -16t-39.5 -35.5t-65.5 -44.5t-90 -35t-114.5 -16z" />
<glyph unicode="v" horiz-adv-x="1124" d="M415 0l-407 1062h294l259 -720h7l258 720h290l-414 -1062h-287z" />
<glyph unicode="w" horiz-adv-x="1684" d="M1068 0l-224 741l-225 -741h-313l-294 1062h281l191 -730h8l212 730h285l216 -730h8l185 730h275l-296 -1062h-309z" />
<glyph unicode="x" horiz-adv-x="1104" d="M15 0l353 544l-346 518h312l225 -347l223 347h301l-346 -518l353 -544h-313l-231 366l-229 -366h-302z" />
<glyph unicode="y" horiz-adv-x="1106" d="M309 -394q-65 0 -148 21l19 225q48 -9 97 -9q65 0 97.5 28.5t42.5 94.5v26l-402 1070h296l246 -706h7l246 706h289l-468 -1229q-49 -126 -122 -176.5t-200 -50.5z" />
<glyph unicode="z" horiz-adv-x="1082" d="M84 0v210l567 629h-559v223h899v-210l-563 -630h570v-222h-914z" />
<glyph unicode="{" horiz-adv-x="707" d="M649 -220q-71 0 -123.5 4t-97.5 12.5t-75.5 24.5t-54 38t-36.5 54t-19.5 72t-6.5 94v289q0 43 -2 71t-9 53.5t-18.5 39.5t-32 25t-48 15t-67.5 4v244q46 0 78.5 9t51.5 24.5t29.5 43.5t14 57t3.5 74v289q0 63 8 108t28.5 79t50 55t78 34t107 18t141.5 5v-185 q-52 0 -80 -4t-45.5 -17.5t-23 -34t-5.5 -58.5v-289q0 -107 -22.5 -175t-64.5 -102t-109 -49v-8q100 -16 148 -97t48 -229v-289q0 -34 5.5 -53.5t21.5 -34.5t46.5 -21t80.5 -6v-184z" />
<glyph unicode="|" horiz-adv-x="486" d="M141 -381v1981h205v-1981h-205z" />
<glyph unicode="}" horiz-adv-x="707" d="M59 -220v184q50 0 80 6t46.5 21t21.5 34.5t5 53.5v289q0 148 48 229t149 97v8q-68 15 -109.5 49t-64.5 102t-23 175v289q0 38 -5 58.5t-22.5 34t-46 17.5t-79.5 4v185q71 0 123.5 -4t97.5 -12.5t75.5 -24t54 -37.5t36.5 -54.5t19.5 -72.5t6.5 -94v-289q0 -45 3.5 -74 t14 -57t29.5 -43.5t51 -24.5t79 -9v-244q-40 0 -68 -4t-48 -15t-31.5 -25t-18.5 -39.5t-9 -53.5t-2 -71v-289q0 -62 -8 -107t-28.5 -79t-50.5 -55t-78 -34.5t-107 -18.5t-141 -5z" />
<glyph unicode="~" d="M803 437q-49 0 -100 14t-92 34.5t-78.5 41t-73 35t-62.5 14.5q-28 0 -48.5 -12.5t-32.5 -35t-18.5 -43.5t-10.5 -48l-220 15q12 172 96 270t234 98q49 0 100 -14.5t92 -35t78.5 -41t73 -34.5t62.5 -14q22 0 40 8.5t29.5 21.5t19.5 32.5t12.5 37t7.5 39.5l221 -16 q-30 -367 -330 -367z" />
<glyph unicode="&#xa1;" horiz-adv-x="571" />
<glyph unicode="&#xa2;" horiz-adv-x="1145" d="M476 -240v255q-69 15 -130.5 45t-111.5 76t-86.5 104.5t-56.5 133t-20 157.5q0 104 31 193t85.5 153.5t128 108t160.5 60.5v256h244v-258q155 -32 251.5 -135.5t111.5 -238.5l-271 -23q-18 89 -72 136.5t-142 47.5q-110 0 -178 -76t-68 -224q0 -51 8.5 -94t24.5 -76 t38 -58t49.5 -41t59 -24t66.5 -8q88 0 143.5 50.5t72.5 138.5l269 -23q-20 -146 -116 -247t-247 -134v-255h-244z" />
<glyph unicode="&#xa3;" horiz-adv-x="1277" d="M75 568v220h171v227q0 86 26.5 157.5t72 121.5t107 85t130.5 51.5t144 16.5t139.5 -14.5t122 -46.5t99.5 -81t69.5 -122t34.5 -164l-275 -24q-10 109 -54.5 156.5t-131.5 47.5q-59 0 -99 -19t-64 -64t-27 -118v-210h400v-220h-400v-52q0 -87 -27.5 -151t-90.5 -113v-8 h793v-244h-1117v252q80 56 114 122t34 165v29h-171z" />
<glyph unicode="&#xa4;" horiz-adv-x="1143" d="M926 1122l147 -147l-139 -142q57 -91 57 -212q0 -119 -59 -214l141 -139l-147 -148l-151 148q-93 -44 -203 -44q-116 0 -206 46l-148 -146l-147 148l139 139q-56 91 -56 210q0 118 58 212l-141 142l147 147l148 -147q95 47 206 47q112 0 205 -47zM572 428q90 0 143.5 53 t53.5 140q0 89 -55.5 143t-141.5 54q-88 0 -142.5 -54.5t-54.5 -142.5q0 -87 57.5 -140t139.5 -53z" />
<glyph unicode="&#xa5;" horiz-adv-x="1352" d="M180 580v181h244l-424 663h328l349 -561h7l348 561h321l-423 -663h242v-181h-346v-173h346v-180h-346v-227h-295v227h-351v180h351v173h-351z" />
<glyph unicode="&#xa6;" horiz-adv-x="486" d="M126 -185v714h236v-714h-236zM126 828v714h236v-714h-236z" />
<glyph unicode="&#xa7;" horiz-adv-x="1199" d="M608 1236q-71 0 -117.5 -34.5t-46.5 -86.5q0 -14 2 -24.5t8.5 -20t11 -16.5t17.5 -14.5t20.5 -12t27 -12t28.5 -11t34 -11.5l182 -61q85 -29 142 -59t100.5 -71t63.5 -96t20 -128q0 -60 -24 -118t-52.5 -93.5t-63.5 -66.5q61 -74 61 -167q0 -70 -31.5 -133t-88 -109.5 t-138 -73.5t-176.5 -27q-193 0 -301 82.5t-118 234.5l244 23q7 -74 53.5 -104t124.5 -30q71 0 117.5 35t46.5 87q0 15 -4 27.5t-8.5 21.5t-17 18.5t-20 14.5t-28.5 13.5t-32 12.5t-39 14l-182 60q-84 29 -141 59t-100.5 71.5t-64 96.5t-20.5 128q0 148 138 277 q-59 69 -59 167q0 71 31.5 134t88 109.5t138 73.5t177.5 27q192 0 300 -83.5t118 -232.5l-244 -24q-12 133 -178 133zM690 458q43 -13 96 -36q56 66 56 133q0 64 -34 98.5t-118 61.5l-181 60q-43 13 -96 35q-55 -61 -55 -131q0 -61 35 -98t116 -64z" />
<glyph unicode="&#xa8;" horiz-adv-x="1065" d="M450 1203h-291v256h291v-256zM906 1203h-291v256h291v-256z" />
<glyph unicode="&#xa9;" horiz-adv-x="1572" d="M835 -19q-162 0 -299 54.5t-231 150.5t-146 231t-52 292q0 160 52 295.5t146 232.5t230.5 151.5t299.5 54.5q164 0 301.5 -54.5t232 -151.5t147.5 -232.5t53 -295.5q0 -157 -53 -292t-147.5 -231t-232 -150.5t-301.5 -54.5zM835 122q176 0 308.5 74.5t202.5 207t70 305.5 q0 132 -40.5 241.5t-115 186.5t-183.5 120t-242 43q-175 0 -306 -74t-200.5 -207.5t-69.5 -309.5q0 -129 40.5 -238t114 -186t182 -120t239.5 -43zM850 274q-71 0 -136 19t-118.5 57t-93 90t-61.5 121.5t-22 147.5q0 101 34 184t92.5 138.5t137 86t167.5 30.5 q86 0 159.5 -25.5t124 -69t81.5 -101t40 -123.5l-225 -21q-29 136 -175 136q-60 0 -104.5 -25t-71 -78.5t-26.5 -131.5q0 -57 15 -101.5t42 -72.5t63.5 -42.5t81.5 -14.5q37 0 67 9.5t52 27.5t36.5 42.5t21.5 55.5l223 -15q-18 -144 -129 -234t-276 -90z" />
<glyph unicode="&#xaa;" horiz-adv-x="852" d="M328 692q-113 0 -179 61t-66 163q0 46 16.5 81t48 58t65 37t78.5 24l223 54v21q0 41 -20 61t-66 20q-23 0 -36 -1t-26 -5.5t-20.5 -13t-13 -22t-8.5 -35.5l-219 17q24 229 332 229q151 0 224.5 -63t73.5 -175v-263q0 -132 24 -220v-16h-204q-13 33 -13 57v8h-3 q-94 -77 -211 -77zM366 863q55 0 101.5 36.5t46.5 77.5v55l-148 -39q-33 -10 -48.5 -24.5t-15.5 -42.5q0 -63 64 -63z" />
<glyph unicode="&#xab;" horiz-adv-x="1073" d="M63 468v236l421 381v-303l-216 -194v-8l235 -214l-19 -291zM550 468v236l422 381v-303l-217 -194v-8l217 -195v-310z" />
<glyph unicode="&#xac;" d="M1090 786v-462h-131v344h-852v118h983z" />
<glyph unicode="&#xad;" horiz-adv-x="773" d="M94 448v233h587v-233h-587z" />
<glyph unicode="&#xae;" horiz-adv-x="1368" d="M684 452q-169 0 -298 72t-198.5 200t-69.5 293q0 122 40.5 226t113.5 178t179.5 116t232.5 42q168 0 297.5 -72t199.5 -199.5t70 -290.5q0 -164 -70 -292.5t-199.5 -200.5t-297.5 -72zM684 572q80 0 149 21t121.5 59.5t90 93t56.5 123.5t19 148q0 98 -30 180t-86 140 t-138 90t-182 32q-201 0 -318.5 -121.5t-117.5 -320.5q0 -201 117.5 -323t318.5 -122zM1020 715h-185l-107 146q-25 29 -51.5 41t-64.5 12h-28v-199h-162v620h286q111 0 181 -54.5t70 -153.5q0 -45 -19.5 -81t-50.5 -57.5t-71 -33.5q34 -21 57 -49zM584 1044h114 q45 0 74 20.5t29 57.5q0 38 -29.5 59.5t-73.5 21.5h-114v-159z" />
<glyph unicode="&#xaf;" horiz-adv-x="773" d="M94 1270v189h587v-189h-587z" />
<glyph unicode="&#xb0;" horiz-adv-x="746" d="M373 908q-139 0 -232.5 85.5t-93.5 213.5t94 215.5t232 87.5q140 0 233.5 -87.5t93.5 -215.5q0 -129 -93 -214t-234 -85zM373 1062q68 0 109 40t41 105q0 66 -43 107.5t-107 41.5q-65 0 -107 -42t-42 -107q0 -66 43.5 -105.5t105.5 -39.5z" />
<glyph unicode="&#xb1;" d="M509 460v253h-289v197h289v254h200v-254h289v-197h-289v-253h-200zM998 156h-778v212h778v-212z" />
<glyph unicode="&#xb2;" horiz-adv-x="782" d="M94 711v148q224 152 296 213t72 116q0 38 -22 59t-57 21q-80 0 -90 -98l-205 16q7 80 45.5 137.5t102.5 86.5t149 29q130 0 212 -66t82 -178q0 -38 -11 -70t-28.5 -59t-55.5 -60.5t-76.5 -62t-106.5 -76.5v-8l287 8v-156h-594z" />
<glyph unicode="&#xb3;" horiz-adv-x="782" d="M375 698q-42 0 -80 6t-71 18t-59.5 31t-46 45t-30.5 60t-13 74l197 14q4 -49 28 -69t72 -20q42 0 67 18t25 55q0 25 -13 42t-32 23.5t-44 6.5h-80v146h80q24 0 42.5 7.5t29.5 22t11 35.5q0 22 -11 37t-30 21.5t-45 6.5q-46 0 -68.5 -16.5t-27.5 -64.5l-195 16 q11 110 91.5 167t202.5 57q82 0 148.5 -24.5t107.5 -73t41 -114.5q0 -44 -29 -82t-75 -58v-8q52 -15 82.5 -55t30.5 -98q0 -103 -87 -164.5t-219 -61.5z" />
<glyph unicode="&#xb4;" horiz-adv-x="604" d="M114 1168l271 291h256l-271 -291h-256z" />
<glyph unicode="&#xb6;" horiz-adv-x="1135" d="M397 -377v1130q-89 0 -162 28.5t-117.5 76t-69 107.5t-24.5 123t24.5 123.5t69 107.5t117.5 76t162 29h693v-165h-158v-1636h-173v1636h-189v-1636h-173z" />
<glyph unicode="&#xb7;" horiz-adv-x="571" d="M456 550h-338v311h338v-311z" />
<glyph unicode="&#xb8;" horiz-adv-x="571" d="M261 26h189l-65 -101q36 -5 63 -14t52 -26.5t38.5 -48.5t13.5 -74q0 -93 -79.5 -143t-217.5 -50q-43 0 -89 6.5t-71 12.5l-24 7l15 146q79 -26 162 -26q60 0 84 13t24 42q0 20 -12.5 30.5t-51 16.5t-112.5 6v75z" />
<glyph unicode="&#xb9;" horiz-adv-x="782" d="M336 711v443q-2 -2 -6 -5.5t-17 -12t-28 -14.5t-38.5 -11.5t-47.5 -5.5h-49v191h29q38 0 70.5 12.5t52 32t30 40t10.5 39.5v4h217v-713h-223z" />
<glyph unicode="&#xba;" horiz-adv-x="844" d="M422 692q-165 0 -270 103.5t-105 272t105 272t270 103.5t270.5 -103.5t105.5 -272t-105.5 -272t-270.5 -103.5zM422 881q68 0 109 48.5t41 138.5q0 87 -41 137t-108.5 50t-108 -50t-40.5 -137q0 -90 40 -138.5t108 -48.5z" />
<glyph unicode="&#xbb;" horiz-adv-x="1073" d="M1011 704v-236l-422 -393l-19 291l236 214v8l-217 194v303zM523 704v-236l-421 -393v310l217 195v8l-217 194v303z" />
<glyph unicode="&#xbc;" horiz-adv-x="1611" d="M321 711v443q-2 -2 -6 -5.5t-17.5 -12t-28.5 -14.5t-38.5 -11.5t-48.5 -5.5h-49v191h30q39 0 71 12.5t51.5 32t30 40t10.5 39.5v4h216v-713h-221zM1189 0v144h-316v186l318 388h218v-419h101v-155h-101v-144h-220zM1038 299h151v179zM252 -47l849 1518h220l-849 -1518 h-220z" />
<glyph unicode="&#xbd;" horiz-adv-x="1611" d="M321 711v443q-2 -2 -6 -5.5t-17.5 -12t-28.5 -14.5t-38.5 -11.5t-48.5 -5.5h-49v191h30q39 0 71 12.5t51.5 32t30 40t10.5 39.5v4h216v-713h-221zM893 0v148q233 158 291 209q76 67 76 119q0 26 -10 44.5t-27.5 27.5t-40.5 9q-80 0 -90 -99l-205 16q10 121 89 187.5 t208 66.5q130 0 211 -66t81 -178q0 -38 -10.5 -70t-28 -59t-56 -61t-76.5 -62.5t-106 -75.5v-8l287 8v-156h-593zM201 -47l849 1518h220l-850 -1518h-219z" />
<glyph unicode="&#xbe;" horiz-adv-x="1611" d="M375 698q-42 0 -80 6t-71 18t-59.5 31t-46 45t-30.5 60t-13 74l197 14q4 -49 28 -69t72 -20q42 0 67 18t25 55q0 25 -13 42t-32 23.5t-44 6.5h-80v146h80q24 0 42.5 7.5t29.5 22t11 35.5q0 22 -11 37t-30 21.5t-45 6.5q-46 0 -68.5 -16.5t-27.5 -64.5l-195 16 q11 110 91.5 167t202.5 57q82 0 148.5 -24.5t107.5 -73t41 -114.5q0 -44 -29 -82t-75 -58v-8q52 -15 82.5 -55t30.5 -98q0 -103 -87 -164.5t-219 -61.5zM1213 0v144h-316v186l318 388h218v-419h100v-155h-100v-144h-220zM1062 299h151v179zM299 -47l849 1518h220l-849 -1518 h-220z" />
<glyph unicode="&#xbf;" horiz-adv-x="1092" />
<glyph unicode="&#xc0;" horiz-adv-x="1399" d="M8 0l534 1424h321l529 -1424h-307l-121 338h-540l-120 -338h-296zM690 1081l-181 -507h372l-181 507h-10zM606 1529l-272 291h255l272 -291h-255z" />
<glyph unicode="&#xc1;" horiz-adv-x="1399" d="M8 0l534 1424h321l529 -1424h-307l-121 338h-540l-120 -338h-296zM690 1081l-181 -507h372l-181 507h-10zM539 1529l271 291h256l-272 -291h-255z" />
<glyph unicode="&#xc2;" horiz-adv-x="1399" d="M8 0l534 1424h321l529 -1424h-307l-121 338h-540l-120 -338h-296zM690 1081l-181 -507h372l-181 507h-10zM576 1844h232l263 -306h-270l-107 145h-8l-106 -145h-267z" />
<glyph unicode="&#xc3;" horiz-adv-x="1399" d="M8 0l534 1424h321l529 -1424h-307l-121 338h-540l-120 -338h-296zM690 1081l-181 -507h372l-181 507h-10zM829 1500q-31 0 -69.5 15t-68 33t-63.5 33t-58 15q-68 0 -82 -99l-140 11q4 60 17 106.5t38 85.5t67 60t100 21q32 0 70 -15t67.5 -33t63.5 -33t58 -15q69 0 83 99 l140 -13q-6 -65 -19 -111.5t-38 -84t-66 -56.5t-100 -19z" />
<glyph unicode="&#xc4;" horiz-adv-x="1399" d="M8 0l534 1424h321l529 -1424h-307l-121 338h-540l-120 -338h-296zM690 1081l-181 -507h372l-181 507h-10zM615 1565h-291v255h291v-255zM1071 1565h-291v255h291v-255z" />
<glyph unicode="&#xc5;" horiz-adv-x="1399" d="M8 0l534 1424h321l529 -1424h-307l-121 338h-540l-120 -338h-296zM690 1081l-181 -507h372l-181 507h-10zM700 1476q-112 0 -184 67.5t-72 169.5t72.5 171t183.5 69q112 0 183.5 -69t71.5 -171q0 -103 -71 -170t-184 -67zM700 1608q46 0 76 29t30 76q0 48 -30 77.5 t-76 29.5t-77.5 -29.5t-31.5 -77.5q0 -47 31.5 -76t77.5 -29z" />
<glyph unicode="&#xc6;" horiz-adv-x="2161" d="M1073 0v334h-607l-185 -334h-305l791 1424h1289v-246h-688v-323h604v-238h-604v-367h696v-250h-991zM932 1178l-336 -608h477v608h-141z" />
<glyph unicode="&#xc7;" horiz-adv-x="1480" d="M777 -24q-144 0 -270 52.5t-219 146.5t-146.5 233t-53.5 303.5t53.5 303.5t146.5 233t219 146.5t270 52.5q110 0 206.5 -28t168 -76.5t124.5 -114.5t83 -141.5t39 -158.5l-287 -24q-14 87 -57 152t-115.5 103t-165.5 38q-77 0 -146.5 -33t-123 -93.5t-85 -153.5 t-31.5 -205.5t31.5 -205.5t85 -153.5t123 -93t146.5 -32.5q140 0 230 81.5t110 218.5l287 -24q-9 -86 -39.5 -164t-84 -144.5t-125 -115t-167.5 -76t-207 -27.5zM730 26h188l-65 -101q37 -5 64 -14t52 -26.5t38 -48.5t13 -74q0 -93 -79 -143t-217 -50q-44 0 -90 6.5 t-71 12.5l-24 7l16 146q78 -26 160 -26q61 0 85 13t24 42q0 20 -12.5 30.5t-50.5 16.5t-112 6v75z" />
<glyph unicode="&#xc8;" horiz-adv-x="1295" d="M148 0v1424h1041v-246h-746v-323h662v-238h-662v-367h754v-250h-1049zM636 1490l-272 291h255l272 -291h-255z" />
<glyph unicode="&#xc9;" horiz-adv-x="1295" d="M148 0v1424h1041v-246h-746v-323h662v-238h-662v-367h754v-250h-1049zM501 1529l272 291h255l-272 -291h-255z" />
<glyph unicode="&#xca;" horiz-adv-x="1295" d="M148 0v1424h1041v-246h-746v-323h662v-238h-662v-367h754v-250h-1049zM555 1844h231l264 -306h-271l-107 145h-8l-105 -145h-268z" />
<glyph unicode="&#xcb;" horiz-adv-x="1295" d="M148 0v1424h1041v-246h-746v-323h662v-238h-662v-367h754v-250h-1049zM588 1565h-291v255h291v-255zM1044 1565h-291v255h291v-255z" />
<glyph unicode="&#xcc;" horiz-adv-x="587" d="M148 0v1424h295v-1424h-295zM204 1529l-271 291h256l271 -291h-256z" />
<glyph unicode="&#xcd;" horiz-adv-x="587" d="M148 0v1424h295v-1424h-295zM110 1529l271 291h256l-271 -291h-256z" />
<glyph unicode="&#xce;" horiz-adv-x="587" d="M148 0v1424h295v-1424h-295zM179 1844h232l263 -306h-271l-106 145h-8l-107 -145h-266z" />
<glyph unicode="&#xcf;" horiz-adv-x="587" d="M148 0v1424h295v-1424h-295zM212 1546h-291v255h291v-255zM668 1546h-291v255h291v-255z" />
<glyph unicode="&#xd0;" horiz-adv-x="1497" d="M-13 606v231h161v587h538q218 0 381 -86t252.5 -248t89.5 -378.5t-89.5 -378t-252.5 -247.5t-381 -86h-538v606h-161zM443 246h219q216 0 332.5 123t116.5 342.5t-116.5 343t-332.5 123.5h-219v-341h247v-231h-247v-360z" />
<glyph unicode="&#xd1;" horiz-adv-x="1548" d="M148 0v1424h328l633 -998h7v998h286v-1424h-327l-634 996h-8v-996h-285zM904 1500q-31 0 -69.5 15t-68 33t-63.5 33t-58 15q-68 0 -82 -99l-141 11q5 60 18 106.5t38 85.5t67 60t100 21q32 0 70 -15t67.5 -33t63.5 -33t58 -15q68 0 83 99l140 -13q-6 -65 -19 -111.5 t-38 -84t-66 -56.5t-100 -19z" />
<glyph unicode="&#xd2;" horiz-adv-x="1580" d="M790 -24q-156 0 -287.5 54.5t-222 151t-141.5 233t-51 297t51 297t141.5 233t222 151t287.5 54.5t287 -54.5t222 -151t142 -233t51 -297t-51 -297t-142 -233t-222 -151t-287 -54.5zM790 227q185 0 294 133t109 351q0 144 -48.5 254t-140.5 171t-214 61q-123 0 -214.5 -61 t-140 -171t-48.5 -254q0 -218 109 -351t294 -133zM759 1529l-271 291h255l272 -291h-256z" />
<glyph unicode="&#xd3;" horiz-adv-x="1580" d="M790 -24q-156 0 -287.5 54.5t-222 151t-141.5 233t-51 297t51 297t141.5 233t222 151t287.5 54.5t287 -54.5t222 -151t142 -233t51 -297t-51 -297t-142 -233t-222 -151t-287 -54.5zM790 227q185 0 294 133t109 351q0 144 -48.5 254t-140.5 171t-214 61q-123 0 -214.5 -61 t-140 -171t-48.5 -254q0 -218 109 -351t294 -133zM606 1529l270 291h257l-272 -291h-255z" />
<glyph unicode="&#xd4;" horiz-adv-x="1580" d="M790 -24q-156 0 -287.5 54.5t-222 151t-141.5 233t-51 297t51 297t141.5 233t222 151t287.5 54.5t287 -54.5t222 -151t142 -233t51 -297t-51 -297t-142 -233t-222 -151t-287 -54.5zM790 227q185 0 294 133t109 351q0 144 -48.5 254t-140.5 171t-214 61q-123 0 -214.5 -61 t-140 -171t-48.5 -254q0 -218 109 -351t294 -133zM674 1844h232l264 -306h-271l-107 145h-8l-105 -145h-268z" />
<glyph unicode="&#xd5;" horiz-adv-x="1580" d="M790 -24q-156 0 -287.5 54.5t-222 151t-141.5 233t-51 297t51 297t141.5 233t222 151t287.5 54.5t287 -54.5t222 -151t142 -233t51 -297t-51 -297t-142 -233t-222 -151t-287 -54.5zM790 227q185 0 294 133t109 351q0 144 -48.5 254t-140.5 171t-214 61q-123 0 -214.5 -61 t-140 -171t-48.5 -254q0 -218 109 -351t294 -133zM920 1540q-32 0 -70 15t-67.5 33t-63.5 33t-59 15q-67 0 -82 -101l-139 13q4 59 17 105.5t37.5 85.5t67 60t99.5 21q32 0 70.5 -15t68 -33t63.5 -33t58 -15q68 0 82 98l140 -11q-6 -66 -19 -112.5t-37.5 -84t-66 -56 t-99.5 -18.5z" />
<glyph unicode="&#xd6;" horiz-adv-x="1580" d="M790 -24q-156 0 -287.5 54.5t-222 151t-141.5 233t-51 297t51 297t141.5 233t222 151t287.5 54.5t287 -54.5t222 -151t142 -233t51 -297t-51 -297t-142 -233t-222 -151t-287 -54.5zM790 227q185 0 294 133t109 351q0 144 -48.5 254t-140.5 171t-214 61q-123 0 -214.5 -61 t-140 -171t-48.5 -254q0 -218 109 -351t294 -133zM708 1565h-291v255h291v-255zM1164 1565h-291v255h291v-255z" />
<glyph unicode="&#xd7;" d="M180 336l280 279l-273 276l143 143l276 -273l279 279l153 -153l-279 -279l273 -276l-143 -143l-276 273l-279 -280z" />
<glyph unicode="&#xd8;" horiz-adv-x="1580" d="M790 -24q-156 0 -287.5 54.5t-222 151t-141.5 233t-51 297t51 297t141.5 233t222 151t287.5 54.5t287 -54.5t222 -151t142 -233t51 -297t-51 -297t-142 -233t-222 -151t-287 -54.5zM790 227q185 0 294 133t109 351q0 144 -48.5 254t-140.5 171t-214 61q-123 0 -214.5 -61 t-140 -171t-48.5 -254q0 -218 109 -351t294 -133zM426 -137l516 1700h210l-513 -1700h-213z" />
<glyph unicode="&#xd9;" horiz-adv-x="1511" d="M761 -24q-305 0 -462.5 145t-157.5 406v897h296v-885q0 -162 82.5 -237t245.5 -75q105 0 174 33.5t103.5 103t34.5 175.5v885h296v-901q0 -260 -155.5 -403.5t-456.5 -143.5zM664 1529l-270 291h255l271 -291h-256z" />
<glyph unicode="&#xda;" horiz-adv-x="1511" d="M761 -24q-305 0 -462.5 145t-157.5 406v897h296v-885q0 -162 82.5 -237t245.5 -75q105 0 174 33.5t103.5 103t34.5 175.5v885h296v-901q0 -260 -155.5 -403.5t-456.5 -143.5zM610 1529l271 291h256l-272 -291h-255z" />
<glyph unicode="&#xdb;" horiz-adv-x="1511" d="M761 -24q-305 0 -462.5 145t-157.5 406v897h296v-885q0 -162 82.5 -237t245.5 -75q105 0 174 33.5t103.5 103t34.5 175.5v885h296v-901q0 -260 -155.5 -403.5t-456.5 -143.5zM639 1844h232l264 -306h-272l-107 145h-7l-106 -145h-268z" />
<glyph unicode="&#xdc;" horiz-adv-x="1511" d="M761 -24q-305 0 -462.5 145t-157.5 406v897h296v-885q0 -162 82.5 -237t245.5 -75q105 0 174 33.5t103.5 103t34.5 175.5v885h296v-901q0 -260 -155.5 -403.5t-456.5 -143.5zM672 1565h-291v255h291v-255zM1129 1565h-292v255h292v-255z" />
<glyph unicode="&#xdd;" horiz-adv-x="1352" d="M531 0v572l-531 852h328l349 -561h7l348 561h321l-527 -852v-572h-295zM550 1529l272 291h255l-271 -291h-256z" />
<glyph unicode="&#xde;" horiz-adv-x="1344" d="M148 0v1459h295v-213h306q154 0 271.5 -52.5t185.5 -159t68 -254.5q0 -110 -39.5 -200t-108.5 -149t-161.5 -90.5t-199.5 -31.5h-322v-309h-295zM443 550h289q56 0 100 13t77.5 39.5t51.5 70.5t18 104q0 46 -12.5 84t-35 63.5t-53.5 43t-67.5 25t-78.5 7.5h-289v-450z " />
<glyph unicode="&#xdf;" horiz-adv-x="1277" d="M133 0v1030q0 73 19 137t53.5 113t81.5 87t103 62t118.5 36.5t128.5 12.5q98 0 183 -25.5t148.5 -72t100 -115.5t36.5 -152q0 -94 -42.5 -157t-116.5 -106v-8q261 -94 261 -390q0 -91 -25.5 -168t-69.5 -131.5t-104 -93t-129.5 -56.5t-145.5 -18q-16 0 -32 0.5t-29 1.5 t-26 2.5t-23.5 3t-19.5 3t-15.5 3t-11.5 3t-7 1.5l-3 1l16 223q67 -15 127 -15q100 0 157.5 66.5t57.5 189.5q0 117 -59.5 178.5t-176.5 61.5h-67v220h36q38 0 67.5 8t49 22t32 35t18 46.5t5.5 57.5q0 77 -50 119.5t-146 42.5q-101 0 -160.5 -61t-59.5 -176v-1022h-280z" />
<glyph unicode="&#xe0;" horiz-adv-x="1189" d="M424 -15q-161 0 -253 86t-92 231q0 67 24.5 122t67.5 92.5t93.5 62.5t110.5 40l380 94v9q0 80 -40 114.5t-137 34.5q-101 0 -149 -31t-59 -114l-263 19q19 168 145.5 252t340.5 84q218 0 327.5 -89t109.5 -249v-401q0 -168 28 -318v-24h-260q-19 77 -19 116v10h-8 q-130 -141 -347 -141zM482 197q117 0 195 64.5t78 153.5v101l-281 -70q-120 -27 -120 -127q0 -55 32 -88.5t96 -33.5zM499 1168l-271 291h256l271 -291h-256z" />
<glyph unicode="&#xe1;" horiz-adv-x="1189" d="M424 -15q-161 0 -253 86t-92 231q0 67 24.5 122t67.5 92.5t93.5 62.5t110.5 40l380 94v9q0 80 -40 114.5t-137 34.5q-101 0 -149 -31t-59 -114l-263 19q19 168 145.5 252t340.5 84q218 0 327.5 -89t109.5 -249v-401q0 -168 28 -318v-24h-260q-19 77 -19 116v10h-8 q-130 -141 -347 -141zM482 197q117 0 195 64.5t78 153.5v101l-281 -70q-120 -27 -120 -127q0 -55 32 -88.5t96 -33.5zM377 1168l272 291h255l-271 -291h-256z" />
<glyph unicode="&#xe2;" horiz-adv-x="1189" d="M424 -15q-161 0 -253 86t-92 231q0 67 24.5 122t67.5 92.5t93.5 62.5t110.5 40l380 94v9q0 80 -40 114.5t-137 34.5q-101 0 -149 -31t-59 -114l-263 19q19 168 145.5 252t340.5 84q218 0 327.5 -89t109.5 -249v-401q0 -168 28 -318v-24h-260q-19 77 -19 116v10h-8 q-130 -141 -347 -141zM482 197q117 0 195 64.5t78 153.5v101l-281 -70q-120 -27 -120 -127q0 -55 32 -88.5t96 -33.5zM469 1482h233l264 -306h-272l-106 145h-8l-106 -145h-268z" />
<glyph unicode="&#xe3;" horiz-adv-x="1189" d="M424 -15q-161 0 -253 86t-92 231q0 67 24.5 122t67.5 92.5t93.5 62.5t110.5 40l380 94v9q0 80 -40 114.5t-137 34.5q-101 0 -149 -31t-59 -114l-263 19q19 168 145.5 252t340.5 84q218 0 327.5 -89t109.5 -249v-401q0 -168 28 -318v-24h-260q-19 77 -19 116v10h-8 q-130 -141 -347 -141zM482 197q117 0 195 64.5t78 153.5v101l-281 -70q-120 -27 -120 -127q0 -55 32 -88.5t96 -33.5zM700 1178q-32 0 -70 15t-67.5 33t-63.5 33t-58 15q-68 0 -83 -100l-140 12q5 59 18 106t37.5 86t67 60t100.5 21q31 0 69.5 -15t68 -33t63.5 -33.5 t58 -15.5q68 0 82 99l141 -12q-7 -66 -20 -112.5t-37.5 -84t-66 -56t-99.5 -18.5z" />
<glyph unicode="&#xe4;" horiz-adv-x="1189" d="M424 -15q-161 0 -253 86t-92 231q0 67 24.5 122t67.5 92.5t93.5 62.5t110.5 40l380 94v9q0 80 -40 114.5t-137 34.5q-101 0 -149 -31t-59 -114l-263 19q19 168 145.5 252t340.5 84q218 0 327.5 -89t109.5 -249v-401q0 -168 28 -318v-24h-260q-19 77 -19 116v10h-8 q-130 -141 -347 -141zM482 197q117 0 195 64.5t78 153.5v101l-281 -70q-120 -27 -120 -127q0 -55 32 -88.5t96 -33.5zM509 1203h-291v256h291v-256zM966 1203h-292v256h292v-256z" />
<glyph unicode="&#xe5;" horiz-adv-x="1189" d="M424 -15q-161 0 -253 86t-92 231q0 67 24.5 122t67.5 92.5t93.5 62.5t110.5 40l380 94v9q0 80 -40 114.5t-137 34.5q-101 0 -149 -31t-59 -114l-263 19q19 168 145.5 252t340.5 84q218 0 327.5 -89t109.5 -249v-401q0 -168 28 -318v-24h-260q-19 77 -19 116v10h-8 q-130 -141 -347 -141zM482 197q117 0 195 64.5t78 153.5v101l-281 -70q-120 -27 -120 -127q0 -55 32 -88.5t96 -33.5zM593 1115q-73 0 -131.5 30.5t-91 84.5t-32.5 121t32.5 121.5t91 86.5t131.5 32q113 0 185 -69t72 -171q0 -103 -72 -169.5t-185 -66.5zM593 1246 q46 0 76.5 29t30.5 76q0 48 -30.5 78t-76.5 30t-76.5 -30t-30.5 -78q0 -24 8 -43.5t22.5 -33t34.5 -21t42 -7.5z" />
<glyph unicode="&#xe6;" horiz-adv-x="1808" d="M1266 -19q-135 0 -239 49t-168 141q-67 -94 -170.5 -142t-224.5 -48q-188 0 -287.5 86.5t-99.5 234.5q0 67 23 122t64 92.5t91 62.5t111 40q142 34 397 26v73q0 79 -45.5 116t-143.5 37q-95 0 -140 -33.5t-57 -111.5l-263 19q20 164 140.5 250t331.5 86q227 0 337 -122 q130 122 332 122q74 0 141 -17.5t120.5 -50.5t96.5 -79.5t72 -104t44 -125t15 -141.5v-109h-712v-19q3 -112 64.5 -174t169.5 -62q84 0 131.5 40.5t71.5 108.5l257 -27q-13 -55 -38.5 -104.5t-65 -93t-90.5 -75t-119.5 -49.5t-146.5 -18zM492 199q47 0 94 14t86.5 40.5 t64 69t24.5 94.5v45q-61 5 -147 4t-142 -16q-120 -27 -120 -131q0 -53 37.5 -86.5t102.5 -33.5zM1036 647h435v8q-5 46 -22 84t-44 65.5t-65.5 43t-84.5 15.5q-92 0 -148.5 -57t-70.5 -159z" />
<glyph unicode="&#xe7;" horiz-adv-x="1150" d="M593 -19q-107 0 -202 38.5t-166 108t-112.5 174t-41.5 229.5q0 100 27 188t75 153.5t113 113t143.5 71.5t163.5 24q84 0 158.5 -20t131.5 -56t99.5 -84.5t68 -106t32.5 -120.5l-271 -24q-12 59 -39 100t-71.5 63t-103.5 22q-107 0 -176.5 -83t-69.5 -241t69.5 -241.5 t176.5 -83.5q88 0 143.5 51t72.5 139l269 -24q-23 -175 -155.5 -283t-334.5 -108zM561 26h188l-65 -101q37 -5 64 -14t52 -26.5t38.5 -48.5t13.5 -74q0 -93 -79.5 -143t-217.5 -50q-44 0 -90 6.5t-71 12.5l-24 7l15 146q79 -26 161 -26q61 0 85 13t24 42q0 20 -12.5 30.5 t-50.5 16.5t-112 6v75z" />
<glyph unicode="&#xe8;" horiz-adv-x="1163" d="M604 -19q-160 0 -280.5 66t-186.5 190.5t-66 291.5q0 123 39 226.5t108 175t165.5 111t207.5 39.5q149 0 265 -67t178.5 -185t62.5 -266v-105h-743v-12q5 -112 73.5 -179.5t176.5 -67.5q157 0 210 149l261 -27q-16 -69 -54.5 -129t-96 -108t-140.5 -75.5t-180 -27.5z M358 647h462v8q-10 92 -72.5 150t-156.5 58q-93 0 -156 -58t-77 -158zM527 1168l-272 291h256l271 -291h-255z" />
<glyph unicode="&#xe9;" horiz-adv-x="1163" d="M604 -19q-160 0 -280.5 66t-186.5 190.5t-66 291.5q0 123 39 226.5t108 175t165.5 111t207.5 39.5q149 0 265 -67t178.5 -185t62.5 -266v-105h-743v-12q5 -112 73.5 -179.5t176.5 -67.5q157 0 210 149l261 -27q-16 -69 -54.5 -129t-96 -108t-140.5 -75.5t-180 -27.5z M358 647h462v8q-10 92 -72.5 150t-156.5 58q-93 0 -156 -58t-77 -158zM397 1168l271 291h256l-271 -291h-256z" />
<glyph unicode="&#xea;" horiz-adv-x="1163" d="M604 -19q-160 0 -280.5 66t-186.5 190.5t-66 291.5q0 123 39 226.5t108 175t165.5 111t207.5 39.5q149 0 265 -67t178.5 -185t62.5 -266v-105h-743v-12q5 -112 73.5 -179.5t176.5 -67.5q157 0 210 149l261 -27q-16 -69 -54.5 -129t-96 -108t-140.5 -75.5t-180 -27.5z M358 647h462v8q-10 92 -72.5 150t-156.5 58q-93 0 -156 -58t-77 -158zM466 1482h232l263 -306h-271l-106 145h-8l-107 -145h-266z" />
<glyph unicode="&#xeb;" horiz-adv-x="1163" d="M604 -19q-160 0 -280.5 66t-186.5 190.5t-66 291.5q0 123 39 226.5t108 175t165.5 111t207.5 39.5q149 0 265 -67t178.5 -185t62.5 -266v-105h-743v-12q5 -112 73.5 -179.5t176.5 -67.5q157 0 210 149l261 -27q-16 -69 -54.5 -129t-96 -108t-140.5 -75.5t-180 -27.5z M358 647h462v8q-10 92 -72.5 150t-156.5 58q-93 0 -156 -58t-77 -158zM507 1203h-291v256h291v-256zM964 1203h-292v256h292v-256z" />
<glyph unicode="&#xec;" horiz-adv-x="553" d="M137 0v1058h280v-1058h-280zM167 1168l-272 291h257l270 -291h-255z" />
<glyph unicode="&#xed;" horiz-adv-x="553" d="M137 0v1058h280v-1058h-280zM92 1168l272 291h255l-271 -291h-256z" />
<glyph unicode="&#xee;" horiz-adv-x="553" d="M137 0v1058h280v-1058h-280zM161 1482h233l263 -306h-272l-106 145h-7l-107 -145h-267z" />
<glyph unicode="&#xef;" horiz-adv-x="553" d="M137 0v1058h280v-1058h-280zM195 1203h-291v256h291v-256zM651 1203h-291v256h291v-256z" />
<glyph unicode="&#xf0;" horiz-adv-x="1216" d="M356 1165v129l158 23q-110 85 -205 146l277 15q98 -59 175 -123l241 37v-128l-129 -20q126 -140 199.5 -312t73.5 -362q0 -128 -36.5 -236t-104 -186.5t-169 -122.5t-226.5 -44q-159 0 -281.5 68.5t-190 192t-67.5 281.5q0 117 38.5 218t105.5 171t159 110t196 40 q51 0 102.5 -15t76 -27.5t41.5 -24.5h8q-50 102 -162 212zM610 206q75 0 133 37.5t91 110t33 169.5q0 144 -72.5 230t-184.5 86q-113 0 -186.5 -86t-73.5 -230q0 -146 72 -231.5t188 -85.5z" />
<glyph unicode="&#xf1;" horiz-adv-x="1222" d="M133 0v1062h268v-128q5 6 13.5 16t39 35.5t65 44.5t89.5 35t114 16q80 0 148 -25t120 -72.5t81.5 -124t29.5 -173.5v-686h-279v639q0 54 -10 92t-31.5 64.5t-56 39.5t-83.5 13q-94 0 -161 -64t-67 -148v-636h-280zM741 1178q-31 0 -69.5 15t-68 33t-63.5 33t-58 15 q-68 0 -83 -100l-140 12q5 59 18 106t38 86t67 60t100 21q31 0 69.5 -15t68 -33t63.5 -33.5t58 -15.5q68 0 83 99l140 -12q-6 -66 -19 -112.5t-38 -84t-66.5 -56t-99.5 -18.5z" />
<glyph unicode="&#xf2;" d="M609.5 -19q-158.5 0 -281 68t-190 193.5t-67.5 288.5q0 82 17.5 155.5t50.5 134t81 109t107.5 82t131 51.5t151.5 18q158 0 280.5 -68.5t190 -193.5t67.5 -288t-67.5 -288.5t-190 -193.5t-281 -68zM610 206q55 0 102.5 21.5t82.5 61.5t54.5 102t19.5 140q0 76 -20 137.5 t-54.5 102t-82 62.5t-102.5 22q-114 0 -187 -86.5t-73 -237.5q0 -155 72.5 -240t187.5 -85zM559 1168l-272 291h255l272 -291h-255z" />
<glyph unicode="&#xf3;" d="M609.5 -19q-158.5 0 -281 68t-190 193.5t-67.5 288.5q0 82 17.5 155.5t50.5 134t81 109t107.5 82t131 51.5t151.5 18q158 0 280.5 -68.5t190 -193.5t67.5 -288t-67.5 -288.5t-190 -193.5t-281 -68zM610 206q55 0 102.5 21.5t82.5 61.5t54.5 102t19.5 140q0 76 -20 137.5 t-54.5 102t-82 62.5t-102.5 22q-114 0 -187 -86.5t-73 -237.5q0 -155 72.5 -240t187.5 -85zM405 1168l272 291h255l-272 -291h-255z" />
<glyph unicode="&#xf4;" d="M609.5 -19q-158.5 0 -281 68t-190 193.5t-67.5 288.5q0 82 17.5 155.5t50.5 134t81 109t107.5 82t131 51.5t151.5 18q158 0 280.5 -68.5t190 -193.5t67.5 -288t-67.5 -288.5t-190 -193.5t-281 -68zM610 206q55 0 102.5 21.5t82.5 61.5t54.5 102t19.5 140q0 76 -20 137.5 t-54.5 102t-82 62.5t-102.5 22q-114 0 -187 -86.5t-73 -237.5q0 -155 72.5 -240t187.5 -85zM493 1482h233l263 -306h-271l-106 145h-8l-107 -145h-267z" />
<glyph unicode="&#xf5;" d="M609.5 -19q-158.5 0 -281 68t-190 193.5t-67.5 288.5q0 82 17.5 155.5t50.5 134t81 109t107.5 82t131 51.5t151.5 18q158 0 280.5 -68.5t190 -193.5t67.5 -288t-67.5 -288.5t-190 -193.5t-281 -68zM610 206q55 0 102.5 21.5t82.5 61.5t54.5 102t19.5 140q0 76 -20 137.5 t-54.5 102t-82 62.5t-102.5 22q-114 0 -187 -86.5t-73 -237.5q0 -155 72.5 -240t187.5 -85zM739 1178q-31 0 -69.5 15t-68 33t-63.5 33t-58 15q-68 0 -83 -100l-140 12q5 59 18 106t38 86t67 60t100 21q32 0 70 -15t67.5 -33t63.5 -33.5t58 -15.5q68 0 83 99l139 -12 q-6 -66 -19 -112.5t-37.5 -84t-66 -56t-99.5 -18.5z" />
<glyph unicode="&#xf6;" d="M609.5 -19q-158.5 0 -281 68t-190 193.5t-67.5 288.5q0 82 17.5 155.5t50.5 134t81 109t107.5 82t131 51.5t151.5 18q158 0 280.5 -68.5t190 -193.5t67.5 -288t-67.5 -288.5t-190 -193.5t-281 -68zM610 206q55 0 102.5 21.5t82.5 61.5t54.5 102t19.5 140q0 76 -20 137.5 t-54.5 102t-82 62.5t-102.5 22q-114 0 -187 -86.5t-73 -237.5q0 -155 72.5 -240t187.5 -85zM527 1203h-291v256h291v-256zM983 1203h-291v256h291v-256z" />
<glyph unicode="&#xf7;" d="M755 865h-291v255h291v-255zM755 102h-291v256h291v-256zM1077 501h-936v221h936v-221z" />
<glyph unicode="&#xf8;" d="M609.5 -19q-158.5 0 -281 68t-190 193.5t-67.5 288.5q0 82 17.5 155.5t50.5 134t81 109t107.5 82t131 51.5t151.5 18q158 0 280.5 -68.5t190 -193.5t67.5 -288t-67.5 -288.5t-190 -193.5t-281 -68zM610 206q55 0 102.5 21.5t82.5 61.5t54.5 102t19.5 140q0 76 -20 137.5 t-54.5 102t-82 62.5t-102.5 22q-114 0 -187 -86.5t-73 -237.5q0 -155 72.5 -240t187.5 -85zM263 -77l492 1214h202l-491 -1214h-203z" />
<glyph unicode="&#xf9;" horiz-adv-x="1222" d="M501 -19q-80 0 -148 24.5t-119.5 72.5t-80.5 124.5t-29 172.5v687h279v-640q0 -107 41.5 -157.5t139.5 -50.5q93 0 160.5 64t67.5 148v636h280v-1062h-268v128q-2 -2 -4.5 -5.5t-12 -13.5t-20.5 -19.5t-28.5 -23t-36.5 -24.5t-44 -23t-51.5 -20t-59 -13t-66.5 -5z M517 1168l-271 291h255l272 -291h-256z" />
<glyph unicode="&#xfa;" horiz-adv-x="1222" d="M501 -19q-80 0 -148 24.5t-119.5 72.5t-80.5 124.5t-29 172.5v687h279v-640q0 -107 41.5 -157.5t139.5 -50.5q93 0 160.5 64t67.5 148v636h280v-1062h-268v128q-2 -2 -4.5 -5.5t-12 -13.5t-20.5 -19.5t-28.5 -23t-36.5 -24.5t-44 -23t-51.5 -20t-59 -13t-66.5 -5z M443 1168l270 291h257l-272 -291h-255z" />
<glyph unicode="&#xfb;" horiz-adv-x="1222" d="M501 -19q-80 0 -148 24.5t-119.5 72.5t-80.5 124.5t-29 172.5v687h279v-640q0 -107 41.5 -157.5t139.5 -50.5q93 0 160.5 64t67.5 148v636h280v-1062h-268v128q-2 -2 -4.5 -5.5t-12 -13.5t-20.5 -19.5t-28.5 -23t-36.5 -24.5t-44 -23t-51.5 -20t-59 -13t-66.5 -5z M495 1482h233l263 -306h-271l-107 145h-7l-107 -145h-267z" />
<glyph unicode="&#xfc;" horiz-adv-x="1222" d="M501 -19q-80 0 -148 24.5t-119.5 72.5t-80.5 124.5t-29 172.5v687h279v-640q0 -107 41.5 -157.5t139.5 -50.5q93 0 160.5 64t67.5 148v636h280v-1062h-268v128q-2 -2 -4.5 -5.5t-12 -13.5t-20.5 -19.5t-28.5 -23t-36.5 -24.5t-44 -23t-51.5 -20t-59 -13t-66.5 -5z M529 1203h-291v256h291v-256zM985 1203h-291v256h291v-256z" />
<glyph unicode="&#xfd;" horiz-adv-x="1106" d="M309 -394q-65 0 -148 21l19 225q48 -9 97 -9q65 0 97.5 28.5t42.5 94.5v26l-402 1070h296l246 -706h7l246 706h289l-468 -1229q-49 -126 -122 -176.5t-200 -50.5zM387 1168l272 291h255l-271 -291h-256z" />
<glyph unicode="&#xfe;" horiz-adv-x="1244" d="M137 -377v1836h280v-510q4 6 13 15t38.5 31.5t61.5 40t82 31.5t101 14q99 0 183 -37.5t146 -107t97 -175.5t35 -236q0 -103 -26 -192t-70.5 -153t-104.5 -109.5t-129 -67.5t-142 -22q-50 0 -98 11.5t-80.5 28t-57.5 33.5t-37 28l-12 12v-471h-280zM643 203 q117 0 184.5 81.5t67.5 240.5q0 157 -70.5 240t-181.5 83q-36 0 -72.5 -12t-63 -28.5t-47.5 -33.5t-32 -29l-11 -12v-416q2 -3 5.5 -7t16.5 -16t26.5 -22.5t34.5 -23.5t42.5 -22.5t48 -16t52.5 -6.5z" />
<glyph unicode="&#xff;" horiz-adv-x="1106" d="M309 -394q-65 0 -148 21l19 225q48 -9 97 -9q65 0 97.5 28.5t42.5 94.5v26l-402 1070h296l246 -706h7l246 706h289l-468 -1229q-49 -126 -122 -176.5t-200 -50.5zM469 1203h-290v256h290v-256zM926 1203h-290v256h290v-256z" />
<glyph unicode="&#x152;" horiz-adv-x="2211" d="M1088 0v90q-132 -105 -319 -105q-141 0 -265.5 51t-216.5 143.5t-145.5 230t-53.5 302t53.5 302t145.5 230t216.5 144t265.5 51.5q184 0 319 -108v93h1017v-246h-723v-323h639v-238h-639v-367h732v-250h-1026zM773 234q48 0 93 11.5t79 29t63.5 40.5t48 43t31.5 39v633 q-17 23 -42.5 47t-64.5 51t-94 44t-114 17q-78 0 -147 -31.5t-122.5 -90.5t-85 -151t-31.5 -204.5t31.5 -204.5t85 -150.5t122.5 -90.5t147 -32z" />
<glyph unicode="&#x153;" horiz-adv-x="1944" d="M1386 -19q-265 0 -397 178q-135 -178 -387 -178q-115 0 -213.5 39.5t-168.5 111t-109.5 174.5t-39.5 225t39.5 225t109.5 174t168.5 111t213.5 40q126 0 224.5 -48t164.5 -136q64 89 161.5 136.5t222.5 47.5q148 0 263.5 -67t178.5 -185t63 -266v-105h-743v-12 q4 -112 72.5 -179.5t176.5 -67.5q85 0 138 41.5t76 107.5l261 -27q-16 -69 -55 -129t-97.5 -108t-142 -75.5t-180.5 -27.5zM602 206q114 0 182.5 85t68.5 240q0 152 -69 238t-182 86t-182.5 -86t-69.5 -238q0 -155 69 -240t183 -85zM1140 647h462v8q-10 92 -72 150t-155 58 t-156.5 -58t-78.5 -158z" />
<glyph unicode="&#x178;" horiz-adv-x="1352" d="M531 0v572l-531 852h328l349 -561h7l348 561h321l-527 -852v-572h-295zM593 1525h-291v256h291v-256zM1050 1525h-291v256h291v-256z" />
<glyph unicode="&#x2c6;" horiz-adv-x="904" d="M328 1482h233l263 -306h-272l-106 145h-7l-107 -145h-267z" />
<glyph unicode="&#x2dc;" horiz-adv-x="750" d="M505 1178q-32 0 -70 15t-67.5 33t-63.5 33t-58 15q-68 0 -83 -100l-139 12q5 60 17.5 106.5t37.5 85.5t67 60t100 21q31 0 69.5 -15t68 -33t63.5 -33.5t58 -15.5q68 0 83 99l140 -12q-5 -52 -14 -91.5t-25.5 -74.5t-40.5 -57t-60 -35t-83 -13z" />
<glyph unicode="&#x2000;" horiz-adv-x="976" />
<glyph unicode="&#x2001;" horiz-adv-x="1953" />
<glyph unicode="&#x2002;" horiz-adv-x="976" />
<glyph unicode="&#x2003;" horiz-adv-x="1953" />
<glyph unicode="&#x2004;" horiz-adv-x="651" />
<glyph unicode="&#x2005;" horiz-adv-x="488" />
<glyph unicode="&#x2006;" horiz-adv-x="325" />
<glyph unicode="&#x2007;" horiz-adv-x="325" />
<glyph unicode="&#x2008;" horiz-adv-x="244" />
<glyph unicode="&#x2009;" horiz-adv-x="390" />
<glyph unicode="&#x200a;" horiz-adv-x="108" />
<glyph unicode="&#x2010;" horiz-adv-x="773" d="M94 448v233h587v-233h-587z" />
<glyph unicode="&#x2011;" horiz-adv-x="773" d="M94 448v233h587v-233h-587z" />
<glyph unicode="&#x2012;" horiz-adv-x="773" d="M94 448v233h587v-233h-587z" />
<glyph unicode="&#x2013;" horiz-adv-x="1152" d="M59 450v252h1034v-252h-1034z" />
<glyph unicode="&#x2014;" horiz-adv-x="1752" d="M39 450v252h1676v-252h-1676z" />
<glyph unicode="&#x2018;" horiz-adv-x="574" d="M446 1490l12 -141q-103 -14 -164 -69.5t-60 -127.5h220v-291h-114q-148 0 -220 105q-64 92 -39 215q27 134 144 221q92 68 221 88z" />
<glyph unicode="&#x2019;" horiz-adv-x="574" d="M128 818l-12 141q103 14 164 69.5t60 127.5h-220v291h114q148 0 220 -105q64 -92 39 -216q-27 -133 -144 -220q-92 -69 -221 -88z" />
<glyph unicode="&#x201a;" horiz-adv-x="574" d="M128 -338l-12 141q103 14 164 69.5t60 127.5h-220v291h114q148 0 220 -105q64 -92 39 -215q-27 -134 -144 -221q-92 -68 -221 -88z" />
<glyph unicode="&#x201c;" horiz-adv-x="1033" d="M446 1490l12 -141q-103 -14 -164 -69.5t-60 -127.5h220v-291h-114q-148 0 -220 105q-64 92 -39 215q27 134 144 221q92 68 221 88zM906 1490l12 -141q-103 -14 -164 -69.5t-60 -127.5h220v-291h-113q-148 0 -221 105q-63 92 -38 215q27 134 143 221q93 68 221 88z" />
<glyph unicode="&#x201d;" horiz-adv-x="1033" d="M128 818l-12 141q103 14 164 69.5t60 127.5h-220v291h114q148 0 220 -105q64 -92 39 -216q-27 -133 -144 -220q-92 -69 -221 -88zM588 818l-12 141q68 9 120 38t79 70.5t26 88.5h-221v291h114q148 0 220 -105q64 -92 39 -216q-28 -133 -144 -220q-93 -68 -221 -88z" />
<glyph unicode="&#x201e;" horiz-adv-x="1033" d="M128 -338l-12 141q103 14 164 69.5t60 127.5h-220v291h114q148 0 220 -105q64 -92 39 -215q-27 -134 -144 -221q-92 -68 -221 -88zM588 -338l-12 141q103 14 164.5 69.5t60.5 127.5h-221v291h114q148 0 220 -105q64 -92 39 -215q-28 -134 -144 -221q-93 -68 -221 -88z " />
<glyph unicode="&#x2022;" horiz-adv-x="773" d="M645 364h-515v473h515v-473z" />
<glyph unicode="&#x2026;" horiz-adv-x="1735" d="M431 0h-324v299h324v-299zM1030 0h-324v299h324v-299zM1630 0h-324v299h324v-299z" />
<glyph unicode="&#x202f;" horiz-adv-x="390" />
<glyph unicode="&#x2039;" horiz-adv-x="569" d="M63 452v268l405 365v-303l-216 -194v-8l216 -195v-310z" />
<glyph unicode="&#x203a;" horiz-adv-x="569" d="M507 720v-268l-405 -377v310l217 195v8l-217 194v303z" />
<glyph unicode="&#x205f;" horiz-adv-x="488" />
<glyph unicode="&#x20ac;" horiz-adv-x="1238" d="M83 765v165h114q39 254 171.5 385.5t339.5 131.5q100 0 183.5 -33t140.5 -90t91.5 -130.5t44.5 -157.5l-260 -23q-19 89 -70.5 144t-129.5 55q-186 0 -232 -282h426l-26 -165h-416v-54v-52h401l-26 -166h-359q46 -281 232 -281q53 0 95 26.5t67.5 70t37.5 102.5l260 -24 q-10 -87 -44.5 -161.5t-91.5 -130.5t-140.5 -87.5t-183.5 -31.5q-207 0 -339.5 131.5t-171.5 385.5h-114v166h97v52v54h-97z" />
<glyph unicode="&#x2122;" horiz-adv-x="1778" d="M283 713v535h-220v176h633v-176h-218v-535h-195zM803 713v711h282l168 -458h6l172 458h278v-711h-185v510h-4l-193 -510h-143l-193 510h-4v-510h-184z" />
<glyph unicode="&#x25fc;" horiz-adv-x="1060" d="M0 1062h1062v-1062h-1062v1062z" />
</font>
</defs>
</svg>
