<?xml version="1.0" standalone="no"?>
<!DOCTYPE svg PUBLIC "-//W3C//DTD SVG 1.1//EN" "http://www.w3.org/Graphics/SVG/1.1/DTD/svg11.dtd" >
<svg xmlns="http://www.w3.org/2000/svg">
<metadata></metadata>
<defs>
<font id="rayonregular" horiz-adv-x="1165" >
<font-face units-per-em="2048" ascent="1536" descent="-512" />
<missing-glyph horiz-adv-x="542" />
<glyph horiz-adv-x="0" />
<glyph horiz-adv-x="682" />
<glyph unicode=" "  horiz-adv-x="542" />
<glyph unicode="&#x09;" horiz-adv-x="542" />
<glyph unicode="&#xa0;" horiz-adv-x="542" />
<glyph unicode="!" horiz-adv-x="542" d="M180 381v1087h183v-1087h-183zM385 0h-229v209h229v-209z" />
<glyph unicode="&#x22;" horiz-adv-x="607" d="M85 965v503h146v-503h-146zM377 965v503h146v-503h-146z" />
<glyph unicode="#" horiz-adv-x="1126" d="M530 0l91 426h-250l-91 -426h-138l92 426h-189v129h216l78 358h-199v129h227l93 426h136l-91 -426h249l93 426h136l-91 -426h191v-129h-220l-76 -358h200v-129h-229l-91 -426h-137zM476 913l-77 -358h249l78 358h-250z" />
<glyph unicode="$" horiz-adv-x="1296" d="M584 -215v197q-108 5 -193.5 31.5t-150.5 76t-102.5 127t-44.5 180.5l166 17q5 -70 30 -121.5t69 -83t99.5 -48.5t126.5 -21v535l-71 18q-90 22 -159 52.5t-125 74.5t-85.5 106t-29.5 140q0 119 61.5 212t167.5 145.5t241 62.5v189h130v-191q202 -14 322.5 -113.5 t131.5 -285.5l-166 -17q-12 118 -87.5 180.5t-200.5 77.5v-509l62 -16q94 -24 166.5 -56.5t129 -78.5t86.5 -110t30 -142q0 -126 -62.5 -221.5t-168.5 -147t-243 -61.5v-199h-130zM722 643l-8 1v-504q85 9 151 40t107.5 88.5t41.5 133.5q0 171 -292 241zM288 1079 q0 -47 21.5 -85t62.5 -64t87 -44t108 -33l17 -4v479q-130 -13 -213 -78.5t-83 -170.5z" />
<glyph unicode="%" horiz-adv-x="1621" d="M231 0l996 1468h164l-996 -1468h-164zM1202 -29q-104 0 -189 48t-133 133t-48 188.5t48 188t133 132t189 47.5t189 -47.5t133.5 -132t48.5 -188t-48.5 -188.5t-133.5 -133t-189 -48zM1202 108q93 0 151 65t58 168q0 104 -58 166t-151 62q-95 0 -153 -62.5t-58 -165.5 q0 -105 59 -169t152 -64zM420 760q-104 0 -189 47.5t-133.5 132t-48.5 188t48.5 188t133.5 132.5t189 48t189 -48t133.5 -132.5t48.5 -188t-48.5 -188t-133.5 -132t-189 -47.5zM420 898q94 0 151.5 63t57.5 167t-58.5 168t-150.5 64q-94 0 -151.5 -64.5t-57.5 -167.5 q0 -105 58 -167.5t151 -62.5z" />
<glyph unicode="&#x26;" horiz-adv-x="1499" d="M1267 0l-178 176q-198 -201 -477 -201q-138 0 -250 48t-178 139.5t-66 210.5q0 53 16 103t40.5 88.5t58.5 74.5t65.5 60.5t66 46.5t55.5 32.5t38 18.5q-51 45 -84 78t-68 77t-51.5 89.5t-16.5 94.5q0 69 30.5 133.5t85 114t136 79t177.5 29.5t176 -28t132.5 -75.5 t81 -108.5t28.5 -129q0 -44 -16.5 -88.5t-41.5 -80t-59.5 -70.5t-65.5 -59t-64 -46.5t-50 -32t-30 -16.5l327 -328q91 177 91 389v57l166 -8v-49q0 -129 -37.5 -260t-106.5 -243l315 -316h-246zM621 130q217 0 362 154l-416 416h-2q-26 -12 -54 -28t-69 -46.5t-71.5 -64 t-52.5 -81.5t-22 -99q0 -79 46 -137.5t118.5 -86t160.5 -27.5zM416 1139q0 -27 13.5 -57.5t31 -54.5t52 -57t57 -52t66.5 -55q10 -8 14 -12q23 12 47 26.5t64.5 45t70 61.5t52 74.5t22.5 84.5q0 89 -65.5 144t-175.5 55q-113 0 -181 -57t-68 -146z" />
<glyph unicode="'" horiz-adv-x="404" d="M126 965v503h154v-503h-154z" />
<glyph unicode="(" horiz-adv-x="611" d="M377 -255q-8 16 -21.5 46t-47.5 127t-60.5 199t-48 253.5t-21.5 299t20.5 297t50 257.5t58.5 195t50 131l20 44h167q-9 -18 -22.5 -50t-48.5 -133.5t-62 -204.5t-48.5 -251t-21.5 -286q0 -100 11 -205t29 -193t39.5 -171t43 -146.5t39.5 -111t29 -72.5l12 -25h-167z" />
<glyph unicode=")" horiz-adv-x="611" d="M236 -255h-167q9 17 22.5 49.5t48 133.5t61.5 204.5t48.5 251.5t21.5 285.5t-20.5 283t-50.5 255.5t-59.5 200.5t-50.5 137.5l-21 48h167q8 -16 21 -46t47.5 -127t60.5 -199t47.5 -253.5t21.5 -299t-20.5 -297t-49.5 -257.5t-58.5 -195t-49.5 -131z" />
<glyph unicode="*" horiz-adv-x="729" d="M49 1215v105h220l-135 216l115 15l116 -185l115 185l116 -15l-136 -216h221v-105h-221l136 -217l-116 -17l-115 185l-116 -185l-115 17l135 217h-220z" />
<glyph unicode="+" horiz-adv-x="1205" d="M525 101v410h-411v146h411v409h158v-409h412v-146h-412v-410h-158z" />
<glyph unicode="," horiz-adv-x="530" d="M146 -323l-12 116q83 20 129.5 76t40.5 131h-166v227h87q106 0 160 -92q52 -88 27 -203q-29 -130 -142 -203q-55 -36 -124 -52z" />
<glyph unicode="-" horiz-adv-x="729" d="M73 527v150h584v-150h-584z" />
<glyph unicode="." horiz-adv-x="530" d="M385 0h-239v227h239v-227z" />
<glyph unicode="/" horiz-adv-x="712" d="M-25 -49l601 1566h162l-598 -1566h-165z" />
<glyph unicode="0" horiz-adv-x="1167" d="M584 -20q-108 0 -200.5 51.5t-160.5 146.5t-107 238t-39 317.5t39 317.5t107 238t160.5 147t200.5 52q107 0 200 -52t161 -147t107 -238t39 -317t-39 -317.5t-107 -238t-161 -146.5t-200 -52zM584 152q143 0 230.5 153t87.5 428.5t-87.5 429t-230.5 153.5t-231 -153.5 t-88 -428.5t88 -428.5t231 -153.5z" />
<glyph unicode="1" d="M608 0v1168q-4 -5 -12 -14t-36 -31t-59.5 -39t-83 -31t-105.5 -14h-61v161h37q63 0 124.5 23.5t105.5 60.5t71.5 84t27.5 92v8h184v-1468h-193z" />
<glyph unicode="2" d="M132 0v195q47 43 134 121q112 101 163.5 148t131 121.5t113 112.5t79 93.5t62.5 93.5t30.5 82.5t13.5 88.5q0 120 -72 192t-189 72q-123 0 -203.5 -79t-92.5 -213l-180 16q7 96 45 177.5t100 140.5t148.5 92.5t186.5 33.5q127 0 227.5 -53.5t157.5 -151.5t57 -223 q0 -56 -16.5 -114t-38.5 -106.5t-72 -112t-87.5 -106.5t-114.5 -117t-124.5 -117t-145.5 -131q-66 -59 -100 -90v-4h721v-162h-934z" />
<glyph unicode="3" d="M578 -20q-133 0 -237 45.5t-170 137.5t-78 220l176 19q13 -133 95.5 -197.5t209.5 -64.5q137 0 221.5 76t84.5 206q0 68 -25.5 121t-71 85t-103.5 48.5t-127 16.5h-113v152h113q132 0 211 64t79 172q0 119 -71 183t-198 64q-125 0 -201 -65t-89 -184l-172 16 q18 181 146.5 287t319.5 106q200 0 324 -108.5t124 -286.5q0 -61 -20 -115t-53.5 -92.5t-73.5 -65.5t-84 -42v-10q38 -12 73 -30t72 -48.5t64 -68t44.5 -92t17.5 -117.5q0 -128 -62 -226.5t-173 -152t-253 -53.5z" />
<glyph unicode="4" d="M746 0v339h-690v176l685 961h190v-977h170v-160h-170v-339h-185zM231 499h513v726z" />
<glyph unicode="5" d="M565 -20q-97 0 -179.5 30.5t-139 82.5t-90 119.5t-40.5 143.5l168 19q12 -103 89.5 -170t191.5 -67q135 0 223 97.5t88 257.5q0 78 -23.5 141.5t-64 105t-93.5 64t-113 22.5q-173 0 -282 -163l-158 22l117 783h726v-156h-590l-72 -453h8q119 120 288 120q86 0 165.5 -33 t141.5 -93.5t99 -153t37 -202.5q0 -150 -63.5 -268t-177 -183.5t-256.5 -65.5z" />
<glyph unicode="6" d="M610 -20q-84 0 -156.5 22.5t-134.5 71.5t-105.5 121.5t-68.5 178.5t-25 238v73q0 127 16.5 236t45 189.5t68.5 145.5t85.5 107.5t97.5 71t102.5 41t103.5 12.5q170 0 277 -84.5t138 -225.5l-168 -21q-27 87 -87.5 132.5t-163.5 45.5q-50 0 -95.5 -18t-89 -60 t-76.5 -104.5t-55 -159t-27 -217.5h8q137 175 344 175q89 0 170 -33.5t143 -93.5t99 -150.5t37 -197.5q0 -106 -37.5 -198.5t-101.5 -157.5t-153.5 -102.5t-190.5 -37.5zM610 136q61 0 115.5 22.5t96 64t65.5 106t24 141.5q0 154 -84 243.5t-212 89.5q-86 0 -157 -44 t-110.5 -117.5t-39.5 -159.5q0 -81 23.5 -147.5t65 -109.5t96 -66t117.5 -23z" />
<glyph unicode="7" d="M356 0q14 330 149.5 682.5t347.5 613.5v8h-743v164h946v-156q-255 -314 -382 -647.5t-134 -664.5h-184z" />
<glyph unicode="8" d="M584 -20q-135 0 -245 53t-174 152t-64 227q0 62 20 118t50 96t68.5 72.5t72.5 51.5t65 30v13q-38 13 -74 38t-69.5 62t-54.5 92.5t-21 119.5q0 103 56 191t154.5 140t215.5 52t214.5 -52t153.5 -140t56 -191q0 -64 -21 -119.5t-55 -93t-70 -62t-73 -37.5v-13 q31 -11 65.5 -30t73 -51.5t68.5 -72.5t50 -96t20 -118q0 -128 -64.5 -227t-173.5 -152t-244 -53zM584 130q80 0 147 33t108 100t41 155q0 122 -86 206t-210 84q-125 0 -211.5 -83.5t-86.5 -206.5q0 -89 41 -155.5t108 -99.5t149 -33zM584 845q101 0 175.5 73.5t74.5 176.5 q0 107 -71 177t-179 70q-107 0 -179 -70t-72 -177q0 -103 74.5 -176.5t176.5 -73.5z" />
<glyph unicode="9" d="M563 1488q84 0 156.5 -22.5t134.5 -71.5t106 -122t69 -179t25 -238v-72q0 -127 -16.5 -235.5t-45 -189.5t-68.5 -146t-85.5 -107.5t-97.5 -71t-102.5 -41t-102.5 -12.5q-171 0 -277.5 84.5t-138.5 225.5l168 20q27 -86 87.5 -131t164.5 -45q49 0 94.5 17.5t89 59 t76.5 104t55 159t27 217.5h-8q-136 -174 -344 -174q-89 0 -170 33.5t-143 93.5t-99 150.5t-37 196.5t37 199t101.5 158t153.5 102.5t190 37.5zM563 1333q-61 0 -115 -23t-95.5 -64.5t-65.5 -105.5t-24 -142q0 -154 84 -243.5t212 -89.5q86 0 157 44t110 117t39 159 q0 81 -23.5 147.5t-65 110t-96 67t-117.5 23.5z" />
<glyph unicode=":" horiz-adv-x="530" d="M385 0h-239v227h239v-227zM385 847h-239v227h239v-227z" />
<glyph unicode=";" horiz-adv-x="530" d="M385 847h-239v227h239v-227zM146 -323l-12 116q83 20 129.5 76t40.5 131h-166v227h87q106 0 160 -92q52 -88 27 -203q-29 -130 -142 -203q-55 -36 -124 -52z" />
<glyph unicode="&#x3c;" horiz-adv-x="1205" d="M114 517v185l902 360v-166l-732 -279v-17l732 -279v-167z" />
<glyph unicode="=" horiz-adv-x="1205" d="M130 742v146h946v-146h-946zM130 352v147h946v-147h-946z" />
<glyph unicode="&#x3e;" horiz-adv-x="1205" d="M1093 702v-185l-902 -363v167l732 279v17l-732 279v166z" />
<glyph unicode="?" horiz-adv-x="1066" d="M408 373q-11 64 -5 114.5t25 97t47 83t61.5 73.5t68 67.5t66.5 65t57 67t40 72.5t15 82q0 104 -76 166.5t-186 62.5q-57 0 -104.5 -15t-87.5 -46t-66 -84t-34 -125l-173 16q9 131 73 227.5t166 145.5t230 49q123 0 224.5 -49.5t160.5 -139t59 -200.5q0 -73 -24 -137 t-62 -111t-83.5 -91t-88.5 -85.5t-76.5 -85t-49.5 -100t-5 -120.5h-172zM592 0h-203v227h203v-227z" />
<glyph unicode="@" horiz-adv-x="1974" d="M957 -402q-138 0 -264 36t-231.5 108t-183 173t-121 237.5t-43.5 293.5q0 137 32 266t91.5 239.5t146.5 203t193 157.5t235.5 101t270.5 36q173 0 319.5 -59t246.5 -161.5t156 -241.5t56 -296q0 -117 -30.5 -225.5t-83 -191.5t-119.5 -146t-142 -95.5t-148 -32.5 q-171 0 -187 132q-108 -132 -269 -132q-72 0 -135 29.5t-109.5 82.5t-73 132t-26.5 174q0 99 24 193.5t74.5 177t121 144.5t169 97.5t212.5 35.5q49 0 97.5 -8t84 -19.5t64 -23.5t42.5 -20l14 -8l-131 -745q-9 -57 3 -78.5t53 -21.5q27 0 67.5 20t89 65.5t89.5 106.5 t69 154.5t28 198.5q0 135 -41.5 249t-120 198.5t-198.5 132t-270 47.5q-172 0 -323.5 -66.5t-259 -181.5t-169.5 -275t-62 -341q0 -162 53 -297t145.5 -226.5t220.5 -141.5t277 -50q219 0 442 85l25 -136q-233 -86 -471 -86zM909 142q106 0 183 98t108 273l67 387 q-6 3 -17.5 7.5t-49 12t-76.5 7.5q-86 0 -158.5 -31t-121 -82t-82.5 -117.5t-49 -136t-15 -138.5q0 -128 55 -204t156 -76z" />
<glyph unicode="A" horiz-adv-x="1410" d="M16 0l588 1468h203l588 -1468h-199l-172 445h-643l-174 -445h-191zM698 1251l-252 -641h513l-249 641h-12z" />
<glyph unicode="B" horiz-adv-x="1374" d="M162 0v1468h625q119 0 215 -45.5t152.5 -131.5t56.5 -198q0 -117 -61.5 -199.5t-153.5 -117.5v-8q48 -14 92 -41.5t83 -70t62.5 -105.5t23.5 -137q0 -95 -35.5 -174t-97.5 -131t-145.5 -80.5t-179.5 -28.5h-637zM352 162h420q131 0 212.5 68t81.5 192t-81.5 191.5 t-212.5 67.5h-420v-519zM352 840h410q121 0 191.5 62t70.5 170q0 113 -70 173.5t-192 60.5h-410v-466z" />
<glyph unicode="C" horiz-adv-x="1485" d="M783 -25q-140 0 -263.5 55.5t-214 153.5t-143 240.5t-52.5 309t52.5 309t143 240.5t214 153.5t263.5 55.5q124 0 232 -40.5t185 -109.5t126.5 -161t64.5 -196l-189 -14q-33 156 -145.5 252.5t-276.5 96.5q-95 0 -182 -42.5t-152 -118t-103.5 -186.5t-38.5 -239.5 t38.5 -239.5t103.5 -186t152 -117.5t182 -42.5q165 0 280.5 98.5t144.5 258.5l188 -14q-15 -108 -65 -201.5t-127 -163.5t-185 -110.5t-233 -40.5z" />
<glyph unicode="D" horiz-adv-x="1495" d="M162 0v1468h511q158 0 290 -50.5t226 -143t146 -229.5t52 -304q0 -169 -52 -307.5t-145.5 -234t-226 -147.5t-290.5 -52h-511zM352 170h305q250 0 393.5 153.5t143.5 417.5q0 261 -143 409t-394 148h-305v-1128z" />
<glyph unicode="E" horiz-adv-x="1273" d="M162 0v1468h1010v-168h-820v-451h741v-166h-741v-511h824v-172h-1014z" />
<glyph unicode="F" horiz-adv-x="1236" d="M162 0v1468h981v-172h-791v-470h718v-171h-718v-655h-190z" />
<glyph unicode="G" horiz-adv-x="1548" d="M813 -25q-150 0 -280 55t-223.5 153t-146.5 240t-53 311q0 166 53.5 308.5t146.5 240.5t221.5 153.5t275.5 55.5q122 0 228 -36.5t179 -98t121 -137t66 -158.5l-182 -30q-17 59 -52 110t-86.5 91.5t-123 63.5t-154.5 23q-106 0 -198 -43.5t-158.5 -119.5t-104.5 -186 t-38 -237q0 -130 38.5 -239.5t106 -185.5t162 -118.5t204.5 -42.5q81 0 152.5 22t123 58t86.5 73.5t60 79.5v229h-397v166h576v-431q-20 -47 -54.5 -95t-90 -98t-121.5 -89t-154 -63.5t-183 -24.5z" />
<glyph unicode="H" horiz-adv-x="1480" d="M162 0v1468h190v-613h778v613h190v-1468h-190v683h-778v-683h-190z" />
<glyph unicode="I" horiz-adv-x="512" d="M162 0v1468h190v-1468h-190z" />
<glyph unicode="J" horiz-adv-x="1126" d="M511 -25q-201 0 -319.5 112t-118.5 302v67l182 10v-40q0 -142 67.5 -211t192.5 -69t198.5 81.5t73.5 236.5v1004h190v-1026q0 -140 -60 -246.5t-165.5 -163.5t-240.5 -57z" />
<glyph unicode="K" horiz-adv-x="1386" d="M1147 0l-561 708l-234 -234v-474h-190v1468h190v-770l132 132l640 638h234l-642 -638l663 -830h-232z" />
<glyph unicode="L" horiz-adv-x="1191" d="M162 0v1468h190v-1294h795v-174h-985z" />
<glyph unicode="M" horiz-adv-x="1873" d="M162 0v1468h260l499 -1222h4l501 1222h253v-1468h-191v1196h-2l-488 -1196h-158l-490 1196h-2v-1196h-186z" />
<glyph unicode="N" horiz-adv-x="1509" d="M162 0v1468h213l780 -1186h9v1186h186v-1468h-212l-784 1186h-8v-1186h-184z" />
<glyph unicode="O" horiz-adv-x="1586" d="M795 -25q-151 0 -279 57t-217 157t-139 240.5t-50 304t50 304t139 240.5t217 157t279 57t278.5 -57t216.5 -157t138.5 -240.5t49.5 -304t-49.5 -304t-138.5 -240.5t-216.5 -157t-278.5 -57zM795 148q145 0 256.5 75.5t171.5 208t60 302t-60 302.5t-171.5 208.5 t-256.5 75.5q-146 0 -258 -75.5t-172.5 -208.5t-60.5 -302.5t60.5 -302t172.5 -208t258 -75.5z" />
<glyph unicode="P" horiz-adv-x="1337" d="M162 0v1468h580q109 0 202.5 -31t163 -88t109.5 -143t40 -190.5t-40 -191.5t-109 -145.5t-163.5 -91t-202.5 -32.5h-390v-555h-190zM352 724h386q151 0 239.5 73t88.5 215t-88.5 215t-239.5 73h-386v-576z" />
<glyph unicode="Q" horiz-adv-x="1586" d="M795 -25q-151 0 -279 57t-217 157t-139 240.5t-50 304t50 304t139 240.5t217 157t279 57t278.5 -57t216.5 -157t138.5 -240.5t49.5 -303.5q0 -160 -57 -306.5t-160 -253.5q42 -44 92 -69.5t121 -31.5l-21 -154q-59 4 -106 18t-83 38.5t-60 48.5t-53 59 q-157 -108 -356 -108zM817 308l21 158q59 -4 108.5 -18.5t87 -38t64 -48t53.5 -57.5q132 159 132 430q0 169 -60 302t-171.5 208.5t-256.5 75.5q-146 0 -258 -75.5t-172.5 -208.5t-60.5 -302.5t60.5 -303.5t173 -210t257.5 -76q144 0 251 67q-91 84 -229 97z" />
<glyph unicode="R" horiz-adv-x="1422" d="M162 0v1468h604q140 0 251 -53.5t173.5 -152t62.5 -223.5q0 -87 -34.5 -160.5t-93.5 -123.5t-131.5 -83t-153.5 -47q95 -53 170 -143l385 -482h-227l-359 448q-70 88 -140.5 120t-184.5 32h-132v-600h-190zM352 766h368q161 0 251.5 72.5t90.5 195.5q0 121 -84.5 194.5 t-225.5 73.5h-400v-536z" />
<glyph unicode="S" horiz-adv-x="1343" d="M663 -25q-160 0 -282.5 49.5t-198 151.5t-85.5 248l181 16q13 -155 115 -228.5t276 -73.5q162 0 266.5 77.5t104.5 192.5q0 49 -21 87.5t-62.5 66.5t-93 48.5t-122.5 37.5l-199 50q-74 18 -133 40t-111.5 54t-88 71t-55.5 92.5t-20 116.5q0 82 41 158.5t111.5 134.5 t171.5 92.5t213 34.5q145 0 266 -48t197.5 -142t84.5 -217l-180 -17q-10 85 -62.5 145t-132 88.5t-179.5 28.5q-71 0 -135 -21.5t-108.5 -56t-70.5 -79.5t-26 -92q0 -38 14 -69t37.5 -53t60 -41t74 -31.5t87.5 -25.5l201 -50q79 -21 141 -45t118 -58t93 -74.5t58.5 -95.5 t21.5 -120q0 -126 -73.5 -227.5t-203 -158.5t-291.5 -57z" />
<glyph unicode="T" horiz-adv-x="1290" d="M551 0v1296h-495v172h1179v-172h-493v-1296h-191z" />
<glyph unicode="U" horiz-adv-x="1465" d="M734 -20q-281 0 -432.5 134t-151.5 389v965h191v-953q0 -189 98 -276t297 -87q195 0 293.5 87.5t98.5 275.5v953h188v-965q0 -255 -150.5 -389t-431.5 -134z" />
<glyph unicode="V" horiz-adv-x="1349" d="M572 0l-560 1468h201l462 -1232h8l460 1232h195l-560 -1468h-206z" />
<glyph unicode="W" horiz-adv-x="2018" d="M1348 0l-338 1215l-337 -1215h-227l-397 1468h191l323 -1226h9l332 1226h215l334 -1226h9l322 1226h187l-396 -1468h-227z" />
<glyph unicode="X" horiz-adv-x="1294" d="M25 0l500 754l-486 714h216l395 -592l396 592h211l-487 -714l501 -754h-215l-413 629l-409 -629h-209z" />
<glyph unicode="Y" horiz-adv-x="1335" d="M572 0v574l-584 894h211l464 -708h16l464 708h205l-584 -894v-574h-192z" />
<glyph unicode="Z" horiz-adv-x="1319" d="M108 0v152l863 1144h-851v172h1087v-152l-864 -1144h876v-172h-1111z" />
<glyph unicode="[" horiz-adv-x="611" d="M162 -244v1850h353v-138h-199v-1573h193v-139h-347z" />
<glyph unicode="\" horiz-adv-x="712" d="M138 1517l600 -1566h-164l-599 1566h163z" />
<glyph unicode="]" horiz-adv-x="611" d="M450 1606v-1850h-347v139h193v1573h-199v138h353z" />
<glyph unicode="^" horiz-adv-x="1027" d="M67 702l361 766h172l361 -766h-168l-278 585h-8l-271 -585h-169z" />
<glyph unicode="_" horiz-adv-x="1126" d="M41 -231v57h1046v-57h-1046z" />
<glyph unicode="`" horiz-adv-x="571" d="M244 1209l-264 300h178l264 -300h-178z" />
<glyph unicode="a" horiz-adv-x="1093" d="M434 -18q-153 0 -247 82.5t-94 219.5q0 67 22.5 121.5t63 93.5t93 65t115.5 40l391 89v59q0 105 -53 146.5t-170 41.5q-120 0 -185 -37.5t-76 -132.5l-166 17q19 152 132.5 226t302.5 74q192 0 293 -80.5t101 -234.5v-447q0 -178 28 -309v-16h-168q-22 84 -22 136v12h-12 q-19 -23 -36.5 -41.5t-50 -43t-67.5 -41t-86.5 -28.5t-108.5 -12zM458 128q79 0 152 33t120.5 94.5t47.5 135.5v160l-354 -79q-75 -17 -115 -62.5t-40 -117.5q0 -75 48 -119.5t141 -44.5z" />
<glyph unicode="b" horiz-adv-x="1189" d="M150 0v1501h181v-576q4 6 11.5 17t36.5 39t62.5 49.5t89.5 39t117 17.5q95 0 178.5 -38.5t145 -108.5t97.5 -175.5t36 -232.5t-38 -232.5t-102 -174.5t-147.5 -107t-174.5 -38q-63 0 -119 15.5t-91 38t-61.5 44.5t-37.5 38l-11 16v-132h-173zM612 136q141 0 227 106 t86 290q0 182 -85 288.5t-223 106.5q-78 0 -145 -43t-104 -108.5t-37 -134.5v-235q0 -52 19 -100.5t54 -86.5t89 -60.5t119 -22.5z" />
<glyph unicode="c" horiz-adv-x="1082" d="M567 -20q-99 0 -187.5 39.5t-154.5 110.5t-105 175.5t-39 228t39 228t105 175.5t154.5 110.5t187.5 39.5q183 0 301 -99t140 -256l-174 -16q-21 100 -90.5 157.5t-174.5 57.5q-63 0 -118.5 -28t-97 -78t-66 -125.5t-24.5 -165.5q0 -92 24.5 -167.5t66 -125.5t97 -77.5 t118.5 -27.5q106 0 176.5 61.5t92.5 167.5l172 -17q-22 -166 -141.5 -267t-301.5 -101z" />
<glyph unicode="d" horiz-adv-x="1189" d="M542 -20q-95 0 -178.5 38.5t-145.5 109t-97.5 176t-35.5 232.5q0 126 38 231.5t102 174.5t147.5 107t174.5 38q62 0 116.5 -15t89 -36t60 -42.5t35.5 -36.5l11 -15v559h181v-1501h-170v150q-4 -6 -12.5 -17.5t-38.5 -41t-64.5 -52t-92.5 -41t-120 -18.5zM574 140 q78 0 145 42.5t103.5 108.5t36.5 135v235q0 71 -32 131.5t-97.5 99.5t-151.5 39q-141 0 -227 -106t-86 -289q0 -182 85.5 -289t223.5 -107z" />
<glyph unicode="e" horiz-adv-x="1122" d="M574 -20q-105 0 -195 37.5t-156.5 107t-104 174.5t-37.5 233q0 123 37 227t101 176t153.5 112t192.5 40q138 0 246.5 -65.5t168 -179.5t59.5 -256v-99h-778v-15q4 -78 30.5 -143.5t69 -108.5t97.5 -66.5t116 -23.5q109 0 175.5 52t95.5 134l169 -20q-16 -60 -52 -115 t-90 -100.5t-131.5 -73t-166.5 -27.5zM267 633h590v13q0 75 -37 141t-105 108t-150 42q-121 0 -203 -87.5t-95 -216.5z" />
<glyph unicode="f" horiz-adv-x="652" d="M238 0v913h-171v147h171v169q0 63 17 113t44.5 81.5t66 52t78 29t83.5 8.5q79 0 150 -23l-16 -148q-52 16 -117 16q-63 0 -95.5 -36t-32.5 -117v-145h205v-147h-203v-913h-180z" />
<glyph unicode="g" horiz-adv-x="1181" d="M557 -422q-188 0 -297 81.5t-124 212.5l166 25q26 -166 251 -166q65 0 116.5 15t94 48.5t66 94t23.5 144.5v133q-4 -7 -12 -18.5t-37.5 -40.5t-63 -51.5t-88.5 -41t-114 -18.5q-98 0 -181.5 39.5t-143.5 110.5t-94 173t-34 223q0 119 36 222t98 173.5t146 110t179 39.5 q57 0 110.5 -15.5t89 -38t63 -45t40.5 -38.5l12 -15v131h173v-1050q0 -137 -60.5 -236.5t-167 -150.5t-247.5 -51zM565 154q76 0 142.5 43.5t104 109.5t37.5 135v223q0 114 -79.5 191t-197.5 77q-138 0 -222.5 -108.5t-84.5 -282.5t81.5 -281t218.5 -107z" />
<glyph unicode="h" horiz-adv-x="1161" d="M150 0v1501h181v-599q4 7 13 19.5t40 44.5t66 56.5t93 44.5t120 20q173 0 269 -108.5t96 -285.5v-693h-183v661q0 264 -226 264q-79 0 -146 -44.5t-104.5 -114t-37.5 -145.5v-621h-181z" />
<glyph unicode="i" horiz-adv-x="484" d="M152 0v1066h181v-1066h-181zM333 1273h-181v195h181v-195z" />
<glyph unicode="j" horiz-adv-x="494" d="M73 -399q-68 0 -125 12l13 156q63 -11 89 -11q60 0 86 28t26 98v1182h181v-1206q0 -128 -68 -193.5t-202 -65.5zM343 1273h-181v195h181v-195z" />
<glyph unicode="k" horiz-adv-x="1082" d="M840 0l-392 484l-117 -119v-365h-181v1501h181v-934l27 29l470 470h218l-472 -470l484 -596h-218z" />
<glyph unicode="l" horiz-adv-x="480" d="M150 0v1501h181v-1501h-181z" />
<glyph unicode="m" horiz-adv-x="1793" d="M144 0v1066h172v-174q15 21 30 39.5t47.5 49.5t66 52t82 37.5t99.5 16.5q211 0 307 -185q23 26 40.5 44t54 47t72 47.5t87.5 32.5t108 14q157 0 253.5 -107.5t96.5 -275.5v-704h-178v675q0 120 -56 185t-163 65q-119 0 -195.5 -77.5t-76.5 -199.5v-648h-178v675 q0 120 -55.5 185t-163.5 65q-67 0 -130.5 -43.5t-102 -111.5t-38.5 -137v-633h-179z" />
<glyph unicode="n" horiz-adv-x="1155" d="M144 0v1066h172v-168q4 8 12.5 20.5t39.5 45t67.5 57.5t97 45.5t126.5 20.5q115 0 198 -51.5t124 -140.5t41 -206v-689h-180v657q0 268 -230 268q-78 0 -145.5 -41.5t-104.5 -105t-37 -130.5v-648h-181z" />
<glyph unicode="o" horiz-adv-x="1151" d="M576 -20q-108 0 -199.5 40t-156.5 111.5t-102 175t-37 227.5q0 164 63 290t175.5 194.5t256.5 68.5q145 0 257 -68.5t174.5 -194.5t62.5 -290q0 -165 -62.5 -291.5t-174.5 -194.5t-257 -68zM576.5 138q139.5 0 226.5 106t87 290q0 181 -87.5 288t-226.5 107t-227 -107 t-88 -288q0 -184 88 -290t227.5 -106z" />
<glyph unicode="p" horiz-adv-x="1189" d="M150 -397v1463h173v-149q4 7 12 18.5t37.5 40.5t64 51.5t92 41t119.5 18.5q95 0 178.5 -38.5t145 -108.5t97.5 -175.5t36 -232.5t-38 -232.5t-102 -174.5t-147.5 -107t-174.5 -38q-62 0 -116.5 15t-89 36t-60 42t-35.5 36l-11 15v-521h-181zM612 136q141 0 227 106 t86 290q0 182 -85 288.5t-223 106.5q-78 0 -145 -43t-104 -108.5t-37 -134.5v-235q0 -52 19 -100.5t54 -86.5t89 -60.5t119 -22.5z" />
<glyph unicode="q" horiz-adv-x="1189" d="M861 -397v539q-4 -7 -12 -18t-37 -38.5t-62.5 -49t-90 -39t-117.5 -17.5q-95 0 -178.5 38.5t-145.5 109t-97.5 176t-35.5 232.5q0 126 38 231.5t102 174.5t147.5 107t174.5 38q63 0 119 -15.5t91 -38t61.5 -45t38.5 -38.5l11 -15v131h172v-1463h-179zM574 140 q78 0 145 42.5t103.5 108.5t36.5 135v235q0 71 -32 131.5t-97.5 99.5t-151.5 39q-141 0 -227 -106t-86 -289q0 -182 85.5 -289t223.5 -107z" />
<glyph unicode="r" horiz-adv-x="716" d="M144 0v1066h172v-184q57 99 123 149t149 50q45 0 87 -17l-14 -168q-44 10 -77 10q-61 0 -121.5 -42t-99 -111.5t-38.5 -144.5v-608h-181z" />
<glyph unicode="s" horiz-adv-x="1025" d="M505 -20q-185 0 -294.5 79.5t-121.5 230.5l168 16q13 -98 75.5 -141t174.5 -43q108 0 177.5 47t69.5 125q0 35 -13 61.5t-41.5 45.5t-60.5 31.5t-82 25.5l-125 33q-56 14 -98.5 29t-85.5 39t-71 53.5t-45.5 71.5t-17.5 94q0 87 54 158.5t145 111t200 39.5q114 0 203 -33 t145 -101.5t64 -165.5l-169 -17q-23 172 -245 172q-92 0 -155.5 -44t-63.5 -109q0 -60 46.5 -94t133.5 -56l124 -33q64 -16 111.5 -33t91.5 -42.5t72 -56t45 -73t17 -95.5q0 -100 -58 -175t-154 -113t-216 -38z" />
<glyph unicode="t" horiz-adv-x="693" d="M474 -12q-120 0 -182.5 64.5t-62.5 191.5v669h-171v147h171v308h181v-308h211v-147h-211v-646q0 -61 22.5 -91t62.5 -30q48 0 117 20l21 -152q-75 -26 -159 -26z" />
<glyph unicode="u" horiz-adv-x="1155" d="M497 -20q-173 0 -268 108t-95 285v693h180v-660q0 -129 55 -196.5t175 -67.5q78 0 145.5 41t105 104.5t37.5 130.5v648h180v-1066h-172v168q-5 -7 -13.5 -20t-39.5 -45.5t-67 -57t-96 -45t-127 -20.5z" />
<glyph unicode="v" horiz-adv-x="1062" d="M438 0l-405 1066h190l309 -849h4l307 849h187l-409 -1066h-183z" />
<glyph unicode="w" horiz-adv-x="1577" d="M1024 0l-237 813l-240 -813h-210l-292 1066h184l221 -851h10l238 851h182l239 -851h9l222 851h183l-300 -1066h-209z" />
<glyph unicode="x" horiz-adv-x="1035" d="M50 0l354 544l-352 522h203l266 -401l266 401h196l-350 -522l352 -544h-200l-272 418l-267 -418h-196z" />
<glyph unicode="y" horiz-adv-x="1045" d="M269 -406q-49 0 -109 15l12 153q50 -10 85 -10q54 0 86.5 22.5t49.5 73.5l49 148l-401 1070h190l296 -830h13l296 830h182l-474 -1273q-41 -109 -104 -154t-171 -45z" />
<glyph unicode="z" horiz-adv-x="1043" d="M95 0v136l621 777h-604v153h827v-135l-618 -777h630v-154h-856z" />
<glyph unicode="{" horiz-adv-x="611" d="M540 -255q-45 0 -67.5 0.5t-59.5 5.5t-56 14.5t-43.5 29t-36.5 47.5t-20.5 71t-8.5 99v300q0 42 -1.5 70.5t-6 61.5t-13 54t-23 42.5t-36 33t-52.5 19t-71 7.5v138q40 0 71 7.5t52.5 19.5t36 33.5t23 42.5t13 54t6 61t1.5 70v300q0 56 8.5 98.5t20.5 71t36.5 48t43.5 29 t56 14.5t59.5 6t67.5 1v-126q-35 0 -56 -1.5t-38.5 -8t-26 -15.5t-14 -29t-7 -42t-1.5 -60v-286q0 -70 -10 -128t-31.5 -106.5t-58.5 -79.5t-88 -39v-8q51 -7 88 -38t58.5 -80.5t31.5 -107.5t10 -127v-285q0 -37 1.5 -58.5t7 -41t14 -29t25.5 -17t38.5 -9.5t56.5 -2v-125z " />
<glyph unicode="|" horiz-adv-x="615" d="M244 -393v1999h129v-1999h-129z" />
<glyph unicode="}" horiz-adv-x="611" d="M73 -255v125q34 0 56 2t38.5 9.5t25 16.5t14 29t7 41.5t1.5 58.5v285q0 69 10 127.5t31.5 107.5t59 80t88.5 38v8q-51 8 -88.5 39t-59 79.5t-31.5 106.5t-10 128v286q0 38 -1.5 60t-7 42t-13.5 29t-25.5 15.5t-38.5 8t-56 1.5v126q44 0 67 -1t59.5 -6t56 -14.5t44 -29 t36.5 -48t20.5 -71t8.5 -98.5v-300q0 -42 1.5 -69.5t5.5 -61t12.5 -54.5t23 -42.5t36 -33.5t52.5 -19.5t71 -7.5v-138q-40 0 -71 -7.5t-52.5 -19t-36 -33t-23 -42.5t-12.5 -54.5t-5.5 -61t-1.5 -70.5v-300q0 -56 -8.5 -99t-20.5 -71t-37 -47.5t-43.5 -29t-56 -14.5 t-59.5 -5.5t-67 -0.5z" />
<glyph unicode="~" horiz-adv-x="1203" d="M821 532q-48 0 -99.5 15.5t-95.5 38t-85.5 45t-83.5 38.5t-76 16q-32 0 -57 -13.5t-40.5 -36.5t-24.5 -48.5t-13 -54.5l-145 10q11 136 82.5 219.5t199.5 83.5q48 0 99.5 -15.5t95 -38.5t85 -45.5t83.5 -38.5t77 -16q61 0 94.5 44t41.5 110l144 -9q-12 -144 -82.5 -224 t-199.5 -80z" />
<glyph unicode="&#xa1;" horiz-adv-x="542" />
<glyph unicode="&#xa2;" horiz-adv-x="1128" d="M515 -276v280q-90 14 -167.5 57.5t-134.5 111t-89.5 160.5t-32.5 200.5t32.5 200t89.5 159t134.5 109.5t167.5 56v284h158v-284q154 -22 253.5 -120t121.5 -234l-174 -17q-25 106 -97.5 169t-182.5 63q-140 0 -230.5 -104t-90.5 -281.5t90.5 -281.5t230.5 -104 q110 0 184 64.5t98 170.5l172 -16q-23 -143 -123.5 -241.5t-251.5 -119.5v-282h-158z" />
<glyph unicode="&#xa3;" horiz-adv-x="1264" d="M114 621v145h174v252q0 116 35 207.5t97 148.5t142 86.5t174 29.5q87 0 161.5 -23.5t134 -71t98 -125.5t48.5 -181l-176 -21q-17 135 -84.5 198.5t-176.5 63.5q-126 0 -194.5 -79t-68.5 -241v-244h435v-145h-435v-116q0 -215 -147 -339v-8h876v-158h-1069v166 q80 62 115 145t35 210v100h-174z" />
<glyph unicode="&#xa4;" horiz-adv-x="1175" d="M1010 1149l95 -95l-168 -170q73 -109 73 -243q0 -139 -75 -246l170 -168l-95 -95l-170 168q-110 -73 -252 -73q-144 0 -251 75l-169 -166l-97 95l169 168q-74 106 -74 242q0 134 74 243l-169 170l97 95l169 -168q110 77 251 77q144 0 252 -77zM588 365q125 0 201 76.5 t76 199.5q0 124 -78 202t-199 78q-123 0 -199.5 -78.5t-76.5 -201.5q0 -121 81 -198.5t195 -77.5z" />
<glyph unicode="&#xa5;" horiz-adv-x="1302" d="M156 627v119h320l-482 722h215l441 -667h9l442 667h207l-480 -722h317v-119h-397v-153h397v-122h-397v-352h-191v352h-401v122h401v153h-401z" />
<glyph unicode="&#xa6;" horiz-adv-x="429" d="M138 -146v736h154v-736h-154zM138 842v735h154v-735h-154z" />
<glyph unicode="&#xa7;" horiz-adv-x="1195" d="M602 1354q-97 0 -160 -47t-63 -123q0 -23 5.5 -42t13.5 -33.5t23.5 -28t27.5 -21.5t35 -18.5t36.5 -15.5l40.5 -15l207 -73q73 -26 128 -56t98.5 -70t66 -91.5t22.5 -113.5q0 -164 -174 -287q87 -74 87 -195q0 -142 -113 -236.5t-291 -94.5q-175 0 -280 82t-117 228 l166 15q22 -178 233 -178q97 0 160 47t63 123q0 22 -6 41.5t-13.5 34t-23 28t-27.5 21.5t-35 18.5t-36.5 15.5l-40.5 15l-207 72q-73 26 -127.5 56t-98 70t-66 91.5t-22.5 113.5q0 50 16 96t43.5 82t55 62t57.5 46q-85 75 -85 197q0 141 113 236t290 95q174 0 280 -83.5 t118 -227.5l-166 -14q-22 178 -234 178zM691 428l96 -37q122 82 122 199q0 77 -47.5 122t-149.5 81l-207 72q-48 15 -97 37q-120 -81 -120 -198q0 -77 47.5 -122t148.5 -81z" />
<glyph unicode="&#xa8;" horiz-adv-x="932" d="M343 1273h-181v228h181v-228zM770 1273h-180v228h180v-228z" />
<glyph unicode="&#xa9;" horiz-adv-x="1741" d="M870 -20q-167 0 -308.5 57t-239.5 156.5t-153 238.5t-55 300t55 301t153 240.5t239.5 157.5t308.5 57q166 0 308 -57t240.5 -157.5t154.5 -240.5t56 -301t-56 -300t-154.5 -238.5t-240.5 -156.5t-308 -57zM870 75q145 0 267.5 49.5t206.5 136.5t131.5 208.5t47.5 262.5 q0 142 -47.5 264.5t-131.5 210t-206.5 137t-267.5 49.5t-267.5 -49.5t-207 -137t-131.5 -210t-47 -264.5q0 -141 47 -262.5t131.5 -208.5t207 -136.5t267.5 -49.5zM886 273q-90 0 -170 33.5t-138.5 93t-93 145.5t-34.5 187q0 102 34.5 188.5t93 146t138.5 92.5t170 33 q161 0 267 -87.5t130 -222.5l-145 -14q-22 90 -86.5 140t-161.5 50q-126 0 -207 -88.5t-81 -237.5q0 -148 81 -236t207 -88q97 0 162 52t86 140l145 -10q-25 -141 -132.5 -229t-264.5 -88z" />
<glyph unicode="&#xaa;" horiz-adv-x="867" d="M346 714q-107 0 -174 60t-67 159q0 45 18 82.5t49.5 63t66.5 42t77 26.5l262 70v34q0 63 -38 94.5t-106 31.5q-71 0 -111.5 -23.5t-51.5 -86.5l-137 14q16 105 95.5 155t208.5 50q135 0 209.5 -60t74.5 -167v-322q0 -90 20 -196v-17h-130q-16 53 -16 102v8h-8 q-9 -16 -26.5 -34t-46.5 -38.5t-73 -34t-96 -13.5zM367 826q85 0 148 51.5t63 124.5v111l-215 -55q-114 -27 -114 -119q0 -52 31 -82.5t87 -30.5z" />
<glyph unicode="&#xab;" horiz-adv-x="968" d="M85 519v152l385 379v-199l-267 -253v-8l267 -255v-203zM478 519v152l385 379v-199l-265 -253v-8l265 -255v-203z" />
<glyph unicode="&#xac;" horiz-adv-x="1205" d="M1087 811v-476h-89v395h-913v81h1002z" />
<glyph unicode="&#xad;" horiz-adv-x="729" d="M73 527v150h584v-150h-584z" />
<glyph unicode="&#xae;" horiz-adv-x="1554" d="M776 428q-139 0 -261.5 47.5t-210.5 132t-139 206t-51 262.5t51 262t139 206t210.5 133.5t261.5 48.5t262 -48.5t212 -133.5t140 -206.5t51 -261.5q0 -141 -51 -262.5t-140 -206t-212 -132t-262 -47.5zM776 527q160 0 286 67t198.5 193t72.5 289t-72.5 288.5 t-198.5 193.5t-286 68q-158 0 -284 -68t-197.5 -193.5t-71.5 -288.5t71.5 -289t197 -193t284.5 -67zM1143 698h-139l-155 215q-30 41 -69.5 59.5t-94.5 18.5h-62v-293h-128v770h302q120 0 193.5 -64.5t73.5 -172.5q0 -77 -48.5 -131t-131.5 -76q53 -30 89 -82zM623 1097h155 q71 0 115 36.5t44 97.5q0 60 -45 96.5t-114 36.5h-155v-267z" />
<glyph unicode="&#xaf;" horiz-adv-x="729" d="M97 1344v124h536v-124h-536z" />
<glyph unicode="&#xb0;" horiz-adv-x="790" d="M399 828q-161 0 -265.5 96.5t-104.5 243.5q0 148 104.5 244.5t265.5 96.5q156 0 259.5 -97t103.5 -244q0 -146 -104 -243t-259 -97zM399 953q94 0 156 61t62 154q0 95 -63.5 155t-154.5 60q-99 0 -162 -60t-63 -155t64.5 -155t160.5 -60z" />
<glyph unicode="&#xb1;" horiz-adv-x="1205" d="M538 432v284h-327v129h327v285h131v-285h325v-129h-325v-284h-131zM994 180h-783v139h783v-139z" />
<glyph unicode="&#xb2;" horiz-adv-x="786" d="M122 734v108q6 5 19 15q59 46 87 67.5t73 58t65.5 55t50.5 46.5t43 45t28 39t20 40t5 36q0 58 -35.5 93t-88.5 35q-58 0 -96 -38t-44 -111l-133 10q9 119 83 186t192 67q115 0 189.5 -65.5t74.5 -171.5q0 -28 -8 -55.5t-19.5 -51t-36.5 -53.5t-47 -53t-63 -59t-72 -61.5 t-86 -70.5v-5l344 5v-111h-545z" />
<glyph unicode="&#xb3;" horiz-adv-x="786" d="M383 716q-58 0 -106 12.5t-86 39t-60.5 70.5t-25.5 102l129 8q8 -127 145 -127q62 0 101 31.5t39 87.5q0 61 -38.5 91.5t-97.5 30.5h-79v95h79q55 0 90.5 30.5t35.5 79.5q0 54 -35 83t-95 29q-61 0 -96.5 -28t-42.5 -94l-126 10q10 107 83.5 162t185.5 55q113 0 189 -57 t76 -154q0 -54 -35 -96t-86 -60v-6q56 -15 94 -59.5t38 -114.5q0 -100 -78.5 -160.5t-197.5 -60.5z" />
<glyph unicode="&#xb4;" horiz-adv-x="571" d="M150 1209l264 300h178l-263 -300h-179z" />
<glyph unicode="&#xb6;" horiz-adv-x="1098" d="M420 -227v1003q-75 0 -138.5 19.5t-108 52.5t-76.5 77.5t-47 94.5t-15 102.5t15 102t47 94t76.5 77.5t108 52.5t138.5 19.5h486v-1695h-130v1573h-227v-1573h-129z" />
<glyph unicode="&#xb7;" horiz-adv-x="530" d="M385 584h-239v227h239v-227z" />
<glyph unicode="&#xb8;" horiz-adv-x="577" d="M286 27h126l-75 -124q96 -9 146.5 -45t50.5 -107q0 -78 -71.5 -126.5t-199.5 -48.5q-46 0 -91.5 8t-68.5 15l-22 8l16 107q77 -28 158 -28q66 0 103 16.5t37 48.5q0 23 -13.5 36.5t-58 22t-124.5 8.5v56z" />
<glyph unicode="&#xb9;" horiz-adv-x="786" d="M367 734v533q-2 -3 -5.5 -7.5t-17.5 -16.5t-31 -21t-45 -16.5t-59 -7.5h-41v124h27q43 0 78.5 13.5t56 35t31 44t10.5 43.5v10h142v-734h-146z" />
<glyph unicode="&#xba;" horiz-adv-x="851" d="M425.5 716q-156.5 0 -256.5 106.5t-100 278.5q0 174 100 280.5t256.5 106.5t257 -107t100.5 -280q0 -172 -100.5 -278.5t-257 -106.5zM426 840q89 0 149 70.5t60 190.5q0 121 -59.5 192t-149.5 71t-150.5 -71t-60.5 -192q0 -120 60.5 -190.5t150.5 -70.5z" />
<glyph unicode="&#xbb;" horiz-adv-x="968" d="M884 663v-152l-385 -379v199l267 253v8l-267 255v203zM491 663v-152l-386 -379v199l266 253v8l-266 255v203z" />
<glyph unicode="&#xbc;" horiz-adv-x="1540" d="M325 734v533q-2 -3 -6 -7.5t-18 -16.5t-30.5 -21t-44.5 -16.5t-60 -7.5h-40v124h26q44 0 79 13.5t55.5 35t31.5 44t11 43.5v10h141v-734h-145zM154 -54l997 1559h163l-998 -1559h-162zM1182 0v160h-350v118l350 463h144v-474h106v-107h-106v-160h-144zM961 267h221v298z " />
<glyph unicode="&#xbd;" horiz-adv-x="1629" d="M325 734v533q-2 -3 -6 -7.5t-18 -16.5t-30.5 -21t-44.5 -16.5t-60 -7.5h-40v124h26q44 0 79 13.5t55.5 35t31.5 44t11 43.5v10h141v-734h-145zM154 -54l997 1559h163l-998 -1559h-162zM939 0v108q6 5 19 15q59 46 86.5 68t73 58t66 54.5t50.5 46.5t43 45.5t27.5 39t20 40 t5.5 36.5q0 58 -35 93t-88 35q-59 0 -97 -38.5t-44 -111.5l-133 10q8 119 82.5 186t193.5 67q114 0 188.5 -65.5t74.5 -171.5q0 -28 -8 -55.5t-19.5 -51t-37 -54t-46.5 -52.5t-63 -58.5t-72 -61t-87 -70.5v-7l345 7v-112h-545z" />
<glyph unicode="&#xbe;" horiz-adv-x="1702" d="M383 716q-58 0 -106 12.5t-86 39t-60.5 70.5t-25.5 102l129 8q8 -127 145 -127q62 0 101 31.5t39 87.5q0 61 -38.5 91.5t-97.5 30.5h-79v95h79q55 0 90.5 30.5t35.5 79.5q0 54 -35 83t-95 29q-61 0 -96.5 -28t-42.5 -94l-126 10q10 107 83.5 162t185.5 55q113 0 189 -57 t76 -154q0 -54 -35 -96t-86 -60v-6q56 -15 94 -59.5t38 -114.5q0 -100 -78.5 -160.5t-197.5 -60.5zM296 -54l998 1559h161l-997 -1559h-162zM1324 0v160h-351v118l351 463h144v-474h105v-107h-105v-160h-144zM1103 267h221v298z" />
<glyph unicode="&#xbf;" horiz-adv-x="1066" />
<glyph unicode="&#xc0;" horiz-adv-x="1402" d="M12 0l588 1468h203l588 -1468h-199l-172 445h-643l-174 -445h-191zM693 1251l-251 -641h513l-249 641h-13zM631 1569l-264 300h178l264 -300h-178z" />
<glyph unicode="&#xc1;" horiz-adv-x="1402" d="M12 0l588 1468h203l588 -1468h-199l-172 445h-643l-174 -445h-191zM693 1251l-251 -641h513l-249 641h-13zM586 1569l263 300h179l-264 -300h-178z" />
<glyph unicode="&#xc2;" horiz-adv-x="1402" d="M12 0l588 1468h203l588 -1468h-199l-172 445h-643l-174 -445h-191zM693 1251l-251 -641h513l-249 641h-13zM635 1882h113l294 -296h-183l-159 174h-9l-157 -174h-178z" />
<glyph unicode="&#xc3;" horiz-adv-x="1402" d="M12 0l588 1468h203l588 -1468h-199l-172 445h-643l-174 -445h-191zM693 1251l-251 -641h513l-249 641h-13zM838 1551q-40 0 -83 17.5t-72.5 38.5t-63.5 38t-58 17q-72 0 -85 -113l-109 8q11 111 60.5 173t135.5 62q41 0 84 -17.5t73 -38t63 -38t57 -17.5q74 0 87 113 l107 -8q-12 -119 -60 -177t-136 -58z" />
<glyph unicode="&#xc4;" horiz-adv-x="1402" d="M12 0l588 1468h203l588 -1468h-199l-172 445h-643l-174 -445h-191zM693 1251l-251 -641h513l-249 641h-13zM578 1573h-181v228h181v-228zM1006 1573h-180v228h180v-228z" />
<glyph unicode="&#xc5;" horiz-adv-x="1402" d="M12 0l588 1468h203l588 -1468h-199l-172 445h-643l-174 -445h-191zM693 1251l-251 -641h513l-249 641h-13zM700 1529q-104 0 -172 63t-68 157q0 97 68 160.5t172 63.5q105 0 172 -63.5t67 -160.5q0 -95 -67 -157.5t-172 -62.5zM700 1616q60 0 100 37.5t40 95.5 q0 63 -39.5 100t-100.5 37q-60 0 -101.5 -37.5t-41.5 -99.5q0 -58 42 -95.5t101 -37.5z" />
<glyph unicode="&#xc6;" horiz-adv-x="2188" d="M1143 0v450h-656l-272 -450h-199l884 1468h1184v-160h-749v-465h668v-154h-668v-527h753v-162h-945zM1008 1310l-428 -706h563v706h-135z" />
<glyph unicode="&#xc7;" horiz-adv-x="1493" d="M787 -25q-140 0 -263.5 55.5t-214 153.5t-143 240.5t-52.5 309t52.5 309t143 240.5t214 153.5t263.5 55.5q124 0 232 -40.5t185 -109.5t126.5 -161t64.5 -196l-188 -14q-33 156 -145.5 252.5t-276.5 96.5q-95 0 -182 -42.5t-152.5 -118t-104 -186.5t-38.5 -239.5 t38.5 -239.5t104 -186t152.5 -117.5t182 -42.5q165 0 279.5 98.5t144.5 258.5l188 -14q-15 -108 -65 -201.5t-127 -163.5t-185 -110.5t-233 -40.5zM791 27h126l-75 -124q96 -9 146.5 -45t50.5 -107q0 -78 -71.5 -126.5t-199.5 -48.5q-46 0 -91.5 8t-68.5 15l-22 8l16 107 q77 -28 158 -28q66 0 103 16.5t37 48.5q0 23 -13.5 36.5t-58 22t-124.5 8.5v56z" />
<glyph unicode="&#xc8;" horiz-adv-x="1281" d="M166 0v1468h1010v-168h-820v-451h741v-166h-741v-511h824v-172h-1014zM646 1569l-263 300h178l265 -300h-180z" />
<glyph unicode="&#xc9;" horiz-adv-x="1281" d="M166 0v1468h1010v-168h-820v-451h741v-166h-741v-511h824v-172h-1014zM542 1569l263 300h178l-263 -300h-178z" />
<glyph unicode="&#xca;" horiz-adv-x="1281" d="M166 0v1468h1010v-168h-820v-451h741v-166h-741v-511h824v-172h-1014zM615 1882h113l294 -296h-182l-161 174h-8l-158 -174h-176z" />
<glyph unicode="&#xcb;" horiz-adv-x="1281" d="M166 0v1468h1010v-168h-820v-451h741v-166h-741v-511h824v-172h-1014zM557 1614h-180v227h180v-227zM985 1614h-180v227h180v-227z" />
<glyph unicode="&#xcc;" horiz-adv-x="522" d="M166 0v1468h190v-1468h-190zM207 1569l-263 300h178l263 -300h-178z" />
<glyph unicode="&#xcd;" horiz-adv-x="522" d="M166 0v1468h190v-1468h-190zM138 1569l264 300h178l-264 -300h-178z" />
<glyph unicode="&#xce;" horiz-adv-x="522" d="M166 0v1468h190v-1468h-190zM197 1861h113l294 -296h-182l-161 174h-8l-158 -174h-176z" />
<glyph unicode="&#xcf;" horiz-adv-x="522" d="M166 0v1468h190v-1468h-190zM138 1610h-181v226h181v-226zM565 1610h-180v226h180v-226z" />
<glyph unicode="&#xd0;" horiz-adv-x="1520" d="M10 677v151h156v640h499q164 0 301.5 -51.5t234.5 -145.5t151.5 -231.5t54.5 -304t-54.5 -304.5t-151.5 -232.5t-234.5 -146.5t-301.5 -52h-499v677h-156zM356 160h294q259 0 412 155.5t153 420.5q0 263 -153 417.5t-412 154.5h-294v-480h301v-151h-301v-517z" />
<glyph unicode="&#xd1;" horiz-adv-x="1517" d="M166 0v1468h213l780 -1186h9v1186h186v-1468h-213l-783 1186h-8v-1186h-184zM896 1592q-40 0 -82.5 17.5t-72 38t-63 38t-57.5 17.5q-72 0 -85 -113l-110 8q10 110 60 172t137 62q40 0 83 -17t72.5 -38t63 -38t56.5 -17q75 0 87 112l108 -7q-12 -119 -60 -177t-137 -58z " />
<glyph unicode="&#xd2;" horiz-adv-x="1594" d="M798.5 -25q-150.5 0 -278.5 57t-217 157t-139 240.5t-50 304t50 304t139 240.5t217 157t278.5 57t278.5 -57t216.5 -157t138.5 -240.5t50 -304t-50 -304t-138.5 -240.5t-216.5 -157t-278.5 -57zM799 148q145 0 256.5 75.5t171.5 208t60 302t-60 302.5t-171.5 208.5 t-256.5 75.5q-146 0 -258 -75.5t-172.5 -208.5t-60.5 -302.5t60.5 -302t172.5 -208t258 -75.5zM780 1569l-263 300h178l264 -300h-179z" />
<glyph unicode="&#xd3;" horiz-adv-x="1594" d="M798.5 -25q-150.5 0 -278.5 57t-217 157t-139 240.5t-50 304t50 304t139 240.5t217 157t278.5 57t278.5 -57t216.5 -157t138.5 -240.5t50 -304t-50 -304t-138.5 -240.5t-216.5 -157t-278.5 -57zM799 148q145 0 256.5 75.5t171.5 208t60 302t-60 302.5t-171.5 208.5 t-256.5 75.5q-146 0 -258 -75.5t-172.5 -208.5t-60.5 -302.5t60.5 -302t172.5 -208t258 -75.5zM635 1569l263 300h178l-263 -300h-178z" />
<glyph unicode="&#xd4;" horiz-adv-x="1594" d="M798.5 -25q-150.5 0 -278.5 57t-217 157t-139 240.5t-50 304t50 304t139 240.5t217 157t278.5 57t278.5 -57t216.5 -157t138.5 -240.5t50 -304t-50 -304t-138.5 -240.5t-216.5 -157t-278.5 -57zM799 148q145 0 256.5 75.5t171.5 208t60 302t-60 302.5t-171.5 208.5 t-256.5 75.5q-146 0 -258 -75.5t-172.5 -208.5t-60.5 -302.5t60.5 -302t172.5 -208t258 -75.5zM732 1882h113l294 -296h-182l-160 174h-8l-158 -174h-177z" />
<glyph unicode="&#xd5;" horiz-adv-x="1594" d="M798.5 -25q-150.5 0 -278.5 57t-217 157t-139 240.5t-50 304t50 304t139 240.5t217 157t278.5 57t278.5 -57t216.5 -157t138.5 -240.5t50 -304t-50 -304t-138.5 -240.5t-216.5 -157t-278.5 -57zM799 148q145 0 256.5 75.5t171.5 208t60 302t-60 302.5t-171.5 208.5 t-256.5 75.5q-146 0 -258 -75.5t-172.5 -208.5t-60.5 -302.5t60.5 -302t172.5 -208t258 -75.5zM931 1596q-40 0 -82.5 17.5t-72.5 38t-63.5 38t-57.5 17.5q-72 0 -86 -113l-109 8q11 110 61 172t136 62q41 0 84 -17t72.5 -38t62.5 -38t57 -17q74 0 87 113l108 -8 q-12 -119 -60 -177t-137 -58z" />
<glyph unicode="&#xd6;" horiz-adv-x="1594" d="M798.5 -25q-150.5 0 -278.5 57t-217 157t-139 240.5t-50 304t50 304t139 240.5t217 157t278.5 57t278.5 -57t216.5 -157t138.5 -240.5t50 -304t-50 -304t-138.5 -240.5t-216.5 -157t-278.5 -57zM799 148q145 0 256.5 75.5t171.5 208t60 302t-60 302.5t-171.5 208.5 t-256.5 75.5q-146 0 -258 -75.5t-172.5 -208.5t-60.5 -302.5t60.5 -302t172.5 -208t258 -75.5zM675 1614h-180v227h180v-227zM1103 1614h-180v227h180v-227z" />
<glyph unicode="&#xd7;" horiz-adv-x="1205" d="M172 276l327 328l-325 325l97 101l327 -324l329 331l107 -108l-328 -331l324 -325l-97 -97l-327 321l-328 -327z" />
<glyph unicode="&#xd8;" horiz-adv-x="1594" d="M798.5 -25q-150.5 0 -278.5 57t-217 157t-139 240.5t-50 304t50 304t139 240.5t217 157t278.5 57t278.5 -57t216.5 -157t138.5 -240.5t50 -304t-50 -304t-138.5 -240.5t-216.5 -157t-278.5 -57zM799 148q145 0 256.5 75.5t171.5 208t60 302t-60 302.5t-171.5 208.5 t-256.5 75.5q-146 0 -258 -75.5t-172.5 -208.5t-60.5 -302.5t60.5 -302t172.5 -208t258 -75.5zM393 -142l578 1754h155l-575 -1754h-158z" />
<glyph unicode="&#xd9;" horiz-adv-x="1473" d="M738 -20q-281 0 -432.5 134t-151.5 389v965h191v-953q0 -188 98.5 -275.5t297.5 -87.5q195 0 293 87.5t98 275.5v953h188v-965q0 -255 -150.5 -389t-431.5 -134zM700 1545l-264 300h179l263 -300h-178z" />
<glyph unicode="&#xda;" horiz-adv-x="1473" d="M738 -20q-281 0 -432.5 134t-151.5 389v965h191v-953q0 -188 98.5 -275.5t297.5 -87.5q195 0 293 87.5t98 275.5v953h188v-965q0 -255 -150.5 -389t-431.5 -134zM594 1545l263 300h180l-265 -300h-178z" />
<glyph unicode="&#xdb;" horiz-adv-x="1473" d="M738 -20q-281 0 -432.5 134t-151.5 389v965h191v-953q0 -188 98.5 -275.5t297.5 -87.5q195 0 293 87.5t98 275.5v953h188v-965q0 -255 -150.5 -389t-431.5 -134zM671 1882h114l294 -296h-183l-160 174h-8l-159 -174h-176z" />
<glyph unicode="&#xdc;" horiz-adv-x="1473" d="M738 -20q-281 0 -432.5 134t-151.5 389v965h191v-953q0 -188 98.5 -275.5t297.5 -87.5q195 0 293 87.5t98 275.5v953h188v-965q0 -255 -150.5 -389t-431.5 -134zM615 1598h-181v227h181v-227zM1042 1598h-181v227h181v-227z" />
<glyph unicode="&#xdd;" horiz-adv-x="1313" d="M576 0v574l-584 894h211l464 -708h16l464 708h205l-584 -894v-574h-192zM538 1549l263 300h178l-263 -300h-178z" />
<glyph unicode="&#xde;" horiz-adv-x="1345" d="M166 0v1468h190v-199h392q149 0 263.5 -52.5t180 -155.5t65.5 -242t-65.5 -243t-178.5 -157.5t-257 -53.5h-400v-365h-190zM356 523h378q151 0 241.5 76t90.5 218q0 139 -91.5 215.5t-240.5 76.5h-378v-586z" />
<glyph unicode="&#xdf;" horiz-adv-x="1252" d="M154 0v1093q0 99 36 180.5t97.5 135t143.5 83t175 29.5q120 0 218.5 -44.5t156.5 -126t58 -184.5q0 -109 -50.5 -182.5t-127.5 -107.5v-8q42 -10 80.5 -28.5t79.5 -52t70.5 -78t48.5 -111.5t19 -148q0 -143 -59.5 -250t-165.5 -162.5t-245 -55.5q-43 0 -87.5 6t-67.5 12 l-23 6l16 146q71 -20 146 -20q141 0 223.5 86.5t82.5 241.5q0 161 -85.5 240.5t-247.5 79.5h-74v151h51q117 0 176.5 59.5t59.5 162.5t-68 160t-185 57q-122 0 -196.5 -75.5t-74.5 -209.5v-1085h-181z" />
<glyph unicode="&#xe0;" horiz-adv-x="1098" d="M432 -18q-153 0 -247 82.5t-94 219.5q0 67 22.5 121.5t63 93.5t93 65t115.5 40l391 89v59q0 105 -53 146.5t-170 41.5q-120 0 -185 -37.5t-76 -132.5l-166 17q19 152 132.5 226t302.5 74q192 0 293 -80.5t101 -234.5v-447q0 -178 28 -309v-16h-168q-22 84 -22 136v12h-13 q-19 -23 -36.5 -41.5t-50 -43t-67 -41t-86 -28.5t-108.5 -12zM456 128q79 0 152 33t120.5 94.5t47.5 135.5v160l-354 -79q-75 -17 -115 -62.5t-40 -117.5q0 -75 48 -119.5t141 -44.5zM532 1209l-265 300h179l264 -300h-178z" />
<glyph unicode="&#xe1;" horiz-adv-x="1098" d="M432 -18q-153 0 -247 82.5t-94 219.5q0 67 22.5 121.5t63 93.5t93 65t115.5 40l391 89v59q0 105 -53 146.5t-170 41.5q-120 0 -185 -37.5t-76 -132.5l-166 17q19 152 132.5 226t302.5 74q192 0 293 -80.5t101 -234.5v-447q0 -178 28 -309v-16h-168q-22 84 -22 136v12h-13 q-19 -23 -36.5 -41.5t-50 -43t-67 -41t-86 -28.5t-108.5 -12zM456 128q79 0 152 33t120.5 94.5t47.5 135.5v160l-354 -79q-75 -17 -115 -62.5t-40 -117.5q0 -75 48 -119.5t141 -44.5zM369 1209l264 300h178l-264 -300h-178z" />
<glyph unicode="&#xe2;" horiz-adv-x="1098" d="M432 -18q-153 0 -247 82.5t-94 219.5q0 67 22.5 121.5t63 93.5t93 65t115.5 40l391 89v59q0 105 -53 146.5t-170 41.5q-120 0 -185 -37.5t-76 -132.5l-166 17q19 152 132.5 226t302.5 74q192 0 293 -80.5t101 -234.5v-447q0 -178 28 -309v-16h-168q-22 84 -22 136v12h-13 q-19 -23 -36.5 -41.5t-50 -43t-67 -41t-86 -28.5t-108.5 -12zM456 128q79 0 152 33t120.5 94.5t47.5 135.5v160l-354 -79q-75 -17 -115 -62.5t-40 -117.5q0 -75 48 -119.5t141 -44.5zM491 1501h113l294 -296h-182l-161 174h-8l-158 -174h-176z" />
<glyph unicode="&#xe3;" horiz-adv-x="1098" d="M432 -18q-153 0 -247 82.5t-94 219.5q0 67 22.5 121.5t63 93.5t93 65t115.5 40l391 89v59q0 105 -53 146.5t-170 41.5q-120 0 -185 -37.5t-76 -132.5l-166 17q19 152 132.5 226t302.5 74q192 0 293 -80.5t101 -234.5v-447q0 -178 28 -309v-16h-168q-22 84 -22 136v12h-13 q-19 -23 -36.5 -41.5t-50 -43t-67 -41t-86 -28.5t-108.5 -12zM456 128q79 0 152 33t120.5 94.5t47.5 135.5v160l-354 -79q-75 -17 -115 -62.5t-40 -117.5q0 -75 48 -119.5t141 -44.5zM673 1251q-40 0 -82.5 17.5t-72.5 38.5t-63.5 38t-57.5 17q-72 0 -85 -113l-109 8 q11 111 60.5 173t135.5 62q40 0 83.5 -17.5t73 -38t63 -38t56.5 -17.5q75 0 87 113l108 -8q-12 -118 -60 -176.5t-137 -58.5z" />
<glyph unicode="&#xe4;" horiz-adv-x="1098" d="M432 -18q-153 0 -247 82.5t-94 219.5q0 67 22.5 121.5t63 93.5t93 65t115.5 40l391 89v59q0 105 -53 146.5t-170 41.5q-120 0 -185 -37.5t-76 -132.5l-166 17q19 152 132.5 226t302.5 74q192 0 293 -80.5t101 -234.5v-447q0 -178 28 -309v-16h-168q-22 84 -22 136v12h-13 q-19 -23 -36.5 -41.5t-50 -43t-67 -41t-86 -28.5t-108.5 -12zM456 128q79 0 152 33t120.5 94.5t47.5 135.5v160l-354 -79q-75 -17 -115 -62.5t-40 -117.5q0 -75 48 -119.5t141 -44.5zM420 1257h-178v223h178v-223zM838 1257h-177v223h177v-223z" />
<glyph unicode="&#xe5;" horiz-adv-x="1098" d="M432 -18q-153 0 -247 82.5t-94 219.5q0 67 22.5 121.5t63 93.5t93 65t115.5 40l391 89v59q0 105 -53 146.5t-170 41.5q-120 0 -185 -37.5t-76 -132.5l-166 17q19 152 132.5 226t302.5 74q192 0 293 -80.5t101 -234.5v-447q0 -178 28 -309v-16h-168q-22 84 -22 136v12h-13 q-19 -23 -36.5 -41.5t-50 -43t-67 -41t-86 -28.5t-108.5 -12zM456 128q79 0 152 33t120.5 94.5t47.5 135.5v160l-354 -79q-75 -17 -115 -62.5t-40 -117.5q0 -75 48 -119.5t141 -44.5zM542 1143q-105 0 -172.5 63t-67.5 158q0 96 67.5 160t172.5 64t171.5 -63.5t66.5 -160.5 q0 -95 -66.5 -158t-171.5 -63zM542 1231q60 0 99.5 37t39.5 96q0 63 -39.5 100t-99.5 37t-101.5 -37.5t-41.5 -99.5q0 -58 41.5 -95.5t101.5 -37.5z" />
<glyph unicode="&#xe6;" horiz-adv-x="1805" d="M1273 -20q-138 0 -243 60t-165 169q-126 -227 -417 -227q-166 0 -262.5 85t-96.5 225q0 66 23 120t64 91t90 61.5t107 39.5q59 14 140 19.5t139 4.5t141 -5v109q0 110 -60 163t-180 53q-227 0 -251 -180l-170 12q18 152 132.5 229.5t298.5 77.5q264 0 346 -172 q63 83 154 127.5t202 44.5q137 0 240 -66t156 -179.5t53 -257.5v-85h-749v-27q3 -157 87.5 -253.5t220.5 -96.5q194 0 258 203l166 -19q-17 -67 -51 -124.5t-85.5 -103.5t-125.5 -72t-162 -26zM791 412v48l2 -2q0 7 -1 22.5t-1 22.5q-74 7 -181.5 6.5t-173.5 -16.5 q-79 -20 -125 -67t-46 -124q0 -81 52 -131.5t153 -50.5q85 0 159 39.5t118 107t44 145.5zM969 625h567v16q-6 134 -78 218.5t-193 84.5q-124 0 -204 -90t-92 -229z" />
<glyph unicode="&#xe7;" horiz-adv-x="1114" d="M596 27h126l-76 -124q97 -9 147 -45t50 -107q0 -78 -70.5 -126.5t-198.5 -48.5q-46 0 -92 8t-68 15l-23 8l17 107q76 -28 157 -28q66 0 103.5 16.5t37.5 48.5q0 23 -14 36.5t-58.5 22t-124.5 8.5v56zM584 -20q-99 0 -188 39.5t-155 110.5t-105 175.5t-39 228t39 228 t105 175.5t155 110.5t188 39.5q183 0 300.5 -99t139.5 -256l-175 -16q-20 100 -89 157.5t-174 57.5q-63 0 -118.5 -28t-97.5 -78t-66 -125.5t-24 -165.5q0 -92 24 -167.5t66 -125.5t97.5 -77.5t118.5 -27.5q106 0 175.5 61.5t91.5 167.5l173 -17q-22 -166 -141 -267 t-301 -101z" />
<glyph unicode="&#xe8;" horiz-adv-x="1122" d="M574 -20q-105 0 -195 37.5t-156.5 107t-104 174.5t-37.5 233q0 123 37 227t101 176t153.5 112t192.5 40q138 0 246.5 -65.5t168 -179.5t59.5 -256v-99h-778v-15q4 -78 30.5 -143.5t69 -108.5t97.5 -66.5t116 -23.5q109 0 175.5 52t95.5 134l169 -20q-16 -60 -52 -115 t-90 -100.5t-131.5 -73t-166.5 -27.5zM267 633h590v13q0 75 -37 141t-105 108t-150 42q-121 0 -203 -87.5t-95 -216.5zM499 1209l-263 300h178l263 -300h-178z" />
<glyph unicode="&#xe9;" horiz-adv-x="1122" d="M574 -20q-105 0 -195 37.5t-156.5 107t-104 174.5t-37.5 233q0 123 37 227t101 176t153.5 112t192.5 40q138 0 246.5 -65.5t168 -179.5t59.5 -256v-99h-778v-15q4 -78 30.5 -143.5t69 -108.5t97.5 -66.5t116 -23.5q109 0 175.5 52t95.5 134l169 -20q-16 -60 -52 -115 t-90 -100.5t-131.5 -73t-166.5 -27.5zM267 633h590v13q0 75 -37 141t-105 108t-150 42q-121 0 -203 -87.5t-95 -216.5zM397 1209l264 300h179l-264 -300h-179z" />
<glyph unicode="&#xea;" horiz-adv-x="1122" d="M574 -20q-105 0 -195 37.5t-156.5 107t-104 174.5t-37.5 233q0 123 37 227t101 176t153.5 112t192.5 40q138 0 246.5 -65.5t168 -179.5t59.5 -256v-99h-778v-15q4 -78 30.5 -143.5t69 -108.5t97.5 -66.5t116 -23.5q109 0 175.5 52t95.5 134l169 -20q-16 -60 -52 -115 t-90 -100.5t-131.5 -73t-166.5 -27.5zM267 633h590v13q0 75 -37 141t-105 108t-150 42q-121 0 -203 -87.5t-95 -216.5zM487 1501h113l294 -296h-182l-161 174h-7l-159 -174h-176z" />
<glyph unicode="&#xeb;" horiz-adv-x="1122" d="M574 -20q-105 0 -195 37.5t-156.5 107t-104 174.5t-37.5 233q0 123 37 227t101 176t153.5 112t192.5 40q138 0 246.5 -65.5t168 -179.5t59.5 -256v-99h-778v-15q4 -78 30.5 -143.5t69 -108.5t97.5 -66.5t116 -23.5q109 0 175.5 52t95.5 134l169 -20q-16 -60 -52 -115 t-90 -100.5t-131.5 -73t-166.5 -27.5zM267 633h590v13q0 75 -37 141t-105 108t-150 42q-121 0 -203 -87.5t-95 -216.5zM448 1257h-179v223h179v-223zM865 1257h-176v223h176v-223z" />
<glyph unicode="&#xec;" horiz-adv-x="499" d="M160 0v1066h181v-1066h-181zM197 1209l-264 300h179l263 -300h-178z" />
<glyph unicode="&#xed;" horiz-adv-x="499" d="M160 0v1066h181v-1066h-181zM126 1209l263 300h178l-263 -300h-178z" />
<glyph unicode="&#xee;" horiz-adv-x="499" d="M160 0v1066h181v-1066h-181zM186 1501h114l294 -296h-182l-161 174h-7l-159 -174h-176z" />
<glyph unicode="&#xef;" horiz-adv-x="499" d="M160 0v1066h181v-1066h-181zM130 1257h-179v223h179v-223zM547 1257h-176v223h176v-223z" />
<glyph unicode="&#xf0;" horiz-adv-x="1201" d="M397 1194v112l201 40q-103 83 -231 161l182 10q107 -60 199 -140l272 55v-112l-177 -37q268 -295 268 -711q0 -141 -39.5 -255t-108.5 -186.5t-161.5 -111.5t-199.5 -39q-110 0 -204.5 40.5t-162 111.5t-106 172.5t-38.5 220.5t40 221.5t107 172t156.5 108.5t187.5 39 q108 0 189.5 -43.5t118.5 -99.5h8q-46 173 -203 332zM602 128q68 0 127.5 27.5t104.5 78t71 128.5t26 174q0 87 -27 160.5t-72.5 122t-105.5 75.5t-128 27t-127 -28t-103 -78t-69.5 -125t-25.5 -165q0 -179 94 -288t235 -109z" />
<glyph unicode="&#xf1;" horiz-adv-x="1171" d="M152 0v1066h173v-168q4 8 12.5 20.5t39.5 45t67 57.5t96.5 45.5t126.5 20.5q115 0 198 -51.5t124 -140.5t41 -206v-689h-181v657q0 268 -228 268q-79 0 -146 -41.5t-104.5 -105t-37.5 -130.5v-648h-181zM722 1251q-40 0 -82.5 17.5t-72 38.5t-63.5 38t-58 17 q-71 0 -85 -113l-110 8q11 111 61 173t136 62q41 0 84 -17.5t72.5 -38t62.5 -38t57 -17.5q74 0 87 113l108 -8q-12 -118 -60 -176.5t-137 -58.5z" />
<glyph unicode="&#xf2;" horiz-adv-x="1151" d="M576 -20q-108 0 -199.5 40t-156.5 111.5t-102 175t-37 227.5q0 164 63 290t175.5 194.5t256.5 68.5q145 0 257 -68.5t174.5 -194.5t62.5 -290q0 -165 -62.5 -291.5t-174.5 -194.5t-257 -68zM576.5 138q139.5 0 226.5 106t87 290q0 181 -87.5 288t-226.5 107t-227 -107 t-88 -288q0 -184 88 -290t227.5 -106zM536 1209l-265 300h179l264 -300h-178z" />
<glyph unicode="&#xf3;" horiz-adv-x="1151" d="M576 -20q-108 0 -199.5 40t-156.5 111.5t-102 175t-37 227.5q0 164 63 290t175.5 194.5t256.5 68.5q145 0 257 -68.5t174.5 -194.5t62.5 -290q0 -165 -62.5 -291.5t-174.5 -194.5t-257 -68zM576.5 138q139.5 0 226.5 106t87 290q0 181 -87.5 288t-226.5 107t-227 -107 t-88 -288q0 -184 88 -290t227.5 -106zM434 1209l264 300h178l-264 -300h-178z" />
<glyph unicode="&#xf4;" horiz-adv-x="1151" d="M576 -20q-108 0 -199.5 40t-156.5 111.5t-102 175t-37 227.5q0 164 63 290t175.5 194.5t256.5 68.5q145 0 257 -68.5t174.5 -194.5t62.5 -290q0 -165 -62.5 -291.5t-174.5 -194.5t-257 -68zM576.5 138q139.5 0 226.5 106t87 290q0 181 -87.5 288t-226.5 107t-227 -107 t-88 -288q0 -184 88 -290t227.5 -106zM511 1501h114l294 -296h-183l-160 174h-9l-157 -174h-176z" />
<glyph unicode="&#xf5;" horiz-adv-x="1151" d="M576 -20q-108 0 -199.5 40t-156.5 111.5t-102 175t-37 227.5q0 164 63 290t175.5 194.5t256.5 68.5q145 0 257 -68.5t174.5 -194.5t62.5 -290q0 -165 -62.5 -291.5t-174.5 -194.5t-257 -68zM576.5 138q139.5 0 226.5 106t87 290q0 181 -87.5 288t-226.5 107t-227 -107 t-88 -288q0 -184 88 -290t227.5 -106zM712 1255q-40 0 -82.5 17.5t-72.5 38.5t-63.5 38t-57.5 17q-72 0 -86 -113l-108 8q10 111 59.5 173t136.5 62q40 0 83 -17.5t73 -38t63.5 -38t56.5 -17.5q74 0 87 113l108 -8q-12 -118 -60 -176.5t-137 -58.5z" />
<glyph unicode="&#xf6;" horiz-adv-x="1151" d="M576 -20q-108 0 -199.5 40t-156.5 111.5t-102 175t-37 227.5q0 164 63 290t175.5 194.5t256.5 68.5q145 0 257 -68.5t174.5 -194.5t62.5 -290q0 -165 -62.5 -291.5t-174.5 -194.5t-257 -68zM576.5 138q139.5 0 226.5 106t87 290q0 181 -87.5 288t-226.5 107t-227 -107 t-88 -288q0 -184 88 -290t227.5 -106zM458 1257h-178v223h178v-223zM876 1257h-176v223h176v-223z" />
<glyph unicode="&#xf7;" horiz-adv-x="1205" d="M606 124q-59 0 -93.5 31.5t-34.5 84t34.5 84.5t93.5 32q57 0 91.5 -32t34.5 -84.5t-34.5 -84t-91.5 -31.5zM1085 532h-961v141h961v-141zM606 853q-59 0 -93.5 32t-34.5 84q0 53 34.5 85.5t93.5 32.5q57 0 91.5 -32.5t34.5 -85.5q0 -52 -34.5 -84t-91.5 -32z" />
<glyph unicode="&#xf8;" horiz-adv-x="1191" d="M596 -20q-108 0 -199.5 40t-157 111.5t-102 175t-36.5 227.5q0 164 63 290t175.5 194.5t256.5 68.5q145 0 257.5 -68.5t175 -194.5t62.5 -290q0 -165 -62.5 -291.5t-175 -194.5t-257.5 -68zM596.5 138q139.5 0 227 106t87.5 290q0 181 -88 288t-227 107t-226.5 -107 t-87.5 -288q0 -184 87.5 -290t227 -106zM294 -186l480 1439h130l-478 -1439h-132z" />
<glyph unicode="&#xf9;" horiz-adv-x="1171" d="M505 -20q-173 0 -268 108t-95 285v693h181v-660q0 -129 54.5 -196.5t173.5 -67.5q79 0 146.5 41t105 104.5t37.5 130.5v648h180v-1066h-173v168q-4 -7 -12.5 -20t-39.5 -45.5t-67 -57t-96.5 -45t-126.5 -20.5zM530 1209l-265 300h180l263 -300h-178z" />
<glyph unicode="&#xfa;" horiz-adv-x="1171" d="M505 -20q-173 0 -268 108t-95 285v693h181v-660q0 -129 54.5 -196.5t173.5 -67.5q79 0 146.5 41t105 104.5t37.5 130.5v648h180v-1066h-173v168q-4 -7 -12.5 -20t-39.5 -45.5t-67 -57t-96.5 -45t-126.5 -20.5zM456 1209l264 300h178l-263 -300h-179z" />
<glyph unicode="&#xfb;" horiz-adv-x="1171" d="M505 -20q-173 0 -268 108t-95 285v693h181v-660q0 -129 54.5 -196.5t173.5 -67.5q79 0 146.5 41t105 104.5t37.5 130.5v648h180v-1066h-173v168q-4 -7 -12.5 -20t-39.5 -45.5t-67 -57t-96.5 -45t-126.5 -20.5zM521 1501h114l294 -296h-183l-160 174h-8l-158 -174h-176z " />
<glyph unicode="&#xfc;" horiz-adv-x="1171" d="M505 -20q-173 0 -268 108t-95 285v693h181v-660q0 -129 54.5 -196.5t173.5 -67.5q79 0 146.5 41t105 104.5t37.5 130.5v648h180v-1066h-173v168q-4 -7 -12.5 -20t-39.5 -45.5t-67 -57t-96.5 -45t-126.5 -20.5zM464 1257h-178v223h178v-223zM882 1257h-176v223h176v-223z " />
<glyph unicode="&#xfd;" horiz-adv-x="1080" d="M284 -406q-50 0 -110 15l12 153q50 -10 85 -10q54 0 87 23t50 73l48 148l-402 1070h192l296 -830h11l296 830h183l-475 -1273q-40 -109 -102.5 -154t-170.5 -45zM416 1209l263 300h178l-263 -300h-178z" />
<glyph unicode="&#xfe;" horiz-adv-x="1217" d="M158 -397v1898h181v-566q5 6 14.5 16t42.5 36.5t69 46.5t91 36.5t111 16.5q98 0 182 -39t145.5 -110t96.5 -176.5t35 -231.5t-38 -231t-103 -174t-149.5 -107t-178.5 -38q-56 0 -109.5 14.5t-89.5 35t-64.5 41t-41.5 34.5l-13 15v-517h-181zM621 124q145 0 234 109 t89 297q0 186 -90 295.5t-231 109.5q-47 0 -93.5 -15t-79.5 -36t-59 -42t-39 -36l-13 -15v-526q4 -5 13 -15t37.5 -34t59.5 -43t78 -34t94 -15z" />
<glyph unicode="&#xff;" horiz-adv-x="1080" d="M284 -406q-50 0 -110 15l12 153q50 -10 85 -10q54 0 87 23t50 73l48 148l-402 1070h192l296 -830h11l296 830h183l-475 -1273q-40 -109 -102.5 -154t-170.5 -45zM414 1257h-180v227h180v-227zM842 1257h-181v227h181v-227z" />
<glyph unicode="&#x152;" horiz-adv-x="2316" d="M1211 0v158q-73 -79 -177 -127.5t-235 -48.5q-144 0 -270 54.5t-218 151.5t-144.5 238.5t-52.5 307t52.5 307t144.5 238.5t218 152t270 55q131 0 234.5 -49t177.5 -129v160h1001v-160h-811v-465h729v-154h-729v-527h815v-162h-1005zM801 144q78 0 149 23t121.5 59.5 t85.5 76t54 78.5v708q-19 38 -54 77t-85.5 75.5t-121.5 59.5t-149 23q-102 0 -192.5 -42.5t-157.5 -118t-106 -187t-39 -243t39 -243t106 -187t157.5 -117.5t192.5 -42z" />
<glyph unicode="&#x153;" horiz-adv-x="1978" d="M1426 -20q-146 0 -253 63.5t-167 181.5q-61 -117 -168 -181t-244 -64q-107 0 -200 40t-159.5 111.5t-105 175.5t-38.5 227q0 121 38.5 225t105 175.5t159.5 112t200 40.5q137 0 243.5 -65.5t168.5 -183.5q60 118 166.5 183.5t243.5 65.5q140 0 248 -66t165 -180t57 -257 v-85h-785v-19q3 -157 93.5 -257.5t231.5 -100.5q106 0 175.5 56.5t97.5 144.5l170 -17q-17 -67 -54.5 -125t-92 -103t-131.5 -71.5t-165 -26.5zM594 126q141 0 232 110t91 298q0 185 -91 295t-232 110q-140 0 -231.5 -110.5t-91.5 -294.5q0 -188 91.5 -298t231.5 -110z M1103 625h604v16q-6 132 -86 217.5t-205 85.5q-128 0 -213.5 -90.5t-99.5 -228.5z" />
<glyph unicode="&#x178;" horiz-adv-x="1313" d="M576 0v574l-584 894h211l464 -708h16l464 708h205l-584 -894v-574h-192zM534 1561h-182v227h182v-227zM961 1561h-181v227h181v-227z" />
<glyph unicode="&#x2c6;" horiz-adv-x="871" d="M371 1521h113l294 -296h-182l-160 174h-8l-159 -174h-176z" />
<glyph unicode="&#x2dc;" horiz-adv-x="774" d="M525 1292q-40 0 -82.5 17.5t-72 38t-63.5 38t-58 17.5q-71 0 -85 -113l-110 8q11 110 61 172.5t136 62.5q41 0 84 -17.5t72.5 -38.5t62.5 -38t57 -17q75 0 88 112l107 -7q-12 -119 -60 -177t-137 -58z" />
<glyph unicode="&#x2000;" horiz-adv-x="986" />
<glyph unicode="&#x2001;" horiz-adv-x="1973" />
<glyph unicode="&#x2002;" horiz-adv-x="986" />
<glyph unicode="&#x2003;" horiz-adv-x="1973" />
<glyph unicode="&#x2004;" horiz-adv-x="657" />
<glyph unicode="&#x2005;" horiz-adv-x="493" />
<glyph unicode="&#x2006;" horiz-adv-x="328" />
<glyph unicode="&#x2007;" horiz-adv-x="328" />
<glyph unicode="&#x2008;" horiz-adv-x="246" />
<glyph unicode="&#x2009;" horiz-adv-x="394" />
<glyph unicode="&#x200a;" horiz-adv-x="109" />
<glyph unicode="&#x2010;" horiz-adv-x="729" d="M73 527v150h584v-150h-584z" />
<glyph unicode="&#x2011;" horiz-adv-x="729" d="M73 527v150h584v-150h-584z" />
<glyph unicode="&#x2012;" horiz-adv-x="729" d="M73 527v150h584v-150h-584z" />
<glyph unicode="&#x2013;" horiz-adv-x="851" d="M25 540v137h803v-137h-803z" />
<glyph unicode="&#x2014;" horiz-adv-x="1702" d="M25 540v137h1654v-137h-1654z" />
<glyph unicode="&#x2018;" horiz-adv-x="506" d="M373 1525l12 -116q-83 -20 -129.5 -76t-40.5 -131h166v-227h-87q-106 0 -160 92q-52 88 -27 203q29 130 142 203q54 36 124 52z" />
<glyph unicode="&#x2019;" horiz-adv-x="506" d="M134 951l-12 115q83 20 129.5 76t40.5 131h-166v228h87q106 0 160 -92q52 -88 27 -203q-29 -130 -142 -203q-55 -36 -124 -52z" />
<glyph unicode="&#x201a;" horiz-adv-x="530" d="M146 -323l-12 116q83 20 129.5 76t40.5 131h-166v227h87q106 0 160 -92q52 -88 27 -203q-29 -130 -142 -203q-55 -36 -124 -52z" />
<glyph unicode="&#x201c;" horiz-adv-x="899" d="M373 1525l12 -116q-83 -20 -129.5 -76t-40.5 -131h166v-227h-87q-106 0 -160 92q-52 88 -27 203q29 130 142 203q54 36 124 52zM766 1525l12 -116q-83 -20 -129.5 -76t-40.5 -131h166v-227h-87q-106 0 -160 92q-52 88 -27 203q29 130 142 203q55 36 124 52z" />
<glyph unicode="&#x201d;" horiz-adv-x="899" d="M134 951l-12 115q83 20 129.5 76t40.5 131h-166v228h87q106 0 160 -92q52 -88 27 -203q-29 -130 -142 -203q-55 -36 -124 -52zM527 951l-12 115q83 20 129.5 76t40.5 131h-166v228h87q106 0 160 -92q52 -88 27 -203q-29 -130 -142 -203q-55 -36 -124 -52z" />
<glyph unicode="&#x201e;" horiz-adv-x="899" d="M134 -323l-12 116q83 20 129.5 76t40.5 131h-166v227h87q106 0 160 -92q52 -88 27 -203q-29 -130 -142 -203q-55 -36 -124 -52zM527 -323l-12 116q83 20 129.5 76t40.5 131h-166v227h87q106 0 160 -92q52 -88 27 -203q-29 -130 -142 -203q-55 -36 -124 -52z" />
<glyph unicode="&#x2022;" horiz-adv-x="838" d="M657 559h-475v451h475v-451z" />
<glyph unicode="&#x2026;" horiz-adv-x="1702" d="M385 0h-239v227h239v-227zM969 0h-239v227h239v-227zM1557 0h-239v227h239v-227z" />
<glyph unicode="&#x202f;" horiz-adv-x="394" />
<glyph unicode="&#x2039;" horiz-adv-x="592" d="M73 509v172l399 373v-199l-273 -257v-8l273 -259v-203z" />
<glyph unicode="&#x203a;" horiz-adv-x="592" d="M519 673v-172l-399 -373v199l273 257v8l-273 259v203z" />
<glyph unicode="&#x205f;" horiz-adv-x="493" />
<glyph unicode="&#x20ac;" horiz-adv-x="1281" d="M105 811v124h124q19 135 65.5 241t113.5 174.5t150.5 104t179.5 35.5q90 0 168 -31.5t134 -87t92.5 -130t47.5 -160.5l-168 -15q-24 121 -98 196.5t-176 75.5q-127 0 -212.5 -103t-113.5 -300h569l-26 -124h-553q-3 -37 -3 -77t3 -77h519l-27 -123h-482 q28 -199 113.5 -301.5t212.5 -102.5q102 0 175.5 74t98.5 195l168 -14q-12 -87 -48.5 -161t-92.5 -129t-133.5 -86.5t-167.5 -31.5q-96 0 -179.5 36t-150.5 104.5t-113.5 174.5t-65.5 242h-124v123h114q-2 25 -2 77q0 50 2 77h-114z" />
<glyph unicode="&#x2122;" horiz-adv-x="1743" d="M325 736v616h-260v116h647v-116h-260v-616h-127zM832 736v732h188l222 -568h7l227 568h184v-732h-122v599h-4l-238 -599h-100l-239 599h-4v-599h-121z" />
<glyph unicode="&#x25fc;" horiz-adv-x="1064" d="M0 1064h1064v-1064h-1064v1064z" />
</font>
</defs>
</svg>
