<?xml version="1.0" encoding="utf-8"?>
<!-- Generator: Adobe Illustrator 16.2.0, SVG Export Plug-In . SVG Version: 6.00 Build 0)  -->
<!DOCTYPE svg PUBLIC "-//W3C//DTD SVG 1.1//EN" "http://www.w3.org/Graphics/SVG/1.1/DTD/svg11.dtd">
<svg version="1.1" id="Layer_1" xmlns="http://www.w3.org/2000/svg" xmlns:xlink="http://www.w3.org/1999/xlink" x="0px" y="0px"
	 width="20px" height="20px" viewBox="0 0 20 20" enable-background="new 0 0 20 20" xml:space="preserve">
<g>
	<path d="M14.973,9.303c-0.824-0.775-1.664-1.573-2.519-2.394c-0.855-0.821-1.72-1.666-2.594-2.533
		c-0.043-0.043-0.074-0.09-0.093-0.139c-0.019-0.05-0.02-0.105-0.004-0.167C9.778,4.007,9.815,3.937,9.874,3.86
		c0.059-0.078,0.141-0.169,0.246-0.274c0.099-0.099,0.188-0.175,0.265-0.228c0.078-0.053,0.144-0.084,0.2-0.093
		c0.056-0.009,0.105-0.006,0.149,0.009c0.043,0.016,0.083,0.042,0.121,0.079l6.098,6.089c0.074,0.081,0.135,0.16,0.182,0.237
		c0.046,0.077,0.069,0.184,0.069,0.321c0,0.105-0.019,0.2-0.056,0.283c-0.037,0.084-0.103,0.175-0.195,0.274l-6.098,6.089
		c-0.038,0.037-0.078,0.063-0.121,0.079s-0.093,0.019-0.149,0.01c-0.056-0.01-0.122-0.041-0.2-0.094s-0.166-0.128-0.265-0.228
		c-0.105-0.105-0.187-0.196-0.246-0.274c-0.059-0.077-0.096-0.146-0.111-0.209c-0.016-0.062-0.014-0.116,0.004-0.162
		c0.019-0.047,0.05-0.092,0.093-0.136c0.874-0.873,1.739-1.721,2.594-2.542c0.854-0.821,1.694-1.619,2.519-2.394H3.102
		c-0.043,0-0.083-0.013-0.121-0.037c-0.037-0.025-0.07-0.064-0.098-0.117c-0.028-0.052-0.05-0.124-0.065-0.214
		c-0.016-0.09-0.023-0.2-0.023-0.33c0-0.13,0.008-0.24,0.023-0.33c0.015-0.09,0.037-0.161,0.065-0.214S2.944,9.365,2.981,9.34
		s0.078-0.037,0.121-0.037H14.973z"/>
</g>
</svg>
