<?xml version="1.0" standalone="no"?>
<!DOCTYPE svg PUBLIC "-//W3C//DTD SVG 1.1//EN" "http://www.w3.org/Graphics/SVG/1.1/DTD/svg11.dtd" >
<svg xmlns="http://www.w3.org/2000/svg" xmlns:xlink="http://www.w3.org/1999/xlink" version="1.1">
<metadata></metadata>
<defs>
<font id="rayonregular" horiz-adv-x="1294" >
<font-face units-per-em="2048" ascent="1516" descent="-532" />
<missing-glyph horiz-adv-x="548" />
<glyph unicode=" "  horiz-adv-x="548" />
<glyph unicode="&#x09;" horiz-adv-x="548" />
<glyph unicode="&#xa0;" horiz-adv-x="548" />
<glyph unicode="!" horiz-adv-x="548" d="M182 385v1098h185v-1098h-185zM389 0h-231v211h231v-211z" />
<glyph unicode="&#x22;" horiz-adv-x="614" d="M86 975v508h147v-508h-147zM381 975v508h147v-508h-147z" />
<glyph unicode="#" horiz-adv-x="1138" d="M535 0l92 430h-252l-92 -430h-140l93 430h-191v131h219l78 361h-201v131h230l94 430h137l-92 -430h252l94 430h137l-92 -430h193v-131h-222l-77 -361h202v-131h-231l-92 -430h-139zM481 922l-78 -361h252l78 361h-252z" />
<glyph unicode="$" horiz-adv-x="1310" d="M590 -217v199q-224 11 -353.5 113t-142.5 306l168 17q16 -257 328 -277v541l-72 18q-91 23 -160.5 53t-126 74.5t-86.5 107.5t-30 142q0 180 133 294.5t342 129.5v191h131v-193q204 -14 325.5 -115t133.5 -288l-168 -17q-22 230 -291 260v-514l63 -16q95 -24 168 -57 t130 -79.5t87.5 -111t30.5 -143.5q0 -191 -133 -304.5t-346 -129.5v-201h-131zM729 649l-8 2v-510q133 14 218 82.5t85 182.5q0 173 -295 243zM291 1090q0 -48 22 -86t63 -64.5t88 -44.5t109 -33l17 -4v483q-132 -13 -215.5 -79t-83.5 -172z" />
<glyph unicode="%" horiz-adv-x="1638" d="M233 0l1006 1483h166l-1006 -1483h-166zM1214 -29q-160 0 -267 106.5t-107 266.5q0 159 107 265t267 106t267.5 -106t107.5 -265q0 -160 -107.5 -266.5t-267.5 -106.5zM1214 109q95 0 153 65.5t58 169.5q0 106 -58.5 168.5t-152.5 62.5q-95 0 -154 -63.5t-59 -167.5 q0 -105 59.5 -170t153.5 -65zM424 768q-160 0 -267.5 106t-107.5 265t107.5 265.5t267.5 106.5t267.5 -106.5t107.5 -265.5t-107.5 -265t-267.5 -106zM424 907q95 0 153 64t58 168q0 105 -59 170t-152 65q-95 0 -153 -65t-58 -170q0 -106 58.5 -169t152.5 -63z" />
<glyph unicode="&#x26;" horiz-adv-x="1515" d="M1280 0l-180 178q-200 -203 -482 -203q-140 0 -253 48.5t-179.5 141t-66.5 212.5q0 73 31 141t72 113.5t94.5 85.5t86 58t60.5 30q-52 46 -85.5 79t-68.5 77.5t-52 90.5t-17 95q0 147 120.5 253.5t313.5 106.5q192 0 307 -101t115 -243q0 -61 -32 -123t-73 -105.5 t-94.5 -84t-82 -57.5t-48.5 -27l330 -332q92 180 92 393v58l168 -8v-50q0 -130 -38 -262t-108 -246l318 -319h-248zM627 131q220 0 366 156l-420 420h-2q-35 -16 -72.5 -39.5t-87 -64t-81 -98t-31.5 -120.5q0 -119 95.5 -186.5t232.5 -67.5zM420 1151q0 -35 17.5 -70.5 t54 -73.5t68 -66t82.5 -69q4 -3 5.5 -4.5t4.5 -3.5t5 -4q23 12 47.5 26.5t65 45.5t70.5 62.5t52.5 75t22.5 85.5q0 89 -66 145t-177 56q-115 0 -183.5 -57.5t-68.5 -147.5z" />
<glyph unicode="'" horiz-adv-x="409" d="M127 975v508h156v-508h-156z" />
<glyph unicode="(" horiz-adv-x="618" d="M381 -258q-8 16 -21.5 46.5t-48.5 128.5t-61.5 201t-48 256t-21.5 302t20.5 300t50 260t59.5 197t50 133l21 44h168q-8 -18 -22 -50.5t-49.5 -134.5t-62.5 -206.5t-49 -254t-22 -288.5t21 -286t51 -258t60.5 -202.5t51.5 -139.5l21 -48h-168z" />
<glyph unicode=")" horiz-adv-x="618" d="M238 -258h-168q8 18 22 50.5t49 134.5t62 206.5t49 254t22 288.5t-21 286t-51 258t-60 202.5t-51 139.5l-21 48h168q8 -16 21.5 -46.5t48 -128.5t61 -201t48 -256t21.5 -302t-20.5 -300t-50 -260t-59 -197t-50.5 -133z" />
<glyph unicode="*" horiz-adv-x="737" d="M49 1227v106h223l-137 219l117 15l117 -187l116 187l117 -15l-137 -219h223v-106h-223l137 -219l-117 -17l-116 187l-117 -187l-117 17l137 219h-223z" />
<glyph unicode="+" horiz-adv-x="1218" d="M530 102v414h-415v148h415v413h160v-413h416v-148h-416v-414h-160z" />
<glyph unicode="," horiz-adv-x="536" d="M147 -326l-12 117q84 20 131 76.5t41 132.5h-168v229h88q107 0 162 -93q52 -88 27 -203q-28 -130 -140 -205q-57 -37 -129 -54z" />
<glyph unicode="-" horiz-adv-x="737" d="M74 532v152h590v-152h-590z" />
<glyph unicode="." horiz-adv-x="536" d="M389 0h-242v229h242v-229z" />
<glyph unicode="/" horiz-adv-x="720" d="M-25 -49l607 1581h163l-604 -1581h-166z" />
<glyph unicode="0" horiz-adv-x="1179" d="M590 -20q-226 0 -365 198.5t-139 562.5t139 563t365 199q109 0 200.5 -49.5t159.5 -143.5t106 -240t38 -329t-38 -329t-106 -239.5t-159.5 -143t-200.5 -49.5zM590 150q146 0 229.5 148t83.5 443t-83.5 443.5t-229.5 148.5t-230 -148.5t-84 -443.5t84 -443t230 -148z" />
<glyph unicode="1" horiz-adv-x="1177" d="M602 0v1126q-5 -6 -13.5 -17t-39.5 -40.5t-66 -54t-91.5 -49.5t-117.5 -35l-24 -4v180l24 4q136 23 236 135.5t100 237.5h187v-1483h-195z" />
<glyph unicode="2" horiz-adv-x="1177" d="M133 0v197q345 312 438 403q186 184 243 304q38 80 38 163q0 120 -72 193t-184 73q-117 0 -196.5 -77t-94.5 -205l-182 16q15 187 147.5 311.5t329.5 124.5q189 0 313.5 -121t124.5 -311q0 -69 -20 -137.5t-61.5 -136t-94.5 -132.5t-128.5 -140.5t-153 -146.5 t-178.5 -162l-54 -48v-4h694v-164h-909z" />
<glyph unicode="3" horiz-adv-x="1177" d="M586 -20q-211 0 -346 108t-150 295l176 18q11 -128 100 -194t216 -66q133 0 220 77t87 204q0 129 -83 199.5t-224 70.5h-136v162h136q131 0 208.5 66.5t77.5 177.5q0 116 -78.5 179.5t-207.5 63.5q-122 0 -198.5 -64t-100.5 -175l-177 18q28 173 159 278t321 105 q203 0 335 -110t132 -283q0 -121 -74 -210t-172 -120v-4q49 -14 93 -40.5t86 -68t66.5 -106t24.5 -143.5q0 -192 -140 -315t-351 -123z" />
<glyph unicode="4" horiz-adv-x="1177" d="M745 0v354h-679v178l673 959h193v-975h172v-162h-172v-354h-187zM242 516h501v721z" />
<glyph unicode="5" horiz-adv-x="1177" d="M567 -20q-194 0 -315 110t-135 270l170 19q16 -107 88.5 -173.5t191.5 -66.5q134 0 226 99.5t92 259.5q0 156 -84 246t-209 90q-178 0 -285 -164l-160 20l123 793h721v-158h-585l-70 -444h8q114 108 277 108q89 0 169.5 -33.5t143 -94.5t99 -154t36.5 -205 q0 -229 -142.5 -375.5t-359.5 -146.5z" />
<glyph unicode="6" horiz-adv-x="1177" d="M616 -20q-103 0 -189.5 37t-154 111.5t-105.5 199.5t-38 290v74q0 177 32 319.5t83.5 232t121 150t139.5 85t144 24.5q163 0 260.5 -81.5t130.5 -215.5l-166 -24q-26 82 -76.5 124t-152.5 42q-47 0 -91 -16.5t-88 -58t-78 -104t-57 -161.5t-28 -224h8q138 177 340 177 q85 0 164 -34t141 -94.5t99 -152.5t37 -199q0 -216 -138 -358.5t-338 -142.5zM616 137q124 0 207.5 92t83.5 246q0 155 -80.5 242.5t-205.5 87.5q-129 0 -216.5 -93t-87.5 -225q0 -163 85.5 -256.5t213.5 -93.5z" />
<glyph unicode="7" horiz-adv-x="1177" d="M377 0q14 342 143.5 695.5t341.5 613.5v8h-751v166h956v-158q-489 -603 -506 -1325h-184z" />
<glyph unicode="8" horiz-adv-x="1177" d="M590 -20q-208 0 -346 121.5t-138 314.5q0 76 28.5 143t73.5 112t89 74t84 43v13q-38 15 -74 40.5t-69.5 63.5t-53.5 93t-20 118q0 157 123.5 272t302.5 115q178 0 301 -115t123 -272q0 -63 -20.5 -118t-54 -93t-69 -63.5t-73.5 -40.5v-13q31 -11 65.5 -30.5t73 -53 t68.5 -74t49.5 -97t19.5 -117.5q0 -192 -138 -314t-345 -122zM590 135q126 0 212.5 77t86.5 210q0 124 -86.5 206.5t-212.5 82.5q-127 0 -213 -82.5t-86 -206.5q0 -133 85.5 -210t213.5 -77zM590 862q102 0 175 70.5t73 173.5q0 109 -69.5 177.5t-178.5 68.5 q-108 0 -179 -69t-71 -177q0 -103 73 -173.5t177 -70.5z" />
<glyph unicode="9" horiz-adv-x="1177" d="M561 1503q103 0 189.5 -37t154.5 -112t106 -200t38 -290v-73q0 -149 -22 -273t-61.5 -210.5t-89.5 -151.5t-109.5 -102.5t-118.5 -55.5t-120 -18q-163 0 -260.5 81t-130.5 215l166 25q26 -82 76.5 -124t152.5 -42q47 0 91 16.5t88 57.5t78 103.5t57 161.5t28 224h-8 q-138 -176 -340 -176q-85 0 -164 34t-140.5 94.5t-98.5 152t-37 198.5q0 216 137.5 359t337.5 143zM561 1346q-124 0 -207.5 -92t-83.5 -246q0 -155 81 -242.5t206 -87.5q129 0 216 92.5t87 224.5q0 163 -85.5 257t-213.5 94z" />
<glyph unicode=":" horiz-adv-x="536" d="M389 0h-242v229h242v-229zM389 856h-242v229h242v-229z" />
<glyph unicode=";" horiz-adv-x="536" d="M389 856h-242v229h242v-229zM147 -326l-12 117q84 20 131 76.5t41 132.5h-168v229h88q107 0 162 -93q52 -88 27 -203q-28 -130 -140 -205q-57 -37 -129 -54z" />
<glyph unicode="&#x3c;" horiz-adv-x="1218" d="M115 522v187l911 364v-168l-739 -282v-17l739 -282v-168z" />
<glyph unicode="=" horiz-adv-x="1218" d="M131 750v147h956v-147h-956zM131 356v148h956v-148h-956z" />
<glyph unicode="&#x3e;" horiz-adv-x="1218" d="M1104 709v-187l-911 -366v168l739 282v17l-739 282v168z" />
<glyph unicode="?" horiz-adv-x="1077" d="M412 377q-13 84 -0.5 145.5t45.5 117.5t75.5 98.5t88 87.5t83.5 85t62.5 91t24.5 104q0 105 -76.5 168t-188.5 63q-119 0 -199 -65.5t-96 -206.5l-174 16q13 198 144.5 312t328.5 114q191 0 320 -111.5t129 -281.5q0 -74 -24.5 -138.5t-63 -112t-84 -92t-89 -86.5 t-77.5 -86t-50 -100.5t-5 -121.5h-174zM610 0h-204v229h204v-229z" />
<glyph unicode="@" horiz-adv-x="1994" d="M987 -403q-140 0 -269 35.5t-239 107.5t-191 173.5t-127 240.5t-46 301q0 206 72.5 390t199.5 320t311 215.5t396 79.5q174 0 322.5 -61t249.5 -166.5t157.5 -248t56.5 -302.5q0 -145 -48 -275t-124 -217.5t-170 -138.5t-186 -51q-173 0 -189 135q-103 -135 -268 -135 q-154 0 -255 113t-101 317q0 158 63.5 300.5t179 232.5t254.5 90q98 0 164 -53.5t82 -106.5l29 143h151l-139 -792q-10 -57 2.5 -79t54.5 -22q27 0 69 19.5t91.5 63t92.5 104t71.5 153.5t28.5 199q0 136 -43 253t-123.5 203.5t-203 135.5t-273.5 49q-232 0 -422 -113 t-298 -312t-108 -443q0 -165 57 -302t156 -228t232 -141t284 -50q235 0 443 94l24 -139q-214 -92 -471 -92zM922 143q101 0 174.5 88t107.5 248l8 39l17 98q21 120 -30 206.5t-163 86.5q-76 0 -141.5 -45.5t-106 -116.5t-63.5 -152t-23 -157q0 -136 58.5 -215.5t161.5 -79.5 z" />
<glyph unicode="A" horiz-adv-x="1425" d="M16 0l598 1483h197l598 -1483h-201l-182 465h-635l-182 -465h-193zM705 1255l-248 -624h504l-244 624h-12z" />
<glyph unicode="B" horiz-adv-x="1388" d="M164 0v1483h631q184 0 306 -104.5t122 -274.5q0 -119 -62 -202t-155 -118v-8q48 -14 92.5 -42t84 -71t63.5 -106.5t24 -138.5q0 -191 -132 -304.5t-331 -113.5h-643zM356 164h424q132 0 214.5 68.5t82.5 193.5t-82.5 193.5t-214.5 68.5h-424v-524zM356 848h414 q122 0 193 62.5t71 172.5q0 114 -70.5 175t-193.5 61h-414v-471z" />
<glyph unicode="C" horiz-adv-x="1501" d="M791 -25q-141 0 -266 56t-216.5 155t-144.5 243t-53 312t53 312t144.5 243t216.5 155t266 56q167 0 301.5 -70.5t213 -185.5t99.5 -256l-191 -14q-33 157 -147 254.5t-279 97.5q-96 0 -184 -43t-154 -119t-105.5 -188t-39.5 -242t39 -242t105.5 -187.5t154.5 -118.5 t184 -43q167 0 283 99t146 261l190 -14q-15 -109 -65.5 -203.5t-128.5 -165.5t-187 -111.5t-235 -40.5z" />
<glyph unicode="D" horiz-adv-x="1503" d="M164 0v1483h516q328 0 520.5 -197t192.5 -538q0 -344 -193 -546t-520 -202h-516zM356 172h308q259 0 396.5 153t137.5 423q0 267 -137 415t-397 148h-308v-1139z" />
<glyph unicode="E" horiz-adv-x="1302" d="M164 0v1483h1036v-170h-844v-455h764v-168h-764v-516h848v-174h-1040z" />
<glyph unicode="F" horiz-adv-x="1257" d="M164 0v1483h999v-174h-807v-475h734v-172h-734v-662h-192z" />
<glyph unicode="G" horiz-adv-x="1564" d="M821 -25q-152 0 -283 55.5t-225 154.5t-148 242.5t-54 313.5q0 168 54 312t148 243t224 155t278 56q124 0 231 -37t180.5 -99t122 -138.5t66.5 -159.5l-184 -31q-36 125 -145.5 208t-274.5 83q-217 0 -361.5 -166t-144.5 -426q0 -263 146 -427t372 -164q161 0 273 73.5 t153 173.5v219h-401v168h582v-424q-26 -69 -78.5 -135t-127.5 -123t-180.5 -92t-222.5 -35z" />
<glyph unicode="H" horiz-adv-x="1499" d="M164 0v1483h192v-619h787v619h192v-1483h-192v690h-787v-690h-192z" />
<glyph unicode="I" horiz-adv-x="520" d="M164 0v1483h192v-1483h-192z" />
<glyph unicode="J" horiz-adv-x="1142" d="M508 -25q-200 0 -319 121.5t-119 317.5v45l184 12v-33q0 -140 67.5 -215.5t190.5 -75.5q129 0 206 93.5t77 275.5v967h192v-983q0 -243 -134 -384t-345 -141z" />
<glyph unicode="K" horiz-adv-x="1400" d="M1159 0l-567 715l-236 -236v-479h-192v1483h192v-778l133 133l646 645h237l-649 -645l670 -838h-234z" />
<glyph unicode="L" horiz-adv-x="1204" d="M164 0v1483h192v-1307h787v-176h-979z" />
<glyph unicode="M" horiz-adv-x="1892" d="M164 0v1483h272l492 -1204h8l494 1204h266v-1483h-193v1208h-8l-494 -1208h-147l-494 1208h-8v-1208h-188z" />
<glyph unicode="N" horiz-adv-x="1515" d="M164 0v1483h211l782 -1188h8v1188h187v-1483h-211l-783 1188h-8v-1188h-186z" />
<glyph unicode="O" horiz-adv-x="1603" d="M803 -25q-203 0 -361 98.5t-244.5 273t-86.5 394.5t86.5 394.5t244.5 273t361 98.5t360.5 -98.5t243.5 -273t86 -394.5t-86 -394.5t-243.5 -273t-360.5 -98.5zM803 150q221 0 358 165.5t137 425.5t-137 426t-358 166q-147 0 -261 -76t-175.5 -210.5t-61.5 -305.5 t61.5 -305t175.5 -210t261 -76z" />
<glyph unicode="P" horiz-adv-x="1351" d="M164 0v1483h577q233 0 381 -125.5t148 -335.5t-148 -335.5t-381 -125.5h-385v-561h-192zM356 731h381q154 0 247 74t93 217t-93 217t-247 74h-381v-582z" />
<glyph unicode="Q" horiz-adv-x="1603" d="M803 -25q-203 0 -361 98.5t-244.5 273t-86.5 394.5t86.5 394.5t244.5 273t361 98.5t360.5 -98.5t243.5 -273t86 -394.5q0 -162 -57.5 -309.5t-161.5 -255.5q89 -92 215 -102l-21 -156q-113 8 -179 49.5t-126 116.5q-159 -109 -360 -109zM825 311l21 160 q115 -8 186.5 -50.5t130.5 -113.5q135 163 135 434q0 260 -137 426t-358 166q-147 0 -261 -76t-175.5 -210.5t-61.5 -305.5q0 -260 138 -428t360 -168q145 0 254 68q-92 85 -232 98z" />
<glyph unicode="R" horiz-adv-x="1437" d="M164 0v1483h610q212 0 352 -126.5t140 -312.5q0 -108 -59.5 -197t-149.5 -142t-197 -74q94 -54 162 -139l389 -492h-231l-363 457q-69 88 -141 120.5t-187 32.5h-133v-610h-192zM356 774h371q156 0 251 75.5t95 194.5q0 118 -87.5 194.5t-225.5 76.5h-404v-541z" />
<glyph unicode="S" horiz-adv-x="1357" d="M672 -25q-247 0 -403 116t-171 331l185 16q35 -293 393 -293q164 0 269.5 77t105.5 192q0 94 -78.5 147.5t-229.5 91.5l-200 49q-94 23 -165.5 53.5t-129 76t-87.5 110t-30 145.5q0 113 73 210t198 153.5t270 56.5q227 0 382.5 -108.5t172.5 -302.5l-185 -17 q-19 133 -118 195.5t-256 62.5q-146 0 -245 -71.5t-99 -173.5q0 -47 21.5 -83.5t64 -62t87.5 -41.5t111 -33l203 -51q101 -26 176 -59t135 -80.5t90.5 -113.5t30.5 -150q0 -127 -75 -228.5t-205.5 -158t-290.5 -56.5z" />
<glyph unicode="T" horiz-adv-x="1304" d="M557 0v1309h-500v174h1190v-174h-497v-1309h-193z" />
<glyph unicode="U" horiz-adv-x="1478" d="M737 -20q-283 0 -434 133t-151 391v979h192v-967q0 -190 98 -276t299 -86q198 0 298 86.5t100 275.5v967h188v-979q0 -256 -152.5 -390t-437.5 -134z" />
<glyph unicode="V" horiz-adv-x="1355" d="M582 0l-568 1483h205l459 -1237h8l459 1237h196l-563 -1483h-196z" />
<glyph unicode="W" horiz-adv-x="2031" d="M1358 0l-340 1219l-340 -1219h-223l-406 1483h193l325 -1217h8l336 1217h213l336 -1217h8l326 1217h188l-405 -1483h-219z" />
<glyph unicode="X" horiz-adv-x="1310" d="M25 0l505 762l-491 721h221l399 -596l398 596h215l-492 -721l506 -762h-219l-416 633l-413 -633h-213z" />
<glyph unicode="Y" horiz-adv-x="1349" d="M578 0v580l-590 903h213l469 -715h16l469 715h207l-590 -903v-580h-194z" />
<glyph unicode="Z" horiz-adv-x="1335" d="M113 0v154l872 1155h-872v174h1110v-154l-873 -1155h873v-174h-1110z" />
<glyph unicode="[" horiz-adv-x="618" d="M164 -246v1868h356v-139h-201v-1589h195v-140h-350z" />
<glyph unicode="\" horiz-adv-x="720" d="M139 1532l606 -1581h-165l-605 1581h164z" />
<glyph unicode="]" horiz-adv-x="618" d="M455 1622v-1868h-351v140h195v1589h-201v139h357z" />
<glyph unicode="^" horiz-adv-x="1038" d="M68 709l364 774h174l365 -774h-170l-281 591h-8l-274 -591h-170z" />
<glyph unicode="_" horiz-adv-x="1138" d="M41 -233v57h1057v-57h-1057z" />
<glyph unicode="`" horiz-adv-x="577" d="M246 1221l-266 303h180l266 -303h-180z" />
<glyph unicode="a" horiz-adv-x="1105" d="M438 -18q-159 0 -252.5 84t-93.5 223q0 127 81 207.5t218 111.5l395 90v43q0 109 -55 159t-170 50q-119 0 -184 -38t-82 -130l-170 17q20 150 137 224.5t307 74.5q191 0 294.5 -88t103.5 -244v-438q0 -206 20 -320v-8h-174q-14 77 -14 141v9h-8q-136 -168 -353 -168z M463 129q73 0 146 31.5t125 94t52 140.5v154l-358 -80q-156 -36 -156 -176q0 -72 51 -118t140 -46z" />
<glyph unicode="b" horiz-adv-x="1202" d="M152 0v1516h182v-582q4 7 12 18t37 39t62.5 50t90.5 39.5t119 17.5q96 0 180 -39t146.5 -110t98.5 -177.5t36 -234.5q0 -127 -38.5 -234t-103.5 -176.5t-149.5 -108t-177.5 -38.5q-46 0 -88.5 8.5t-73.5 22t-58.5 29.5t-45.5 32.5t-30.5 30t-18.5 21.5l-6 9v-133h-174z M618 137q143 0 229.5 107.5t86.5 292.5q0 184 -85.5 291.5t-225.5 107.5q-119 0 -204 -90t-85 -199v-237q0 -110 77.5 -191.5t206.5 -81.5z" />
<glyph unicode="c" horiz-adv-x="1093" d="M573 -20q-134 0 -245.5 68t-178.5 197t-67 294t67 294t178.5 197t245.5 68q185 0 304 -100t141 -259l-176 -16q-20 101 -90.5 159t-176.5 58q-132 0 -221.5 -109.5t-89.5 -291.5q0 -183 89.5 -292.5t221.5 -109.5q107 0 178 62t93 170l174 -17q-22 -168 -142.5 -270 t-304.5 -102z" />
<glyph unicode="d" horiz-adv-x="1202" d="M547 -20q-96 0 -180 39t-146.5 110t-98.5 177.5t-36 234.5q0 127 38.5 234t103.5 176.5t149.5 108t177.5 38.5q62 0 117 -15t89 -36.5t59.5 -43t36.5 -36.5l11 -15v564h183v-1516h-172v152q-4 -7 -12.5 -18.5t-39 -41t-65.5 -52.5t-93 -41.5t-122 -18.5zM580 141 q119 0 203.5 90t84.5 199v238q0 110 -77.5 191t-206.5 81q-143 0 -229.5 -107t-86.5 -292q0 -184 86 -292t226 -108z" />
<glyph unicode="e" horiz-adv-x="1130" d="M578 -20q-218 0 -357 149.5t-139 407.5q0 251 139 406t352 155q211 0 341 -143t130 -367v-96h-780v-15q7 -158 97 -252t217 -94q192 0 270 188l174 -20q-16 -60 -52.5 -116t-90.5 -102t-132.5 -73.5t-168.5 -27.5zM270 639h594v8q0 125 -82.5 212t-208.5 87 q-124 0 -209 -88t-94 -219z" />
<glyph unicode="f" horiz-adv-x="659" d="M240 0v930h-172v147h172v156q0 75 22.5 131t55 86.5t78 49t81.5 23.5t76 5q65 0 131 -21l-8 -151q-53 16 -115 16q-27 0 -48.5 -5t-44.5 -20t-35.5 -48t-12.5 -82v-140h207v-147h-205v-930h-182z" />
<glyph unicode="g" horiz-adv-x="1193" d="M563 -426q-189 0 -299.5 81.5t-126.5 211.5l168 29q34 -168 254 -168q65 0 117 15.5t95.5 49.5t67 95t23.5 145v135q-4 -7 -12.5 -18.5t-38 -41t-63.5 -52.5t-89.5 -41.5t-115.5 -18.5q-200 0 -328.5 153t-128.5 398q0 243 134 397t333 154q57 0 110.5 -16t89 -38.5 t62.5 -45t40 -38.5l13 -16v133h174v-1061q0 -207 -131.5 -324.5t-347.5 -117.5zM571 156q115 0 201 91t86 199v226q0 115 -80.5 192.5t-199.5 77.5q-140 0 -225 -109.5t-85 -285.5q0 -175 82.5 -283t220.5 -108z" />
<glyph unicode="h" horiz-adv-x="1173" d="M152 0v1516h182v-605q5 8 13.5 20.5t40 44.5t67 57t94 45t121.5 20q176 0 272 -116t96 -318v-664h-182v631q0 303 -231 303q-120 0 -205.5 -92.5t-85.5 -210.5v-631h-182z" />
<glyph unicode="i" horiz-adv-x="489" d="M154 0v1077h182v-1077h-182zM336 1286h-182v197h182v-197z" />
<glyph unicode="j" horiz-adv-x="499" d="M76 -403q-75 0 -129 18l12 156q52 -15 92 -15q61 0 87 23t26 84v1214h182v-1239q0 -241 -270 -241zM346 1286h-182v197h182v-197z" />
<glyph unicode="k" horiz-adv-x="1093" d="M848 0l-354 483l-160 -168v-315h-182v1516h182v-986l72 78l438 469h221l-442 -469l446 -608h-221z" />
<glyph unicode="l" horiz-adv-x="485" d="M152 0v1516h182v-1516h-182z" />
<glyph unicode="m" horiz-adv-x="1812" d="M145 0v1077h174v-176q15 26 41 55.5t66.5 63.5t99 56t121.5 22q213 0 311 -187q23 26 40.5 44.5t54.5 48t73 48t88.5 32.5t108.5 14q160 0 257 -117t97 -313v-668h-180v639q0 135 -57.5 215t-163.5 80q-119 0 -197 -80.5t-78 -198.5v-655h-180v639q0 143 -56 219t-165 76 q-108 0 -191 -90.5t-83 -212.5v-631h-181z" />
<glyph unicode="n" horiz-adv-x="1167" d="M145 0v1077h174v-170q4 8 13 21t40 45.5t68 58t98 46t128 20.5q175 0 270.5 -117t95.5 -317v-664h-182v631q0 142 -56.5 222.5t-175.5 80.5t-204.5 -87t-85.5 -192v-655h-183z" />
<glyph unicode="o" horiz-adv-x="1163" d="M582 -20q-221 0 -360.5 153.5t-139.5 405.5q0 251 139.5 405t360.5 154q222 0 360.5 -154t138.5 -405q0 -252 -138.5 -405.5t-360.5 -153.5zM582 139q141 0 229 107t88 293q0 183 -88.5 291t-228.5 108t-229 -108t-89 -291q0 -185 88.5 -292.5t229.5 -107.5z" />
<glyph unicode="p" horiz-adv-x="1202" d="M152 -401v1478h174v-151q4 7 12.5 18.5t38 41t64.5 52.5t92.5 41.5t121.5 18.5q96 0 180 -39t146.5 -110t98.5 -177.5t36 -234.5q0 -127 -38.5 -234t-103.5 -176.5t-149.5 -108t-177.5 -38.5q-62 0 -117 15t-89 36t-59.5 42.5t-36.5 36.5l-11 15v-526h-182zM618 137 q143 0 229.5 107.5t86.5 292.5q0 184 -85.5 291.5t-225.5 107.5q-119 0 -204 -90t-85 -199v-237q0 -110 77.5 -191.5t206.5 -81.5z" />
<glyph unicode="q" horiz-adv-x="1202" d="M870 -401v544q-4 -7 -12 -18t-37.5 -39t-63.5 -49.5t-91 -39t-119 -17.5q-96 0 -180 39t-146.5 110t-98.5 177.5t-36 234.5q0 127 38.5 234t103.5 176.5t149.5 108t177.5 38.5q63 0 119.5 -16t91.5 -38.5t61.5 -45t38.5 -38.5l11 -16v133h174v-1478h-181zM580 141 q119 0 203.5 90t84.5 199v238q0 110 -77.5 191t-206.5 81q-143 0 -229.5 -107t-86.5 -292q0 -184 86 -292t226 -108z" />
<glyph unicode="r" horiz-adv-x="724" d="M145 0v1077h174v-186q59 99 124.5 150t150.5 51q40 0 88 -19l-14 -172q-35 14 -78 14q-95 0 -178.5 -101.5t-83.5 -227.5v-586h-183z" />
<glyph unicode="s" horiz-adv-x="1036" d="M510 -20q-186 0 -297 81t-123 234l170 16q25 -180 252 -180q108 0 179 48t71 124q0 29 -11.5 51.5t-28 37.5t-47 28.5t-56 21.5t-68.5 19l-111 28q-70 18 -123.5 40t-101.5 56.5t-74 85t-26 115.5q0 133 117.5 222.5t285.5 89.5q176 0 288 -77.5t124 -221.5l-170 -17 q-13 85 -78.5 124.5t-165.5 39.5q-92 0 -156.5 -46t-64.5 -109q0 -26 11 -46.5t26 -33.5t44.5 -26t51.5 -20t61 -18l109 -29q81 -22 139 -46t107 -60.5t73.5 -87.5t24.5 -117q0 -151 -123 -239t-309 -88z" />
<glyph unicode="t" horiz-adv-x="700" d="M483 -12q-128 0 -190 57t-62 184v701h-172v147h172v291h183v-291h213v-147h-213v-676q0 -53 19.5 -80t66.5 -27q48 0 118 21l21 -152q-87 -28 -156 -28z" />
<glyph unicode="u" horiz-adv-x="1167" d="M502 -20q-176 0 -271.5 117t-95.5 317v663h182v-631q0 -142 56.5 -222.5t175.5 -80.5t205 87t86 192v655h182v-1077h-174v170q-4 -8 -12.5 -20.5t-40 -45.5t-68 -58t-97.5 -45.5t-128 -20.5z" />
<glyph unicode="v" horiz-adv-x="1073" d="M446 0l-413 1077h192l312 -858h4l311 858h188l-413 -1077h-181z" />
<glyph unicode="w" horiz-adv-x="1597" d="M1044 0l-243 844l-244 -844h-197l-311 1077h189l221 -827h8l238 827h192l238 -827h8l221 827h184l-311 -1077h-193z" />
<glyph unicode="x" horiz-adv-x="1056" d="M53 0l357 549l-355 528h207l270 -407l269 407h200l-354 -528l357 -549h-205l-275 424l-272 -424h-199z" />
<glyph unicode="y" horiz-adv-x="1056" d="M289 -410q-70 0 -119 21l12 156q51 -17 90 -17q49 0 79 26t59 111l36 109l-405 1081h192l302 -841h8l301 841h184l-467 -1253q-28 -76 -59.5 -124.5t-67.5 -71.5t-68.5 -30.5t-76.5 -7.5z" />
<glyph unicode="z" horiz-adv-x="1048" d="M98 0v137l627 785h-627v155h852v-137l-624 -784h624v-156h-852z" />
<glyph unicode="{" horiz-adv-x="618" d="M545 -258q-63 0 -94 2t-77 15.5t-68 40.5t-39 80.5t-17 131.5v303q0 61 -2.5 98t-14 78.5t-33 63.5t-60 36.5t-95.5 14.5v139q56 0 95 15t60.5 37.5t33 64t14 78t2.5 96.5v303q0 44 5.5 80t13 63t23 47.5t28.5 34t37 22.5t40 13.5t46.5 7t48.5 3t53 0.5v-127 q-98 0 -121 -26t-23 -132v-289q0 -95 -17.5 -168t-61 -125t-111.5 -63v-8q51 -7 89 -38.5t59.5 -81t31.5 -108.5t10 -129v-288q0 -103 23.5 -130.5t120.5 -27.5v-127z" />
<glyph unicode="|" horiz-adv-x="622" d="M246 -397v2019h131v-2019h-131z" />
<glyph unicode="}" horiz-adv-x="618" d="M74 -258v127q51 0 78 5t42.5 24.5t19 46t3.5 82.5v288q0 146 46 244.5t145 112.5v8q-68 11 -112 63t-61.5 125t-17.5 168v289q0 39 -1 61t-7 42t-14 29t-26 16t-39 8.5t-56 1.5v127q35 0 53 -0.5t48.5 -3t46.5 -7t40 -13.5t37 -22.5t28.5 -34t23 -47.5t13 -63t5.5 -80 v-303q0 -60 2.5 -96.5t13.5 -78t32.5 -64t60.5 -37.5t95 -15v-139q-41 0 -72 -7.5t-52.5 -19.5t-36.5 -33.5t-23.5 -42.5t-13 -54.5t-5.5 -62t-1 -71.5v-303q0 -78 -17 -131.5t-39 -80.5t-68 -40.5t-77 -15.5t-94 -2z" />
<glyph unicode="~" horiz-adv-x="1216" d="M829 537q-59 0 -125.5 24t-115 53.5t-105 53.5t-98.5 24q-62 0 -95 -45.5t-42 -109.5l-146 10q11 138 83.5 222.5t201.5 84.5q59 0 125.5 -24.5t115 -53.5t105 -53.5t98.5 -24.5q62 0 95.5 44.5t42.5 111.5l145 -10q-12 -145 -83 -226t-202 -81z" />
<glyph unicode="&#xa1;" horiz-adv-x="548" />
<glyph unicode="&#xa2;" horiz-adv-x="1140" d="M520 -279v283q-186 28 -307 173.5t-121 361.5t120.5 359.5t307.5 170.5v287h160v-287q155 -23 256 -121.5t123 -236.5l-176 -17q-26 108 -99 171t-184 63q-142 0 -233 -105t-91 -284t91 -284t233 -105q111 0 186 65t99 172l174 -16q-24 -144 -125.5 -244t-253.5 -121 v-285h-160z" />
<glyph unicode="&#xa3;" horiz-adv-x="1277" d="M115 627v147h176v254q0 117 35.5 209.5t98 150t143 87.5t175.5 30q184 0 305 -100.5t142 -304.5l-178 -21q-32 264 -264 264q-127 0 -196 -79.5t-69 -243.5v-246h439v-147h-439v-117q0 -217 -149 -342v-8h885v-160h-1080v168q81 63 116.5 146.5t35.5 211.5v101h-176z" />
<glyph unicode="&#xa4;" horiz-adv-x="1187" d="M1020 1161l96 -96l-170 -172q74 -110 74 -246q0 -139 -76 -248l172 -170l-96 -96l-172 170q-110 -74 -254 -74q-145 0 -254 76l-170 -168l-98 96l170 170q-74 107 -74 244q0 136 74 246l-170 172l98 96l170 -170q111 78 254 78q146 0 254 -78zM594 369q127 0 203.5 77 t76.5 201q0 125 -79 204t-201 79q-124 0 -201.5 -79t-77.5 -204q0 -122 82 -200t197 -78z" />
<glyph unicode="&#xa5;" horiz-adv-x="1316" d="M158 633v121h323l-487 729h217l446 -674h9l446 674h209l-485 -729h321v-121h-401v-154h401v-123h-401v-356h-193v356h-405v123h405v154h-405z" />
<glyph unicode="&#xa6;" horiz-adv-x="434" d="M139 -147v743h156v-743h-156zM139 850v743h156v-743h-156z" />
<glyph unicode="&#xa7;" horiz-adv-x="1208" d="M608 1352q-99 0 -165 -46t-66 -122q0 -37 12.5 -63.5t44 -47t51.5 -29.5t68 -26q3 -1 5 -2t5 -2l6 -2l209 -74q160 -56 240 -138.5t80 -207.5q0 -167 -193 -277q103 -89 103 -209q0 -142 -115 -234.5t-295 -92.5q-179 0 -290.5 81.5t-123.5 227.5l172 14 q21 -172 244 -172q99 0 165 46t66 122q0 37 -12.5 63.5t-44 47t-51.5 29.5t-68 26q-11 4 -16 6l-209 74q-160 56 -239.5 138.5t-79.5 207.5q0 52 19 98.5t51 80.5t61 56.5t61 39.5q-102 85 -102 211q0 141 114.5 234t294.5 93q178 0 290 -82.5t124 -226.5l-172 -14 q-21 172 -244 172zM705 422l75 -31q142 81 142 193q0 76 -51 120.5t-158 81.5l-209 74q-31 9 -80 31q-137 -81 -137 -193q0 -76 51.5 -120t157.5 -82z" />
<glyph unicode="&#xa8;" horiz-adv-x="942" d="M346 1286h-182v230h182v-230zM778 1286h-182v230h182v-230z" />
<glyph unicode="&#xa9;" horiz-adv-x="1759" d="M879 -20q-225 0 -399.5 98.5t-269.5 271t-95 389.5q0 219 95 392.5t269.5 272.5t399.5 99q224 0 399 -99t271 -273t96 -392q0 -216 -96 -389t-271 -271.5t-399 -98.5zM879 76q146 0 270 50t209 137.5t132.5 210.5t47.5 265q0 144 -47.5 267.5t-132.5 212t-209 138.5 t-270 50q-195 0 -346 -86t-232.5 -238t-81.5 -344q0 -190 81.5 -341t232.5 -236.5t346 -85.5zM895 276q-186 0 -313 129.5t-127 333.5q0 207 126.5 336t313.5 129q163 0 270 -88.5t131 -224.5l-147 -14q-22 90 -87 141t-163 51q-127 0 -209 -89.5t-82 -240.5q0 -149 82 -238 t209 -89q98 0 163.5 53t86.5 141l147 -10q-25 -142 -133.5 -231t-267.5 -89z" />
<glyph unicode="&#xaa;" horiz-adv-x="876" d="M350 721q-109 0 -176.5 61t-67.5 160q0 88 60.5 140.5t152.5 76.5l265 70v35q0 63 -38.5 95t-107.5 32q-71 0 -112 -24t-52 -87l-139 14q32 207 307 207q137 0 212 -60.5t75 -168.5v-326q0 -90 21 -198v-17h-132q-16 54 -16 103v8h-8q-9 -16 -26.5 -34t-47 -39t-74 -34.5 t-96.5 -13.5zM371 834q86 0 149.5 52t63.5 126v112l-217 -55q-115 -28 -115 -121q0 -52 31 -83t88 -31z" />
<glyph unicode="&#xab;" horiz-adv-x="978" d="M86 516v170l373 367l16 -193l-270 -256v-8l270 -258l-16 -197zM483 516v170l373 367l16 -193l-268 -256v-8l268 -258l-16 -197z" />
<glyph unicode="&#xac;" horiz-adv-x="1218" d="M1098 819v-481h-90v399h-922v82h1012z" />
<glyph unicode="&#xad;" horiz-adv-x="737" d="M74 532v152h590v-152h-590z" />
<glyph unicode="&#xae;" horiz-adv-x="1570" d="M784 432q-141 0 -264.5 48.5t-212.5 133.5t-140.5 207.5t-51.5 265.5q0 189 88 339.5t240.5 233.5t340.5 83t341.5 -83t242 -233.5t88.5 -339.5q0 -142 -52 -265t-141.5 -208t-213.5 -133.5t-265 -48.5zM784 532q246 0 404 153t158 402q0 248 -158 401.5t-404 153.5 q-244 0 -401.5 -153.5t-157.5 -401.5q0 -249 157.5 -402t401.5 -153zM1155 705h-141l-156 217q-59 79 -166 79h-63v-296h-129v778h305q121 0 195.5 -65.5t74.5 -174.5q0 -78 -49 -132.5t-133 -76.5q53 -30 90 -82zM629 1108h157q71 0 115.5 37t44.5 98t-45 98t-115 37h-157 v-270z" />
<glyph unicode="&#xaf;" horiz-adv-x="737" d="M98 1358v125h541v-125h-541z" />
<glyph unicode="&#xb0;" horiz-adv-x="798" d="M403 836q-162 0 -268 98t-106 246q0 149 105.5 246.5t268.5 97.5q157 0 262 -97.5t105 -246.5q0 -148 -105 -246t-262 -98zM403 963q95 0 157.5 61.5t62.5 155.5q0 96 -64 156.5t-156 60.5q-100 0 -163.5 -61t-63.5 -156q0 -97 65 -157t162 -60z" />
<glyph unicode="&#xb1;" horiz-adv-x="1218" d="M543 436v287h-330v131h330v287h133v-287h328v-131h-328v-287h-133zM1004 182h-791v140h791v-140z" />
<glyph unicode="&#xb2;" horiz-adv-x="794" d="M123 741v109q226 176 289 235q104 102 106 172q0 59 -35.5 94t-89.5 35q-59 0 -97 -38.5t-44 -112.5l-135 10q9 120 83.5 188t194.5 68q116 0 191.5 -66t75.5 -173q0 -39 -16 -78t-38.5 -71.5t-72 -79.5t-90 -81t-119.5 -98v-6l348 6v-113h-551z" />
<glyph unicode="&#xb3;" horiz-adv-x="794" d="M387 723q-122 0 -198.5 55.5t-82.5 171.5l130 8q8 -129 147 -129q62 0 101.5 32t39.5 89q0 61 -38.5 92t-98.5 31h-80v96h80q56 0 91.5 31t35.5 80q0 54 -35.5 83.5t-95.5 29.5q-128 0 -141 -123l-127 10q10 108 84.5 163.5t187.5 55.5q114 0 191 -57.5t77 -155.5 q0 -55 -36 -97t-87 -61v-6q57 -15 95.5 -60t38.5 -116q0 -101 -79.5 -162t-199.5 -61z" />
<glyph unicode="&#xb4;" horiz-adv-x="577" d="M152 1221l266 303h180l-266 -303h-180z" />
<glyph unicode="&#xb5;" horiz-adv-x="1191" d="M555 -8q-137 0 -221 78v-469h-174v786v2v688h182v-655q0 -128 61 -197t183 -69q118 0 198 86t80 192v643h183v-1077h-175v182q-4 -8 -11.5 -20.5t-36 -45.5t-61.5 -58t-89.5 -45.5t-118.5 -20.5z" />
<glyph unicode="&#xb6;" horiz-adv-x="1110" d="M424 -229v1013q-94 0 -169.5 30t-122 79t-72 112t-25.5 128.5t25.5 128.5t72 112t122 79t169.5 30h491v-1712h-131v1589h-229v-1589h-131z" />
<glyph unicode="&#xb7;" horiz-adv-x="536" d="M389 590h-242v229h242v-229z" />
<glyph unicode="&#xb8;" horiz-adv-x="583" d="M289 27h127l-76 -125q97 -9 148 -45.5t51 -108.5q0 -79 -72 -127.5t-201 -48.5q-47 0 -93 8t-69 16l-22 7l16 108q78 -28 160 -28q66 0 103.5 16.5t37.5 48.5q0 24 -14 37.5t-58.5 22t-125.5 8.5v57z" />
<glyph unicode="&#xb9;" horiz-adv-x="794" d="M371 741v539q-2 -3 -6 -7.5t-18 -16.5t-31 -21.5t-45 -17t-60 -7.5h-41v125h27q84 0 131 45t47 93v10h143v-742h-147z" />
<glyph unicode="&#xba;" horiz-adv-x="860" d="M430 723q-158 0 -259 108t-101 281q0 175 101 283t259 108t259.5 -108t101.5 -283q0 -173 -101.5 -281t-259.5 -108zM430 848q91 0 151 71.5t60 192.5q0 122 -60 194t-151 72t-152 -72t-61 -194q0 -121 61 -192.5t152 -71.5z" />
<glyph unicode="&#xbb;" horiz-adv-x="978" d="M893 678v-170l-373 -367l-16 193l270 256v8l-270 258l16 197zM496 678v-170l-373 -367l-17 193l269 256v8l-269 258l17 197z" />
<glyph unicode="&#xbc;" horiz-adv-x="1556" d="M328 741v539q-2 -3 -6 -7.5t-18 -16.5t-31 -21.5t-45 -17t-60 -7.5h-41v125h27q84 0 131 45t47 93v10h143v-742h-147zM156 -55l1007 1575h164l-1008 -1575h-163zM1194 0v162h-354v119l354 467h145v-478h107v-108h-107v-162h-145zM971 270h223v301z" />
<glyph unicode="&#xbd;" horiz-adv-x="1646" d="M328 741v539q-2 -3 -6 -7.5t-18 -16.5t-31 -21.5t-45 -17t-60 -7.5h-41v125h27q84 0 131 45t47 93v10h143v-742h-147zM156 -55l1007 1575h164l-1008 -1575h-163zM948 0v109q226 176 289 235q104 102 106 172q0 59 -35 94t-89 35q-59 0 -97.5 -38.5t-44.5 -112.5l-135 10 q9 120 84 188t195 68q116 0 191 -66.5t75 -173.5q0 -39 -16 -78t-38.5 -71t-72.5 -79.5t-89.5 -80.5t-119.5 -98v-7l348 7v-113h-551z" />
<glyph unicode="&#xbe;" horiz-adv-x="1720" d="M387 723q-122 0 -198.5 55.5t-82.5 171.5l130 8q8 -129 147 -129q62 0 101.5 32t39.5 89q0 61 -38.5 92t-98.5 31h-80v96h80q56 0 91.5 31t35.5 80q0 54 -35.5 83.5t-95.5 29.5q-128 0 -141 -123l-127 10q10 108 84.5 163.5t187.5 55.5q114 0 191 -57.5t77 -155.5 q0 -55 -36 -97t-87 -61v-6q57 -15 95.5 -60t38.5 -116q0 -101 -79.5 -162t-199.5 -61zM299 -55l1008 1575h163l-1007 -1575h-164zM1337 0v162h-354v119l354 467h146v-478h106v-108h-106v-162h-146zM1114 270h223v301z" />
<glyph unicode="&#xbf;" horiz-adv-x="1077" />
<glyph unicode="&#xc0;" horiz-adv-x="1417" d="M12 0l598 1483h197l598 -1483h-201l-182 465h-635l-182 -465h-193zM700 1255l-247 -624h503l-243 624h-13zM637 1585l-266 303h180l266 -303h-180z" />
<glyph unicode="&#xc1;" horiz-adv-x="1417" d="M12 0l598 1483h197l598 -1483h-201l-182 465h-635l-182 -465h-193zM700 1255l-247 -624h503l-243 624h-13zM592 1585l266 303h180l-266 -303h-180z" />
<glyph unicode="&#xc2;" horiz-adv-x="1417" d="M12 0l598 1483h197l598 -1483h-201l-182 465h-635l-182 -465h-193zM700 1255l-247 -624h503l-243 624h-13zM641 1901h115l297 -299h-185l-161 176h-9l-159 -176h-179z" />
<glyph unicode="&#xc3;" horiz-adv-x="1417" d="M12 0l598 1483h197l598 -1483h-201l-182 465h-635l-182 -465h-193zM700 1255l-247 -624h503l-243 624h-13zM846 1567q-51 0 -105 28t-99 56t-75 28q-73 0 -86 -114l-110 8q11 112 61 174.5t137 62.5q41 0 84.5 -17.5t73.5 -38.5t64 -38.5t57 -17.5q75 0 88 114l108 -8 q-12 -120 -60 -178.5t-138 -58.5z" />
<glyph unicode="&#xc4;" horiz-adv-x="1417" d="M12 0l598 1483h197l598 -1483h-201l-182 465h-635l-182 -465h-193zM700 1255l-247 -624h503l-243 624h-13zM584 1589h-183v230h183v-230zM1016 1589h-182v230h182v-230z" />
<glyph unicode="&#xc5;" horiz-adv-x="1417" d="M12 0l598 1483h197l598 -1483h-201l-182 465h-635l-182 -465h-193zM707 1544q-105 0 -173.5 63.5t-68.5 159.5q0 97 68.5 161.5t173.5 64.5q106 0 173.5 -64t67.5 -162q0 -96 -67.5 -159.5t-173.5 -63.5zM700 1255l-247 -624h503l-243 624h-13zM707 1632q61 0 101 38 t40 97q0 63 -40 100.5t-101 37.5t-102.5 -37.5t-41.5 -100.5q0 -59 42 -97t102 -38z" />
<glyph unicode="&#xc6;" horiz-adv-x="2211" d="M1155 0v455h-663l-275 -455h-201l893 1483h1196v-162h-757v-469h675v-156h-675v-532h761v-164h-954zM1018 1323l-432 -713h569v713h-137z" />
<glyph unicode="&#xc7;" horiz-adv-x="1509" d="M1411 496q-28 -198 -165.5 -340t-346.5 -172l-49 -82q97 -9 148 -45.5t51 -108.5q0 -79 -72 -127.5t-201 -48.5q-47 0 -93 8t-69 16l-22 7l16 108q78 -28 160 -28q66 0 103.5 16.5t37.5 48.5q0 24 -14 37.5t-58.5 22t-125.5 8.5v57l59 104q-137 4 -257.5 62t-208.5 156.5 t-138.5 240t-50.5 305.5q0 168 53 312t144.5 243t216.5 155t266 56q167 0 301.5 -70.5t213 -185.5t99.5 -256l-190 -14q-33 157 -147 254.5t-279 97.5q-96 0 -184 -43t-154.5 -119t-106 -188t-39.5 -242q0 -173 67.5 -309.5t177.5 -209t239 -72.5q167 0 282.5 99t145.5 261z " />
<glyph unicode="&#xc8;" d="M168 0v1483h1036v-170h-844v-455h764v-168h-764v-516h848v-174h-1040zM653 1585l-266 303h180l267 -303h-181z" />
<glyph unicode="&#xc9;" d="M168 0v1483h1036v-170h-844v-455h764v-168h-764v-516h848v-174h-1040zM547 1585l266 303h180l-266 -303h-180z" />
<glyph unicode="&#xca;" d="M168 0v1483h1036v-170h-844v-455h764v-168h-764v-516h848v-174h-1040zM621 1901h114l297 -299h-184l-162 176h-8l-160 -176h-178z" />
<glyph unicode="&#xcb;" d="M168 0v1483h1036v-170h-844v-455h764v-168h-764v-516h848v-174h-1040zM563 1630h-182v230h182v-230zM995 1630h-182v230h182v-230z" />
<glyph unicode="&#xcc;" horiz-adv-x="528" d="M168 0v1483h192v-1483h-192zM209 1585l-266 303h180l266 -303h-180z" />
<glyph unicode="&#xcd;" horiz-adv-x="528" d="M168 0v1483h192v-1483h-192zM139 1585l267 303h180l-267 -303h-180z" />
<glyph unicode="&#xce;" horiz-adv-x="528" d="M168 0v1483h192v-1483h-192zM199 1880h114l297 -299h-184l-162 176h-8l-160 -176h-178z" />
<glyph unicode="&#xcf;" horiz-adv-x="528" d="M168 0v1483h192v-1483h-192zM139 1626h-182v229h182v-229zM571 1626h-182v229h182v-229z" />
<glyph unicode="&#xd0;" horiz-adv-x="1536" d="M10 684v152h158v647h504q221 0 390.5 -89.5t264 -258t94.5 -392.5t-94.5 -393.5t-264 -259.5t-390.5 -90h-504v684h-158zM360 162h297q261 0 415.5 157t154.5 424q0 266 -154 422t-416 156h-297v-485h304v-152h-304v-522z" />
<glyph unicode="&#xd1;" horiz-adv-x="1533" d="M168 0v1483h211l782 -1188h8v1188h187v-1483h-211l-783 1188h-8v-1188h-186zM905 1608q-51 0 -104.5 28t-98.5 56t-75 28q-73 0 -86 -114l-111 8q11 112 61.5 174.5t137.5 62.5q52 0 106 -28t98.5 -56t73.5 -28q75 0 88 114l109 -8q-12 -120 -60.5 -178.5t-138.5 -58.5z " />
<glyph unicode="&#xd2;" horiz-adv-x="1611" d="M807 -25q-203 0 -361 98.5t-244.5 273t-86.5 394.5t86.5 394.5t244.5 273t361 98.5t360.5 -98.5t243.5 -273t86 -394.5t-86 -394.5t-243.5 -273t-360.5 -98.5zM807 150q221 0 358.5 165.5t137.5 425.5t-137.5 426t-358.5 166q-147 0 -261 -76t-175.5 -210.5t-61.5 -305.5 t61.5 -305t175.5 -210t261 -76zM788 1585l-266 303h180l267 -303h-181z" />
<glyph unicode="&#xd3;" horiz-adv-x="1611" d="M807 -25q-203 0 -361 98.5t-244.5 273t-86.5 394.5t86.5 394.5t244.5 273t361 98.5t360.5 -98.5t243.5 -273t86 -394.5t-86 -394.5t-243.5 -273t-360.5 -98.5zM807 150q221 0 358.5 165.5t137.5 425.5t-137.5 426t-358.5 166q-147 0 -261 -76t-175.5 -210.5t-61.5 -305.5 t61.5 -305t175.5 -210t261 -76zM641 1585l266 303h180l-266 -303h-180z" />
<glyph unicode="&#xd4;" horiz-adv-x="1611" d="M807 -25q-203 0 -361 98.5t-244.5 273t-86.5 394.5t86.5 394.5t244.5 273t361 98.5t360.5 -98.5t243.5 -273t86 -394.5t-86 -394.5t-243.5 -273t-360.5 -98.5zM807 150q221 0 358.5 165.5t137.5 425.5t-137.5 426t-358.5 166q-147 0 -261 -76t-175.5 -210.5t-61.5 -305.5 t61.5 -305t175.5 -210t261 -76zM739 1901h115l297 -299h-184l-162 176h-8l-160 -176h-178z" />
<glyph unicode="&#xd5;" horiz-adv-x="1611" d="M807 -25q-203 0 -361 98.5t-244.5 273t-86.5 394.5t86.5 394.5t244.5 273t361 98.5t360.5 -98.5t243.5 -273t86 -394.5t-86 -394.5t-243.5 -273t-360.5 -98.5zM807 150q221 0 358.5 165.5t137.5 425.5t-137.5 426t-358.5 166q-147 0 -261 -76t-175.5 -210.5t-61.5 -305.5 t61.5 -305t175.5 -210t261 -76zM940 1612q-51 0 -104.5 28t-98.5 56t-75 28q-74 0 -87 -114l-110 8q11 112 61.5 174.5t137.5 62.5q52 0 106 -28t98.5 -56t73.5 -28q75 0 88 115l109 -9q-12 -120 -60.5 -178.5t-138.5 -58.5z" />
<glyph unicode="&#xd6;" horiz-adv-x="1611" d="M807 -25q-203 0 -361 98.5t-244.5 273t-86.5 394.5t86.5 394.5t244.5 273t361 98.5t360.5 -98.5t243.5 -273t86 -394.5t-86 -394.5t-243.5 -273t-360.5 -98.5zM807 150q221 0 358.5 165.5t137.5 425.5t-137.5 426t-358.5 166q-147 0 -261 -76t-175.5 -210.5t-61.5 -305.5 t61.5 -305t175.5 -210t261 -76zM682 1630h-182v230h182v-230zM1114 1630h-182v230h182v-230z" />
<glyph unicode="&#xd7;" horiz-adv-x="1218" d="M174 279l330 331l-328 328l98 102l330 -327l332 334l108 -109l-331 -334l327 -328l-98 -98l-330 324l-331 -330z" />
<glyph unicode="&#xd8;" horiz-adv-x="1611" d="M397 -143l68 206q-164 95 -257 272.5t-93 405.5q0 220 86.5 394.5t244.5 273t361 98.5q67 0 129 -12l45 133h156l-58 -174q194 -84 306 -273t112 -440q0 -220 -86 -394.5t-243.5 -273t-360.5 -98.5q-97 0 -203 27l-47 -145h-160zM807 150q221 0 358.5 165.5t137.5 425.5 q0 186 -74.5 329.5t-204.5 211.5l-365 -1112q64 -20 148 -20zM309 741q0 -163 56.5 -292.5t158.5 -206.5l357 1085q-37 6 -74 6q-147 0 -261 -76t-175.5 -210.5t-61.5 -305.5z" />
<glyph unicode="&#xd9;" horiz-adv-x="1488" d="M741 -20q-283 0 -434 133t-151 391v979h192v-967q0 -190 98 -276t299 -86q198 0 298 86.5t100 275.5v967h188v-979q0 -256 -152.5 -390t-437.5 -134zM707 1561l-267 303h181l266 -303h-180z" />
<glyph unicode="&#xda;" horiz-adv-x="1488" d="M741 -20q-283 0 -434 133t-151 391v979h192v-967q0 -190 98 -276t299 -86q198 0 298 86.5t100 275.5v967h188v-979q0 -256 -152.5 -390t-437.5 -134zM600 1561l266 303h181l-267 -303h-180z" />
<glyph unicode="&#xdb;" horiz-adv-x="1488" d="M741 -20q-283 0 -434 133t-151 391v979h192v-967q0 -190 98 -276t299 -86q198 0 298 86.5t100 275.5v967h188v-979q0 -256 -152.5 -390t-437.5 -134zM678 1901h115l297 -299h-185l-162 176h-8l-160 -176h-178z" />
<glyph unicode="&#xdc;" horiz-adv-x="1488" d="M741 -20q-283 0 -434 133t-151 391v979h192v-967q0 -190 98 -276t299 -86q198 0 298 86.5t100 275.5v967h188v-979q0 -256 -152.5 -390t-437.5 -134zM621 1614h-183v229h183v-229zM1053 1614h-183v229h183v-229z" />
<glyph unicode="&#xdd;" horiz-adv-x="1327" d="M582 0v580l-590 903h213l469 -715h16l469 715h207l-590 -903v-580h-194zM543 1565l266 303h180l-266 -303h-180z" />
<glyph unicode="&#xde;" horiz-adv-x="1359" d="M168 0v1483h192v-201h396q229 0 371.5 -122t142.5 -333t-142 -334.5t-364 -123.5h-404v-369h-192zM360 528h381q153 0 244.5 77t91.5 220q0 141 -92.5 218t-243.5 77h-381v-592z" />
<glyph unicode="&#xdf;" horiz-adv-x="1265" d="M156 0v1104q0 133 62.5 232.5t165 149.5t228.5 50q186 0 311.5 -100.5t125.5 -257.5q0 -110 -51 -184.5t-128 -108.5v-8q42 -11 81 -29t80.5 -52.5t71 -79t49 -112.5t19.5 -149q0 -219 -130.5 -346t-344.5 -127q-44 0 -89 6t-68 12l-23 6l16 148q72 -21 148 -21 q143 0 226 87.5t83 244.5q0 163 -86.5 243t-249.5 80h-75v152h51q118 0 178.5 60t60.5 165q0 103 -69 161t-187 58q-123 0 -198.5 -76.5t-75.5 -211.5v-1096h-182z" />
<glyph unicode="&#xe0;" horiz-adv-x="1110" d="M446 -18q-159 0 -252.5 84t-93.5 223q0 127 81 207.5t218 111.5l396 90v43q0 109 -55.5 159t-170.5 50q-119 0 -184 -38t-82 -130l-170 17q20 150 137 224.5t308 74.5t294 -88t103 -244v-438q0 -206 20 -320v-8h-174q-14 77 -14 141v9h-8q-136 -168 -353 -168zM471 129 q54 0 110.5 19t104.5 52t78.5 84.5t30.5 110.5v154l-359 -80q-155 -36 -155 -176q0 -72 50.5 -118t139.5 -46zM537 1221l-267 303h181l266 -303h-180z" />
<glyph unicode="&#xe1;" horiz-adv-x="1110" d="M446 -18q-159 0 -252.5 84t-93.5 223q0 127 81 207.5t218 111.5l396 90v43q0 109 -55.5 159t-170.5 50q-119 0 -184 -38t-82 -130l-170 17q20 150 137 224.5t308 74.5t294 -88t103 -244v-438q0 -206 20 -320v-8h-174q-14 77 -14 141v9h-8q-136 -168 -353 -168zM471 129 q54 0 110.5 19t104.5 52t78.5 84.5t30.5 110.5v154l-359 -80q-155 -36 -155 -176q0 -72 50.5 -118t139.5 -46zM373 1221l266 303h180l-266 -303h-180z" />
<glyph unicode="&#xe2;" horiz-adv-x="1110" d="M446 -18q-159 0 -252.5 84t-93.5 223q0 127 81 207.5t218 111.5l396 90v43q0 109 -55.5 159t-170.5 50q-119 0 -184 -38t-82 -130l-170 17q20 150 137 224.5t308 74.5t294 -88t103 -244v-438q0 -206 20 -320v-8h-174q-14 77 -14 141v9h-8q-136 -168 -353 -168zM471 129 q54 0 110.5 19t104.5 52t78.5 84.5t30.5 110.5v154l-359 -80q-155 -36 -155 -176q0 -72 50.5 -118t139.5 -46zM496 1516h114l297 -299h-184l-162 176h-8l-160 -176h-178z" />
<glyph unicode="&#xe3;" horiz-adv-x="1110" d="M446 -18q-159 0 -252.5 84t-93.5 223q0 127 81 207.5t218 111.5l396 90v43q0 109 -55.5 159t-170.5 50q-119 0 -184 -38t-82 -130l-170 17q20 150 137 224.5t308 74.5t294 -88t103 -244v-438q0 -206 20 -320v-8h-174q-14 77 -14 141v9h-8q-136 -168 -353 -168zM471 129 q54 0 110.5 19t104.5 52t78.5 84.5t30.5 110.5v154l-359 -80q-155 -36 -155 -176q0 -72 50.5 -118t139.5 -46zM680 1264q-51 0 -105 28t-99 56t-75 28q-73 0 -86 -114l-110 8q11 112 61 174.5t137 62.5q41 0 84.5 -17.5t73.5 -38.5t64 -38.5t57 -17.5q75 0 88 114l109 -8 q-12 -120 -60.5 -178.5t-138.5 -58.5z" />
<glyph unicode="&#xe4;" horiz-adv-x="1110" d="M446 -18q-159 0 -252.5 84t-93.5 223q0 127 81 207.5t218 111.5l396 90v43q0 109 -55.5 159t-170.5 50q-119 0 -184 -38t-82 -130l-170 17q20 150 137 224.5t308 74.5t294 -88t103 -244v-438q0 -206 20 -320v-8h-174q-14 77 -14 141v9h-8q-136 -168 -353 -168zM471 129 q54 0 110.5 19t104.5 52t78.5 84.5t30.5 110.5v154l-359 -80q-155 -36 -155 -176q0 -72 50.5 -118t139.5 -46zM424 1270h-180v225h180v-225zM846 1270h-178v225h178v-225z" />
<glyph unicode="&#xe5;" horiz-adv-x="1110" d="M446 -18q-159 0 -252.5 84t-93.5 223q0 127 81 207.5t218 111.5l396 90v43q0 109 -55.5 159t-170.5 50q-119 0 -184 -38t-82 -130l-170 17q20 150 137 224.5t308 74.5t294 -88t103 -244v-438q0 -206 20 -320v-8h-174q-14 77 -14 141v9h-8q-136 -168 -353 -168zM471 129 q54 0 110.5 19t104.5 52t78.5 84.5t30.5 110.5v154l-359 -80q-155 -36 -155 -176q0 -72 50.5 -118t139.5 -46zM547 1155q-105 0 -173.5 63.5t-68.5 159.5q0 97 68.5 161.5t173.5 64.5q106 0 173.5 -64t67.5 -162q0 -96 -67.5 -159.5t-173.5 -63.5zM547 1243q61 0 101 38 t40 97q0 63 -40 100.5t-101 37.5t-102.5 -37.5t-41.5 -100.5q0 -59 42 -97t102 -38z" />
<glyph unicode="&#xe6;" horiz-adv-x="1824" d="M1286 -20q-139 0 -245 60.5t-167 170.5q-130 -229 -430 -229q-165 0 -257.5 84t-92.5 225q0 131 75 212t196 111q149 36 436 23v102q0 111 -60 161t-182 50q-236 0 -262 -168l-168 17q20 148 137 223.5t303 75.5q266 0 349 -174q132 174 360 174q138 0 242 -67 t157.5 -181.5t53.5 -259.5v-94h-756v-19q3 -158 88 -252t223 -94q102 0 166 55.5t92 132.5l172 -20q-16 -61 -51 -116t-87.5 -101.5t-128 -74t-163.5 -27.5zM799 416v49l2 -2q0 6 -1 18.5t-1 18.5q-258 14 -359 -11q-77 -20 -122.5 -68t-45.5 -120q0 -80 49.5 -128 t147.5 -48q129 0 229.5 86.5t100.5 204.5zM979 639h573v16q-6 134 -78.5 212.5t-195.5 78.5q-127 0 -207 -84t-92 -223z" />
<glyph unicode="&#xe7;" horiz-adv-x="1126" d="M514 -184v57l61 107q-129 6 -234.5 75.5t-168.5 196t-63 287.5q0 165 67 294t178.5 197t245.5 68q185 0 303.5 -100t140.5 -259l-176 -16q-21 101 -90.5 159t-175.5 58q-132 0 -221.5 -109.5t-89.5 -291.5q0 -183 89.5 -292.5t221.5 -109.5q107 0 177.5 62t92.5 170 l175 -17q-19 -141 -109 -237.5t-231 -124.5l-54 -88q97 -9 148 -45.5t51 -108.5q0 -79 -71.5 -127.5t-200.5 -48.5q-47 0 -93.5 8t-68.5 16l-23 7l17 108q77 -28 159 -28q66 0 104 16.5t38 48.5q0 23 -14 37t-59 22.5t-126 8.5z" />
<glyph unicode="&#xe8;" horiz-adv-x="1134" d="M588 -20q-218 0 -357 149.5t-139 407.5q0 250 139 405.5t353 155.5q211 0 341 -143t130 -367v-96h-781v-15q7 -158 97 -252t217 -94q192 0 270 188l174 -20q-16 -60 -52.5 -116t-90.5 -102t-132.5 -73.5t-168.5 -27.5zM281 639h593v8q0 125 -82 212t-208 87 q-124 0 -209 -88t-94 -219zM504 1221l-266 303h180l266 -303h-180z" />
<glyph unicode="&#xe9;" horiz-adv-x="1134" d="M588 -20q-218 0 -357 149.5t-139 407.5q0 250 139 405.5t353 155.5q211 0 341 -143t130 -367v-96h-781v-15q7 -158 97 -252t217 -94q192 0 270 188l174 -20q-16 -60 -52.5 -116t-90.5 -102t-132.5 -73.5t-168.5 -27.5zM281 639h593v8q0 125 -82 212t-208 87 q-124 0 -209 -88t-94 -219zM401 1221l267 303h180l-266 -303h-181z" />
<glyph unicode="&#xea;" horiz-adv-x="1134" d="M588 -20q-218 0 -357 149.5t-139 407.5q0 250 139 405.5t353 155.5q211 0 341 -143t130 -367v-96h-781v-15q7 -158 97 -252t217 -94q192 0 270 188l174 -20q-16 -60 -52.5 -116t-90.5 -102t-132.5 -73.5t-168.5 -27.5zM281 639h593v8q0 125 -82 212t-208 87 q-124 0 -209 -88t-94 -219zM492 1516h114l297 -299h-184l-162 176h-8l-160 -176h-178z" />
<glyph unicode="&#xeb;" horiz-adv-x="1134" d="M588 -20q-218 0 -357 149.5t-139 407.5q0 250 139 405.5t353 155.5q211 0 341 -143t130 -367v-96h-781v-15q7 -158 97 -252t217 -94q192 0 270 188l174 -20q-16 -60 -52.5 -116t-90.5 -102t-132.5 -73.5t-168.5 -27.5zM281 639h593v8q0 125 -82 212t-208 87 q-124 0 -209 -88t-94 -219zM453 1270h-181v225h181v-225zM874 1270h-178v225h178v-225z" />
<glyph unicode="&#xec;" horiz-adv-x="505" d="M162 0v1077h182v-1077h-182zM199 1221l-267 303h181l266 -303h-180z" />
<glyph unicode="&#xed;" horiz-adv-x="505" d="M162 0v1077h182v-1077h-182zM127 1221l266 303h180l-266 -303h-180z" />
<glyph unicode="&#xee;" horiz-adv-x="505" d="M162 0v1077h182v-1077h-182zM188 1516h115l297 -299h-184l-162 176h-8l-160 -176h-178z" />
<glyph unicode="&#xef;" horiz-adv-x="505" d="M162 0v1077h182v-1077h-182zM131 1270h-180v225h180v-225zM553 1270h-178v225h178v-225z" />
<glyph unicode="&#xf0;" horiz-adv-x="1214" d="M401 1206v113l203 41q-104 83 -233 162l184 10q108 -60 201 -141l274 55v-113l-178 -37q270 -298 270 -718q0 -143 -40 -258t-109.5 -188.5t-163 -112.5t-201.5 -39q-225 0 -370.5 154t-145.5 396q0 121 40 224.5t108 173.5t158.5 109.5t189.5 39.5q109 0 191.5 -44 t119.5 -101h8q-47 175 -205 336zM608 129q142 0 237 110.5t95 301.5q0 176 -97.5 282.5t-238.5 106.5q-140 0 -234 -109.5t-94 -290.5t94.5 -291t237.5 -110z" />
<glyph unicode="&#xf1;" horiz-adv-x="1183" d="M186 0v1077h174v-170q4 8 13 21t40 45.5t68 58t98 46t128 20.5q175 0 270.5 -117t95.5 -317v-664h-182v631q0 142 -56.5 222.5t-175.5 80.5t-204.5 -87t-85.5 -192v-655h-183zM729 1264q-51 0 -104.5 28t-98.5 56t-75 28q-73 0 -86 -114l-111 8q11 112 61.5 174.5 t137.5 62.5q52 0 106 -28t98.5 -56t73.5 -28q75 0 88 114l109 -8q-12 -120 -60.5 -178.5t-138.5 -58.5z" />
<glyph unicode="&#xf2;" horiz-adv-x="1163" d="M592 -20q-221 0 -360.5 153.5t-139.5 405.5q0 251 139.5 405t360.5 154q222 0 361 -154t139 -405q0 -252 -138.5 -405.5t-361.5 -153.5zM592 139q141 0 229 107t88 293q0 183 -88.5 291t-228.5 108t-229 -108t-89 -291q0 -185 88.5 -292.5t229.5 -107.5zM541 1221 l-267 303h181l266 -303h-180z" />
<glyph unicode="&#xf3;" horiz-adv-x="1163" d="M592 -20q-221 0 -360.5 153.5t-139.5 405.5q0 251 139.5 405t360.5 154q222 0 361 -154t139 -405q0 -252 -138.5 -405.5t-361.5 -153.5zM592 139q141 0 229 107t88 293q0 183 -88.5 291t-228.5 108t-229 -108t-89 -291q0 -185 88.5 -292.5t229.5 -107.5zM438 1221 l267 303h180l-267 -303h-180z" />
<glyph unicode="&#xf4;" horiz-adv-x="1163" d="M592 -20q-221 0 -360.5 153.5t-139.5 405.5q0 251 139.5 405t360.5 154q222 0 361 -154t139 -405q0 -252 -138.5 -405.5t-361.5 -153.5zM592 139q141 0 229 107t88 293q0 183 -88.5 291t-228.5 108t-229 -108t-89 -291q0 -185 88.5 -292.5t229.5 -107.5zM516 1516h115 l297 -299h-185l-161 176h-9l-159 -176h-178z" />
<glyph unicode="&#xf5;" horiz-adv-x="1163" d="M592 -20q-221 0 -360.5 153.5t-139.5 405.5q0 251 139.5 405t360.5 154q222 0 361 -154t139 -405q0 -252 -138.5 -405.5t-361.5 -153.5zM592 139q141 0 229 107t88 293q0 183 -88.5 291t-228.5 108t-229 -108t-89 -291q0 -185 88.5 -292.5t229.5 -107.5zM719 1268 q-51 0 -105 28t-99 56t-75 28q-73 0 -86 -114l-110 8q11 112 61 174.5t137 62.5q41 0 84.5 -17.5t73.5 -38.5t64 -38.5t57 -17.5q75 0 88 114l109 -8q-12 -120 -60.5 -178.5t-138.5 -58.5z" />
<glyph unicode="&#xf6;" horiz-adv-x="1163" d="M592 -20q-221 0 -360.5 153.5t-139.5 405.5q0 251 139.5 405t360.5 154q222 0 361 -154t139 -405q0 -252 -138.5 -405.5t-361.5 -153.5zM592 139q141 0 229 107t88 293q0 183 -88.5 291t-228.5 108t-229 -108t-89 -291q0 -185 88.5 -292.5t229.5 -107.5zM463 1270h-180 v225h180v-225zM885 1270h-178v225h178v-225z" />
<glyph unicode="&#xf7;" horiz-adv-x="1218" d="M612 125q-59 0 -94 32t-35 85t35 85.5t94 32.5q58 0 92.5 -32.5t34.5 -85.5t-34.5 -85t-92.5 -32zM1096 537h-971v143h971v-143zM612 862q-59 0 -94 32t-35 85t35 86t94 33q58 0 92.5 -33t34.5 -86t-34.5 -85t-92.5 -32z" />
<glyph unicode="&#xf8;" horiz-adv-x="1204" d="M297 -188l76 225q-122 67 -191 197.5t-69 304.5q0 251 139 405t360 154q52 0 109 -13l61 181h131l-73 -222q128 -64 200 -195.5t72 -309.5q0 -252 -138.5 -405.5t-361.5 -153.5q-68 0 -123 14l-59 -182h-133zM612 139q141 0 229.5 107.5t88.5 292.5q0 117 -38 205 t-106 139l-245 -736q31 -8 71 -8zM295 539q0 -233 131 -338l244 731q-27 6 -58 6q-140 0 -228.5 -108t-88.5 -291z" />
<glyph unicode="&#xf9;" horiz-adv-x="1183" d="M543 -20q-176 0 -271.5 117t-95.5 317v663h182v-631q0 -142 56.5 -222.5t175.5 -80.5t205 87t86 192v655h182v-1077h-174v170q-4 -8 -12.5 -20.5t-40 -45.5t-68 -58t-97.5 -45.5t-128 -20.5zM535 1221l-267 303h181l266 -303h-180z" />
<glyph unicode="&#xfa;" horiz-adv-x="1183" d="M543 -20q-176 0 -271.5 117t-95.5 317v663h182v-631q0 -142 56.5 -222.5t175.5 -80.5t205 87t86 192v655h182v-1077h-174v170q-4 -8 -12.5 -20.5t-40 -45.5t-68 -58t-97.5 -45.5t-128 -20.5zM461 1221l266 303h180l-266 -303h-180z" />
<glyph unicode="&#xfb;" horiz-adv-x="1183" d="M543 -20q-176 0 -271.5 117t-95.5 317v663h182v-631q0 -142 56.5 -222.5t175.5 -80.5t205 87t86 192v655h182v-1077h-174v170q-4 -8 -12.5 -20.5t-40 -45.5t-68 -58t-97.5 -45.5t-128 -20.5zM526 1516h115l297 -299h-184l-162 176h-8l-160 -176h-178z" />
<glyph unicode="&#xfc;" horiz-adv-x="1183" d="M543 -20q-176 0 -271.5 117t-95.5 317v663h182v-631q0 -142 56.5 -222.5t175.5 -80.5t205 87t86 192v655h182v-1077h-174v170q-4 -8 -12.5 -20.5t-40 -45.5t-68 -58t-97.5 -45.5t-128 -20.5zM469 1270h-180v225h180v-225zM891 1270h-178v225h178v-225z" />
<glyph unicode="&#xfd;" horiz-adv-x="1091" d="M313 -410q-69 0 -118 21l12 156q51 -17 90 -17q49 0 78.5 26t58.5 111l37 109l-405 1081h192l301 -841h8l301 841h185l-467 -1253q-28 -76 -60 -124.5t-68 -71.5t-68.5 -30.5t-76.5 -7.5zM420 1221l266 303h180l-266 -303h-180z" />
<glyph unicode="&#xfe;" horiz-adv-x="1230" d="M160 -401v1917h182v-572q5 6 15 16.5t43 37t69.5 47t92 37t112.5 16.5q202 0 332.5 -153.5t130.5 -409.5q0 -127 -38.5 -233t-103.5 -175.5t-150.5 -108t-180.5 -38.5q-57 0 -111 14.5t-90.5 35t-65 41.5t-41.5 35l-14 15v-522h-182zM627 125q147 0 237 110t90 300 q0 188 -91 298.5t-234 110.5q-47 0 -94 -15t-80 -36t-59.5 -42.5t-39.5 -36.5l-14 -15v-531q5 -6 13.5 -15.5t37.5 -34t60 -43.5t78.5 -34.5t95.5 -15.5z" />
<glyph unicode="&#xff;" horiz-adv-x="1091" d="M313 -410q-69 0 -118 21l12 156q51 -17 90 -17q49 0 78.5 26t58.5 111l37 109l-405 1081h192l301 -841h8l301 841h185l-467 -1253q-28 -76 -60 -124.5t-68 -71.5t-68.5 -30.5t-76.5 -7.5zM418 1270h-182v229h182v-229zM850 1270h-182v229h182v-229z" />
<glyph unicode="&#x131;" horiz-adv-x="485" d="M152 0v1077h182v-1077h-182z" />
<glyph unicode="&#x141;" horiz-adv-x="1212" d="M0 504v155l168 109v715h192v-588l220 143v-155l-220 -144v-563h787v-176h-979v612z" />
<glyph unicode="&#x142;" horiz-adv-x="548" d="M16 496v151l179 125v744h182v-617l155 109v-152l-155 -108v-748h-182v621z" />
<glyph unicode="&#x152;" horiz-adv-x="2340" d="M1223 0v160q-163 -178 -416 -178q-145 0 -272.5 55t-220 153t-146 241t-53.5 310t53.5 310t146 241t220 153.5t272.5 55.5q251 0 416 -180v162h1011v-162h-819v-469h737v-156h-737v-532h823v-164h-1015zM809 145q79 0 150.5 23.5t122.5 60.5t86.5 77t54.5 79v715 q-19 39 -54.5 78t-86.5 76t-122.5 60t-150.5 23q-103 0 -194.5 -42.5t-159 -119t-107 -189t-39.5 -245.5t39.5 -245.5t107 -189t159 -119t194.5 -42.5z" />
<glyph unicode="&#x153;" horiz-adv-x="1998" d="M1440 -20q-147 0 -255 64t-169 183q-62 -118 -169.5 -182.5t-246.5 -64.5q-221 0 -364.5 155t-143.5 404q0 248 144 403.5t364 155.5q138 0 246 -66t170 -186q61 120 168.5 186t245.5 66q213 0 344 -144t131 -364v-86h-793v-19q3 -159 94.5 -260.5t233.5 -101.5 q107 0 177 57t99 146l172 -17q-36 -141 -154 -235t-294 -94zM600 127q143 0 234.5 111.5t91.5 300.5q0 187 -92 298t-234 111q-141 0 -233.5 -111.5t-92.5 -297.5q0 -189 92 -300.5t234 -111.5zM1114 631h610v16q-6 134 -86.5 220.5t-207.5 86.5q-129 0 -215.5 -91.5 t-100.5 -231.5z" />
<glyph unicode="&#x160;" horiz-adv-x="1366" d="M676 -25q-247 0 -403 116t-171 331l185 16q35 -293 393 -293q164 0 269.5 77t105.5 192q0 94 -78 147.5t-229 91.5l-201 49q-94 23 -165.5 53.5t-129 76t-87.5 110t-30 145.5q0 113 73 210t198 153.5t270 56.5q227 0 382.5 -108.5t172.5 -302.5l-184 -17 q-19 133 -118.5 195.5t-256.5 62.5q-146 0 -245 -71.5t-99 -173.5q0 -47 21.5 -83.5t64 -62t87.5 -41.5t111 -33l203 -51q101 -26 176 -59t135 -80.5t90.5 -113.5t30.5 -150q0 -127 -75 -228.5t-205.5 -158t-290.5 -56.5zM750 1618h-136l-262 303h180l148 -188h8l148 188 h176z" />
<glyph unicode="&#x161;" horiz-adv-x="1052" d="M528 -20q-186 0 -296.5 81t-122.5 234l170 16q13 -94 76 -137t175 -43q108 0 179 48t71 124q0 29 -11.5 51.5t-28 37.5t-47 28.5t-56 21.5t-68.5 19l-110 28q-70 18 -123.5 40t-102 56.5t-74.5 85t-26 115.5q0 133 118 222.5t286 89.5q175 0 287 -77.5t124 -221.5 l-170 -17q-13 85 -78 124.5t-165 39.5q-92 0 -157 -46t-65 -109q0 -26 11.5 -46.5t26.5 -33.5t44.5 -26t51 -20t61.5 -18l108 -29q81 -22 139 -46t107 -60.5t74 -87.5t25 -117q0 -151 -123.5 -239t-309.5 -88zM596 1212h-135l-262 304h180l147 -189h9l147 189h176z" />
<glyph unicode="&#x178;" horiz-adv-x="1327" d="M582 0v580l-590 903h213l469 -715h16l469 715h207l-590 -903v-580h-194zM539 1577h-183v229h183v-229zM971 1577h-183v229h183v-229z" />
<glyph unicode="&#x17d;" horiz-adv-x="1333" d="M109 0v154l872 1155h-872v174h1110v-154l-873 -1155h873v-174h-1110zM758 1618h-144l-278 303h190l158 -188h8l156 188h186z" />
<glyph unicode="&#x17e;" horiz-adv-x="1062" d="M106 0v137l627 785h-627v155h852v-137l-624 -784h624v-156h-852zM592 1212h-135l-262 304h180l147 -189h8l148 189h176z" />
<glyph unicode="&#x192;" horiz-adv-x="714" d="M246 487v435h-187v149h187v170q0 64 19 114.5t50 82.5t74 52.5t87 29t93 8.5q81 0 168 -21l-12 -151q-80 16 -139 16q-78 0 -118 -36.5t-40 -118.5v-146h223v-149h-221v-435h-184zM156 -403q-78 0 -136 16l15 158q63 -11 98 -11q67 0 90 27t23 100v600h182v-624 q0 -130 -69 -198t-203 -68z" />
<glyph unicode="&#x2c6;" horiz-adv-x="880" d="M375 1536h114l297 -299h-184l-162 176h-8l-160 -176h-178z" />
<glyph unicode="&#x2c7;" horiz-adv-x="880" d="M502 1212h-135l-263 304h181l147 -189h8l148 189h176z" />
<glyph unicode="&#x2d8;" horiz-adv-x="835" d="M418 1221q-316 0 -316 254v41h148v-33q0 -73 37.5 -102t130.5 -29t130.5 29t37.5 102v33h147v-41q0 -254 -315 -254z" />
<glyph unicode="&#x2d9;" horiz-adv-x="512" d="M360 1286h-206v230h206v-230z" />
<glyph unicode="&#x2da;" horiz-adv-x="659" d="M330 1155q-105 0 -173.5 63.5t-68.5 159.5q0 97 68.5 161.5t173.5 64.5q106 0 173.5 -64t67.5 -162q0 -96 -67.5 -159.5t-173.5 -63.5zM330 1243q61 0 101 38t40 97q0 63 -40 100.5t-101 37.5t-102.5 -37.5t-41.5 -100.5q0 -59 42 -97t102 -38z" />
<glyph unicode="&#x2db;" horiz-adv-x="585" d="M215 -236q0 -71 121 -71q36 0 79.5 7.5t68.5 15.5l26 8l4 -123q-96 -33 -186 -33q-130 0 -197.5 50t-67.5 130q0 49 27.5 93t67 72t78.5 48.5t66 29.5l28 9h202q-10 -3 -39 -14t-78.5 -34.5t-92.5 -50.5t-75 -64t-32 -73z" />
<glyph unicode="&#x2dc;" horiz-adv-x="782" d="M530 1305q-51 0 -104.5 28t-98.5 56t-75 28q-73 0 -86 -114l-111 8q11 112 61.5 174.5t137.5 62.5q52 0 106 -28t98.5 -56t73.5 -28q76 0 89 114l108 -8q-12 -120 -60.5 -178.5t-138.5 -58.5z" />
<glyph unicode="&#x2dd;" horiz-adv-x="1056" d="M119 1282l260 352h160l-260 -352h-160zM500 1282l260 352h160l-261 -352h-159z" />
<glyph unicode="&#x3c0;" horiz-adv-x="1351" d="M258 0q3 8 8 25t18 80.5t22.5 139.5t17.5 206t8 276v197h-176l-21 153h1094v-153h-176v-197q0 -232 18.5 -413.5t36.5 -247.5l18 -66h-182q-3 8 -8 25t-18 80.5t-22.5 139.5t-17.5 206t-8 276v197h-356v-197q0 -146 -7.5 -274.5t-18.5 -208t-22 -138t-18 -82.5l-8 -24 h-182z" />
<glyph unicode="&#x401;" horiz-adv-x="1302" d="M164 0v1483h1036v-170h-844v-455h764v-168h-764v-516h848v-174h-1040zM555 1614h-182v229h182v-229zM987 1614h-182v229h182v-229z" />
<glyph unicode="&#x410;" horiz-adv-x="1425" d="M16 0l598 1483h197l598 -1483h-201l-182 465h-635l-182 -465h-193zM705 1255l-248 -624h504l-244 624h-12z" />
<glyph unicode="&#x411;" horiz-adv-x="1351" d="M356 1309v-416h385q231 0 376 -124t145 -323t-145 -322.5t-376 -123.5h-577v1483h192h795v-174h-795zM356 170h381q151 0 241.5 72t90.5 204t-90.5 204.5t-241.5 72.5h-381v-553z" />
<glyph unicode="&#x412;" horiz-adv-x="1388" d="M164 0v1483h631q184 0 306 -104.5t122 -274.5q0 -119 -62 -202t-155 -118v-8q48 -14 92.5 -42t84 -71t63.5 -106.5t24 -138.5q0 -191 -132 -304.5t-331 -113.5h-643zM356 164h424q132 0 214.5 68.5t82.5 193.5t-82.5 193.5t-214.5 68.5h-424v-524zM356 848h414 q122 0 193 62.5t71 172.5q0 114 -70.5 175t-193.5 61h-414v-471z" />
<glyph unicode="&#x413;" horiz-adv-x="1204" d="M164 0v1483h979v-176h-787v-1307h-192z" />
<glyph unicode="&#x414;" horiz-adv-x="1642" d="M66 -381v553h118q77 90 120.5 197t66 279.5t22.5 436.5v398h959v-1311h192v-553h-184v381h-1110v-381h-184zM377 172h782v1139h-586v-234q0 -254 -25.5 -433.5t-65.5 -281t-105 -190.5z" />
<glyph unicode="&#x415;" horiz-adv-x="1302" d="M164 0v1483h1036v-170h-844v-455h764v-168h-764v-516h848v-174h-1040z" />
<glyph unicode="&#x416;" horiz-adv-x="2088" d="M1827 0l-373 553q-54 79 -111.5 108t-156.5 29h-45v-690h-193v690h-45q-99 0 -156.5 -29t-111.5 -108l-373 -553h-221l418 618q69 104 172 154q-101 48 -158 152l-174 315q-34 62 -72.5 76.5t-115.5 -6.5l-13 168q66 17 117 17t94 -23.5t75 -58.5t62 -89l172 -315 q42 -77 103.5 -110.5t159.5 -33.5h67v619h193v-619h67q97 0 158.5 33t103.5 111l172 315q30 54 62.5 89.5t75.5 58t94 23t117 -16.5l-13 -168q-77 21 -115.5 6.5t-72.5 -76.5l-174 -315q-60 -106 -158 -152q99 -48 172 -154l418 -618h-221z" />
<glyph unicode="&#x417;" horiz-adv-x="1355" d="M664 -25q-157 0 -279 47t-198.5 142.5t-90.5 228.5l180 21q13 -95 68.5 -157t136 -88t187.5 -26q165 0 270.5 76.5t105.5 198.5q0 132 -99.5 203t-276.5 71h-156v164h156q169 0 264.5 64t95.5 178q0 109 -98.5 175t-261.5 66q-155 0 -253.5 -67t-125.5 -178l-180 20 q30 171 180.5 282t374.5 111q244 0 400.5 -115t156.5 -290q0 -213 -250 -320v-8q270 -98 270 -360q0 -193 -162 -316t-415 -123z" />
<glyph unicode="&#x418;" horiz-adv-x="1515" d="M1352 1483v-1483h-193v1182h-8l-786 -1182h-201v1483h192v-1182h9l786 1182h201z" />
<glyph unicode="&#x419;" horiz-adv-x="1515" d="M1352 1483v-1483h-193v1182h-8l-786 -1182h-201v1483h192v-1182h9l786 1182h201zM750 1532q-322 0 -322 258v43h150v-35q0 -73 39 -103t133 -30t133 30t39 103v35h149v-43q0 -258 -321 -258z" />
<glyph unicode="&#x41a;" horiz-adv-x="1343" d="M1073 0l-391 555q-55 76 -113 105.5t-155 29.5h-58v-690h-192v1483h192v-619h80q106 0 167 33.5t108 118.5l172 307q67 119 142.5 153t211.5 -1l-12 -168q-83 22 -119 9t-74 -79l-174 -307q-59 -106 -178 -158q111 -51 192 -164l431 -608h-230z" />
<glyph unicode="&#x41b;" horiz-adv-x="1511" d="M86 4l12 170q36 -12 70 -12q127 0 188.5 259t61.5 720v342h930v-1483h-193v1309h-553v-185q0 -163 -7.5 -299.5t-25 -269t-49 -233t-76.5 -178.5t-111 -119t-149 -41q-58 0 -98 20z" />
<glyph unicode="&#x41c;" horiz-adv-x="1859" d="M164 0v1483h272l492 -1204h8l494 1204h266v-1483h-193v1208h-8l-494 -1208h-147l-494 1208h-8v-1208h-188z" />
<glyph unicode="&#x41d;" horiz-adv-x="1499" d="M164 0v1483h192v-619h787v619h192v-1483h-192v690h-787v-690h-192z" />
<glyph unicode="&#x41e;" horiz-adv-x="1603" d="M803 -25q-203 0 -361 98.5t-244.5 273t-86.5 394.5t86.5 394.5t244.5 273t361 98.5t360.5 -98.5t243.5 -273t86 -394.5t-86 -394.5t-243.5 -273t-360.5 -98.5zM803 150q221 0 358 165.5t137 425.5t-137 426t-358 166q-147 0 -261 -76t-175.5 -210.5t-61.5 -305.5 t61.5 -305t175.5 -210t261 -76z" />
<glyph unicode="&#x41f;" horiz-adv-x="1499" d="M164 0v1483h1171v-1483h-192v1309h-787v-1309h-192z" />
<glyph unicode="&#x420;" horiz-adv-x="1351" d="M164 0v1483h577q233 0 381 -125.5t148 -335.5t-148 -335.5t-381 -125.5h-385v-561h-192zM356 731h381q154 0 247 74t93 217t-93 217t-247 74h-381v-582z" />
<glyph unicode="&#x421;" horiz-adv-x="1501" d="M791 -25q-141 0 -266 56t-216.5 155t-144.5 243t-53 312t53 312t144.5 243t216.5 155t266 56q167 0 301.5 -70.5t213 -185.5t99.5 -256l-191 -14q-33 157 -147 254.5t-279 97.5q-96 0 -184 -43t-154 -119t-105.5 -188t-39.5 -242t39 -242t105.5 -187.5t154.5 -118.5 t184 -43q167 0 283 99t146 261l190 -14q-15 -109 -65.5 -203.5t-128.5 -165.5t-187 -111.5t-235 -40.5z" />
<glyph unicode="&#x422;" horiz-adv-x="1304" d="M557 0v1309h-500v174h1190v-174h-497v-1309h-193z" />
<glyph unicode="&#x423;" horiz-adv-x="1306" d="M252 12l20 164q57 -20 105 -20q56 0 85.5 26t65.5 99l25 51l-543 1151h209l434 -938h9l434 938h200l-604 -1272q-57 -119 -126 -173t-173 -54q-71 0 -141 28z" />
<glyph unicode="&#x424;" horiz-adv-x="1843" d="M827 -115v197h-49q-137 0 -252.5 35t-197.5 96.5t-140 145t-86 180.5t-28 202t28 202.5t86 181.5t140 146.5t198 98t252 35.5h49v197h191v-197h49q170 0 306.5 -54.5t222 -147.5t131 -211t45.5 -251q0 -105 -28 -202t-86 -180.5t-140.5 -145t-198 -96.5t-252.5 -35h-49 v-197h-191zM782 250h45v987h-45q-133 0 -235.5 -41.5t-162.5 -112.5t-90 -157.5t-30 -184.5t30 -183.5t90 -156t162.5 -111t235.5 -40.5zM1018 250h45q133 0 235.5 40.5t162.5 111t90 156t30 183.5t-30 184.5t-90 157.5t-162.5 112.5t-235.5 41.5h-45v-987z" />
<glyph unicode="&#x425;" horiz-adv-x="1308" d="M23 0l505 762l-491 721h221l399 -596l398 596h215l-492 -721l506 -762h-219l-416 633l-413 -633h-213z" />
<glyph unicode="&#x426;" horiz-adv-x="1609" d="M1335 1483v-1309h176v-555h-184v381h-1163v1483h192v-1309h787v1309h192z" />
<glyph unicode="&#x427;" horiz-adv-x="1458" d="M1102 0v651q-4 -5 -12.5 -13.5t-42.5 -30t-78 -38t-123.5 -30t-173.5 -13.5q-143 0 -243 29t-159.5 88t-86.5 140.5t-27 193.5v506h192v-465q0 -184 77 -251t280 -67q397 0 397 215v568h192v-1483h-192z" />
<glyph unicode="&#x428;" horiz-adv-x="1994" d="M901 172v1311h193v-1311h544v1311h193v-1483h-1667v1483h192v-1311h545z" />
<glyph unicode="&#x429;" horiz-adv-x="2097" d="M164 0v1483h192v-1311h545v1311h193v-1311h544v1311h193v-1309h168v-555h-184v381h-1651z" />
<glyph unicode="&#x42a;" horiz-adv-x="1523" d="M360 0v1309h-323v174h323h193v-561h365q233 0 378.5 -128t145.5 -333t-145.5 -333t-378.5 -128h-558zM553 170h360q151 0 243.5 77t92.5 214t-92.5 214t-243.5 77h-360v-582z" />
<glyph unicode="&#x42b;" horiz-adv-x="1839" d="M164 0v1483h192v-570h344q234 0 383.5 -127.5t149.5 -332.5q0 -204 -149 -328.5t-384 -124.5h-536zM356 170h340q153 0 248.5 75.5t95.5 211.5t-95.5 211t-248.5 75h-340v-573zM1483 0v1483h192v-1483h-192z" />
<glyph unicode="&#x42c;" horiz-adv-x="1327" d="M164 0v1483h192v-561h365q233 0 378.5 -128t145.5 -333t-145.5 -333t-378.5 -128h-557zM356 170h361q151 0 243.5 77t92.5 214t-92.5 214t-243.5 77h-361v-582z" />
<glyph unicode="&#x42d;" horiz-adv-x="1492" d="M457 686v166h725q-29 219 -161.5 352t-315.5 133q-163 0 -276 -90t-144 -225l-191 18q17 91 67 174.5t126 149t184 104.5t231 39q194 0 349 -95.5t243 -270.5t88 -400t-88 -400t-243 -270.5t-349 -95.5q-123 0 -231 39.5t-183.5 104.5t-125 146.5t-66.5 168.5l191 19 q34 -131 145.5 -219.5t272.5 -88.5q194 0 330 149.5t153 391.5h-731z" />
<glyph unicode="&#x42e;" horiz-adv-x="2045" d="M164 0v1483h192v-631h287q31 292 206 473.5t437 181.5q190 0 337.5 -98.5t227.5 -272.5t80 -395t-80 -395t-227.5 -272.5t-337.5 -98.5q-183 0 -327 91t-227 252t-93 368h-283v-686h-192zM1286 150q134 0 237.5 76t159.5 210t56 305q0 260 -125.5 426t-327.5 166 q-204 0 -329.5 -166t-125.5 -426t125.5 -425.5t329.5 -165.5z" />
<glyph unicode="&#x42f;" horiz-adv-x="1458" d="M33 0l375 494q74 99 184 157q-171 31 -279 134t-108 264q0 189 142.5 311.5t371.5 122.5h575v-1483h-192v618h-176q-113 0 -181.5 -33t-134.5 -120l-352 -465h-225zM764 782h338v533h-371q-156 0 -245 -73.5t-89 -192.5q0 -120 96 -193.5t271 -73.5z" />
<glyph unicode="&#x430;" horiz-adv-x="1105" d="M438 -18q-159 0 -252.5 84t-93.5 223q0 127 81 207.5t218 111.5l395 90v43q0 109 -55 159t-170 50q-119 0 -184 -38t-82 -130l-170 17q20 150 137 224.5t307 74.5q191 0 294.5 -88t103.5 -244v-438q0 -206 20 -320v-8h-174q-14 77 -14 141v9h-8q-136 -168 -353 -168z M463 129q73 0 146 31.5t125 94t52 140.5v154l-358 -80q-156 -36 -156 -176q0 -72 51 -118t140 -46z" />
<glyph unicode="&#x431;" horiz-adv-x="1196" d="M610 -20q-111 0 -201 39t-157 116t-104 201.5t-37 286.5q0 209 40 367.5t114 257.5t173 151t224 59q62 3 93 5t60.5 7.5t39.5 9t19.5 16.5t11 22.5t3.5 33.5l151 -12q-1 -40 -7.5 -71t-20.5 -54t-28.5 -39.5t-42 -28t-49.5 -18.5t-62.5 -11.5t-70.5 -6.5t-83 -4 q-173 -7 -267.5 -112.5t-115.5 -293.5h4q53 77 139.5 128.5t210.5 51.5q204 0 331.5 -151.5t127.5 -401.5q0 -245 -138.5 -396.5t-357.5 -151.5zM610 139q138 0 226 105.5t88 283.5q0 187 -82.5 294.5t-223.5 107.5q-137 0 -231 -92.5t-94 -210.5v-90q0 -178 91 -288 t226 -110z" />
<glyph unicode="&#x432;" horiz-adv-x="1155" d="M147 0v1077h515q151 0 251.5 -76t100.5 -204q0 -79 -41 -138.5t-103 -89.5v-4q179 -79 179 -252q0 -146 -102.5 -229.5t-264.5 -83.5h-535zM328 152h334q94 0 150 43.5t56 121.5q0 81 -55.5 123.5t-150.5 42.5h-334v-331zM328 635h323q85 0 136 39.5t51 105.5 q0 67 -51 106.5t-136 39.5h-323v-291z" />
<glyph unicode="&#x433;" horiz-adv-x="929" d="M147 0v1077h725v-164h-542v-913h-183z" />
<glyph unicode="&#x434;" horiz-adv-x="1310" d="M61 -330v486h95q82 89 126 232t44 370v319h743v-921h160v-486h-172v330h-824v-330h-172zM340 156h549v766h-391v-172q0 -390 -158 -594z" />
<glyph unicode="&#x435;" horiz-adv-x="1134" d="M578 -20q-218 0 -357 149.5t-139 407.5q0 251 139 406t352 155q211 0 341 -143t130 -367v-96h-780v-15q7 -158 97 -252t217 -94q192 0 270 188l174 -20q-16 -60 -52.5 -116t-90.5 -102t-132.5 -73.5t-168.5 -27.5zM270 639h594v8q0 125 -82.5 212t-208.5 87 q-124 0 -209 -88t-94 -219z" />
<glyph unicode="&#x436;" horiz-adv-x="1581" d="M1335 0l-254 397q-32 51 -73 73t-105 22h-22v-492h-181v492h-22q-64 0 -105 -22t-73 -73l-254 -397h-205l289 451q44 70 127 112q-86 41 -125 117l-99 188q-24 44 -53.5 53.5t-85.5 -3.5l-12 155q111 27 177 -3.5t116 -127.5l96 -188q31 -58 70 -80.5t108 -22.5h51v426 h181v-426h51q69 0 108 22.5t70 80.5l96 188q50 97 116 127.5t177 3.5l-12 -155q-56 13 -85.5 3.5t-53.5 -53.5l-99 -188q-43 -78 -125 -117q84 -45 127 -112l289 -451h-205z" />
<glyph unicode="&#x437;" horiz-adv-x="1060" d="M520 -20q-189 0 -307 78.5t-131 232.5l168 16q25 -180 272 -180q111 0 180.5 49.5t69.5 124.5q0 172 -250 172h-114v148h114q123 0 176.5 46t53.5 119q0 69 -63.5 116.5t-166.5 47.5q-215 0 -256 -170l-168 17q26 147 137.5 224t284.5 77q184 0 299 -87t115 -216 q0 -85 -51 -149.5t-119 -90.5v-4q75 -25 132.5 -88.5t57.5 -165.5q0 -139 -123 -228t-311 -89z" />
<glyph unicode="&#x438;" horiz-adv-x="1198" d="M1051 1077v-1077h-179v795h-8l-538 -795h-179v1077h179v-794h8l538 794h179z" />
<glyph unicode="&#x439;" horiz-adv-x="1198" d="M1051 1077v-1077h-179v795h-8l-538 -795h-179v1077h179v-794h8l538 794h179zM594 1221q-303 0 -303 254v41h141v-33q0 -73 36 -102t126 -29q89 0 125.5 29t36.5 102v33h141v-41q0 -254 -303 -254z" />
<glyph unicode="&#x43a;" horiz-adv-x="1044" d="M801 0l-264 393q-37 55 -76.5 77t-104.5 22h-26v-492h-183v1077h183v-426h57q62 0 102 24.5t70 78.5l105 190q27 49 52.5 78t61 48t77.5 17.5t103 -14.5l-12 -155q-60 15 -87.5 5.5t-53.5 -55.5l-107 -190q-44 -75 -125 -113q80 -42 140 -127l295 -438h-207z" />
<glyph unicode="&#x43b;" horiz-adv-x="1191" d="M51 4l12 160q40 -17 68 -17q52 0 89.5 54.5t58.5 151.5t30.5 213t9.5 257v254h725v-1077h-182v918h-366v-107q0 -827 -336 -827q-61 0 -109 20z" />
<glyph unicode="&#x43c;" horiz-adv-x="1474" d="M152 0v1077h243l338 -833h12l338 833h240v-1077h-180v831h-8l-334 -831h-131l-334 831h-8v-831h-176z" />
<glyph unicode="&#x43d;" horiz-adv-x="1189" d="M147 0v1077h183v-426h530v426h182v-1077h-182v492h-530v-492h-183z" />
<glyph unicode="&#x43e;" horiz-adv-x="1163" d="M582 -20q-221 0 -360.5 153.5t-139.5 405.5q0 251 139.5 405t360.5 154q222 0 360.5 -154t138.5 -405q0 -252 -138.5 -405.5t-360.5 -153.5zM582 139q141 0 229 107t88 293q0 183 -88.5 291t-228.5 108t-229 -108t-89 -291q0 -185 88.5 -292.5t229.5 -107.5z" />
<glyph unicode="&#x43f;" horiz-adv-x="1189" d="M147 0v1077h895v-1077h-182v918h-530v-918h-183z" />
<glyph unicode="&#x440;" horiz-adv-x="1202" d="M152 -401v1478h174v-151q4 7 12.5 18.5t38 41t64.5 52.5t92.5 41.5t121.5 18.5q96 0 180 -39t146.5 -110t98.5 -177.5t36 -234.5q0 -127 -38.5 -234t-103.5 -176.5t-149.5 -108t-177.5 -38.5q-62 0 -117 15t-89 36t-59.5 42.5t-36.5 36.5l-11 15v-526h-182zM618 137 q143 0 229.5 107.5t86.5 292.5q0 184 -85.5 291.5t-225.5 107.5q-119 0 -204 -90t-85 -199v-237q0 -110 77.5 -191.5t206.5 -81.5z" />
<glyph unicode="&#x441;" horiz-adv-x="1093" d="M573 -20q-134 0 -245.5 68t-178.5 197t-67 294t67 294t178.5 197t245.5 68q185 0 304 -100t141 -259l-176 -16q-20 101 -90.5 159t-176.5 58q-132 0 -221.5 -109.5t-89.5 -291.5q0 -183 89.5 -292.5t221.5 -109.5q107 0 178 62t93 170l174 -17q-22 -168 -142.5 -270 t-304.5 -102z" />
<glyph unicode="&#x442;" horiz-adv-x="987" d="M403 0v913h-362v164h905v-164h-362v-913h-181z" />
<glyph unicode="&#x443;" horiz-adv-x="1056" d="M289 -410q-70 0 -119 21l12 156q51 -17 90 -17q49 0 79 26t59 111l36 109l-405 1081h192l302 -841h8l301 841h184l-467 -1253q-28 -76 -59.5 -124.5t-67.5 -71.5t-68.5 -30.5t-76.5 -7.5z" />
<glyph unicode="&#x444;" horiz-adv-x="1660" d="M506 -4q-185 0 -302.5 147t-117.5 396q0 248 121 395t307 147q45 0 85 -11.5t64.5 -27.5t43 -32t26.5 -28l8 -11v499h179v-507q3 5 9.5 13t29 28t47.5 35.5t65.5 28.5t83.5 13q185 0 302.5 -146.5t117.5 -395.5q0 -248 -121 -395.5t-307 -147.5q-43 0 -82.5 11.5 t-64.5 27.5t-44 32t-28 27l-8 12v-499h-179v508q-3 -5 -9.5 -13t-29 -28.5t-47.5 -36t-65.5 -28.5t-83.5 -13zM530 154q91 0 151 55.5t60 144.5v369q0 92 -54 146.5t-152 54.5q-126 0 -198.5 -102t-72.5 -283q0 -180 71.5 -282.5t194.5 -102.5zM1126 154q126 0 198.5 102 t72.5 283q0 179 -72 282t-195 103q-91 0 -150.5 -55.5t-59.5 -145.5v-369q0 -92 54 -146t152 -54z" />
<glyph unicode="&#x445;" horiz-adv-x="1046" d="M49 0l357 549l-355 528h207l270 -407l269 407h200l-354 -528l356 -549h-204l-275 424l-272 -424h-199z" />
<glyph unicode="&#x446;" horiz-adv-x="1271" d="M1042 1077v-923h156v-486h-168v332h-883v1077h183v-917h530v917h182z" />
<glyph unicode="&#x447;" horiz-adv-x="1144" d="M815 0v453q-4 -3 -11 -8.5t-32.5 -20t-56.5 -25t-82.5 -19.5t-108.5 -9q-210 0 -304.5 78t-94.5 260v368h182v-332q0 -69 13 -111t46 -65.5t77 -31t118 -7.5q126 0 190 33.5t64 106.5v407h182v-1077h-182z" />
<glyph unicode="&#x448;" horiz-adv-x="1693" d="M756 156v921h182v-921h426v921h182v-1077h-1399v1077h183v-921h426z" />
<glyph unicode="&#x449;" horiz-adv-x="1767" d="M147 0v1077h183v-921h426v921h182v-921h426v921h182v-923h148v-486h-168v332h-1379z" />
<glyph unicode="&#x44a;" horiz-adv-x="1236" d="M291 0v918h-254v159h254h182v-397h272q180 0 289 -94t109 -246t-109 -246t-289 -94h-454zM473 152h268q102 0 162 53t60 135t-60 135t-162 53h-268v-376z" />
<glyph unicode="&#x44b;" horiz-adv-x="1503" d="M147 0v1077h183v-397h256q179 0 288 -95t109 -245t-109 -245t-288 -95h-439zM330 152h252q101 0 161 54.5t60 133.5t-60 133.5t-161 54.5h-252v-376zM1174 0v1077h182v-1077h-182z" />
<glyph unicode="&#x44c;" horiz-adv-x="1093" d="M147 0v1077h183v-397h272q180 0 288.5 -94t108.5 -246t-108.5 -246t-288.5 -94h-455zM330 152h268q102 0 161.5 53t59.5 135t-59.5 135t-161.5 53h-268v-376z" />
<glyph unicode="&#x44d;" horiz-adv-x="1105" d="M391 487v152h445q-23 148 -105 226.5t-196 78.5q-106 0 -181.5 -54.5t-105.5 -146.5l-166 21q42 153 156.5 243.5t296.5 90.5q101 0 189.5 -38t155.5 -107.5t105.5 -176.5t38.5 -237t-38.5 -237t-105.5 -176.5t-155.5 -107.5t-189.5 -38q-181 0 -302 95t-159 253l166 20 q29 -99 108 -157t187 -58q125 0 210 91.5t97 262.5h-451z" />
<glyph unicode="&#x44e;" horiz-adv-x="1572" d="M147 0v1077h183v-438h229q26 210 152.5 334.5t314.5 124.5q212 0 342.5 -153.5t130.5 -405.5q0 -253 -130 -406t-343 -153q-200 0 -330 138t-143 369h-223v-487h-183zM1026 139q126 0 210.5 109t84.5 291q0 179 -84.5 289t-210.5 110t-210.5 -110t-84.5 -289 q0 -182 84.5 -291t210.5 -109z" />
<glyph unicode="&#x44f;" horiz-adv-x="1146" d="M37 0l266 352q53 71 131 123q-122 26 -197 96t-75 191q0 148 108 231.5t285 83.5h444v-1077h-182v442h-98q-71 0 -123 -27t-98 -87l-248 -328h-213zM588 590h229v336h-254q-101 0 -161 -46.5t-60 -121.5t65 -121.5t181 -46.5z" />
<glyph unicode="&#x451;" horiz-adv-x="1134" d="M578 -20q-218 0 -357 149.5t-139 407.5q0 251 139 406t352 155q211 0 341 -143t130 -367v-96h-780v-15q7 -158 97 -252t217 -94q192 0 270 188l174 -20q-16 -60 -52.5 -116t-90.5 -102t-132.5 -73.5t-168.5 -27.5zM270 639h594v8q0 125 -82.5 212t-208.5 87 q-124 0 -209 -88t-94 -219zM449 1253h-183v230h183v-230zM881 1253h-183v230h183v-230z" />
<glyph unicode="&#x490;" horiz-adv-x="1204" d="M987 1483v262h156v-262h-156zM164 1483v-1483h192v1307h787v176h-979z" />
<glyph unicode="&#x491;" horiz-adv-x="937" d="M719 1077v285h170v-285h-170zM147 0v1077h725v-164h-542v-913h-183z" />
<glyph unicode="&#x1e9e;" horiz-adv-x="1568" d="M156 0v1016q0 160 76 272t203 164.5t294 52.5q85 0 163.5 -17t132 -41t99.5 -54.5t69 -53t38 -41.5v-8l-217 -360v-8q69 -10 131.5 -30t122 -56.5t102.5 -85t69.5 -120t26.5 -157.5q0 -124 -46.5 -220.5t-127 -155.5t-183.5 -89.5t-222 -30.5q-87 0 -170 14t-123 28 l-39 14l23 157q16 -6 43.5 -15t107 -23.5t150.5 -14.5q172 0 282.5 88t110.5 248q0 156 -112 233.5t-341 88.5v131l199 336q-18 15 -48.5 33t-98.5 37.5t-142 19.5q-173 0 -276 -89.5t-103 -254.5v-1008h-194z" />
<glyph unicode="&#x2000;" horiz-adv-x="996" />
<glyph unicode="&#x2001;" horiz-adv-x="1993" />
<glyph unicode="&#x2002;" horiz-adv-x="996" />
<glyph unicode="&#x2003;" horiz-adv-x="1993" />
<glyph unicode="&#x2004;" horiz-adv-x="664" />
<glyph unicode="&#x2005;" horiz-adv-x="498" />
<glyph unicode="&#x2006;" horiz-adv-x="332" />
<glyph unicode="&#x2007;" horiz-adv-x="332" />
<glyph unicode="&#x2008;" horiz-adv-x="249" />
<glyph unicode="&#x2009;" horiz-adv-x="398" />
<glyph unicode="&#x200a;" horiz-adv-x="110" />
<glyph unicode="&#x2010;" horiz-adv-x="737" d="M74 532v152h590v-152h-590z" />
<glyph unicode="&#x2011;" horiz-adv-x="737" d="M74 532v152h590v-152h-590z" />
<glyph unicode="&#x2012;" horiz-adv-x="737" d="M74 532v152h590v-152h-590z" />
<glyph unicode="&#x2013;" horiz-adv-x="860" d="M25 545v139h811v-139h-811z" />
<glyph unicode="&#x2014;" horiz-adv-x="1720" d="M25 545v139h1671v-139h-1671z" />
<glyph unicode="&#x2018;" horiz-adv-x="512" d="M377 1540l12 -117q-84 -20 -131 -76.5t-41 -132.5h168v-229h-88q-107 0 -162 93q-52 88 -27 203q28 130 140 205q57 37 129 54z" />
<glyph unicode="&#x2019;" horiz-adv-x="512" d="M135 961l-12 116q84 20 131 76.5t41 132.5h-168v230h88q107 0 162 -93q52 -88 27 -203q-28 -130 -140 -205q-57 -37 -129 -54z" />
<glyph unicode="&#x201a;" horiz-adv-x="536" d="M147 -326l-12 117q84 20 131 76.5t41 132.5h-168v229h88q107 0 162 -93q52 -88 27 -203q-28 -130 -140 -205q-57 -37 -129 -54z" />
<glyph unicode="&#x201c;" horiz-adv-x="909" d="M377 1540l12 -117q-84 -20 -131 -76.5t-41 -132.5h168v-229h-88q-107 0 -162 93q-52 88 -27 203q28 130 140 205q57 37 129 54zM774 1540l12 -117q-84 -20 -131 -76.5t-41 -132.5h168v-229h-88q-107 0 -162 93q-52 88 -27 203q28 130 140 205q57 37 129 54z" />
<glyph unicode="&#x201d;" horiz-adv-x="909" d="M135 961l-12 116q84 20 131 76.5t41 132.5h-168v230h88q107 0 162 -93q52 -88 27 -203q-28 -130 -140 -205q-57 -37 -129 -54zM532 961l-12 116q84 20 131 76.5t41 132.5h-168v230h88q107 0 162 -93q52 -88 27 -203q-28 -130 -140 -205q-57 -37 -129 -54z" />
<glyph unicode="&#x201e;" horiz-adv-x="909" d="M135 -326l-12 117q84 20 131 76.5t41 132.5h-168v229h88q107 0 162 -93q52 -88 27 -203q-28 -130 -140 -205q-57 -37 -129 -54zM532 -326l-12 117q84 20 131 76.5t41 132.5h-168v229h88q107 0 162 -93q52 -88 27 -203q-28 -130 -140 -205q-57 -37 -129 -54z" />
<glyph unicode="&#x2020;" horiz-adv-x="933" d="M78 836v172q123 66 299 82v430h180v-430q173 -16 299 -82v-172q-132 77 -299 92v-1172h-180v1172q-170 -16 -299 -92z" />
<glyph unicode="&#x2021;" horiz-adv-x="933" d="M88 881v163q126 66 291 82v394h176v-394q165 -16 291 -82v-163q-136 79 -291 94v-787q161 19 291 97v-162q-124 -68 -291 -84v-393h-176v393q-167 16 -291 84v162q127 -78 291 -97v787q-158 -15 -291 -94z" />
<glyph unicode="&#x2022;" horiz-adv-x="847" d="M664 565h-480v455h480v-455z" />
<glyph unicode="&#x2026;" horiz-adv-x="1720" d="M389 0h-242v229h242v-229zM979 0h-242v229h242v-229zM1573 0h-242v229h242v-229z" />
<glyph unicode="&#x202f;" horiz-adv-x="398" />
<glyph unicode="&#x2030;" horiz-adv-x="2179" d="M84 0l1108 1483h151l-1107 -1483h-152zM1030 -37q-144 0 -243 107t-99 268t99 267t243 106q143 0 241.5 -106t98.5 -267t-98.5 -268t-241.5 -107zM1030 92q84 0 139.5 69t55.5 177q0 110 -56.5 177t-138.5 67q-85 0 -140.5 -68t-55.5 -176t56.5 -177t139.5 -69zM397 772 q-143 0 -241.5 107t-98.5 268q0 160 99 266.5t241 106.5q144 0 243 -106.5t99 -266.5q0 -161 -99 -268t-243 -107zM397 901q86 0 141.5 68.5t55.5 177.5q0 108 -57 176t-140 68q-84 0 -139 -68t-55 -176q0 -109 56.5 -177.5t137.5 -68.5zM1790 -37q-144 0 -243 107t-99 268 t99 267t243 106q143 0 241.5 -106t98.5 -267t-98.5 -268t-241.5 -107zM1790 92q84 0 139.5 69t55.5 177q0 110 -56.5 177t-138.5 67q-85 0 -141 -68t-56 -176t57 -177t140 -69z" />
<glyph unicode="&#x2039;" horiz-adv-x="598" d="M74 514v174l403 377v-201l-276 -260v-8l276 -262v-205z" />
<glyph unicode="&#x203a;" horiz-adv-x="598" d="M524 680v-174l-403 -377v201l276 260v8l-276 262v205z" />
<glyph unicode="&#x2044;" horiz-adv-x="1073" d="M-49 -55l1007 1575h164l-1007 -1575h-164z" />
<glyph unicode="&#x205f;" horiz-adv-x="498" />
<glyph unicode="&#x2070;" horiz-adv-x="794" d="M403 723q-140 0 -232.5 109t-92.5 282t92.5 281t232.5 108q142 0 234 -108t92 -281t-92 -282t-234 -109zM403 850q78 0 129.5 72t51.5 192q0 122 -52 192t-129 70t-127.5 -70.5t-50.5 -191.5q0 -120 51.5 -192t126.5 -72z" />
<glyph unicode="&#x2074;" horiz-adv-x="794" d="M436 743v162h-354v119l354 467h146v-477h106v-109h-106v-162h-146zM213 1014h223v301z" />
<glyph unicode="&#x20ac;" d="M106 819v125h125q39 271 177.5 416t336.5 145q181 0 302 -117t145 -296l-170 -15q-24 122 -98.5 198.5t-178.5 76.5q-128 0 -214 -104t-115 -304h575l-26 -125h-559q-3 -37 -3 -78q0 -39 3 -77h524l-27 -125h-487q29 -201 115 -304.5t214 -103.5q104 0 178 74.5t99 197.5 l170 -14q-26 -180 -146 -296t-301 -116q-198 0 -336.5 145.5t-177.5 416.5h-125v125h115q-2 25 -2 77q0 51 2 78h-115z" />
<glyph unicode="&#x2122;" horiz-adv-x="1761" d="M328 743v623h-262v117h653v-117h-262v-623h-129zM840 743v740h190l225 -574h7l229 574h186v-740h-123v605h-4l-241 -605h-101l-241 605h-4v-605h-123z" />
<glyph unicode="&#x2126;" horiz-adv-x="1679" d="M84 0v145h348q-137 89 -220 240.5t-83 364.5q0 164 52 304t145 239.5t225.5 155.5t288.5 56q207 0 369 -96t251.5 -268t89.5 -391q0 -213 -83.5 -364.5t-221.5 -240.5h350v-145h-632v145h8q73 4 145 50t129 122t92 187.5t35 236.5q0 271 -147.5 443t-384.5 172 q-238 0 -385.5 -172t-147.5 -443q0 -125 35.5 -236.5t92.5 -187.5t129 -122t145 -50h8v-145h-633z" />
<glyph unicode="&#x2190;" horiz-adv-x="2048" d="M565 1065h209l-131 -131q-116 -116 -264 -240q297 15 383 15h1102v-148h-1102q-145 0 -383 12q146 -121 264 -237l131 -131h-209l-381 381v98z" />
<glyph unicode="&#x2191;" horiz-adv-x="1024" d="M942 1135v-209l-131 131q-116 116 -240 264q15 -298 15 -383v-1102h-148v1102q0 123 13 381q-116 -140 -238 -262l-131 -131v209l381 381h98z" />
<glyph unicode="&#x2192;" horiz-adv-x="2048" d="M1274 1065h209l381 -381v-98l-381 -381h-209l131 131q116 116 262 237q-238 -12 -381 -12h-1102v148h1102q86 0 383 -15q-148 124 -264 240z" />
<glyph unicode="&#x2193;" horiz-adv-x="1024" d="M942 426v-209l-381 -381h-98l-381 381v209l131 -131q122 -124 238 -264q-13 258 -13 383v1102h148v-1102q0 -86 -15 -383q124 148 240 264z" />
<glyph unicode="&#x2202;" horiz-adv-x="1239" d="M618 -20q-221 0 -361 153t-140 395t138 392.5t341 150.5q198 0 309 -143h8q-52 175 -197 328.5t-341 259.5l200 8q85 -48 161 -111.5t147 -151t122.5 -189t82 -230.5t30.5 -269q0 -144 -39 -258.5t-107.5 -186.5t-158.5 -110t-195 -38zM618 115q145 0 238.5 113.5 t93.5 312.5q0 181 -96 289t-238 108q-141 0 -237 -112.5t-96 -297.5q0 -186 95 -299.5t240 -113.5z" />
<glyph unicode="&#x2206;" horiz-adv-x="1329" d="M0 0l571 1485h187l571 -1485h-1329zM223 145h883l-436 1153h-8z" />
<glyph unicode="&#x220f;" horiz-adv-x="1298" d="M129 -270v143l408 889l-377 780v146h946v-146h-756l377 -780l-408 -889h836v-143h-1026z" />
<glyph unicode="&#x2211;" horiz-adv-x="1404" d="M283 -270v1812h-217v150h1273v-150h-217v-1812h-174v1812h-491v-1812h-174z" />
<glyph unicode="&#x2212;" horiz-adv-x="1216" d="M1094 539h-971v143h971v-143z" />
<glyph unicode="&#x221a;" horiz-adv-x="1366" d="M408 0l-191 641h-151v141h264l174 -618h14l488 1622h426v-141h-310l-506 -1645h-208z" />
<glyph unicode="&#x221e;" horiz-adv-x="1740" d="M1272 332q-65 0 -127.5 22t-113 60t-89.5 78.5t-72 87.5q-32 -46 -71 -87t-89.5 -79t-112.5 -60t-126 -22q-173 0 -289 111t-116 282q0 169 116 281t289 112q122 0 225 -73.5t174 -176.5q33 47 72 87.5t89.5 79t113 61t127.5 22.5q172 0 287.5 -111.5t115.5 -281.5 q0 -171 -115 -282t-288 -111zM475 492q64 0 127 32.5t103 74.5t65 78t25 48q0 8 -15 33.5t-45 59.5t-67.5 65t-89 53t-103.5 22q-97 0 -165 -67.5t-68 -165.5q0 -99 68 -166t165 -67zM1266 492q100 0 166.5 66.5t66.5 166.5q0 99 -67 166t-166 67q-64 0 -126.5 -32.5 t-102.5 -75t-64.5 -78.5t-24.5 -47q0 -12 24.5 -48t64.5 -78t102.5 -74.5t126.5 -32.5z" />
<glyph unicode="&#x222b;" horiz-adv-x="489" d="M430 1704q61 0 115 -14l-6 -136q-52 9 -86 9q-65 0 -97 -38t-32 -130v-1389q0 -153 -65 -223t-200 -70q-60 0 -114 13l6 137q58 -10 86 -10q65 0 98 39t33 131v636v750q0 154 63.5 224.5t198.5 70.5z" />
<glyph unicode="&#x2243;" horiz-adv-x="1216" d="M119 328v143h979v-143h-979zM127 678l-8 162q98 110 239 110q62 0 134.5 -19.5t127 -43t121.5 -43t119 -19.5q123 0 230 129l8 -161q-99 -111 -238 -111q-63 0 -135.5 19.5t-127 43t-121 43t-118.5 19.5q-124 0 -231 -129z" />
<glyph unicode="&#x2248;" horiz-adv-x="1216" d="M127 262l-8 141q94 129 239 129q78 0 170.5 -31t179.5 -62t152 -31q125 0 230 127l8 -142q-94 -129 -238 -129q-63 0 -135.5 19.5t-127 43t-121 43t-118.5 19.5q-126 0 -231 -127zM127 668l-8 141q94 129 239 129q62 0 134.5 -19.5t127 -43t121.5 -43t119 -19.5 q125 0 230 127l8 -141q-94 -129 -238 -129q-63 0 -135.5 19.5t-127 43t-121 43t-118.5 19.5q-126 0 -231 -127z" />
<glyph unicode="&#x2260;" horiz-adv-x="1216" d="M131 741v142h537l100 194h143l-100 -194h276v-142h-348l-118 -233h466v-139h-538l-98 -195h-144l99 195h-275v139h346l119 233h-465z" />
<glyph unicode="&#x2264;" horiz-adv-x="1216" d="M150 123v141h899v-141h-899zM150 653v178l899 316v-152l-736 -250v-8l736 -241v-158z" />
<glyph unicode="&#x2265;" horiz-adv-x="1216" d="M1067 264v-141h-899v141h899zM1067 831v-178l-899 -315v158l735 241v8l-735 250v152z" />
<glyph unicode="&#x22c5;" horiz-adv-x="536" d="M389 631h-242v229h242v-229z" />
<glyph unicode="&#x25ca;" horiz-adv-x="1210" d="M604 -35l-541 776l541 777l541 -777zM604 199l371 542l-371 543l-371 -543z" />
<glyph unicode="&#x25fc;" horiz-adv-x="1075" d="M0 1075h1075v-1075h-1075v1075z" />
<glyph horiz-adv-x="1253" d="M37 0l481 1163h217l482 -1163h-203l-131 326h-521l-129 -326h-196zM621 969l-191 -475h387l-188 475h-8z" />
<glyph horiz-adv-x="1234" d="M154 0v1163h567q149 0 250.5 -85.5t101.5 -221.5q0 -81 -38 -142t-97 -96v-8q72 -37 119 -104.5t47 -167.5q0 -153 -103 -245.5t-264 -92.5h-583zM340 168h373q93 0 149 47t56 129q0 85 -55.5 130.5t-149.5 45.5h-373v-352zM340 684h367q85 0 134.5 42t49.5 114 q0 73 -49.5 115t-134.5 42h-367v-313z" />
<glyph horiz-adv-x="1273" d="M672 -20q-162 0 -295 77.5t-209 215.5t-76 309t76 309t209 215.5t295 77.5q207 0 348 -123t170 -305l-184 -17q-28 123 -117.5 198t-218.5 75q-162 0 -275.5 -122t-113.5 -308q0 -185 113.5 -307.5t275.5 -122.5q130 0 220.5 76.5t117.5 201.5l184 -14 q-30 -188 -171 -312t-349 -124z" />
<glyph horiz-adv-x="1290" d="M154 0v1163h444q265 0 431.5 -157.5t166.5 -417.5q0 -261 -167 -424.5t-431 -163.5h-444zM340 172h246q193 0 308.5 114.5t115.5 301.5q0 185 -115.5 295t-308.5 110h-246v-821z" />
<glyph horiz-adv-x="1128" d="M154 0v1163h878v-168h-692v-305h625v-166h-625v-350h694v-174h-880z" />
<glyph horiz-adv-x="1087" d="M154 0v1163h864v-172h-678v-317h641v-168h-641v-506h-186z" />
<glyph horiz-adv-x="1341" d="M692 -20q-263 0 -431.5 170t-168.5 432q0 171 78 309t215 215.5t305 77.5q205 0 335.5 -100.5t168.5 -249.5l-180 -31q-29 88 -112.5 148.5t-213.5 60.5q-175 0 -291 -122t-116 -308t115 -309t296 -123q117 0 206 51t132 123v145h-336v164h516v-359q-25 -51 -71 -101 t-110 -94t-152.5 -71.5t-184.5 -27.5z" />
<glyph horiz-adv-x="1306" d="M154 0v1163h186v-465h627v465h186v-1163h-186v526h-627v-526h-186z" />
<glyph horiz-adv-x="493" d="M154 0v1163h186v-1163h-186z" />
<glyph horiz-adv-x="1089" d="M500 -20q-192 0 -315.5 104.5t-123.5 286.5v69l179 9v-50q0 -128 72.5 -188.5t187.5 -60.5q111 0 185.5 69.5t74.5 192.5v751h186v-772q0 -185 -128.5 -298t-317.5 -113z" />
<glyph horiz-adv-x="1191" d="M956 0l-477 504l-139 -133v-371h-186v1163h186v-590l39 37l569 553h232l-570 -553l582 -610h-236z" />
<glyph horiz-adv-x="1052" d="M154 0v1163h186v-989h664v-174h-850z" />
<glyph horiz-adv-x="1654" d="M154 0v1163h264l405 -930h8l414 930h256v-1163h-184v934h-8l-410 -934h-147l-410 934h-8v-934h-180z" />
<glyph horiz-adv-x="1323" d="M154 0v1163h204l619 -884h8v884h184v-1163h-204l-619 887h-8v-887h-184z" />
<glyph horiz-adv-x="1357" d="M678 -20q-171 0 -305.5 79.5t-207.5 216.5t-73 306t73 306t207.5 216.5t305.5 79.5t305.5 -79.5t207.5 -216.5t73 -306t-73 -306t-207.5 -216.5t-305.5 -79.5zM678 150q176 0 287.5 124t111.5 308t-111.5 308t-287.5 124q-177 0 -288 -123.5t-111 -308.5t111 -308.5 t288 -123.5z" />
<glyph horiz-adv-x="1165" d="M154 0v1163h475q190 0 316 -98.5t126 -269.5q0 -111 -60.5 -195.5t-158.5 -127t-215 -42.5h-297v-430h-186zM340 598h285q118 0 187 48.5t69 148.5q0 99 -70.5 149.5t-185.5 50.5h-285v-397z" />
<glyph horiz-adv-x="1357" d="M678 -20q-171 0 -305.5 79.5t-207.5 216.5t-73 306t73 306t207.5 216.5t305.5 79.5t305.5 -79.5t207.5 -216.5t73 -306q0 -233 -154 -408q87 -94 207 -104l-21 -148q-106 8 -169.5 49t-118.5 113q-145 -104 -330 -104zM686 311l21 152q104 -7 171.5 -46t122.5 -106 q76 115 76 271q0 184 -111.5 308t-287.5 124q-177 0 -288 -123.5t-111 -308.5t111 -308.5t288 -123.5q133 0 225 65q-83 83 -217 96z" />
<glyph horiz-adv-x="1212" d="M154 0v1163h520q179 0 293 -96.5t114 -257.5q0 -137 -96 -220t-237 -102q78 -44 141 -122l291 -365h-230l-264 330q-62 78 -119 101.5t-172 23.5h-55v-455h-186zM340 618h311q114 0 180 53.5t66 135.5q0 81 -64 134.5t-169 53.5h-324v-377z" />
<glyph horiz-adv-x="1187" d="M592 -20q-211 0 -344 96.5t-148 281.5l179 15q12 -118 96 -174t223 -56q127 0 213 54.5t86 132.5q0 64 -56.5 101.5t-181.5 64.5l-172 36q-185 39 -275.5 108.5t-90.5 195.5q0 147 134 247.5t339 100.5q196 0 329.5 -95.5t145.5 -263.5l-178 -16q-13 108 -93.5 159.5 t-207.5 51.5q-119 0 -201 -51.5t-82 -124.5q0 -61 53.5 -95.5t171.5 -60.5l177 -39q188 -41 282 -112t94 -199q0 -157 -139.5 -257.5t-353.5 -100.5z" />
<glyph horiz-adv-x="1126" d="M469 0v991h-403v172h995v-172h-406v-991h-186z" />
<glyph d="M649 -14q-238 0 -372 118.5t-134 331.5v727h185v-717q0 -143 82.5 -215.5t238.5 -72.5q155 0 238.5 72.5t83.5 215.5v717h180v-727q0 -212 -132 -331t-370 -119z" />
<glyph horiz-adv-x="1179" d="M500 0l-463 1163h201l350 -911h8l350 911h197l-465 -1163h-178z" />
<glyph horiz-adv-x="1720" d="M1139 0l-273 901h-8l-268 -901h-205l-340 1163h188l259 -915h8l268 915h193l274 -915h8l252 915h180l-336 -1163h-200z" />
<glyph horiz-adv-x="1163" d="M39 0l424 596l-412 567h215l318 -452l317 452h211l-412 -567l424 -596h-215l-329 477l-330 -477h-211z" />
<glyph horiz-adv-x="1239" d="M526 0v457l-477 706h217l352 -526h9l350 526h213l-475 -706v-457h-189z" />
<glyph horiz-adv-x="1138" d="M96 0v143l692 850h-686v170h936v-141l-692 -850h698v-172h-948z" />
<glyph horiz-adv-x="1173" d="M154 0v1190h186v-189h313q192 0 309 -99t117 -277q0 -177 -116 -278t-301 -101h-322v-246h-186zM340 406h301q116 0 183 55.5t67 159.5q0 106 -68 162.5t-182 56.5h-301v-434z" />
<glyph horiz-adv-x="1357" d="M252 -209l117 270q-130 77 -203.5 214.5t-73.5 306.5t73 306t207.5 216.5t305.5 79.5q75 0 170 -25l92 213h164l-119 -270q130 -79 204.5 -216t74.5 -304q0 -169 -73 -306t-207.5 -216.5t-305.5 -79.5q-87 0 -170 22l-90 -211h-166zM279 582q0 -112 42 -205t119 -152 l338 776q-50 13 -100 13q-177 0 -288 -123.5t-111 -308.5zM678 150q176 0 287.5 124t111.5 308q0 109 -43.5 202t-120.5 152l-335 -776q39 -10 100 -10z" />
<glyph horiz-adv-x="1353" d="M49 520v148h168v495h445q265 0 431.5 -157.5t166.5 -417.5q0 -261 -167 -424.5t-431 -163.5h-445v520h-168zM403 172h246q193 0 308.5 114.5t115.5 301.5q0 185 -115.5 295t-308.5 110h-246v-325h297v-148h-297v-348z" />
<glyph horiz-adv-x="1376" d="M143 0v782q0 127 65.5 219t176.5 137.5t254 45.5q94 0 177.5 -20.5t138 -51.5t87.5 -57t50 -47v-13l-166 -247v-9q157 -25 252.5 -113.5t95.5 -244.5q0 -191 -133.5 -295t-349.5 -104q-75 0 -149.5 10.5t-111.5 21.5l-38 11l26 155q125 -41 264 -41q140 0 224 64t84 180 q0 112 -80.5 167.5t-266.5 65.5v115l150 227q-109 70 -254 70q-139 0 -224 -67.5t-85 -184.5v-776h-187z" />
<glyph horiz-adv-x="1253" d="M37 0l481 1163h217l482 -1163h-203l-131 326h-521l-129 -326h-196zM621 969l-191 -475h387l-188 475h-8zM504 1257l266 304h180l-266 -304h-180z" />
<glyph horiz-adv-x="1253" d="M37 0l481 1163h217l482 -1163h-203l-131 326h-521l-129 -326h-196zM621 969l-191 -475h387l-188 475h-8zM559 1561h115l297 -299h-185l-161 176h-9l-159 -176h-178z" />
<glyph horiz-adv-x="1253" d="M37 0l481 1163h217l482 -1163h-203l-131 326h-521l-129 -326h-196zM621 969l-191 -475h387l-188 475h-8zM930 1286h-182v230h182v-230zM498 1286h-183v230h183v-230z" />
<glyph horiz-adv-x="1253" d="M37 0l481 1163h217l482 -1163h-203l-131 326h-521l-129 -326h-196zM621 969l-191 -475h387l-188 475h-8zM553 1257l-266 304h180l266 -304h-180z" />
<glyph horiz-adv-x="1253" d="M37 0l481 1163h217l482 -1163h-203l-131 326h-521l-129 -326h-196zM627 1204q-105 0 -173.5 63.5t-68.5 159.5q0 97 68.5 161.5t173.5 64.5q106 0 173.5 -64t67.5 -162q0 -96 -67.5 -159.5t-173.5 -63.5zM621 969l-191 -475h387l-188 475h-8zM627 1292q61 0 101 38t40 97 q0 63 -40 100.5t-101 37.5t-102.5 -37.5t-41.5 -100.5q0 -59 42 -97t102 -38z" />
<glyph horiz-adv-x="1253" d="M37 0l481 1163h217l482 -1163h-203l-131 326h-521l-129 -326h-196zM768 1292q-40 0 -83 17.5t-73.5 39t-64.5 39t-58 17.5q-72 0 -86 -115l-110 8q11 112 61.5 175t137.5 63q41 0 84.5 -17.5t73.5 -39t63.5 -39t56.5 -17.5q75 0 88 115l109 -8q-12 -120 -60.5 -179 t-138.5 -59zM621 969l-191 -475h387l-188 475h-8z" />
<glyph horiz-adv-x="1273" d="M602 -184v57l62 107q-160 2 -291 79.5t-206 215t-75 307.5q0 171 76 309t209 215.5t295 77.5q207 0 348 -123t170 -305l-184 -17q-28 123 -117.5 198t-218.5 75q-162 0 -275.5 -122t-113.5 -308q0 -185 113.5 -307.5t275.5 -122.5q130 0 220.5 76.5t117.5 201.5l184 -14 q-25 -157 -130.5 -272t-264.5 -150l-56 -92q97 -9 148 -45.5t51 -108.5q0 -79 -71.5 -127.5t-200.5 -48.5q-47 0 -93.5 8t-68.5 16l-23 7l17 108q77 -28 159 -28q66 0 104 16.5t38 48.5q0 23 -14 37t-59 22.5t-126 8.5z" />
<glyph horiz-adv-x="1128" d="M412 1257l266 304h180l-266 -304h-180zM154 0v1163h878v-168h-692v-305h625v-166h-625v-350h694v-174h-880z" />
<glyph horiz-adv-x="1128" d="M524 1561h115l297 -299h-184l-162 176h-8l-160 -176h-178zM154 0v1163h878v-168h-692v-305h625v-166h-625v-350h694v-174h-880z" />
<glyph horiz-adv-x="1128" d="M457 1286h-183v230h183v-230zM889 1286h-182v230h182v-230zM154 0v1163h878v-168h-692v-305h625v-166h-625v-350h694v-174h-880z" />
<glyph horiz-adv-x="1128" d="M555 1257l-266 304h180l266 -304h-180zM154 0v1163h878v-168h-692v-305h625v-166h-625v-350h694v-174h-880z" />
<glyph horiz-adv-x="505" d="M139 1274l267 303h180l-267 -303h-180zM160 0v1163h186v-1163h-186z" />
<glyph horiz-adv-x="505" d="M197 1552h114l297 -299h-184l-162 177h-8l-160 -177h-178zM160 0v1163h186v-1163h-186z" />
<glyph horiz-adv-x="505" d="M127 1286h-182v230h182v-230zM559 1286h-182v230h182v-230zM160 0v1163h186v-1163h-186z" />
<glyph horiz-adv-x="505" d="M203 1274l-266 303h180l266 -303h-180zM160 0v1163h186v-1163h-186z" />
<glyph horiz-adv-x="1323" d="M793 1290q-40 0 -83 17.5t-73.5 39t-64.5 39t-58 17.5q-72 0 -86 -115l-111 8q11 112 61.5 175t137.5 63q41 0 84.5 -17.5t73.5 -39t64 -39t57 -17.5q75 0 88 115l108 -8q-12 -120 -60 -179t-138 -59zM154 0v1163h204l619 -884h8v884h184v-1163h-204l-619 887h-8v-887 h-184z" />
<glyph horiz-adv-x="1357" d="M535 1257l266 304h180l-266 -304h-180zM678 -20q-171 0 -305.5 79.5t-207.5 216.5t-73 306t73 306t207.5 216.5t305.5 79.5t305.5 -79.5t207.5 -216.5t73 -306t-73 -306t-207.5 -216.5t-305.5 -79.5zM678 150q176 0 287.5 124t111.5 308t-111.5 308t-287.5 124 q-177 0 -288 -123.5t-111 -308.5t111 -308.5t288 -123.5z" />
<glyph horiz-adv-x="1357" d="M614 1561h115l297 -299h-184l-162 176h-8l-160 -176h-178zM678 -20q-171 0 -305.5 79.5t-207.5 216.5t-73 306t73 306t207.5 216.5t305.5 79.5t305.5 -79.5t207.5 -216.5t73 -306t-73 -306t-207.5 -216.5t-305.5 -79.5zM678 150q176 0 287.5 124t111.5 308t-111.5 308 t-287.5 124q-177 0 -288 -123.5t-111 -308.5t111 -308.5t288 -123.5z" />
<glyph horiz-adv-x="1357" d="M555 1286h-182v230h182v-230zM987 1286h-182v230h182v-230zM678 -20q-171 0 -305.5 79.5t-207.5 216.5t-73 306t73 306t207.5 216.5t305.5 79.5t305.5 -79.5t207.5 -216.5t73 -306t-73 -306t-207.5 -216.5t-305.5 -79.5zM678 150q176 0 287.5 124t111.5 308t-111.5 308 t-287.5 124q-177 0 -288 -123.5t-111 -308.5t111 -308.5t288 -123.5z" />
<glyph horiz-adv-x="1357" d="M604 1257l-266 304h180l266 -304h-180zM678 -20q-171 0 -305.5 79.5t-207.5 216.5t-73 306t73 306t207.5 216.5t305.5 79.5t305.5 -79.5t207.5 -216.5t73 -306t-73 -306t-207.5 -216.5t-305.5 -79.5zM678 150q176 0 287.5 124t111.5 308t-111.5 308t-287.5 124 q-177 0 -288 -123.5t-111 -308.5t111 -308.5t288 -123.5z" />
<glyph horiz-adv-x="1357" d="M821 1270q-51 0 -104.5 28t-98.5 56t-75 28q-73 0 -86 -114l-111 8q11 112 61.5 174.5t137.5 62.5q52 0 106 -28t98.5 -56t73.5 -28q75 0 88 115l109 -9q-12 -120 -60.5 -178.5t-138.5 -58.5zM678 -20q-171 0 -305.5 79.5t-207.5 216.5t-73 306t73 306t207.5 216.5 t305.5 79.5t305.5 -79.5t207.5 -216.5t73 -306t-73 -306t-207.5 -216.5t-305.5 -79.5zM678 150q176 0 287.5 124t111.5 308t-111.5 308t-287.5 124q-177 0 -288 -123.5t-111 -308.5t111 -308.5t288 -123.5z" />
<glyph horiz-adv-x="1187" d="M672 1249h-135l-263 303h181l147 -188h8l148 188h176zM592 -20q-211 0 -344 96.5t-148 281.5l179 15q12 -118 96 -174t223 -56q127 0 213 54.5t86 132.5q0 64 -56.5 101.5t-181.5 64.5l-172 36q-185 39 -275.5 108.5t-90.5 195.5q0 147 134 247.5t339 100.5 q196 0 329.5 -95.5t145.5 -263.5l-178 -16q-13 108 -93.5 159.5t-207.5 51.5q-119 0 -201 -51.5t-82 -124.5q0 -61 53.5 -95.5t171.5 -60.5l177 -39q188 -41 282 -112t94 -199q0 -157 -139.5 -257.5t-353.5 -100.5z" />
<glyph d="M520 1221l266 303h181l-267 -303h-180zM649 -14q-238 0 -372 118.5t-134 331.5v727h185v-717q0 -143 82.5 -215.5t238.5 -72.5q155 0 238.5 72.5t83.5 215.5v717h180v-727q0 -212 -132 -331t-370 -119z" />
<glyph d="M569 1561h115l297 -299h-184l-162 176h-8l-160 -176h-178zM649 -14q-238 0 -372 118.5t-134 331.5v727h185v-717q0 -143 82.5 -215.5t238.5 -72.5q155 0 238.5 72.5t83.5 215.5v717h180v-727q0 -212 -132 -331t-370 -119z" />
<glyph d="M522 1286h-182v230h182v-230zM954 1286h-182v230h182v-230zM649 -14q-238 0 -372 118.5t-134 331.5v727h185v-717q0 -143 82.5 -215.5t238.5 -72.5q155 0 238.5 72.5t83.5 215.5v717h180v-727q0 -212 -132 -331t-370 -119z" />
<glyph d="M590 1245l-266 303h180l266 -303h-180zM649 -14q-238 0 -372 118.5t-134 331.5v727h185v-717q0 -143 82.5 -215.5t238.5 -72.5q155 0 238.5 72.5t83.5 215.5v717h180v-727q0 -212 -132 -331t-370 -119z" />
<glyph horiz-adv-x="1239" d="M504 1221l266 303h180l-266 -303h-180zM526 0v457l-477 706h217l352 -526h9l350 526h213l-475 -706v-457h-189z" />
<glyph horiz-adv-x="1239" d="M498 1286h-183v230h183v-230zM930 1286h-182v230h182v-230zM526 0v457l-477 706h217l352 -526h9l350 526h213l-475 -706v-457h-189z" />
<glyph horiz-adv-x="1138" d="M633 1245h-135l-262 303h180l147 -188h8l148 188h176zM96 0v143l692 850h-686v170h936v-141l-692 -850h698v-172h-948z" />
<glyph horiz-adv-x="1058" d="M-4 377v149l164 97v540h186v-432l219 129v-151l-219 -129v-406h664v-174h-850v471z" />
<glyph horiz-adv-x="1855" d="M946 0v322h-563l-203 -322h-198l731 1163h1052v-153h-635v-328h570v-150h-570v-376h639v-156h-823zM819 1010l-344 -545h471v545h-127z" />
<glyph horiz-adv-x="1894" d="M973 0v94q-117 -110 -314 -110q-157 0 -286 74.5t-205 212t-76 311.5t76 311.5t205 212t286 74.5q196 0 314 -111v94h833v-159h-649v-320h582v-154h-582v-368h651v-162h-835zM664 145q111 0 192.5 43t116.5 101v588q-39 55 -119.5 98t-189.5 43q-161 0 -272 -122 t-111 -314t111 -314.5t272 -122.5z" />
<glyph horiz-adv-x="1376" d="M143 0v782q0 127 65.5 219t176.5 137.5t254 45.5q94 0 177.5 -20.5t138 -51.5t87.5 -57t50 -47v-13l-166 -247v-9q157 -25 252.5 -113.5t95.5 -244.5q0 -191 -133.5 -295t-349.5 -104q-75 0 -149.5 10.5t-111.5 21.5l-38 11l26 155q125 -41 264 -41q140 0 224 64t84 180 q0 112 -80.5 167.5t-266.5 65.5v115l150 227q-109 70 -254 70q-139 0 -224 -67.5t-85 -184.5v-776h-187z" />
<glyph horiz-adv-x="1220" d="M219 -145l88 249q-99 97 -154 260t-55 377q0 351 144 556.5t368 205.5q98 0 183 -43l59 166h152l-91 -252q98 -98 153.5 -260t55.5 -373q0 -176 -39.5 -320.5t-108.5 -240.5t-162.5 -148t-201.5 -52q-96 0 -180 38l-57 -163h-154zM289 741q0 -280 90 -438l354 991 q-56 35 -123 35q-144 0 -232.5 -155t-88.5 -433zM610 154q145 0 233.5 154.5t88.5 432.5q0 277 -90 435l-353 -990q51 -32 121 -32z" />
<glyph horiz-adv-x="2308" d="M455 -129q-25 0 -42.5 18.5t-17.5 40.5q0 19 9.5 36.5t21.5 25.5q45 95 45 289q0 155 -33 290q-41 26 -53.5 33.5t-58 37.5t-66.5 46.5t-60 46.5t-59.5 52.5t-44 51t-33.5 55.5t-10 52q0 53 35 87t92 34q65 0 127.5 -40.5t109 -104t80 -133.5t50.5 -136 q209 -134 256 -166q40 101 122.5 284.5t90.5 201.5q-72 271 -72 411q0 97 45 167.5t133 70.5q79 0 120.5 -53t41.5 -133q0 -35 -3.5 -69.5t-13.5 -74t-16 -64.5t-24 -71t-24 -62t-28 -68.5t-26 -61.5q19 -71 57.5 -205t55.5 -197q2 1 74.5 47.5t145.5 93t91 56.5 q54 141 137.5 265t187.5 205t199 81q73 0 118.5 -37.5t45.5 -97.5q0 -37 -21.5 -77.5t-63 -81t-91 -80t-117.5 -83.5t-129 -81t-138 -83q-16 -9 -24 -14q-67 -194 -67 -379q0 -166 57 -240q88 -27 88 -90q0 -30 -18.5 -49.5t-44.5 -19.5q-53 0 -101 51q-199 51 -528 51 q-187 0 -313.5 -21t-227.5 -71q-21 -37 -67 -37zM1063 127q274 0 446 -31q-26 86 -26 201q0 133 33 278q-175 -108 -230 -151q4 -12 4 -21q0 -38 -23 -69t-61 -31q-37 0 -64.5 25t-27.5 61q0 21 11 45t30 35q-31 123 -86 309q-145 -323 -164 -377q31 -39 31 -67 q0 -37 -26 -60.5t-62 -23.5q-34 0 -61 23t-27 57q0 16 4 28q-75 56 -178 119q12 -89 12 -196q0 -123 -16 -211q180 57 481 57zM186 928q0 -20 60 -69.5t106 -76.5q-14 43 -68 104.5t-79 61.5q-19 0 -19 -20zM2128 1161q0 23 -31 23q-73 0 -179 -106t-142 -193 q122 69 237 157.5t115 118.5zM1071 1384q0 -72 27 -204q59 171 59 256q0 59 -39 59q-47 0 -47 -111z" />
</font>
</defs>
</svg>
